<svg xmlns="http://www.w3.org/2000/svg" xmlns:xlink="http://www.w3.org/1999/xlink" width="490" height="219" viewBox="0 0 490 219"><defs><path id="bp4oa" d="M886.42 1038.98c.15.48-.17.99-.7 1.13-.54.14-1.04-.12-1.16-.63-.12-.49.18-.94.7-1.08.51-.13 1.02.12 1.16.58zm11.61-7.93c-.55.15-1.05-.1-1.18-.6-.12-.46.19-.96.68-1.1.51-.14 1.06.14 1.18.62.12.49-.16.94-.68 1.08zm-27.43 7.42c.54-.14 1.07.14 1.18.62.09.44-.25.95-.74 1.08-.52.14-1.06-.15-1.17-.64-.11-.46.21-.93.73-1.06zm35.83-26.87c.11.44-.24.96-.73 1.09-.51.13-1.08-.18-1.18-.65-.09-.47.23-.95.73-1.08.52-.13 1.07.16 1.18.64zm-14.46-14.21a45 45 0 0 1-.08 4.79c-.02.29-.06.57.05.84 3.8-.31 6.72.97 8.71 3.92.68 1 .97 2.15 1.18 3.31.5 2.82.53 5.66.04 8.53a26.1 26.1 0 0 1-1.74 5.88c-.52 1.23-1.95 1.65-3.13.92-1.82-1.13-3.62-2.28-5.45-3.4-1.6-.99-3.19-1.99-4.67-3.14-.51.69-.95 1.4-1.2 2.2.47.47.54.9.22 1.3-.34.43-.75.48-1.42.21-.22.56-.7.98-.99 1.5-.06.11-.18.19-.14.33 1.73-.03 3.35.27 4.79 1.14 2 1.21 3.14 2.96 3.44 5.18.24 1.79-.84 3.35-2.86 4.25-2.57 1.15-5.26 1.89-8.06 2.13-2.99.26-4.57-1.11-5.03-3.79-.05-.24-.08-.49-.12-.73-.78.36-1.29 1.02-1.99 1.46-.31.19-.58.42-.86.64-.12.1-.23.14-.33 0-.09.08-.18.15-.27.23.06.22-.13.31-.28.42-2.08 1.47-4.15 2.94-6.23 4.42-.1.08-.22.16-.25.29.64.36 1.33.63 2.03.88 8.41 3.01 16.78 2.56 25-1.48 5.56-2.73 9.8-6.76 12.73-11.94 2.76-4.89 3.88-10.03 3.4-15.42-.07-.69-.29-1.36-.21-2.07-.33-1.23-.65-2.45-.98-3.68-.31-.62-.57-1.26-.93-1.85-3.11-5.13-7.82-7.68-14.37-7.27z"/><path id="bp4ob" d="M855.57 1013.48c-.54.14-1.08-.13-1.19-.6-.11-.46.26-1 .76-1.11.51-.12.97.15 1.1.64.13.49-.14.92-.67 1.07zm22 7.69c-.13-.46.21-1 .72-1.13.53-.14 1.02.14 1.14.66.12.49-.17.91-.71 1.05-.53.14-1.02-.11-1.15-.58zm12.53-19.74c-.5.13-1.01-.15-1.13-.61-.13-.48.15-.94.67-1.09.55-.16 1.04.09 1.18.59.14.5-.18.99-.72 1.11zm-26.43 7.03c-.51.14-1.07-.15-1.19-.62-.12-.47.23-.96.78-1.09.5-.12 1.02.17 1.13.62.11.45-.23.96-.72 1.09zm-10.08 17.2c-.15-.48.16-1 .67-1.15.49-.15 1.02.12 1.16.57.15.48-.14 1-.66 1.15-.47.14-1.03-.14-1.17-.57zm27.14-12.07c.12.44-.22.98-.69 1.11-.51.14-1.08-.15-1.2-.62-.12-.46.19-.96.69-1.1.52-.15 1.07.13 1.2.61zm-17.47-3.04c3.95-1.02 7.72.39 9.79 3.69 1.2 1.91 1.89 3.97 1.68 6.26-.16 1.64-.92 3.13-1.7 4.6-1.36 2.55-2.72 5.09-4.09 7.64-.74 1.38-2.34 1.68-3.44.62-2.2-2.12-4.38-4.25-6.14-6.72-1.26-1.77-2.33-3.64-2.87-5.74-1-3.9 1.36-8.19 5.41-9.88.45-.19.9-.34 1.36-.47zm12.24 22.23c-.03-2.26.75-4.25 2.52-5.87 1.47-1.38 3.28-2.07 5.3-2.28-.03-.14.08-.22.14-.33.29-.52.77-.94.99-1.5-.33-.37-.44-.78-.12-1.21.35-.47.83-.47 1.33-.31.25-.8.69-1.52 1.2-2.2-2.87-2.73-3.74-6.04-2.71-9.8.7-2.56 2.53-4.36 5.12-5.5.85-.37 1.73-.61 2.65-.72-.12-.27-.07-.56-.05-.84.14-1.6.15-3.2.1-4.8-1.71.15-3.36.54-4.94 1.23-4.37 1.92-7.28 5.01-8.73 9.28-.24.71-.31 1.45-.55 2.21-.11-.12-.18-.19-.25-.27-1.25-1.5-2.77-2.7-4.57-3.62-6.84-3.52-16.12-1.06-20.35 5.38-2.49 3.79-2.84 7.77-1.83 11.87.79 3.23 2.39 6.11 4.46 8.76 2.67 3.4 5.99 6.11 10.09 7.98.03-.14.14-.21.25-.29 2.08-1.47 4.15-2.95 6.23-4.42.15-.11.34-.2.28-.42-.28.07-.55.15-.84.04-.5-.19-.73-.63-.54-1.11.17-.43.68-.7 1.15-.6.48.11.79.57.67 1.05-.04.13-.12.26-.18.39.1.13.21.09.33 0 .28-.22.56-.45.86-.64.71-.44 1.22-1.11 1.99-1.46z"/><path id="bp4oc" d="M871.78 1002.94c.14.13.32.23.52.27-.17-.08-.34-.17-.52-.27z"/><path id="bp4od" d="M886.86 1019.05c-2.87-2.72-3.74-6.04-2.71-9.8.7-2.56 2.53-4.36 5.12-5.5.85-.37 1.73-.62 2.65-.72 3.8-.3 6.72.98 8.71 3.92.68 1 .97 2.15 1.18 3.31.51 2.82.53 5.66.04 8.53-.34 2.01-.93 3.97-1.74 5.88-.52 1.23-1.95 1.64-3.13.92-1.82-1.12-3.62-2.28-5.45-3.4-1.61-.99-3.2-1.99-4.67-3.14z"/><path id="bp4oe" d="M875.5 1032.78c-.04-2.26.75-4.25 2.53-5.91 1.48-1.38 3.28-2.07 5.3-2.28 1.73-.03 3.35.27 4.79 1.14 2 1.22 3.15 2.96 3.44 5.18.24 1.79-.84 3.35-2.86 4.25-2.57 1.15-5.26 1.89-8.06 2.13-2.98.25-4.57-1.11-5.03-3.79-.03-.23-.07-.48-.11-.72z"/><path id="bp4of" d="M906.43 1011.6c.1.44-.25.96-.73 1.09-.51.13-1.08-.18-1.18-.65-.1-.47.23-.96.73-1.08.53-.14 1.08.16 1.18.64z"/><path id="bp4og" d="M884.46 1022.76c-.33-.37-.45-.77-.12-1.21.35-.46.82-.47 1.33-.31.47.47.54.9.22 1.3-.35.44-.76.5-1.43.22z"/><path id="bp4oh" d="M870.6 1038.47c.54-.14 1.07.14 1.17.62.1.45-.25.96-.74 1.08-.52.14-1.05-.16-1.17-.64-.1-.46.22-.93.74-1.06z"/><path id="bp4oi" d="M872.06 1035.09c-.28.07-.55.15-.84.04-.5-.19-.73-.63-.54-1.11.17-.43.69-.7 1.15-.6.49.11.79.57.67 1.05-.03.14-.12.26-.18.39-.08.08-.17.16-.26.23z"/><path id="bp4oj" d="M898.71 1029.97c.13.48-.16.93-.68 1.08-.55.15-1.05-.1-1.18-.6-.12-.46.19-.96.68-1.1.51-.14 1.05.14 1.18.62z"/><path id="bp4ok" d="M885.26 1038.4c.5-.14 1.02.12 1.16.57.15.48-.17.98-.7 1.13-.54.15-1.04-.12-1.16-.63-.11-.48.18-.93.7-1.07z"/><path id="bp4ol" d="M863.26 1010.55c3.95-1.02 7.72.39 9.8 3.68 1.21 1.91 1.89 3.97 1.68 6.26-.15 1.64-.91 3.13-1.7 4.6-1.36 2.55-2.72 5.1-4.09 7.64-.74 1.38-2.34 1.68-3.44.62-2.2-2.12-4.38-4.26-6.14-6.72-1.26-1.77-2.33-3.64-2.87-5.74-1-3.9 1.36-8.19 5.41-9.88.44-.18.89-.33 1.35-.46z"/><path id="bp4om" d="M880.73 1013.59c.12.43-.22.97-.7 1.11-.5.14-1.07-.15-1.2-.62-.12-.46.2-.96.69-1.1.53-.14 1.08.14 1.21.61z"/><path id="bp4on" d="M854.76 1026.23c-.47.14-1.04-.14-1.17-.57-.15-.48.16-1.01.67-1.15.49-.14 1.02.12 1.16.57.16.48-.14 1-.66 1.15z"/><path id="bp4oo" d="M864.39 1007.37c.11.45-.23.96-.72 1.09-.51.14-1.07-.15-1.19-.62-.12-.47.23-.96.78-1.09.5-.12 1.02.17 1.13.62z"/><path id="bp4op" d="M890.82 1000.32c.13.49-.19.98-.72 1.11-.5.12-1.01-.15-1.13-.61-.13-.48.15-.94.67-1.09.55-.15 1.05.09 1.18.59z"/><path id="bp4oq" d="M878.72 1021.75c-.53.13-1.02-.11-1.15-.58-.13-.46.22-1 .72-1.13.53-.14 1.02.14 1.14.66.12.49-.17.91-.71 1.05z"/><path id="bp4or" d="M856.24 1012.41c.13.49-.14.92-.68 1.07-.54.15-1.07-.12-1.19-.6-.11-.46.26-1 .76-1.11.52-.12.99.15 1.11.64z"/><path id="bp4os" d="M1090.84 949.7c-4.92 2.72-10.01 5.11-15 7.7-3.6 1.86-7.31 1.98-11.12.88-.32-.09-.73-.34-.95-.23-8.24 3.98-17.74-.9-25.91 3.7-.78.44-1.96.48-2.88.3-4.7-.91-9.4-1.7-14.35-.88.63-7.79 8.31-7.74 11.87-11.92 3.54 2.17 6.26-.41 8.93-1.81 1.73 1.33-1.02 1.93-.05 3 2.81-.48 3.67-4.58 7.33-3.73-.27 2.4-2.97 2.78-3.7 5.13 3.56-3.31 8.02-4.48 11.99-2.8 3.37 1.43 5.45.17 8.91-2.14-1.27 1.92-1.73 2.62-2.73 4.15 2.21-1.37 3.57-2.21 4.94-3.05 1.25-.77 1.19-.7 2.71.63 1.29 1.12 2.5.05 3.64-.49 1.72-.81 3-2.76 5.32-2.04-.37 1.76-2.55 1.5-3.28 3.31 3.77-.47 6.61-3.48 10.51-3.34-1.12 2.55-4.05 2.59-5.69 5.1 7.67-2.49 14.14-6.46 21.24-8.89-3.22 3.75-7.72 5.2-11.73 7.42zm-75.2 4.65c3.67-3.18 8.65-4.11 12.41-7.21-2.52 5.31-6.74 7.59-12.41 7.21zm-5.79 3.38c-2.4.38-4.99 4.32-7.43-.39-.58-1.13-3.14 1.82-5.13-.18 3.88-4.92 8.2-9.12 14.84-10.4.2 2.06-1.65 1.9-2.4 2.75-.5.57-3.18-.49-1.48 1.6.79.97-1.65 3.41 1.57 3.1.81-.08 2.16.19 2.32 1.43.23 1.61-1.53 1.97-2.29 2.09zm-8.24 13.6c-.95.89-1.81 1.92-3.55 1.74-.66-1.85.48-2.81 1.1-3.88.71-1.23 1.08-2.84 2.75-3.18.27-.05.84.53.99.93.67 1.75.01 3.17-1.29 4.39zm-33.76 22.11c-.35-.03-.98-.77-.92-.89 1.47-2.8 4.34-2.88 7.52-4.01-1.14 4.17-3.47 5.21-6.6 4.9zm-11.77 8.67c-.75-.23-1.28-.59-1.1-1.27.14-.55.66-1.11 1.15-1.45 1.57-1.06 3.89.06 5.28-1.63 1.62-.03 2.4-2.32 4.3-1.68-.87 4.66-5.31 7.39-9.63 6.03zm-4.62-.67c-.36 2.37-2.22 2.57-4.35 2.69-1.54-.45-4.92-.05-4.41-2.12.62-2.5 4.32-1.18 6.56-1.98 1.11-.39 2.5-.54 2.2 1.41zm-10.62-4.95c2.81-.63 5.72-.97 8.59-.99.91-.01.41 1.32-.07 1.97-1.08 1.44-2.7 1.71-4.54 2.08-1.08-.38-2.34-.72-3.5-1.26-.78-.36-1.41-1.59-.48-1.8zm3.19-8c2.83.11 2.02 2.56 3.34 3.3-.35 2.4-2.01 2.62-3.65 2.78-1.05.11-2.25-1.22-1.79-1.32 3.09-.67-2.97-4.96 2.1-4.76zm-50.18 12.48c1.89-4.36 4.89-8.08 6.57-12.56.41-1.09 1.75-2.07 2.89-2.6 1.56-.73 3.71-1.9 4.81.32 1.09 2.18-10.6 10.71-14.27 14.84zm18.99-62.52c-1.8 1.93-3.66 2.82-5.74.67-3.85-3.99-9.24-4.26-14.16-5.43-4.61-1.1-9.03-3.91-14.19-1.78-2.26.93-3.97-1.13-5.7-2.39-3.31-2.42-5.98-2.33-7.52 1.97-1.06 2.96-2.85 1.12-4.28.57-2.51-.97-4.91-2.63-6.29 1.51-.6 1.8-2.5 1.23-3.96 1.15-4.64-.26-8.58-2.45-12.52-4.64-2.72-1.51-5.48-2.94-8.78-2.58-1.71.19-2.77-.64-3.36-2.3-1.96-5.5-5.16-9.3-11.69-9.4-4.21-.06-6.7-3.6-7.51-7.92-.66-3.46 1.16-8.13-3.74-10.01.7-1.68 1.24-3.35-.98-4.79 5.01.24 8.19 3.61 13.05 6.17-1.49-6.59-7.99-6.9-10.65-11.43 7.42 1.65 14.79 2 21.52 5.13.89-2.06-3.06-2.61-.94-4.34 1.81-1.48 2.34 1.1 3.51 1.7 1.27.66 2.44 1.5 3.94 2.45.68-3.28-3.12-3.5-3.42-6.58 5.12 2.32 8.88 5.54 12.31 9.22-.02 0-.03-.01-.04-.01.26 2.13.71 4.27.78 6.42.21 6.26 0 6.37-5.66 4.16-1.22-.48-2.46-1.29-3.51.31-.92 1.41.23 2.13.99 2.95 1.67 1.81 3.38 3.59 5.21 5.51-3.08.9-3.08.9-10.29-4.65-2.14 7.33-1.41 8.29 10.86 14.21-.51-1.82-3.07-2.05-3.11-4.36 4.41.53 7.3 4.01 11.64 4.76-2.2-1.45-4.01-3.22-5.6-6.01 4.15.6 6.26 3.79 10.23 5.95-2.48-4.6-5.72-7.53-7.12-12.3 3.83 1.95 4.81 6.16 8.37 7.68-.31-2.65-3.32-3.79-3.27-7.29 1.9 1.77 3.4 3.1 4.83 4.51.85.83 1.7 1.86 2.97 1.38 2.13-.8-1.1-2.25.62-3.46 3.62 2.62 7.13 5.61 11.15 10.18-1.02-3.96-3.93-5.49-3.36-8.77 2.76 1.05 3.17 4.15 5.5 5.78.88-2.97-3.08-4.19-2.2-7.24 3.11 1.87 4.29 5.35 6.84 7.45 1.49-1.45-1.11-2.75.2-4.48 3.23 2.52 5.2 6.13 8.77 10.17l-1.67-8.07c2.16.3 2.01 2.31 3.09 3.32 1.19-1.54-.65-2.94.21-4.48.42.19.83.31 1.17.53 1.82 1.25 1.12 5.88 5.76 3.68 1.62-.77 3.38 5.37 1.85 7.91 4.53.89 4.53.89 4.97-3.11 1.81-.11 2.07 2.07 3.63 2.42.16-.87.03-2.18.54-2.52 1.14-.76 1.65.6 2.22 1.31 1.33 1.65 1.31 1.62 4.3 2.18.52.1.96.83 1.37 1.33 1.84 2.26 1.85 2.19 4.84 2.75.69.13 1.28.98 1.84 1.58 1.84 1.99 1.82 1.48 4.69 1.43 2.15-.04 3.58 2.52 3.8 4.49.21 1.85.42 4.67-2.55 5.15-3.31.5-13.06-6.23-13.76-9.7zm-66.92-42.92c1.38.66 2.78 3.19 4.12 1.7 1.68-1.87-1.41-2.79-2.08-4.3-.25-.56-.93-.96-.26-2.04 1.97 1.28 3.95 2.58 6.31 4.12-.19-3.18-3-4.02-4.91-6.86 7.42 2.95 12.06 7.31 15.35 13.38.34-2.17-2.01-3.31-1.52-5.64 2.4.16 2.89 3 4.93 3.58 1.03-1.55-1.39-2.13-.88-3.83 3.29 1.04 5.68 3.55 8.8 5.6.53-2.62-2.26-3.65-1.64-6.91 4.11 3.98 8.56 6.65 9.49 12.71 2.67-5.23 4.58.87 7.24.14-.15-2.36-3.3-3.23-2.96-6.31 6.87 4.8 15.42 6.49 20.01 14.4l.82-.99-5.26-6.61c7.98 3.76 14.74 9.16 21.46 15.98.11-3.25-3.11-3.7-2.08-7.21 4.03 6.6 13.16 5.78 15.53 13.58.5 1.64 2.04.37 3.04.86 2.04 1 2.95 2.59 2.99 4.77.03 1.51-.67 2.61-2.09 3.04-2.24.68-3.34-.94-4.4-2.45-.96-1.35-1.84-2.75-3.06-4.58-3.73 6.61-5.64-.05-8.45-.83-.51-.14-.91-.95-1.2-1.53-1.07-2.1-2.12-4.7-4.31-5.28-3.12-.83-1.57 4.03-4.54 4.31-1.78-1.97-3.96-4-5.67-6.37-4.19-5.82-5.21-5.92-9.26-.19-2.87-3.55-6.67-6.04-9.72-9.47-4.4-4.94-6.32-4.28-8.42 1.54-5.4-2.87-10.88-5.59-15.83-9.26-1.96-1.45-2.86-.41-3.52 1.61-.49 1.49-.19 3.39-2.19 4.74-.96-3.05-2.85-3.81-5.94-4.55-4.45-1.06-9.19-3.39-11.17-8.55-.46-1.2-1.36-2.2-2.81-2.44 1.4-1.87 2.61-.56 4.08.14zm94.7 56.96c-.02.81-1.68.24-2.53-.33-1.81-1.23-3.77-2.02-5.94-2.45-1.48-.29-2.87-.73-2.07-2.98.85-2.39.28-4.87-.36-7.63 2.41 2.77 5.1 3.81 8.61 3.57 2.63-.18 3.4 2.66 4.17 4.4.77 1.73-1.84 3.24-1.88 5.42zm68.15-84.68c-2.24-.88-3.36-1.77-3.5-4.53-.37-7.32 1.68-14.17 3.39-21.06 1.67-6.71 1.87-6.87 9.27-8.94 1.24-.35 2.4-1.63 4.24-1.07-4.05 11.97-10.66 22.95-13.4 35.6zm-6.3 17.08c-5.82-4.96 1.69-4.42 2.88-6.49-.24 2.48 1.16 5.69-2.88 6.49zm1.88 3.51c-1.31 1.68-3.34 3.32-5.37 2.85-1.74-.4-1.44-2.61-.57-4.1.9-1.55 2.52-1.91 4.16-2.13 1.03.93 3.48 1.2 1.78 3.38zm23.59-47.67c2.17-.43 2.34-2.8 3.86-3.56 3.72 3.18 3.51 4.16-3.13 14.16-1.59-1.65.69-3.33-.44-6.62-2.77 12.26-9.5 20.69-16.31 28.83-1.05-7.83 9.84-31.29 17.91-38.04.49 2.14-1.57 3.19-1.89 5.23zm10.94-.44c1.01-1.07 1.71-2.44 2.55-3.67l1.84.71c-1.38 1.89 1.63 2.8.46 4.69-.39.63-.58.87.63.83 2.72-.09 3.65 1.76 2.08 3.98-1.05 1.48-2.19 3.28-3.71 3.95-3.68 1.6-4.79 5.28-7.26 7.75-5.41 5.42-10.16 11.6-17.04 16.03-.23-3.09 1.51-5.35 2.9-7.24 6.39-8.67 10.04-19.1 17.55-27.03zm15.19 7.09c3.72-2.87 7.49-3.13 12.21-.97l-7.13 6.2c3.68.07 5.01-3.28 7.96-3.79.3 2.08-1.32 2.59-2.35 3.47-.89.76-2.17 1.64-1.04 2.81 3.63 3.75 0 5.6-2.2 6.8-7.28 3.96-14.15 8.4-22.77 10.15-7.85 1.6-15.62 5.57-20.34 13.28 1.1-6.35 4.72-11.02 9.39-14.83 6.63-5.4 12.52-11.62 19.49-16.71 2.25-1.64 4.25-4.46 6.78-6.41zm-52.39 7.52c-2.03-1.25-1.61-2.7-1.7-3.94-.1-1.29-.02-2.59-.56-3.92-1.57 5.62-.37 11.52-.94 17.74-2.15-1.65-.89-3.63-1.95-4.95-1.91 1.35-.4 3.71-2.2 5.32-2.88-6.17-3.01-12.52-2.33-18.9.46-4.28 1.49-8.48 1.24-12.86-.1-1.77.31-3.66 2.59-4.16.21 2.72 6.07.23 4.42 4.98-.84 2.43-.71 5.2-1.1 8.61 2.28-4.06.86-8.48 4.47-11.32-2.76 7.53-.7 15.35-1.94 23.4zm-11.01-23.21c-.35 4.69-.62 9.69-1.69 13.94-.89 3.53-.56 6.61-.28 9.71.32 3.6.29 7.06-.83 10.69-4.89-12.08-10.19-24.12-6.49-38.63 1.29 2.81 1.5 3.91 1.42 6.14 1.47-.51 1.16-1.93 1.25-2.86.27-2.55 2.54-1.43 3.69-2.29.52 1.46 3.13.61 2.93 3.3zm-23.44 12.44c-.89-3.4-1.11-3.34 2.1-5.5.13-.08.34-.23.32-.31-.59-3.2 1.84-4.74 3.89-4.13 1.63.49 1.73 3.67 1.95 5.77.6 5.92 3.49 11.08 5.4 16.55 1.38 3.97 1.68 7.88 1.74 12.41-7.9-6.94-12.87-15.07-15.4-24.79zm-12.52-2.64c4.43 4.91 7.19 9.94 10.46 14.45 1.73 2.4-2.07.03-2.78 1.51 3.84 5.43 9.62 8.68 13.16 14-8.75-8.23-22.54-12.82-20.84-29.96zm4.51 27.91c-4.57-3.53-7.38-8.96-12.63-11.84-1.09-.6-1.71-1.99-1.07-3.78 1.92 1.67 3.72 3.24 5.52 4.81-1.07-2.66-3.97-3.99-4.8-8.16 6.35 4.61 10.15 10.66 16.39 13.84-.32.36-.65.72-.97 1.08-1.71-1.08-3.41-2.16-6.22-3.94 4.19 6.58 10.21 9.11 14.57 13.63-4.28-.55-7.56-3.14-10.79-5.64zm164.2 61.71c-3 3.12-6.75 5.34-10.48 7.54-2.42 1.43-5.19.7-7.71 1.58-1.55.54.54-4.03-2.62-2.15-7.49 4.47-15.97.82-23.79 2.8-.58.15-1.43-.04-1.91-.4-3.8-2.9-7.67-1.61-11.31.03-3.81 1.71-7.32 1.83-10.91-.35-2.83-1.72-5.77-1.61-8.54.01-4.18 2.44-8.29 1.98-12.42.06-1.85-.86-3.93-2.03-5.7-.9-5.97 3.82-12.55 1.67-19.02 2.69.29-1.88.98-3.38.25-5.02-.65-1.46.81-2.74 1.62-2.38 3.42 1.49 5.91-1.88 9.07-1.67-.3 2.21-3.14 2.45-3.12 5.03 3.1-1.73 5.91-3.29 8.73-4.86 1.01 2.14-2 2.33-1.33 3.94 5.11-1.59 10.19-3.08 14.37-6.51 1.15-.95 2.08.04 3.15.2 3.59.54 7.46 3.14 10.72-.86.03-.04.48.28.72.41.3 1.77-2.04 2.28-2.34 4.52 3.93-2.77 7.29-5.14 10.79-7.61.04 3.93.19 3.98 4.97 1.91 1.08.91-1.61 1.92.23 2.92l4.99-2.85c.02 2.78-3.15 3.28-2.92 6.23 5.27-4.64 12.96-2.9 17.16-8.85 1.56 2.3-1.99 3.22.02 5.18 2.5-1.71 5.04-3.45 7.58-5.19l.42.6c-1.26 1.72-2.51 3.44-3.77 5.16 3.21-1.44 6.8-3.87 9.06-1.24 1.98 2.31 2.42 1.51 4.16.58.58-.31 3.46-4.97 3.44.75 0 .79 2.08.33 3.08-.14 2.57-1.19 5.08-2.5 8.21-4.06-1.23 3.7-4.62 4.2-5.8 6.86 4.64-3.03 11.01-4.05 12.41-11.3-3.28.62-6.38.52-9.68 1.43-4.2 1.16-9.41 2.95-13.4.34-5.06-3.31-9.84-3.24-15-1.44-4 1.39-8.03 2-12.09.71-6.11-1.94-11.99-4.01-18.5-.79-4.23 2.09-9.04 1.93-13.57.09-2.77-1.13-6-1.42-8.24.06-7.79 5.18-16.75-.05-24.71 3.87 2.24-7.86 9.11-7.88 14.54-10.86.37 2.44-2.23 2.18-1.61 5.08 5.36-5.89 12.89-4.14 18.97-7.22.34 1.62-1.9 2-1.86 3.81 3.6-1.01 5.83-4 9.24-4.21.52 2.32-2.3 2.42-2.23 4.31 2.27.27 3.66-1.34 5.39-2.2 1.52-.76 3.06-3.98 4.89-.21.1.22 1.5.21 1.78-.12 2.63-3.13 6.86-.74 10.48-4.36-1.28 3.18-3.14 4.2-3.26 6.16 1.13.75 2.66.72 3.2-.13 2.97-4.64 8.27-.68 11.72-3.33.11-.08.98.44.95.61-.5 3.83 1.48 2.08 2.87 1.25 1.27-.75 2.38-1.79 3.94-1.68.89 1.09-1.07 1.53-.35 2.74 3.04-1.4 5.68-3.32 8.22-5.42.65-.54 2.06-1.83 2.24-.35.49 3.98 3.2.32 4.3 1.41.32 1.78-2.07 2.26-1.67 4 3.24.02 5.17-3.62 9.36-3.27-1.83 1.72-3.09 2.91-4.35 4.11 5.2-3.92 12.72 0 17.3-5.69 1.08 2.03-1.54 2.66-.83 4.54 1.21-.93 2.24-1.72 3.26-2.52 2.4-1.89 4.42-4.69 2.57-7.21-1.56-2.11-4.49-.04-6.73.89-4.62 1.93-8.96 3.15-14.26.97-5.09-2.09-10.76-2.58-16.4-.07-3.57 1.59-7.83 2.97-11.64 1.88-6.26-1.79-12.08-1.13-18.07.75-3.84 1.2-7.86 1.6-11.85.88-5.33-.96-10.44-1.14-15.45 1.53-2.95 1.58-6.28 2.49-9.65 1.56-3.09-.86-5.95-.45-8.7.91-2.83 1.4-3.91.63-3.83-2.5.12-5.16-.16-10.33.17-15.47.13-2.09-1.93-7.15 4.05-4.46.85.38 1.17-.99 1.37-1.61 2.97-9.49 10.44-13.6 19.19-16.26 11.33-3.45 22.48-7.34 32.21-14.37 3.47-2.51 6.72-5.66 6.17-10.16-.63-5.17-4.14-8.35-9.35-9.86-9.65-2.79-19.3-5.63-28.75-9.02-7.77-2.79-16.04-2.53-23.89-4.83-3.45-1.01-6.18-3.78-10.21-3.46-5.68.46-11.43.01-17.1.52-7.53.68-14.14 3.4-20.68 7.73-7.71 5.11-16.04 9.21-23.35 15.17-4.24 3.46-3.09 5.44-.37 8.32 5.49 5.81 11.13 11.48 17.59 16.23 4.55 3.34 9.3 6.4 13.88 9.69 2.3 1.65 2.87 3.21-.06 5.25-4.52 3.13-8.28 7.1-11.56 11.6-2.27 3.11-2.7 5.37 1.71 7.37-3.39-6.32 4.59-7.23 5.1-11.86.18-1.65 2.45-2.62 4.07-1.88 2.36 1.08-1.14 2.59-.1 4.04 1.23-.72 2.77-.83 2.53-3.07-.29-2.74.21-5.31 3.95-2.76 1.27.87 2-.18 2.18-1.05.91-4.3 3.51-7.35 7.19-9.76-2.21.3-4.05 1.69-6.03.71 1.95-3.92 4.63-6.65 8.57-7.97 4.23-1.42 8.44-2.84 12.44 1.89-2.04.13-3.72.24-5.33.35 2.84.17 5 2.36 7.59 3.17v.04c-4.37 1.27-8.81 1.15-13.8.18 4.74 1.07 6.63 2.68 2.95 6.58-.79.84.16 1.83.72 2.66.66.96.68 1.87-.45 2.52-1.45.83-2.51 1.87-1.4 3.59 1.18 1.83 2.3-.12 3.46-.22 1.51-.13 3.63-.53 3.69 1.34.08 2.4-2.62 3.08-4.27 4.36-1.13.87-2.13 1.14-2.43-.73-.29-1.81-1.09-2.42-2.62-1.09-.91.8-2.22 1.48-.34 2.89 1.15.86.7 4.53 3.1 2.92 3.19-2.13 7.35-2.11 10.03-5.06.91-1 2.45-1.37 3.03-.35.93 1.63 1.7 3.7 1.53 5.49-.16 1.63-1.96 1.11-3.3.67-2.26-.75-4.37-.52-5.57 1.86-.78 1.56-.88 3.31.34 4.7 1.61 1.83 3.62 2.37 5.79.96 1.36-.88 2.67-.89 3.46.46 1 1.7-.7 2.33-1.75 2.94-1.17.67-2.04 1.53-2.95 2.52-1.15 1.25-3.17 1.38-3.84-.2-2.73-6.45-7.82.34-11.14-2.18-2.21 4.41-7.22 2.38-10.52 4.54-2.33 1.53-2.85-.8-2.55-2.5.23-1.34 1.2-2.55 1.87-3.9-3.37-1.23-3.06 2.34-4.3 3.49-1.14 1.05 1.23 4.1 2.01 4.35 4.21 1.41 2.5 3.37.37 5.6 2.66.26 4.01-.13 4.47-2.55.77-4.04 5.18-7.47 9.89-5.2 18.85 9.08 5.58 30.68 2.99 35.4-1.45 2.65 1.48 4.26 1.07 6.47-.39 2.13-1.74 4.08-1.22 6.97 1.01-1.51 1.68-2.62 2.46-3.65.55-.72 1.44-1.04 2.19-.5.42.3.84 1.35.64 1.66-2.79 4.27-4.35 8.94-4.76 14.01-.02.28-.35.56-.58.79-.81.83-1.77 2.05-2.91 1.43-1.42-.78-.32-1.96.13-3 .52-1.21.92-2.48 1.25-3.76.28-1.11-.27-2.15-1.25-2.44-1.14-.35-2.11.86-2.02 1.64.5 4.2-2.95 6.79-3.94 10.3-1.26 4.46-3.91 6.13-8.77 5.2 4.82-2.28 5.99-6.88 7.9-11.21-2.9.69-5.02 1.57-5.73 5.07-.51 2.5-2.96 4.07-6.09 4.07 3.53-8.86 13.05-12.4 16.86-20.58-9.87 9.69-21.34 17.94-27.61 30.78-1.12.07-2.25.19-3.38.21-3.27.05-5.57-2.75-4.38-5.48.6-1.39 2.35-1.28 3.5-1.35 2.3-.15.51 1.02.31 1.65-.28.91.2 1.22.98 1.1 1.29-.19 2.85-.1 3.34-1.65.28-.91.46-2.21.01-2.91-.79-1.25-2.06-.34-3.16-.05-2.69.71-5.43 2.02-8.18-.08 1.84-2.91 5.51 1.5 7.18-2.95-5.08 1.01-9.8 1.05-14.52 1.12-.89.01-2.24.58-2.56 1.27-2.84 6.1-8.74 5.49-13.72 5.88-9.91.77-14.58-6.34-10.89-15.73.45-1.14 1.31-2.37.1-3.63-2.84 4.28-7.29 5.47-9.12 2.23-1.53-2.71-2.62-6.03-1.39-9.12 3.6-8.99 12.98-17.3 24.92-13.47 4.73 1.52 9.2 3.66 13.99 4.97 2.35.64 4.05.84 4.84-2.22.62-2.39 2.09-5.05 4.37-5.71 3.6-1.05 3.49-2.85 2.48-5.51-2.26.19-3.18 5.07-5.6 2.17-1.91-2.28.78-4.5 2.68-6.15 1.01-.87 2.2-1.53 3.14-2.46 1.4-1.38 4.21-1.84 4.2-3.95-.01-2.94 1.21-3.86 3.76-3.98 1.47-.07 1.55-1.02 1.15-2.08-.71-1.87-1.44-.29-2.11.06-2.77 1.41-4 .33-5.09-2.39-.46-1.15-.4-3.03-2.04-3.59-3.11-1.07-2.94-.98-1.56-3.85.71-1.49 2.74-1.91 2.81-3.78-3.91-1.13-6.63-.21-7.23 4.51-2.55-2.35-1.72-5.68-4.1-8.09 0 5.05 2.13 8.7 4.49 12.21 1.45 2.17 3.15 5.37.94 6.52-2.36 1.24-2.81-2.83-4.21-4.47-.88-1.02-.43-3.11-2.66-3.06-2.58.06-.44 2.99-2.3 3.6-.5-1.62.01-3.41-2.59-4.09-3.31-.87-2.93-4.92-4.64-7.26-1.11-1.53-2.24-5.4-4.75-2.67-3.96 4.31-5.15 2.18-6.63-1.65-.59-1.52-1.61-2.92-2.61-4.24-1.76-2.32-3.59-3.97-4.89.39-.24.79-.44 1.72-1.43 1.84-1.11.14-1.17-.9-1.5-1.61-2.14-4.64-6.3-7.52-9.16-11.44-1.97 1.22-1.51 3.01-2.26 4.26-.42.7-1.5 1.73-1.78.93-1.56-4.5-7.38-3.04-9.35-7.06-.99-2.02-3.22-4.56-5.2-4.16-2.37.48-2.09 3.71-2.2 6.03-.04.78 0 1.81-1.13 1.89-1.32.09-1.41-1.13-1.84-1.98-.7-1.4.6-3.87-1.6-4.29-3.41-.65-5.44-2.88-7.68-5.16-1.61-1.64-3.91-3.59-5.99-3-1.98.57-1.7 3.57-2.01 5.64-.1.65-.29 1.32-1.24 1.35-2.41-.94-.67-5.39-3.39-5.21-4 .28-5.97-2.34-8.64-4.17-5.31-3.65-7.48-2.71-8.81 3.59-.08.4-.45.75-.76 1.25-2.56-1.09-2.77-5.36-4.14-5.19-5 .63-7.55-3.8-11.7-4.71-2.8-.62-5.23-1.98-5.25 2.6 0 .93-.53 1.98-1.79 2.06-3.83.25-7.6 1.22-10.91-2.31-1.54-1.64-4.43-2.22-6.83-2.81-2.86-.71-5.95-1.33-4.97 3.72.34 1.74.49 3.3-3.16 2.91-5.91-.63-10.99-3.77-16.96-4.09-4.9-.26.6-2.02.58-2.05-10.14-3.63-19.23-7.67-29.11-9.21 2.93-1.57 6.66 2.14 8.99-2.38.27-.52 3.98.64 6.06 1.16 6.49 1.62 12.39 4.71 18.44 7.44.97.44 2.37 1.66 3.08.29.95-1.85-1.25-1.97-2.22-2.54-2.23-1.31-4.59-2.39-7.46-3.84 3.43-1.4 5.73 1.41 8.49.8-1.05-2.1-3.8-1.67-4.88-4.41 3.5.86 6.46 1.6 9.49 2.35-.45-.93-1.41-2.04-1.16-2.54.61-1.2 1.66-.25 2.53.11 3.36 1.41 6.64 2.84 9.68 5.02 3.26 2.34 6.52 4.98 10.85 6.17-.19-3.09-3.74-3.32-4.4-6.36 2.35 1.04 4.32 1.91 6.46 2.85-.31-2.34-3.34-2.2-3.02-4.91 5 .93 9.03 3.5 13.44 7.21-1.58-5.65-7.62-5.43-10.13-10.37 8.14 2.79 13.91 7.96 20.89 11.56-1.13-3.57-5.01-3.82-7.34-6.59 4.63-.23 8.58-1.52 12.11 1.35.34.27 1.32.39 1.34.34 1.86-4.96 4.26-.16 4.76.35 4.02 4.05 9.59 3.91 14.27 4.6 6.09.91 11.8 1.46 16.41 5.99.69.68 1.42 2.03 2.89.93-.29-1.44-2.56-1.82-1.87-4.24 4.53 1.99 7.27 6.14 11.33 9.32-.47-3.15-3.85-3.81-3.78-6.85 4.67 1.33 6.65 5.33 9.73 8.67.44-3.47-3.18-4.35-3.58-7.1 3.41.69 5.16 3.17 7.17 5.21 1.6-1.28-1.17-2.4.19-3.75 7.53 5.77 18.53 7.56 21.04 19.18-.13-7.4-6.08-11.21-9.5-16.52 1.59-.8 1.88.66 2.67 1.07 4.06 2.09 5.49 8 11.52 7.64.87-.05 2.14-1.73 3.43-.1 2.78 3.5 6.89 6.41 7.37 11.01.4 3.88 2.19 5.18 5.61 6.21-1.51-3.88-4.38-6.6-5.63-11.67 4.4 4.02 6.97 7.81 10.22 12.7-.7-6.55-5.09-10.16-5.52-15.47 1.48 1.83 2.96 3.67 4.56 5.64 1.04-1.32 1.06-3.65 3.39-2.91 2.01.63 1.45 2.37 1.4 3.78-.08 1.95.22 4.39 1.99 4.7 2.73.48 4.5 2.17 6.7 3.35 1.39.74 3.03.04 3.79-1.51.67-1.38.24-2.86-1.11-3.43-5.12-2.16-9.05-6-13.45-9.17-2.52-1.82-4.99-3.89-8.55-2.97-.64.17-1.82-.27-2.22-.82-4.33-5.95-11.15-6.52-17.14-9.25-6.03-2.75-11.74-5.91-18.32-7.81-3.55-1.02-6.82-3.26-10.77-3.14-5.83.18-11.54-3.99-17.52-.48-.45.26-1.53-.45-2.27-.81-11.76-5.63-24.9-6.01-37.17-9.73-3.11-.94-6.78-2.29-10.06.38-.98.8-1.92.13-2.55-.72-1.35-1.83-3.39-2.18-5.36-2.18-5.41 0-10.93-1.65-16.17.97-1.55.78-2.91.18-4.28-.47-6.91-3.26-13.6-2.29-20.04 1.26-2.32 1.28-4.43 1.36-7.08 1.01-6.92-.93-13.96-.97-20.88.24-1.89.33-4.58.45-4.78 3.49-.17 2.68 1.59 3.68 3.72 4.63 16.16 7.2 31.36 16.08 45.47 26.73 3.72 2.81 6.99 3.17 11.09.7-4.25-2.79-8.29-5.44-12.76-8.38 2.93-.84 4.68 1.73 7.16.86-5.74-4.81-12.85-6.44-18.78-10.24 8.57 1.42 16.3 4.75 22.59 10.64 2.18 2.05 3.26 5.28 6.58 6.15.54 1.15 1.42 2.3 1.43 3.46.05 7.5 2.06 13.52 8.97 17.98 3.79 2.44 7.65 5.22 11.05 8.32 17.19 15.68 37.77 16.49 59.1 13.44 4.5-.64 8.59-.63 12.62 1.26 4.07 1.9 8.11 3.88 12.07 5.99 5.88 3.14 5.95 3.48 1.03 8.14-6.23 5.9-10.15 13.32-9.69 21.6.37 6.76-2.77 11.35-5.65 16.46-.39.69-3.14 6.77-3.65 9.61.67.86 2.26.69 4.05-.18.7-.34 1.32-.68 1.93-.84 2.56-2.03 12.75-6.69 18.14-2.21 2.42 2.02 48.02 32.43 81.87 6.27 11.48-8.87 17.75-22.77 22.42-36.7.55-1.63 1.27-2.11 2.76-2.12 8.77-.1 17.5.15 26.31-.8 10.97-1.17 21.76-2.95 31.59-7.69 14.65-7.05 29.11-14.61 42.78-23.5 4.01-2.61 7.99-5.28 12.02-7.94-4.78-2.37-7.94-.5-10.99 2.67z"/><path id="bp4ot" d="M1130.55 893.06c1.42-2.45 4.48-2.63 6.28-4.54.52-.56 1.49-1.03.73-1.98-.63-.79-1.27-.56-2.08.04-6.14 4.51-13.42 5.93-20.63 7.49 1.88-2.69 6.13-1.39 8.11-5.11-4.52 1.19-9.03.8-12.49 4.97h4.53c-2.27 1.35-4.58 2.64-6.79 4.07-1.09.71-2.9 1.74-2.33 2.92 1.45 2.98-1.03 2.85-2.38 3.47-1.35.62-3.31 1.16-4.19-.17-1.18-1.79 1.08-2.36 2.04-3.34.45-.46.86-.97 1.73-1.96-4.13.12-6.04 4.09-10.08 3.94 1.91-1.71 4.44-2.19 5.6-4.75-4.45-1.23-6.65 2.29-9.68 3.88-1.79-.6 2.13-3.7-.42-2.56-3.6 1.63-6.58-.01-9.79.22-8.12.59-14.53 5.19-21.05 9.49-1.3.86-2.51 2.74-4.26 2.05-2.25-.88-.64-3.25-1.19-4.86-3.12-.17-5.37 2.49-8.69 2.64 1.49-2.28 4.34-2.67 5.11-5.04.35-1.09 1.84-3.11.95-3.06-1.79.08-2.22-3.6-4.46-1.29-.99 1.03-2.43 2.06-2.86-.81-.16-1.06-1.4-.15-2.01.22-4.09 2.5-8.74 4.11-11.97 7.97-1.21 1.45-2.75 2.81-6.2 2.67 5.1-2.21 7.53-5.68 10.99-9.73-4.56 1.12-6.4 5.09-10.5 5.48 4.36-7.14 11.8-7.87 18.4-10 3.31-1.07 6.82-1.51 10.26-2.16 5.02-.95 6.01-.01 5.37 5.03-.19 1.45-1.06 3.27.78 3.93 1.36.49 2.15-1.27 2.94-2.23 5.69-6.85 13.61-8.54 21.66-7.92 7.51.58 14.3-.1 21.12-3.39 5.68-2.74 11.95-4.59 18.33-3.74 7.32.97 13.53-4.15 20.19-3.68 13.7.97 26.26-3.99 39.37-5.95 4.61-.69 8.8-1.16 13.12.64 1.19.49 2.38.81 3.84.29 8.87-3.15 17.2-.06 25.56 2.44 1.06.32 2.49.64 2.38 2.12-.1 1.33-1.47 1.78-2.51 2.12-14.45 4.7-28 11.41-41.39 18.5-1.7.9-3.63 1.02-4.27-.79-.49-1.39 1.33-2.36 2.67-3.03 4.69-2.35 9.52-4.24 13.89-7.44 2.54-1.86 6.66-2.44 10.12-3.09 4.47-.83 7.18-4.23 12.37-5.74-7.71-2.98-12.85 1.07-18.69 2.42-1.23-1.1 1.81-2.81-.12-3.44-.79-.26-2.19.65-3.03 1.36-4.9 4.22-11.4 4.83-17.42 8.07.87-3.7 5.78-3.52 5.73-7.92-6.82 2.58-10.97 9.24-19.09 11.05 4.31-3.75 8.99-5.28 11.85-10.63-3.04 2.56-5.04-.19-6.77.08-3.84.59-7.67 2.07-11.17 3.85-3.3 1.67-6.18 4.18-9.24 6.32-1.35.94-2.75 1-4.25.34-2.51-1.1 1.29-2.61-1.22-4.03-.7-.04-.87 1.68-1.7 2.38-3.45 2.92-7.1 3.58-11.23 1.82z"/><path id="bp4ou" d="M1137.55 924.6c4.53-4.71 8.95-8.48 14.27-11.27 2.51-1.32 3.99-.23 4.87 1.57 1.06 2.19-1.54 2-2.54 2.7-3.24 2.26-7.08 3.47-10.25 5.94-1.49 1.15-3.35 2.16-6.35 1.06z"/><path id="bp4ov" d="M1133.55 913.43c-.12-4.04-1.27-6.71.97-7.83 2.1-1.06 4.84-1.09 7.05.69.51.41 1.04.84 1.63 1.11 1.08.5 3.33.28 2.51 2.1-.8 1.78-3.63 3.21-4.93 2.05-2.7-2.41-4.67-3.98-7.23 1.88z"/><path id="bp4ow" d="M965.99 909.69c1.02 2.48 2.75 4.84-.62 6.71-.5.28-1.16 1.34-1 1.6 2.55 4.33-.89 5.3-3.67 6.38-.84.32-.26 3.22-2.04 1.21-1.01-1.14-.7-2.71.67-3.42 2.56-1.31 5.28-2.17 1.53-5.39-1.5-1.29.53-1.99 1.32-2.4 1.95-1 3.43-2.28 3.81-4.69z"/><path id="bp4ox" d="M1167.74 901.42c-1.63 2.2-3.03 4.43-2.8 7.22.17 2.07-1.15 2.91-2.74 3.59-1.04.44-1.98.14-2.69-.63-1.23-1.33-.57-2.62.02-4.07 1.53-3.75 4.47-6.11 8.21-6.11z"/><path id="bp4oy" d="M975.6 900.67c3.65-1.57 8.71.05 6.98-6.04-.26-.91 2.49-1.85 3.72-1.41 1.4.51 1.04 2.52.42 3.43-2.39 3.5-5.66 5.3-11.12 4.02z"/><path id="bp4oz" d="M961.94 952.92c.05 2.8-.61 4.7-3.14 5.34-1.97.5-3.97.99-4.95-1.84 2.59-1.11 5.2-2.24 8.09-3.5z"/><path id="bp4oA" d="M1170.41 884.16c-3.51 4.97-8.27 5.32-12.41 6.81 2.88-3.83 7.41-4.61 12.41-6.81z"/><path id="bp4oB" d="M1130.43 892.96c-3.87 3.17-8.42 4.3-13.36 4.26 4.25-2.12 8.72-3.57 13.47-4.17.01.01-.11-.09-.11-.09z"/><path id="bp4oC" d="M983.01 910.84c-2.34-1.68-2.06-3.05-.91-4.54 1.35-1.75 1.34-1.77 7.06-.52-2.7 1.43-7.44-.46-6.15 5.06z"/><path id="bp4oD" d="M829.37 921.43c-2.62-2.87-8.11-3.16-7.64-8.81.1-1.2-1.43-1.75-2.72-1.41-1.13.3-2.22.81-3.38.23-1.5-.75-3.88-.07-4.29-2.59-.17-1.01-.26-2.2.61-2.77 1.76-1.16 3.49-.13 5.13.58 1.79.77 3.29 2.4 5.51 1.85 1.42-.35 1.96.54 1.74 1.6-1.06 5.1 2.45 7.9 5.04 11.32z"/><path id="bp4oE" d="M923.335 979.885c-1.072-1.335-.362-3.684 1.585-5.246 1.948-1.562 4.395-1.746 5.466-.41 1.071 1.335.361 3.684-1.586 5.246-1.947 1.562-4.394 1.745-5.465.41z"/><path id="bp4oF" d="M939.03 970.4c-1.96.24-3.83.36-5.66.78-.92.16-1.81.42-2.7.64-.88.3-1.77.53-2.62.89-1.73.65-3.42 1.41-5.06 2.31-1.65.9-3.25 1.9-4.87 3 1.03-1.69 2.45-3.11 4.02-4.31 1.57-1.21 3.34-2.18 5.21-2.88.93-.38 1.91-.61 2.87-.85.99-.14 1.97-.37 2.97-.35 1.98-.13 3.98.19 5.84.77z"/><path id="bp4oG" d="M938.49 967.01c-1.75.05-3.37-.01-4.98.25-1.6.21-3.16.56-4.67 1.09-1.52.51-3.01 1.12-4.47 1.86s-2.9 1.55-4.39 2.45c.9-1.49 2.17-2.73 3.57-3.77a16.69 16.69 0 0 1 4.66-2.43c1.67-.58 3.47-.82 5.24-.74 1.77.01 3.5.53 5.04 1.29z"/></defs><g><g transform="translate(-737 -824)"><g><use fill="#dc9418" xlink:href="#bp4oa"/></g><g><use fill="#ea9d1a" xlink:href="#bp4ob"/></g><g><use fill="#ea9d1a" xlink:href="#bp4oc"/></g><g><use fill="#fdfdfd" xlink:href="#bp4od"/></g><g><use fill="#fdfdfd" xlink:href="#bp4oe"/></g><g><use fill="#fdfdfd" xlink:href="#bp4of"/></g><g><use fill="#fdfdfd" xlink:href="#bp4og"/></g><g><use fill="#fdfdfd" xlink:href="#bp4oh"/></g><g><use fill="#fdfdfd" xlink:href="#bp4oi"/></g><g><use fill="#fdfdfd" xlink:href="#bp4oj"/></g><g><use fill="#fdfdfd" xlink:href="#bp4ok"/></g><g><use fill="#fdfdfd" xlink:href="#bp4ol"/></g><g><use fill="#fdfdfd" xlink:href="#bp4om"/></g><g><use fill="#fdfdfd" xlink:href="#bp4on"/></g><g><use fill="#fdfdfd" xlink:href="#bp4oo"/></g><g><use fill="#fdfdfd" xlink:href="#bp4op"/></g><g><use fill="#fdfdfd" xlink:href="#bp4oq"/></g><g><use fill="#fdfdfd" xlink:href="#bp4or"/></g></g><g transform="translate(-737 -824)"><g><use fill="#3c6042" xlink:href="#bp4os"/><use fill="#fff" fill-opacity="0" stroke="#3c6042" stroke-miterlimit="50" stroke-width=".25" xlink:href="#bp4os"/></g><g><use fill="#3c6042" xlink:href="#bp4ot"/><use fill="#fff" fill-opacity="0" stroke="#3c6042" stroke-miterlimit="50" stroke-width=".25" xlink:href="#bp4ot"/></g><g><use fill="#3c6042" xlink:href="#bp4ou"/><use fill="#fff" fill-opacity="0" stroke="#3c6042" stroke-miterlimit="50" stroke-width=".25" xlink:href="#bp4ou"/></g><g><use fill="#3c6042" xlink:href="#bp4ov"/><use fill="#fff" fill-opacity="0" stroke="#3c6042" stroke-miterlimit="50" stroke-width=".25" xlink:href="#bp4ov"/></g><g><use fill="#3c6042" xlink:href="#bp4ow"/><use fill="#fff" fill-opacity="0" stroke="#3c6042" stroke-miterlimit="50" stroke-width=".25" xlink:href="#bp4ow"/></g><g><use fill="#3c6042" xlink:href="#bp4ox"/><use fill="#fff" fill-opacity="0" stroke="#3c6042" stroke-miterlimit="50" stroke-width=".25" xlink:href="#bp4ox"/></g><g><use fill="#3c6042" xlink:href="#bp4oy"/><use fill="#fff" fill-opacity="0" stroke="#3c6042" stroke-miterlimit="50" stroke-width=".25" xlink:href="#bp4oy"/></g><g><use fill="#3c6042" xlink:href="#bp4oz"/><use fill="#fff" fill-opacity="0" stroke="#3c6042" stroke-miterlimit="50" stroke-width=".25" xlink:href="#bp4oz"/></g><g><use fill="#3c6042" xlink:href="#bp4oA"/><use fill="#fff" fill-opacity="0" stroke="#3c6042" stroke-miterlimit="50" stroke-width=".25" xlink:href="#bp4oA"/></g><g><use fill="#3c6042" xlink:href="#bp4oB"/><use fill="#fff" fill-opacity="0" stroke="#3c6042" stroke-miterlimit="50" stroke-width=".25" xlink:href="#bp4oB"/></g><g><use fill="#3c6042" xlink:href="#bp4oC"/><use fill="#fff" fill-opacity="0" stroke="#3c6042" stroke-miterlimit="50" stroke-width=".25" xlink:href="#bp4oC"/></g><g><use fill="#3c6042" xlink:href="#bp4oD"/><use fill="#fff" fill-opacity="0" stroke="#3c6042" stroke-miterlimit="50" stroke-width=".25" xlink:href="#bp4oD"/></g></g><g transform="translate(-737 -824)"><use fill="#3c6042" xlink:href="#bp4oE"/><use fill="#fff" fill-opacity="0" stroke="#525252" stroke-miterlimit="50" stroke-width=".25" xlink:href="#bp4oE"/></g><g transform="translate(-737 -824)"><g><use fill="#3c6042" xlink:href="#bp4oF"/></g></g><g transform="translate(-737 -824)"><g><use fill="#3c6042" xlink:href="#bp4oG"/></g></g></g></svg>