<svg xmlns="http://www.w3.org/2000/svg" xmlns:xlink="http://www.w3.org/1999/xlink" width="143" height="62" viewBox="0 0 143 62"><defs><path id="ayaaa" d="M731.97 954.95c0-15.94-12.92-28.86-28.86-28.86s-28.86 12.92-28.86 28.86"/><path id="ayaab" d="M650.84 954.95c0-6.46 5.24-11.7 11.7-11.7 6.46 0 11.7 5.24 11.7 11.7"/><path id="ayaac" d="M662.54 970.22c0-8.43-6.84-15.27-15.27-15.27S632 961.79 632 970.22s6.84 15.27 15.27 15.27h96.68"/><path id="ayaad" d="M742.57 970.22c0-8.43 6.84-15.27 15.27-15.27s15.27 6.84 15.27 15.27-6.84 15.27-15.27 15.27H714.8"/></defs><g><g transform="translate(-631 -925)"><use fill="#fff" fill-opacity="0" stroke="#000001" stroke-linecap="round" stroke-miterlimit="50" stroke-width="2" xlink:href="#ayaaa"/></g><g transform="translate(-631 -925)"><use fill="#fff" fill-opacity="0" stroke="#000001" stroke-linecap="round" stroke-miterlimit="50" stroke-width="2" xlink:href="#ayaab"/></g><g transform="translate(-631 -925)"><use fill="#fff" fill-opacity="0" stroke="#000001" stroke-linecap="round" stroke-miterlimit="50" stroke-width="2" xlink:href="#ayaac"/></g><g transform="translate(-631 -925)"><use fill="#fff" fill-opacity="0" stroke="#000001" stroke-linecap="round" stroke-miterlimit="50" stroke-width="2" xlink:href="#ayaad"/></g></g></svg>