<svg xmlns="http://www.w3.org/2000/svg" xmlns:xlink="http://www.w3.org/1999/xlink" width="144" height="62" viewBox="0 0 144 62"><defs><path id="1q4fa" d="M1277.8 796.86c0-15.94-12.92-28.86-28.86-28.86s-28.87 12.92-28.87 28.86"/><path id="1q4fb" d="M1196.67 796.86c0-6.46 5.24-11.7 11.7-11.7 6.46 0 11.7 5.24 11.7 11.7"/><path id="1q4fc" d="M1208.37 812.13c0-8.43-6.84-15.27-15.27-15.27s-15.27 6.84-15.27 15.27 6.84 15.27 15.27 15.27h96.68"/><path id="1q4fd" d="M1288.4 812.13c0-8.43 6.84-15.27 15.27-15.27s15.27 6.84 15.27 15.27-6.84 15.27-15.27 15.27h-43.04"/></defs><g><g transform="translate(-1176 -767)"><use fill="#fff" fill-opacity="0" stroke="#000001" stroke-linecap="round" stroke-miterlimit="50" stroke-width="2" xlink:href="#1q4fa"/></g><g transform="translate(-1176 -767)"><use fill="#fff" fill-opacity="0" stroke="#000001" stroke-linecap="round" stroke-miterlimit="50" stroke-width="2" xlink:href="#1q4fb"/></g><g transform="translate(-1176 -767)"><use fill="#fff" fill-opacity="0" stroke="#000001" stroke-linecap="round" stroke-miterlimit="50" stroke-width="2" xlink:href="#1q4fc"/></g><g transform="translate(-1176 -767)"><use fill="#fff" fill-opacity="0" stroke="#000001" stroke-linecap="round" stroke-miterlimit="50" stroke-width="2" xlink:href="#1q4fd"/></g></g></svg>