<svg xmlns="http://www.w3.org/2000/svg" xmlns:xlink="http://www.w3.org/1999/xlink" width="689" height="220" viewBox="0 0 689 220"><defs><path id="4nzxa" d="M1277.8 796.86c0-15.94-12.92-28.86-28.86-28.86s-28.87 12.92-28.87 28.86"/><path id="4nzxb" d="M1196.67 796.86c0-6.46 5.24-11.7 11.7-11.7 6.46 0 11.7 5.24 11.7 11.7"/><path id="4nzxc" d="M1208.37 812.13c0-8.43-6.84-15.27-15.27-15.27s-15.27 6.84-15.27 15.27 6.84 15.27 15.27 15.27h96.68"/><path id="4nzxd" d="M1288.4 812.13c0-8.43 6.84-15.27 15.27-15.27s15.27 6.84 15.27 15.27-6.84 15.27-15.27 15.27h-43.04"/><path id="4nzxe" d="M731.97 954.95c0-15.94-12.92-28.86-28.86-28.86s-28.86 12.92-28.86 28.86"/><path id="4nzxf" d="M650.84 954.95c0-6.46 5.24-11.7 11.7-11.7 6.46 0 11.7 5.24 11.7 11.7"/><path id="4nzxg" d="M662.54 970.22c0-8.43-6.84-15.27-15.27-15.27S632 961.79 632 970.22s6.84 15.27 15.27 15.27h96.68"/><path id="4nzxh" d="M742.57 970.22c0-8.43 6.84-15.27 15.27-15.27s15.27 6.84 15.27 15.27-6.84 15.27-15.27 15.27H714.8"/></defs><g><g transform="translate(-631 -767)"><use fill="#fff" fill-opacity="0" stroke="#000001" stroke-linecap="round" stroke-miterlimit="50" stroke-width="2" xlink:href="#4nzxa"/></g><g transform="translate(-631 -767)"><use fill="#fff" fill-opacity="0" stroke="#000001" stroke-linecap="round" stroke-miterlimit="50" stroke-width="2" xlink:href="#4nzxb"/></g><g transform="translate(-631 -767)"><use fill="#fff" fill-opacity="0" stroke="#000001" stroke-linecap="round" stroke-miterlimit="50" stroke-width="2" xlink:href="#4nzxc"/></g><g transform="translate(-631 -767)"><use fill="#fff" fill-opacity="0" stroke="#000001" stroke-linecap="round" stroke-miterlimit="50" stroke-width="2" xlink:href="#4nzxd"/></g><g transform="translate(-631 -767)"><use fill="#fff" fill-opacity="0" stroke="#000001" stroke-linecap="round" stroke-miterlimit="50" stroke-width="2" xlink:href="#4nzxe"/></g><g transform="translate(-631 -767)"><use fill="#fff" fill-opacity="0" stroke="#000001" stroke-linecap="round" stroke-miterlimit="50" stroke-width="2" xlink:href="#4nzxf"/></g><g transform="translate(-631 -767)"><use fill="#fff" fill-opacity="0" stroke="#000001" stroke-linecap="round" stroke-miterlimit="50" stroke-width="2" xlink:href="#4nzxg"/></g><g transform="translate(-631 -767)"><use fill="#fff" fill-opacity="0" stroke="#000001" stroke-linecap="round" stroke-miterlimit="50" stroke-width="2" xlink:href="#4nzxh"/></g></g></svg>