<svg xmlns="http://www.w3.org/2000/svg" xmlns:xlink="http://www.w3.org/1999/xlink" width="620" height="234" viewBox="0 0 620 234"><defs><path id="2qj5a" d="M1128.808 807.63v-55.155h92.833v55.155"/><path id="2qj5b" d="M1121.957 752.475v-9.93h105.851v9.93z"/><path id="2qj5c" d="M1128.466 742.402V732.23h92.832v10.172z"/><path id="2qj5d" d="M1152.033 732.23v-6.653h45.71v6.653z"/><path id="2qj5e" d="M1156.225 708.464v-6.652h37.325v6.652z"/><path id="2qj5f" d="M1159.679 701.812v-7.404h30.297v7.404z"/><path id="2qj5g" d="M1164.655 694.408v-5.262H1185v5.262z"/><path id="2qj5h" d="M1184.04 689.146h-17.62c-1.7 0-3.1-1.39-3.1-3.1 0-1.7 1.39-3.101 3.1-3.101h17.62c1.699 0 3.1 1.39 3.1 3.1-.011 1.7-1.401 3.1-3.1 3.1z"/><path id="2qj5i" d="M1180.664 675.696v7.249h-11.673v-7.249l6.233-84.9z"/><path id="2qj5j" d="M1168.99 675.696h11.674"/><path id="2qj5k" d="M1156.225 708.476v17.1"/><path id="2qj5l" d="M1163.86 708.476v17.1"/><path id="2qj5m" d="M1171.495 708.476v17.1"/><path id="2qj5n" d="M1193.55 709.546v17.101"/><path id="2qj5o" d="M1179.295 709.546v17.101"/><path id="2qj5p" d="M1186.423 709.546v17.101"/><path id="2qj5q" d="M1135.98 726.647v4.579"/><path id="2qj5r" d="M1214.05 726.614v4.579"/><path id="2qj5s" d="M1139.256 807.63v-14.045c0-4.038 2.13-7.348 4.723-7.348 2.603 0 4.722 3.31 4.722 7.348v14.045"/><path id="2qj5t" d="M1200.953 807.63v-14.045c0-4.038 2.13-7.348 4.723-7.348 2.603 0 4.722 3.31 4.722 7.348v14.045"/><path id="2qj5u" d="M1158.884 807.63v-23.17c0-6.664 7.172-12.125 15.943-12.125s15.943 5.45 15.943 12.125v23.17"/><path id="2qj5v" d="M1139.256 765.318v-6.929h14.696v6.929z"/><path id="2qj5w" d="M1195.702 765.318v-6.929h14.696v6.929z"/><path id="2qj5x" d="M1072.738 750.82h49.219"/><path id="2qj5y" d="M1278.141 750.82h-49.219"/><path id="2qj5z" d="M1072.738 758.39h49.219"/><path id="2qj5A" d="M1276.42 758.39H1227.2"/><path id="2qj5B" d="M1072.738 788.51h49.219"/><path id="2qj5C" d="M1074.062 800.613h49.23"/><path id="2qj5D" d="M1275.548 800.613h-49.23"/><path id="2qj5E" d="M1250.713 788.51h-23.291"/><path id="2qj5F" d="M1076.335 761.854v5.78"/><path id="2qj5G" d="M1098.677 761.854v5.78"/><path id="2qj5H" d="M1118.967 761.854v5.78"/><path id="2qj5I" d="M1076.335 774.277v11.066"/><path id="2qj5J" d="M1272.724 761.854v5.78"/><path id="2qj5K" d="M1272.724 774.277v11.066"/><path id="2qj5L" d="M1098.677 774.277v11.066"/><path id="2qj5M" d="M1118.967 774.277v11.066"/><path id="2qj5N" d="M1230.798 761.854v5.78"/><path id="2qj5O" d="M1251.088 762.273v5.781"/><path id="2qj5P" d="M1251.088 774.277v11.066"/><path id="2qj5Q" d="M1230.798 774.277v11.066"/><path id="2qj5R" d="M1454.361 753.8a1.38 1.38 0 1 1 2.759 0 1.38 1.38 0 0 1-2.759 0z"/><path id="2qj5S" d="M1474.11 753.8a1.38 1.38 0 1 1 2.759 0 1.38 1.38 0 0 1-2.758 0z"/><path id="2qj5T" d="M1494.147 753.8a1.38 1.38 0 1 1 2.758 0 1.38 1.38 0 0 1-2.758 0z"/><path id="2qj5U" d="M1513.444 753.8a1.38 1.38 0 1 1 2.758 0 1.38 1.38 0 0 1-2.758 0z"/><path id="2qj5V" d="M1532.972 753.8a1.38 1.38 0 1 1 2.759 0 1.38 1.38 0 0 1-2.759 0z"/><path id="2qj5W" d="M1552.755 753.8a1.38 1.38 0 1 1 2.758 0 1.38 1.38 0 0 1-2.758 0z"/><path id="2qj5X" d="M1572.283 753.8a1.38 1.38 0 1 1 2.758 0 1.38 1.38 0 0 1-2.758 0z"/><path id="2qj5Y" d="M1032.048 808.292V794.82h40.69v13.472z"/><path id="2qj5Z" d="M1035.413 794.832v-10.107h33.397v10.106z"/><path id="2qj5aa" d="M1040.753 784.725V772.38h23.29v12.346z"/><path id="2qj5ab" d="M1044.394 771.11l4.215-84.745a4.356 4.356 0 0 1 4.347-4.347 4.356 4.356 0 0 1 4.347 4.347l3.365 86.014"/><path id="2qj5ac" d="M1045.52 682.018l3.089 4.347"/><path id="2qj5ad" d="M1060.723 682.018l-3.09 4.347"/><path id="2qj5ae" d="M1057.766 698.05h4.016"/><path id="2qj5af" d="M1042.96 698.05h5.064"/><path id="2qj5ag" d="M1059.035 730.685h3.674"/><path id="2qj5ah" d="M1041.36 730.685h5.042"/><path id="2qj5ai" d="M1060.138 758.676h5.307"/><path id="2qj5aj" d="M1039.628 758.676h5.384"/><path id="2qj5ak" d="M1051.51 698.05a1.38 1.38 0 1 1 2.759 0 1.38 1.38 0 0 1-2.759 0z"/><path id="2qj5al" d="M1050.738 730.685a1.38 1.38 0 1 1 2.758 0 1.38 1.38 0 0 1-2.758 0z"/><path id="2qj5am" d="M1051.19 758.676a1.38 1.38 0 1 1 2.759 0 1.38 1.38 0 0 1-2.759 0z"/><path id="2qj5an" d="M1052.956 682.018l-.067-5.583-3.96-4.369"/><path id="2qj5ao" d="M1052.989 676.645l3.916-4.579"/><path id="2qj5ap" d="M1258.215 785.498h39.234l29.723-33.287 5.947 4.457-23.18 28.83v7.425h-51.724z"/><path id="2qj5aq" d="M1303.396 772.567l20.212-22.442"/><path id="2qj5ar" d="M1286.36 808.557v-15.634h23.402v15.634z"/><path id="2qj5as" d="M1416.386 785.189h-42.07l-29.723-33.298-5.947 4.468 23.181 28.83v7.425h53.488"/><path id="2qj5at" d="M1368.37 772.258l-20.213-22.442"/><path id="2qj5au" d="M1381.742 772.258v12.93"/><path id="2qj5av" d="M1385.41 792.617v15.634h-23.401v-15.634z"/><path id="2qj5aw" d="M1413.727 736.599v-7.293h201.221v7.293z"/><path id="2qj5ax" d="M1420.402 743.892v-7.293h188.004v7.293z"/><path id="2qj5ay" d="M1441.651 785.586V743.88h7.315v41.705z"/><path id="2qj5az" d="M1422.63 785.586V743.88h7.315v41.705z"/><path id="2qj5aA" d="M1599.7 785.586V743.88h7.315v41.705z"/><path id="2qj5aB" d="M1580.68 785.586V743.88h7.314v41.705z"/><path id="2qj5aC" d="M1462.504 785.586V743.88h5.483v41.705z"/><path id="2qj5aD" d="M1482.992 785.586V743.88h5.484v41.705z"/><path id="2qj5aE" d="M1502.565 785.586V743.88h5.483v41.705z"/><path id="2qj5aF" d="M1521.597 785.586V743.88h5.484v41.705z"/><path id="2qj5aG" d="M1541.622 785.586V743.88h5.484v41.705z"/><path id="2qj5aH" d="M1561.15 785.586V743.88h5.484v41.705z"/><path id="2qj5aI" d="M1415.315 806.813v-21.227h33.651v23.147"/><path id="2qj5aJ" d="M1579.587 806.836V785.95h33.651v22.783"/><path id="2qj5aK" d="M1448.966 801.683h130.621v7.05"/><path id="2qj5aL" d="M1449.099 801.683v-5.12h130.488v5.12z"/><path id="2qj5aM" d="M1449.22 796.564v-5.12h130.367v5.12z"/><path id="2qj5aN" d="M1449.22 791.07v-5.12h130.3v5.12z"/><path id="2qj5aO" d="M1455.74 769.797v15.789"/><path id="2qj5aP" d="M1475.49 769.797v15.789"/><path id="2qj5aQ" d="M1495.526 769.433v15.789"/><path id="2qj5aR" d="M1514.525 769.433v15.789"/><path id="2qj5aS" d="M1534.351 769.433v15.789"/><path id="2qj5aT" d="M1554.134 769.433v15.789"/><path id="2qj5aU" d="M1573.662 769.433v15.789"/><path id="2qj5aV" d="M1438.463 729.306v-15.027l76.36-21.106 76.117 22.595v13.538"/><path id="2qj5aW" d="M1431.038 716.519v-7.47l84.072-23.147 82.196 25.332v6.774"/><path id="2qj5aX" d="M1496.166 728.49c0-10.14 8.22-18.36 18.359-18.36 10.14 0 18.359 8.22 18.359 18.36"/><path id="2qj5aY" d="M1490.042 728.401c0-13.383 10.857-24.24 24.24-24.24s24.24 10.857 24.24 24.24"/><path id="2qj5aZ" d="M1454.361 728.401v-5.053"/><path id="2qj5ba" d="M1472.202 728.732v-5.064"/><path id="2qj5bb" d="M1557.72 728.567v-5.053"/><path id="2qj5bc" d="M1575.56 728.887v-5.053"/><path id="2qj5bd" d="M1389.288 784.725V772.38h23.291v12.346"/><path id="2qj5be" d="M1392.93 771.121l4.214-84.745a4.356 4.356 0 0 1 4.347-4.347 4.356 4.356 0 0 1 4.347 4.347l3.365 86.014"/><path id="2qj5bf" d="M1394.055 682.018l3.089 4.358"/><path id="2qj5bg" d="M1409.258 682.018l-3.09 4.358"/><path id="2qj5bh" d="M1406.301 698.06h4.016"/><path id="2qj5bi" d="M1391.495 698.06h5.064"/><path id="2qj5bj" d="M1407.581 730.696h3.674"/><path id="2qj5bk" d="M1389.895 730.696h5.042"/><path id="2qj5bl" d="M1408.673 758.687h5.307"/><path id="2qj5bm" d="M1388.163 758.687h5.384"/><path id="2qj5bn" d="M1400.057 698.06a1.38 1.38 0 1 1 2.758 0 1.38 1.38 0 0 1-2.758 0z"/><path id="2qj5bo" d="M1399.273 730.696a1.38 1.38 0 1 1 2.759 0 1.38 1.38 0 0 1-2.759 0z"/><path id="2qj5bp" d="M1399.737 758.687a1.38 1.38 0 1 1 2.758 0 1.38 1.38 0 0 1-2.758 0z"/><path id="2qj5bq" d="M1401.491 682.018l-.055-5.583-3.972-4.358"/><path id="2qj5br" d="M1401.535 676.645l3.917-4.568"/><path id="2qj5bs" d="M1252.875 696.229s2.516-6.035 5.34 0"/><path id="2qj5bt" d="M1258.215 696.229s2.516-6.035 5.34 0"/><path id="2qj5bu" d="M1284.981 662.512s2.516-6.035 5.34 0"/><path id="2qj5bv" d="M1290.321 662.512s2.516-6.035 5.34 0"/><path id="2qj5bw" d="M1306.22 710.892s2.516-6.035 5.34 0"/><path id="2qj5bx" d="M1311.56 710.892s2.516-6.035 5.34 0"/><path id="2qj5by" d="M1349.8 690.48s2.516-6.035 5.34 0"/><path id="2qj5bz" d="M1355.14 690.48s2.516-6.035 5.34 0"/><path id="2qj5bA" d="M1019.084 808.733h617.621"/><path id="2qj5bB" d="M1174.827 772.335v35.957"/></defs><g><g transform="translate(-1018 -576)"><g><use fill="#fff" fill-opacity="0" stroke="#000" stroke-miterlimit="50" stroke-width="2" xlink:href="#2qj5a"/></g><g><use fill="#fff" fill-opacity="0" stroke="#000" stroke-miterlimit="50" stroke-width="2" xlink:href="#2qj5b"/></g><g><use fill="#fff" fill-opacity="0" stroke="#000" stroke-miterlimit="50" stroke-width="2" xlink:href="#2qj5c"/></g><g><use fill="#fff" fill-opacity="0" stroke="#000" stroke-miterlimit="50" stroke-width="2" xlink:href="#2qj5d"/></g><g><use fill="#fff" fill-opacity="0" stroke="#000" stroke-miterlimit="50" stroke-width="2" xlink:href="#2qj5e"/></g><g><use fill="#fff" fill-opacity="0" stroke="#000" stroke-miterlimit="50" stroke-width="2" xlink:href="#2qj5f"/></g><g><use fill="#fff" fill-opacity="0" stroke="#000" stroke-miterlimit="50" stroke-width="2" xlink:href="#2qj5g"/></g><g><use fill="#fff" fill-opacity="0" stroke="#000" stroke-miterlimit="50" stroke-width="2" xlink:href="#2qj5h"/></g><g><use fill="#fff" fill-opacity="0" stroke="#000" stroke-miterlimit="50" stroke-width="2" xlink:href="#2qj5i"/></g><g><use fill="#fff" fill-opacity="0" stroke="#000" stroke-miterlimit="50" stroke-width="2" xlink:href="#2qj5j"/></g><g><use fill="#fff" fill-opacity="0" stroke="#000" stroke-miterlimit="50" stroke-width="2" xlink:href="#2qj5k"/></g><g><use fill="#fff" fill-opacity="0" stroke="#000" stroke-miterlimit="50" stroke-width="2" xlink:href="#2qj5l"/></g><g><use fill="#fff" fill-opacity="0" stroke="#000" stroke-miterlimit="50" stroke-width="2" xlink:href="#2qj5m"/></g><g><use fill="#fff" fill-opacity="0" stroke="#000" stroke-miterlimit="50" stroke-width="2" xlink:href="#2qj5n"/></g><g><use fill="#fff" fill-opacity="0" stroke="#000" stroke-miterlimit="50" stroke-width="2" xlink:href="#2qj5o"/></g><g><use fill="#fff" fill-opacity="0" stroke="#000" stroke-miterlimit="50" stroke-width="2" xlink:href="#2qj5p"/></g><g><use fill="#fff" fill-opacity="0" stroke="#000" stroke-miterlimit="50" stroke-width="2" xlink:href="#2qj5q"/></g><g><use fill="#fff" fill-opacity="0" stroke="#000" stroke-linecap="round" stroke-miterlimit="50" stroke-width="2" xlink:href="#2qj5q"/></g><g><use fill="#fff" fill-opacity="0" stroke="#000" stroke-linecap="round" stroke-miterlimit="50" stroke-width="2" xlink:href="#2qj5r"/></g><g><use fill="#fff" fill-opacity="0" stroke="#000" stroke-linecap="round" stroke-miterlimit="50" stroke-width="2" xlink:href="#2qj5s"/></g><g><use fill="#fff" fill-opacity="0" stroke="#000" stroke-linecap="round" stroke-miterlimit="50" stroke-width="2" xlink:href="#2qj5t"/></g><g><use fill="#fff" fill-opacity="0" stroke="#000" stroke-linecap="round" stroke-miterlimit="50" stroke-width="2" xlink:href="#2qj5u"/></g><g><use fill="#fff" fill-opacity="0" stroke="#000" stroke-linecap="round" stroke-miterlimit="50" stroke-width="2" xlink:href="#2qj5v"/></g><g><use fill="#fff" fill-opacity="0" stroke="#000" stroke-linecap="round" stroke-miterlimit="50" stroke-width="2" xlink:href="#2qj5w"/></g><g><use fill="#fff" fill-opacity="0" stroke="#000" stroke-linecap="round" stroke-miterlimit="50" stroke-width="2" xlink:href="#2qj5x"/></g><g><use fill="#fff" fill-opacity="0" stroke="#000" stroke-linecap="round" stroke-miterlimit="50" stroke-width="2" xlink:href="#2qj5y"/></g><g><use fill="#fff" fill-opacity="0" stroke="#000" stroke-linecap="round" stroke-miterlimit="50" stroke-width="2" xlink:href="#2qj5z"/></g><g><use fill="#fff" fill-opacity="0" stroke="#000" stroke-linecap="round" stroke-miterlimit="50" stroke-width="2" xlink:href="#2qj5A"/></g><g><use fill="#fff" fill-opacity="0" stroke="#000" stroke-linecap="round" stroke-miterlimit="50" stroke-width="2" xlink:href="#2qj5B"/></g><g><use fill="#fff" fill-opacity="0" stroke="#000" stroke-linecap="round" stroke-miterlimit="50" stroke-width="2" xlink:href="#2qj5C"/></g><g><use fill="#fff" fill-opacity="0" stroke="#000" stroke-linecap="round" stroke-miterlimit="50" stroke-width="2" xlink:href="#2qj5D"/></g><g><use fill="#fff" fill-opacity="0" stroke="#000" stroke-linecap="round" stroke-miterlimit="50" stroke-width="2" xlink:href="#2qj5E"/></g><g><use fill="#fff" fill-opacity="0" stroke="#000" stroke-linecap="round" stroke-miterlimit="50" stroke-width="2" xlink:href="#2qj5F"/></g><g><use fill="#fff" fill-opacity="0" stroke="#000" stroke-linecap="round" stroke-miterlimit="50" stroke-width="2" xlink:href="#2qj5G"/></g><g><use fill="#fff" fill-opacity="0" stroke="#000" stroke-linecap="round" stroke-miterlimit="50" stroke-width="2" xlink:href="#2qj5H"/></g><g><use fill="#fff" fill-opacity="0" stroke="#000" stroke-linecap="round" stroke-miterlimit="50" stroke-width="2" xlink:href="#2qj5I"/></g><g><use fill="#fff" fill-opacity="0" stroke="#000" stroke-linecap="round" stroke-miterlimit="50" stroke-width="2" xlink:href="#2qj5J"/></g><g><use fill="#fff" fill-opacity="0" stroke="#000" stroke-linecap="round" stroke-miterlimit="50" stroke-width="2" xlink:href="#2qj5K"/></g><g><use fill="#fff" fill-opacity="0" stroke="#000" stroke-linecap="round" stroke-miterlimit="50" stroke-width="2" xlink:href="#2qj5L"/></g><g><use fill="#fff" fill-opacity="0" stroke="#000" stroke-linecap="round" stroke-miterlimit="50" stroke-width="2" xlink:href="#2qj5M"/></g><g><use fill="#fff" fill-opacity="0" stroke="#000" stroke-linecap="round" stroke-miterlimit="50" stroke-width="2" xlink:href="#2qj5N"/></g><g><use fill="#fff" fill-opacity="0" stroke="#000" stroke-linecap="round" stroke-miterlimit="50" stroke-width="2" xlink:href="#2qj5O"/></g><g><use fill="#fff" fill-opacity="0" stroke="#000" stroke-linecap="round" stroke-miterlimit="50" stroke-width="2" xlink:href="#2qj5P"/></g><g><use fill="#fff" fill-opacity="0" stroke="#000" stroke-linecap="round" stroke-miterlimit="50" stroke-width="2" xlink:href="#2qj5Q"/></g><g><use xlink:href="#2qj5R"/></g><g><use xlink:href="#2qj5S"/></g><g><use xlink:href="#2qj5T"/></g><g><use xlink:href="#2qj5U"/></g><g><use xlink:href="#2qj5V"/></g><g><use xlink:href="#2qj5W"/></g><g><use xlink:href="#2qj5X"/></g><g><use fill="#fff" fill-opacity="0" stroke="#000" stroke-linecap="round" stroke-miterlimit="50" stroke-width="2" xlink:href="#2qj5Y"/></g><g><use fill="#fff" fill-opacity="0" stroke="#000" stroke-linecap="round" stroke-miterlimit="50" stroke-width="2" xlink:href="#2qj5Z"/></g><g><use fill="#fff" fill-opacity="0" stroke="#000" stroke-linecap="round" stroke-miterlimit="50" stroke-width="2" xlink:href="#2qj5aa"/></g><g><use fill="#fff" fill-opacity="0" stroke="#000" stroke-linecap="round" stroke-miterlimit="50" stroke-width="2" xlink:href="#2qj5ab"/></g><g><use fill="#fff" fill-opacity="0" stroke="#000" stroke-linecap="round" stroke-miterlimit="50" stroke-width="2" xlink:href="#2qj5ac"/></g><g><use fill="#fff" fill-opacity="0" stroke="#000" stroke-linecap="round" stroke-miterlimit="50" stroke-width="2" xlink:href="#2qj5ad"/></g><g><use fill="#fff" fill-opacity="0" stroke="#000" stroke-linecap="round" stroke-miterlimit="50" stroke-width="2" xlink:href="#2qj5ae"/></g><g><use fill="#fff" fill-opacity="0" stroke="#000" stroke-linecap="round" stroke-miterlimit="50" stroke-width="2" xlink:href="#2qj5af"/></g><g><use fill="#fff" fill-opacity="0" stroke="#000" stroke-linecap="round" stroke-miterlimit="50" stroke-width="2" xlink:href="#2qj5ag"/></g><g><use fill="#fff" fill-opacity="0" stroke="#000" stroke-linecap="round" stroke-miterlimit="50" stroke-width="2" xlink:href="#2qj5ah"/></g><g><use fill="#fff" fill-opacity="0" stroke="#000" stroke-linecap="round" stroke-miterlimit="50" stroke-width="2" xlink:href="#2qj5ai"/></g><g><use fill="#fff" fill-opacity="0" stroke="#000" stroke-linecap="round" stroke-miterlimit="50" stroke-width="2" xlink:href="#2qj5aj"/></g><g><use xlink:href="#2qj5ak"/></g><g><use xlink:href="#2qj5al"/></g><g><use xlink:href="#2qj5am"/></g><g><use fill="#fff" fill-opacity="0" stroke="#000" stroke-linecap="round" stroke-miterlimit="50" stroke-width="2" xlink:href="#2qj5an"/></g><g/><g><use fill="#fff" fill-opacity="0" stroke="#000" stroke-linecap="round" stroke-miterlimit="50" stroke-width="2" xlink:href="#2qj5ao"/></g><g><use fill="#fff" fill-opacity="0" stroke="#000" stroke-linecap="round" stroke-miterlimit="50" stroke-width="2" xlink:href="#2qj5ap"/></g><g><use fill="#fff" fill-opacity="0" stroke="#000" stroke-linecap="round" stroke-miterlimit="50" stroke-width="2" xlink:href="#2qj5aq"/></g><g><use fill="#fff" fill-opacity="0" stroke="#000" stroke-linecap="round" stroke-miterlimit="50" stroke-width="2" xlink:href="#2qj5ar"/></g><g><use fill="#fff" fill-opacity="0" stroke="#000" stroke-linecap="round" stroke-miterlimit="50" stroke-width="2" xlink:href="#2qj5as"/></g><g><use fill="#fff" fill-opacity="0" stroke="#000" stroke-linecap="round" stroke-miterlimit="50" stroke-width="2" xlink:href="#2qj5at"/></g><g><use fill="#fff" fill-opacity="0" stroke="#000" stroke-linecap="round" stroke-miterlimit="50" stroke-width="2" xlink:href="#2qj5au"/></g><g><use fill="#fff" fill-opacity="0" stroke="#000" stroke-linecap="round" stroke-miterlimit="50" stroke-width="2" xlink:href="#2qj5av"/></g><g><use fill="#fff" fill-opacity="0" stroke="#000" stroke-linecap="round" stroke-miterlimit="50" stroke-width="2" xlink:href="#2qj5aw"/></g><g><use fill="#fff" fill-opacity="0" stroke="#000" stroke-linecap="round" stroke-miterlimit="50" stroke-width="2" xlink:href="#2qj5ax"/></g><g><use fill="#fff" fill-opacity="0" stroke="#000" stroke-linecap="round" stroke-miterlimit="50" stroke-width="2" xlink:href="#2qj5ay"/></g><g><use fill="#fff" fill-opacity="0" stroke="#000" stroke-linecap="round" stroke-miterlimit="50" stroke-width="2" xlink:href="#2qj5az"/></g><g><use fill="#fff" fill-opacity="0" stroke="#000" stroke-linecap="round" stroke-miterlimit="50" stroke-width="2" xlink:href="#2qj5aA"/></g><g><use fill="#fff" fill-opacity="0" stroke="#000" stroke-linecap="round" stroke-miterlimit="50" stroke-width="2" xlink:href="#2qj5aB"/></g><g><use fill="#fff" fill-opacity="0" stroke="#000" stroke-linecap="round" stroke-miterlimit="50" stroke-width="2" xlink:href="#2qj5aC"/></g><g><use fill="#fff" fill-opacity="0" stroke="#000" stroke-linecap="round" stroke-miterlimit="50" stroke-width="2" xlink:href="#2qj5aD"/></g><g><use fill="#fff" fill-opacity="0" stroke="#000" stroke-linecap="round" stroke-miterlimit="50" stroke-width="2" xlink:href="#2qj5aE"/></g><g><use fill="#fff" fill-opacity="0" stroke="#000" stroke-linecap="round" stroke-miterlimit="50" stroke-width="2" xlink:href="#2qj5aF"/></g><g><use fill="#fff" fill-opacity="0" stroke="#000" stroke-linecap="round" stroke-miterlimit="50" stroke-width="2" xlink:href="#2qj5aG"/></g><g><use fill="#fff" fill-opacity="0" stroke="#000" stroke-linecap="round" stroke-miterlimit="50" stroke-width="2" xlink:href="#2qj5aH"/></g><g><use fill="#fff" fill-opacity="0" stroke="#000" stroke-linecap="round" stroke-miterlimit="50" stroke-width="2" xlink:href="#2qj5aI"/></g><g><use fill="#fff" fill-opacity="0" stroke="#000" stroke-linecap="round" stroke-miterlimit="50" stroke-width="2" xlink:href="#2qj5aJ"/></g><g><use fill="#fff" fill-opacity="0" stroke="#000" stroke-linecap="round" stroke-miterlimit="50" stroke-width="2" xlink:href="#2qj5aK"/></g><g><use fill="#fff" fill-opacity="0" stroke="#000" stroke-linecap="round" stroke-miterlimit="50" stroke-width="2" xlink:href="#2qj5aL"/></g><g><use fill="#fff" fill-opacity="0" stroke="#000" stroke-linecap="round" stroke-miterlimit="50" stroke-width="2" xlink:href="#2qj5aM"/></g><g><use fill="#fff" fill-opacity="0" stroke="#000" stroke-linecap="round" stroke-miterlimit="50" stroke-width="2" xlink:href="#2qj5aN"/></g><g><use fill="#fff" fill-opacity="0" stroke="#000" stroke-linecap="round" stroke-miterlimit="50" stroke-width="2" xlink:href="#2qj5aO"/></g><g><use fill="#fff" fill-opacity="0" stroke="#000" stroke-linecap="round" stroke-miterlimit="50" stroke-width="2" xlink:href="#2qj5aP"/></g><g><use fill="#fff" fill-opacity="0" stroke="#000" stroke-linecap="round" stroke-miterlimit="50" stroke-width="2" xlink:href="#2qj5aQ"/></g><g><use fill="#fff" fill-opacity="0" stroke="#000" stroke-linecap="round" stroke-miterlimit="50" stroke-width="2" xlink:href="#2qj5aR"/></g><g><use fill="#fff" fill-opacity="0" stroke="#000" stroke-linecap="round" stroke-miterlimit="50" stroke-width="2" xlink:href="#2qj5aS"/></g><g><use fill="#fff" fill-opacity="0" stroke="#000" stroke-linecap="round" stroke-miterlimit="50" stroke-width="2" xlink:href="#2qj5aT"/></g><g><use fill="#fff" fill-opacity="0" stroke="#000" stroke-linecap="round" stroke-miterlimit="50" stroke-width="2" xlink:href="#2qj5aU"/></g><g><use fill="#fff" fill-opacity="0" stroke="#000" stroke-linecap="round" stroke-miterlimit="50" stroke-width="2" xlink:href="#2qj5aV"/></g><g><use fill="#fff" fill-opacity="0" stroke="#000" stroke-linecap="round" stroke-miterlimit="50" stroke-width="2" xlink:href="#2qj5aW"/></g><g><use fill="#fff" fill-opacity="0" stroke="#000" stroke-linecap="round" stroke-miterlimit="50" stroke-width="2" xlink:href="#2qj5aX"/></g><g><use fill="#fff" fill-opacity="0" stroke="#000" stroke-linecap="round" stroke-miterlimit="50" stroke-width="2" xlink:href="#2qj5aY"/></g><g><use fill="#fff" fill-opacity="0" stroke="#000" stroke-linecap="round" stroke-miterlimit="50" stroke-width="2" xlink:href="#2qj5aZ"/></g><g><use fill="#fff" fill-opacity="0" stroke="#000" stroke-linecap="round" stroke-miterlimit="50" stroke-width="2" xlink:href="#2qj5ba"/></g><g><use fill="#fff" fill-opacity="0" stroke="#000" stroke-linecap="round" stroke-miterlimit="50" stroke-width="2" xlink:href="#2qj5bb"/></g><g><use fill="#fff" fill-opacity="0" stroke="#000" stroke-linecap="round" stroke-miterlimit="50" stroke-width="2" xlink:href="#2qj5bc"/></g><g><use fill="#fff" fill-opacity="0" stroke="#000" stroke-linecap="round" stroke-miterlimit="50" stroke-width="2" xlink:href="#2qj5bd"/></g><g><use fill="#fff" fill-opacity="0" stroke="#000" stroke-linecap="round" stroke-miterlimit="50" stroke-width="2" xlink:href="#2qj5be"/></g><g><use fill="#fff" fill-opacity="0" stroke="#000" stroke-linecap="round" stroke-miterlimit="50" stroke-width="2" xlink:href="#2qj5bf"/></g><g><use fill="#fff" fill-opacity="0" stroke="#000" stroke-linecap="round" stroke-miterlimit="50" stroke-width="2" xlink:href="#2qj5bg"/></g><g><use fill="#fff" fill-opacity="0" stroke="#000" stroke-linecap="round" stroke-miterlimit="50" stroke-width="2" xlink:href="#2qj5bh"/></g><g><use fill="#fff" fill-opacity="0" stroke="#000" stroke-linecap="round" stroke-miterlimit="50" stroke-width="2" xlink:href="#2qj5bi"/></g><g><use fill="#fff" fill-opacity="0" stroke="#000" stroke-linecap="round" stroke-miterlimit="50" stroke-width="2" xlink:href="#2qj5bj"/></g><g><use fill="#fff" fill-opacity="0" stroke="#000" stroke-linecap="round" stroke-miterlimit="50" stroke-width="2" xlink:href="#2qj5bk"/></g><g><use fill="#fff" fill-opacity="0" stroke="#000" stroke-linecap="round" stroke-miterlimit="50" stroke-width="2" xlink:href="#2qj5bl"/></g><g><use fill="#fff" fill-opacity="0" stroke="#000" stroke-linecap="round" stroke-miterlimit="50" stroke-width="2" xlink:href="#2qj5bm"/></g><g><use xlink:href="#2qj5bn"/></g><g><use xlink:href="#2qj5bo"/></g><g><use xlink:href="#2qj5bp"/></g><g><use fill="#fff" fill-opacity="0" stroke="#000" stroke-linecap="round" stroke-miterlimit="50" stroke-width="2" xlink:href="#2qj5bq"/></g><g/><g><use fill="#fff" fill-opacity="0" stroke="#000" stroke-linecap="round" stroke-miterlimit="50" stroke-width="2" xlink:href="#2qj5br"/></g><g><g><use fill="#fff" fill-opacity="0" stroke="#000" stroke-linecap="round" stroke-miterlimit="50" stroke-width="2" xlink:href="#2qj5bs"/></g><g><use fill="#fff" fill-opacity="0" stroke="#000" stroke-linecap="round" stroke-miterlimit="50" stroke-width="2" xlink:href="#2qj5bt"/></g></g><g><g><use fill="#fff" fill-opacity="0" stroke="#000" stroke-linecap="round" stroke-miterlimit="50" stroke-width="2" xlink:href="#2qj5bu"/></g><g><use fill="#fff" fill-opacity="0" stroke="#000" stroke-linecap="round" stroke-miterlimit="50" stroke-width="2" xlink:href="#2qj5bv"/></g></g><g><g><use fill="#fff" fill-opacity="0" stroke="#000" stroke-linecap="round" stroke-miterlimit="50" stroke-width="2" xlink:href="#2qj5bw"/></g><g><use fill="#fff" fill-opacity="0" stroke="#000" stroke-linecap="round" stroke-miterlimit="50" stroke-width="2" xlink:href="#2qj5bx"/></g></g><g><g><use fill="#fff" fill-opacity="0" stroke="#000" stroke-linecap="round" stroke-miterlimit="50" stroke-width="2" xlink:href="#2qj5by"/></g><g><use fill="#fff" fill-opacity="0" stroke="#000" stroke-linecap="round" stroke-miterlimit="50" stroke-width="2" xlink:href="#2qj5bz"/></g></g><g><use fill="#fff" fill-opacity="0" stroke="#000" stroke-linecap="round" stroke-miterlimit="50" stroke-width="2" xlink:href="#2qj5bA"/></g><g><use fill="#fff" fill-opacity="0" stroke="#000" stroke-linecap="round" stroke-miterlimit="50" stroke-width="2" xlink:href="#2qj5bB"/></g></g></g></svg>