<svg xmlns="http://www.w3.org/2000/svg" xmlns:xlink="http://www.w3.org/1999/xlink" width="487" height="249" viewBox="0 0 487 249"><defs><path id="nba4a" d="M679.475 620.41c0-5.896-4.784-10.68-10.68-10.68-5.895 0-10.68 4.784-10.68 10.68"/><path id="nba4b" d="M649.453 620.41a4.33 4.33 0 0 1 4.326-4.327 4.33 4.33 0 0 1 4.327 4.327"/><path id="nba4c" d="M653.78 626.052a5.656 5.656 0 0 0-5.652-5.652 5.656 5.656 0 0 0-5.652 5.652 5.656 5.656 0 0 0 5.652 5.651h35.771"/><path id="nba4d" d="M683.393 626.052a5.656 5.656 0 0 1 5.651-5.652 5.656 5.656 0 0 1 5.652 5.652 5.656 5.656 0 0 1-5.652 5.651h-15.922"/><path id="nba4e" d="M344.092 769.782l5.009-25.384 5.008 25.043"/><path id="nba4f" d="M354.11 769.44l5.68-24.711 5.36 24.37"/><path id="nba4g" d="M365.15 769.1l5.009-24.371 4.813 24.108"/><path id="nba4h" d="M447.724 769.1l-4.872-24.702-5.009 25.043"/><path id="nba4i" d="M437.161 769.246l-4.999-24.517-5.008 24.517"/><path id="nba4j" d="M426.627 769.246l-4.833-24.517-4.892 24.41"/><path id="nba4k" d="M312.014 788.628l6.265-9.755H472.251l5.905 9.755H312.014"/><path id="nba4l" d="M375.83 769.139l-4.863 9.734h48.235l-3.82-9.734z"/><path id="nba4m" d="M376.385 769.139v-55.865h39.027v55.865z"/><path id="nba4n" d="M391.625 648.2l-11.683 31.3h30.13l-11.42-31.3z"/><path id="nba4o" d="M389.56 645.336c0-1.582 2.678-2.865 5.983-2.865 3.304 0 5.983 1.283 5.983 2.865 0 1.582-2.679 2.865-5.983 2.865-3.305 0-5.983-1.283-5.983-2.865z"/><path id="nba4p" d="M392.278 636.069v6.402"/><path id="nba4q" d="M398.71 636.069v6.84"/><path id="nba4r" d="M395.699 609.69l-.098 11.022z"/><path id="nba4s" d="M392.62 612.205h6.05"/><path id="nba4t" d="M379.942 679.5l-3.557 33.774h39.036l-5.35-33.774z"/><path id="nba4u" d="M317.237 802.65v-4.931h4.93v4.93z"/><path id="nba4v" d="M332 802.65v-4.931h4.93v4.93z"/><path id="nba4w" d="M473.36 797.726v4.93h-4.93v-4.93z"/><path id="nba4x" d="M458.59 797.726v4.93h-4.931v-4.93z"/><path id="nba4y" d="M392.054 809.266V796.54c0-1.92 1.209-3.479 2.7-3.479h1.15c1.49 0 2.698 1.56 2.698 3.479v12.726"/><path id="nba4z" d="M563.137 809.256v-18.904c0-2.855 1.208-5.174 2.7-5.174h1.149c1.49 0 2.7 2.32 2.7 5.174v18.904"/><path id="nba4A" d="M689.63 809.237v-18.904c0-2.855 1.207-5.174 2.698-5.174h1.15c1.491 0 2.7 2.319 2.7 5.174v18.904"/><path id="nba4B" d="M392.63 769.246V756.52c0-1.92 1.207-3.48 2.698-3.48h1.15c1.491 0 2.7 1.56 2.7 3.48v12.726"/><path id="nba4C" d="M403.523 769.782V758.77c0-1.667 1.209-3.011 2.7-3.011h1.15c1.49 0 2.699 1.344 2.699 3.01v11.012"/><path id="nba4D" d="M381.17 769.782V758.77c0-1.667 1.208-3.011 2.699-3.011h1.15c1.49 0 2.699 1.344 2.699 3.01v11.012"/><path id="nba4E" d="M354.792 743.754v-3.995c0-1.666 1.851-3.01 4.121-3.01h1.764c2.28 0 4.122 1.344 4.122 3.01v3.995"/><path id="nba4F" d="M365.588 743.754v-3.995c0-1.666 1.852-3.01 4.122-3.01h1.764c2.28 0 4.122 1.344 4.122 3.01v3.995"/><path id="nba4G" d="M344.092 743.754v-3.995c0-1.666 1.852-3.01 4.122-3.01h1.764c2.28 0 4.122 1.344 4.122 3.01v3.995"/><path id="nba4H" d="M392.63 735.257v-21.983h6.557v21.983z"/><path id="nba4I" d="M415.421 735.257h-39.036"/><path id="nba4J" d="M376.385 749.786h39.036"/><path id="nba4K" d="M376.385 743.754h39.036"/><path id="nba4L" d="M381.774 735.218v-10.952h5.35v10.952z"/><path id="nba4M" d="M404.128 735.218v-10.952h5.35v10.952z"/><path id="nba4N" d="M324.516 778.532v-9.091h12.112v9.091z"/><path id="nba4O" d="M330.538 745.733c-4.346 7.357-11.216 9.9-11.216 14.568 0 4.618 4.93 8.409 11.216 8.799"/><path id="nba4P" d="M330.538 769.1c-6.285-.39-11.216-4.18-11.216-8.8 0-4.667 6.87-7.21 11.216-14.567 4.346 7.357 11.001 9.9 11.001 14.568 0 4.618-4.93 8.409-11.216 8.799"/><path id="nba4Q" d="M312.014 808.906v-20.278h166.142v20.278z"/><path id="nba4R" d="M324.516 773.991l11.42.02"/><path id="nba4S" d="M359.79 723.447v13.292"/><path id="nba4T" d="M342.864 774.01l30.461.147"/><path id="nba4U" d="M437.161 743.754v-3.995c0-1.666-1.851-3.01-4.122-3.01h-1.764c-2.28 0-4.121 1.344-4.121 3.01v3.995"/><path id="nba4V" d="M426.364 743.754v-3.995c0-1.666-1.851-3.01-4.122-3.01h-1.763c-2.28 0-4.122 1.344-4.122 3.01v3.995"/><path id="nba4W" d="M447.86 743.754v-3.995c0-1.666-1.851-3.01-4.121-3.01h-1.764c-2.28 0-4.122 1.344-4.122 3.01v3.995"/><path id="nba4X" d="M467.433 769.446v9.092h-12.112v-9.092z"/><path id="nba4Y" d="M461.415 745.733c4.346 7.357 11.216 9.9 11.216 14.568 0 4.618-4.93 8.409-11.216 8.799"/><path id="nba4Z" d="M461.415 769.1c6.285-.39 11.216-4.18 11.216-8.8 0-4.667-6.87-7.21-11.216-14.567-4.346 7.357-11.001 9.9-11.001 14.568 0 4.618 4.93 8.409 11.215 8.799"/><path id="nba4aa" d="M461.356 735.209l.05 11.03z"/><path id="nba4ab" d="M464.445 737.732h-6.06"/><path id="nba4ac" d="M330.596 735.209l-.048 11.03z"/><path id="nba4ad" d="M327.507 737.732h6.061"/><path id="nba4ae" d="M467.437 773.991l-11.42.02"/><path id="nba4af" d="M432.162 723.447v13.292"/><path id="nba4ag" d="M449.088 774.01l-31.737.147"/><path id="nba4ah" d="M396.02 636.868c.137.01-.136 0 0 0 3.274.02 5.944-2.378 5.964-5.35.02-2.972-6.14-11.41-6.285-11.557h-.098c-.146.156-6.041 8.78-5.934 11.742.107 2.963 2.845 5.282 6.12 5.165.146 0 .097.02.233 0"/><path id="nba4ai" d="M493.805 804.267c.176.01-.175-.01 0 0 4.249.02 7.708-3.625 7.737-8.156.02-4.521-7.941-17.374-8.136-17.608h-.117c-.185.244-7.835 13.389-7.708 17.91.137 4.522 3.683 8.04 7.932 7.864.175-.02.117.01.292-.01"/><path id="nba4aj" d="M360.395 672.28l-.02 9.822"/><path id="nba4ak" d="M360.365 684.81l-.01 4.639"/><path id="nba4al" d="M357.53 676.762h6.06"/><path id="nba4am" d="M359.04 683.456a1.354 1.354 0 1 1 2.71 0 1.354 1.354 0 0 1-2.71 0z"/><path id="nba4an" d="M431.714 672.28l.03 9.822"/><path id="nba4ao" d="M431.753 684.81l.01 4.639"/><path id="nba4ap" d="M434.589 676.762h-6.061"/><path id="nba4aq" d="M430.36 683.456a1.354 1.354 0 1 1 2.708 0 1.354 1.354 0 0 1-2.708 0z"/><path id="nba4ar" d="M373.325 778.873v30.033h44.026l-.565-30.374z"/><path id="nba4as" d="M381.17 788.628v20.278"/><path id="nba4at" d="M410.081 788.628v20.278"/><path id="nba4au" d="M341.549 779.74v29.166"/><path id="nba4av" d="M450.404 779.74v29.166"/><path id="nba4aw" d="M341.549 794.318h31.776"/><path id="nba4ax" d="M417.331 793.977h33.073"/><path id="nba4ay" d="M395.543 648.2v31.3"/><path id="nba4az" d="M619.226 809.675v-12.482a8.791 8.791 0 0 1 8.79-8.79 8.791 8.791 0 0 1 8.789 8.79v12.482"/><path id="nba4aA" d="M624.468 785.178v-7.094h7.094v7.094z"/><path id="nba4aB" d="M617.598 784.233v-3.245h3.245v3.245z"/><path id="nba4aC" d="M635.187 784.233v-3.245h3.245v3.245z"/><path id="nba4aD" d="M609.277 772.656h37.477"/><path id="nba4aE" d="M614.13 739.983v70.667"/><path id="nba4aF" d="M641.9 738.044v70.813"/><path id="nba4aG" d="M614.13 786.162h-4.853"/><path id="nba4aH" d="M614.13 798.05h-4.853"/><path id="nba4aI" d="M619.255 798.05h-4.853"/><path id="nba4aJ" d="M641.989 798.05h-4.853"/><path id="nba4aK" d="M646.452 786.162h-4.853"/><path id="nba4aL" d="M646.452 798.05h-4.853"/><path id="nba4aM" d="M493.669 804.316v4.629"/><path id="nba4aN" d="M478.156 808.906h76.932"/><path id="nba4aO" d="M330.538 747.048s-5.389 19.8-.215 22.052"/><path id="nba4aP" d="M327.868 749.435s-5.019 13.019-1.433 18.875"/><path id="nba4aQ" d="M324.175 753.207s-3.323 11.352-.575 13.788"/><path id="nba4aR" d="M330.538 747.048s5.281 19.8.107 22.052"/><path id="nba4aS" d="M333.11 749.435s5.019 13.019 1.433 18.875"/><path id="nba4aT" d="M336.803 753.207s3.323 11.352.575 13.788"/><path id="nba4aU" d="M375.177 769.782h-31.085v-26.028h32.07"/><path id="nba4aV" d="M344.092 769.782l-2.543 8.75"/><path id="nba4aW" d="M351.323 736.816v-14.158h17.91v14.158"/><path id="nba4aX" d="M360.278 689.546c-6.052 10.251-15.63 13.798-15.63 20.298 0 6.441 6.87 11.713 15.63 12.258"/><path id="nba4aY" d="M360.278 722.102c-8.76-.545-15.63-5.817-15.63-12.258 0-6.5 9.578-10.047 15.63-20.298 6.051 10.251 15.337 13.798 15.337 20.298 0 6.441-6.87 11.713-15.63 12.258"/><path id="nba4aZ" d="M360.278 691.008s-7.503 27.957-.293 31.094"/><path id="nba4ba" d="M356.555 694.701s-6.996 18.144-1.997 26.3"/><path id="nba4bb" d="M351.4 699.963s-4.628 15.825-.799 19.206"/><path id="nba4bc" d="M360.278 691.008s7.357 27.957.146 31.094"/><path id="nba4bd" d="M363.854 694.701s6.996 18.144 1.998 26.3"/><path id="nba4be" d="M368.999 699.963s4.629 15.825.799 19.206"/><path id="nba4bf" d="M461.522 747.623s5.282 19.226.107 21.477"/><path id="nba4bg" d="M464.085 749.435s5.018 13.019 1.432 18.875"/><path id="nba4bh" d="M467.778 753.207s3.323 11.352.575 13.788"/><path id="nba4bi" d="M461.415 747.623s-5.282 19.226-.107 21.477"/><path id="nba4bj" d="M458.842 749.435s-5.018 13.019-1.432 18.875"/><path id="nba4bk" d="M455.15 753.207s-3.324 11.352-.576 13.788"/><path id="nba4bl" d="M416.776 769.782h31.084v-26.028h-32.068"/><path id="nba4bm" d="M447.86 769.782l2.544 8.75"/><path id="nba4bn" d="M440.63 736.816v-14.158h-17.91v14.158"/><path id="nba4bo" d="M431.675 689.546c6.051 10.251 15.63 13.798 15.63 20.298 0 6.441-6.87 11.713-15.63 12.258"/><path id="nba4bp" d="M431.675 722.102c8.76-.545 15.63-5.817 15.63-12.258 0-6.5-9.579-10.047-15.63-20.298-6.051 10.251-15.338 13.798-15.338 20.298 0 6.441 6.87 11.713 15.63 12.258"/><path id="nba4bq" d="M431.675 691.008s7.503 27.957.292 31.094"/><path id="nba4br" d="M435.397 694.701s6.997 18.144 1.998 26.3"/><path id="nba4bs" d="M440.552 699.963s4.629 15.825.8 19.206"/><path id="nba4bt" d="M431.675 691.008s-7.357 27.957-.146 31.094"/><path id="nba4bu" d="M428.099 694.701s-6.997 18.144-1.998 26.3"/><path id="nba4bv" d="M422.954 699.963s-4.629 15.825-.8 19.206"/><path id="nba4bw" d="M533.28 782.869l-5.087-120.305h-6.031l-4.424 120.305z"/><path id="nba4bx" d="M519.18 662.564v-9.072h12.112v9.072z"/><path id="nba4by" d="M521.207 653.492v-12.639h8.049v12.639z"/><path id="nba4bz" d="M522.659 640.854v-22.598h5.232v22.598z"/><path id="nba4bA" d="M519.492 617.769v-7.708h11.45v7.708z"/><path id="nba4bB" d="M516.841 610.051v-21.203h16.624v21.203z"/><path id="nba4bC" d="M522.337 588.848v-8.917h5.866v8.917z"/><path id="nba4bD" d="M525.153 562.343v17.871"/><path id="nba4bE" d="M523.35 568.872h3.606"/><path id="nba4bF" d="M516.841 604.702h16.624"/><path id="nba4bG" d="M516.958 594.48h16.624"/><path id="nba4bH" d="M516.958 599.586h16.624"/><path id="nba4bI" d="M516.373 720.056h18.739"/><path id="nba4bJ" d="M516.373 726.721h18.739"/><path id="nba4bK" d="M578.28 808.906h-23.192v-38.803h23.192v9.072z"/><path id="nba4bL" d="M704.772 808.886H681.57v-38.802h23.202v9.072z"/><path id="nba4bM" d="M514.23 808.71v-25.93h22.334v25.93z"/><path id="nba4bN" d="M617.598 709.932v-13.038h20.853v13.038z"/><path id="nba4bO" d="M638.461 696.894l-10.436-30.383-10.427 30.383"/><path id="nba4bP" d="M628.025 654.924l1.413 2.846 3.138.448-2.27 2.222.535 3.118-2.816-1.471-2.806 1.471.535-3.118-2.27-2.222 3.138-.448z"/><path id="nba4bQ" d="M609.277 809.675l-54.189-.77v-30.032"/><path id="nba4bR" d="M632.702 739.009h14.052v70.666h-37.477V739.01h14.5"/><path id="nba4bS" d="M635.996 755.155h-15.22v-12.619l7.249-8.536 7.97 8.536z"/><path id="nba4bT" d="M626.437 745.245v-4.716h3.79v4.716z"/><path id="nba4bU" d="M617.598 739.009V709.99h20.863v29.019"/><path id="nba4bV" d="M622.334 723.525a5.681 5.681 0 1 1 11.362 0 5.681 5.681 0 0 1-11.362 0z"/><path id="nba4bW" d="M624.303 709.932v-13.038l3.712-28.162 3.41 28.162v13.096"/><path id="nba4bX" d="M628.015 724.5l.01-2.67z"/><path id="nba4bY" d="M628.025 724.5l1.618 1.54"/><path id="nba4bZ" d="M609.277 739.019v-10.28h4.852v10.28z"/><path id="nba4ca" d="M641.9 739.019v-10.28h4.854v10.28z"/><path id="nba4cb" d="M609.277 728.738l2.153-8.672 2.7 8.672"/><path id="nba4cc" d="M641.901 728.738l2.153-8.672 2.7 8.672"/><path id="nba4cd" d="M614.13 761.81h27.77"/><path id="nba4ce" d="M578.28 779.175l31.114-.136"/><path id="nba4cf" d="M647.592 779.175l34.28-.136"/><path id="nba4cg" d="M552.37 769.782v-6.285h28.102v6.285z"/><path id="nba4ch" d="M556.481 763.467v-5.076h19.879v5.076z"/><path id="nba4ci" d="M556.481 758.595l5.594-16.38h9.013l5.272 16.38"/><path id="nba4cj" d="M563.01 742.05v-7.63h7.036v7.63z"/><path id="nba4ck" d="M563.01 734.42l3.518-11.597 3.508 11.596"/><path id="nba4cl" d="M566.528 742.215v7.562"/><path id="nba4cm" d="M564.676 769.782v-2.28"/><path id="nba4cn" d="M568.555 769.782v-2.28"/><path id="nba4co" d="M549.66 769.782v-2.28"/><path id="nba4cp" d="M560.983 769.782v-2.28"/><path id="nba4cq" d="M568.37 763.204v-2.27"/><path id="nba4cr" d="M572.258 763.204v-2.27"/><path id="nba4cs" d="M560.798 763.204v-2.27"/><path id="nba4ct" d="M564.676 763.204v-2.27"/><path id="nba4cu" d="M572.764 769.782v-2.28"/><path id="nba4cv" d="M576.36 769.782v-2.28"/><path id="nba4cw" d="M678.862 769.753v-6.286h28.102v6.286z"/><path id="nba4cx" d="M682.964 763.448v-5.077h19.878v5.077z"/><path id="nba4cy" d="M682.964 758.576l5.603-16.38h9.014l5.271 16.38"/><path id="nba4cz" d="M689.502 742.03v-7.63h7.036v7.63z"/><path id="nba4cA" d="M689.502 734.4l3.508-11.606 3.518 11.606"/><path id="nba4cB" d="M693.01 742.195v7.552"/><path id="nba4cC" d="M691.169 769.762v-2.28"/><path id="nba4cD" d="M695.047 769.762v-2.28"/><path id="nba4cE" d="M687.476 769.762v-2.28"/><path id="nba4cF" d="M694.862 763.185v-2.28"/><path id="nba4cG" d="M698.74 763.185v-2.28"/><path id="nba4cH" d="M687.28 763.185v-2.28"/><path id="nba4cI" d="M691.169 763.185v-2.28"/><path id="nba4cJ" d="M699.247 769.762v-2.28"/><path id="nba4cK" d="M702.852 769.762v-2.28"/><path id="nba4cL" d="M721.922 644.625l18.222-16.166s49.901 99.042 26.476 178.897c-.4-.994-52.113-132.66-44.698-162.731z"/><path id="nba4cM" d="M730.312 809.052c-19.04-45.76 2.543-99.247 2.543-99.247l35.246.974"/><path id="nba4cN" d="M765.1 699.788c2.543-3.85 3.498-62.296 3.498-62.296l-28.425-9.462"/><path id="nba4cO" d="M721.133 654.788l23.679-15.045"/><path id="nba4cP" d="M722.039 664.396l27.499-14.52"/><path id="nba4cQ" d="M722.974 671.821l30.15-12.521"/><path id="nba4cR" d="M724.884 679.159l31.718-9.92"/><path id="nba4cS" d="M726.853 687.685l32.059-8.526"/><path id="nba4cT" d="M728.714 694.993l33.511-6.333"/><path id="nba4cU" d="M730.828 702.77l34.272-2.982"/><path id="nba4cV" d="M735.788 719.56l33.56.974"/><path id="nba4cW" d="M738.449 728.008l32.185.974"/><path id="nba4cX" d="M741.489 737.333l30.247.974"/><path id="nba4cY" d="M745.533 747.146l27.343 1.91"/><path id="nba4cZ" d="M748.417 757.601l24.459 2.349"/><path id="nba4da" d="M752.568 769.226l20.025 2.037"/><path id="nba4db" d="M756.105 778.883l15.63 2.69"/><path id="nba4dc" d="M759.906 789.047l10.475 2.046"/><path id="nba4dd" d="M743.409 635.367l25.052 8.897"/><path id="nba4de" d="M747.969 645.97l20.122 6.898"/><path id="nba4df" d="M752.568 656.65l15.377 6.586"/><path id="nba4dg" d="M755.94 667.27l11.635 5.555"/><path id="nba4dh" d="M759.204 677.356l7.942 4.424"/><path id="nba4di" d="M727.437 728.008l7.698-10.583"/><path id="nba4dj" d="M725.128 739.613l13.057-12.434"/><path id="nba4dk" d="M723.832 749.172l17.657-11.84"/><path id="nba4dl" d="M723.14 759.268l21.448-12.707"/><path id="nba4dm" d="M723.023 769.675l25.053-13.038"/><path id="nba4dn" d="M723.657 778.474l28.307-10.914"/><path id="nba4do" d="M724.933 787.439l30.744-9.706"/><path id="nba4dp" d="M726.804 795.819l33.102-8.38"/><path id="nba4dq" d="M728.89 802.64l34.446-3.664"/><path id="nba4dr" d="M630.558 809.685L783 809.217"/><path id="nba4ds" d="M662.218 801.159l-4.404 7.62h13.837l-4.405-7.62"/><path id="nba4dt" d="M664.908 791.6l-5.516 9.559h11.03z"/><path id="nba4du" d="M591.269 801.159l-4.404 7.62h13.837l-4.405-7.62"/><path id="nba4dv" d="M593.958 791.6l-5.525 9.559h11.04z"/><path id="nba4dw" d="M319.81 808.906h-19.48"/></defs><g><g transform="translate(-299 -562)"><g><use fill="#fff" fill-opacity="0" stroke="#0d0e0f" stroke-linecap="round" stroke-miterlimit="50" stroke-width="2" xlink:href="#nba4a"/></g><g><use fill="#fff" fill-opacity="0" stroke="#0d0e0f" stroke-linecap="round" stroke-miterlimit="50" stroke-width="2" xlink:href="#nba4b"/></g><g><use fill="#fff" fill-opacity="0" stroke="#0d0e0f" stroke-linecap="round" stroke-miterlimit="50" stroke-width="2" xlink:href="#nba4c"/></g><g><use fill="#fff" fill-opacity="0" stroke="#0d0e0f" stroke-linecap="round" stroke-miterlimit="50" stroke-width="2" xlink:href="#nba4d"/></g><g><use fill="#fff" fill-opacity="0" stroke="#0d0e0f" stroke-linecap="square" stroke-linejoin="round" stroke-miterlimit="50" stroke-width="2" xlink:href="#nba4e"/></g><g><use fill="#fff" fill-opacity="0" stroke="#0d0e0f" stroke-linecap="square" stroke-linejoin="round" stroke-miterlimit="50" stroke-width="2" xlink:href="#nba4f"/></g><g><use fill="#fff" fill-opacity="0" stroke="#0d0e0f" stroke-linecap="square" stroke-linejoin="round" stroke-miterlimit="50" stroke-width="2" xlink:href="#nba4g"/></g><g><use fill="#fff" fill-opacity="0" stroke="#0d0e0f" stroke-linecap="square" stroke-linejoin="round" stroke-miterlimit="50" stroke-width="2" xlink:href="#nba4h"/></g><g><use fill="#fff" fill-opacity="0" stroke="#0d0e0f" stroke-linecap="square" stroke-linejoin="round" stroke-miterlimit="50" stroke-width="2" xlink:href="#nba4i"/></g><g><use fill="#fff" fill-opacity="0" stroke="#0d0e0f" stroke-linecap="square" stroke-linejoin="round" stroke-miterlimit="50" stroke-width="2" xlink:href="#nba4j"/></g><g><use fill="#fff" fill-opacity="0" stroke="#0d0e0f" stroke-linejoin="round" stroke-miterlimit="50" stroke-width="2" xlink:href="#nba4k"/></g><g><use fill="#fff" fill-opacity="0" stroke="#0d0e0f" stroke-miterlimit="50" stroke-width="2" xlink:href="#nba4l"/></g><g><use fill="#fff" fill-opacity="0" stroke="#0d0e0f" stroke-miterlimit="50" stroke-width="2" xlink:href="#nba4m"/></g><g><use fill="#fff" fill-opacity="0" stroke="#0d0e0f" stroke-miterlimit="50" stroke-width="2" xlink:href="#nba4n"/></g><g><use fill="#fff" fill-opacity="0" stroke="#0d0e0f" stroke-miterlimit="50" stroke-width="2" xlink:href="#nba4o"/></g><g><use fill="#fff" fill-opacity="0" stroke="#0d0e0f" stroke-miterlimit="50" stroke-width="2" xlink:href="#nba4p"/></g><g><use fill="#fff" fill-opacity="0" stroke="#0d0e0f" stroke-miterlimit="50" stroke-width="2" xlink:href="#nba4q"/></g><g><use fill="#fff" fill-opacity="0" stroke="#0d0e0f" stroke-miterlimit="50" stroke-width="2" xlink:href="#nba4r"/></g><g><use fill="#fff" fill-opacity="0" stroke="#0d0e0f" stroke-miterlimit="50" stroke-width="2" xlink:href="#nba4s"/></g><g><use fill="#fff" fill-opacity="0" stroke="#0d0e0f" stroke-miterlimit="50" stroke-width="2" xlink:href="#nba4t"/></g><g><use fill="#fff" fill-opacity="0" stroke="#0d0e0f" stroke-miterlimit="50" stroke-width="2" xlink:href="#nba4u"/></g><g><use fill="#fff" fill-opacity="0" stroke="#0d0e0f" stroke-miterlimit="50" stroke-width="2" xlink:href="#nba4v"/></g><g><use fill="#fff" fill-opacity="0" stroke="#0d0e0f" stroke-miterlimit="50" stroke-width="2" xlink:href="#nba4w"/></g><g><use fill="#fff" fill-opacity="0" stroke="#0d0e0f" stroke-miterlimit="50" stroke-width="2" xlink:href="#nba4x"/></g><g><use fill="#fff" fill-opacity="0" stroke="#0d0e0f" stroke-miterlimit="50" stroke-width="2" xlink:href="#nba4y"/></g><g><use fill="#fff" fill-opacity="0" stroke="#0d0e0f" stroke-miterlimit="50" stroke-width="2" xlink:href="#nba4z"/></g><g><use fill="#fff" fill-opacity="0" stroke="#0d0e0f" stroke-miterlimit="50" stroke-width="2" xlink:href="#nba4A"/></g><g><use fill="#fff" fill-opacity="0" stroke="#0d0e0f" stroke-miterlimit="50" stroke-width="2" xlink:href="#nba4B"/></g><g><use fill="#fff" fill-opacity="0" stroke="#0d0e0f" stroke-miterlimit="50" stroke-width="2" xlink:href="#nba4C"/></g><g><use fill="#fff" fill-opacity="0" stroke="#0d0e0f" stroke-miterlimit="50" stroke-width="2" xlink:href="#nba4D"/></g><g><use fill="#fff" fill-opacity="0" stroke="#0d0e0f" stroke-miterlimit="50" stroke-width="2" xlink:href="#nba4E"/></g><g><use fill="#fff" fill-opacity="0" stroke="#0d0e0f" stroke-miterlimit="50" stroke-width="2" xlink:href="#nba4F"/></g><g><use fill="#fff" fill-opacity="0" stroke="#0d0e0f" stroke-miterlimit="50" stroke-width="2" xlink:href="#nba4G"/></g><g><use fill="#fff" fill-opacity="0" stroke="#0d0e0f" stroke-miterlimit="50" stroke-width="2" xlink:href="#nba4H"/></g><g/><g><use fill="#fff" fill-opacity="0" stroke="#0d0e0f" stroke-miterlimit="50" stroke-width="2" xlink:href="#nba4I"/></g><g><use fill="#fff" fill-opacity="0" stroke="#0d0e0f" stroke-miterlimit="50" stroke-width="2" xlink:href="#nba4J"/></g><g><use fill="#fff" fill-opacity="0" stroke="#0d0e0f" stroke-miterlimit="50" stroke-width="2" xlink:href="#nba4K"/></g><g><use fill="#fff" fill-opacity="0" stroke="#0d0e0f" stroke-miterlimit="50" stroke-width="2" xlink:href="#nba4L"/></g><g><use fill="#fff" fill-opacity="0" stroke="#0d0e0f" stroke-miterlimit="50" stroke-width="2" xlink:href="#nba4M"/></g><g><use fill="#fff" fill-opacity="0" stroke="#0d0e0f" stroke-miterlimit="50" stroke-width="2" xlink:href="#nba4N"/></g><g><use fill="#fff" fill-opacity="0" stroke="#0d0e0f" stroke-miterlimit="50" stroke-width="2" xlink:href="#nba4O"/></g><g><use fill="#fff" fill-opacity="0" stroke="#0d0e0f" stroke-miterlimit="50" stroke-width="2" xlink:href="#nba4P"/></g><g><use fill="#fff" fill-opacity="0" stroke="#0d0e0f" stroke-linejoin="round" stroke-miterlimit="50" stroke-width="2" xlink:href="#nba4Q"/></g><g/><g><use fill="#fff" fill-opacity="0" stroke="#0d0e0f" stroke-miterlimit="50" stroke-width="2" xlink:href="#nba4R"/></g><g><use fill="#fff" fill-opacity="0" stroke="#0d0e0f" stroke-miterlimit="50" stroke-width="2" xlink:href="#nba4S"/></g><g><use fill="#fff" fill-opacity="0" stroke="#0d0e0f" stroke-miterlimit="50" stroke-width="2" xlink:href="#nba4T"/></g><g><use fill="#fff" fill-opacity="0" stroke="#0d0e0f" stroke-miterlimit="50" stroke-width="2" xlink:href="#nba4U"/></g><g><use fill="#fff" fill-opacity="0" stroke="#0d0e0f" stroke-miterlimit="50" stroke-width="2" xlink:href="#nba4V"/></g><g><use fill="#fff" fill-opacity="0" stroke="#0d0e0f" stroke-miterlimit="50" stroke-width="2" xlink:href="#nba4W"/></g><g><use fill="#fff" fill-opacity="0" stroke="#0d0e0f" stroke-miterlimit="50" stroke-width="2" xlink:href="#nba4X"/></g><g><use fill="#fff" fill-opacity="0" stroke="#0d0e0f" stroke-miterlimit="50" stroke-width="2" xlink:href="#nba4Y"/></g><g><use fill="#fff" fill-opacity="0" stroke="#0d0e0f" stroke-miterlimit="50" stroke-width="2" xlink:href="#nba4Z"/></g><g><use fill="#fff" fill-opacity="0" stroke="#0d0e0f" stroke-miterlimit="50" stroke-width="2" xlink:href="#nba4aa"/></g><g><use fill="#fff" fill-opacity="0" stroke="#0d0e0f" stroke-miterlimit="50" stroke-width="2" xlink:href="#nba4ab"/></g><g><use fill="#fff" fill-opacity="0" stroke="#0d0e0f" stroke-miterlimit="50" stroke-width="2" xlink:href="#nba4ac"/></g><g><use fill="#fff" fill-opacity="0" stroke="#0d0e0f" stroke-miterlimit="50" stroke-width="2" xlink:href="#nba4ad"/></g><g/><g><use fill="#fff" fill-opacity="0" stroke="#0d0e0f" stroke-miterlimit="50" stroke-width="2" xlink:href="#nba4ae"/></g><g><use fill="#fff" fill-opacity="0" stroke="#0d0e0f" stroke-miterlimit="50" stroke-width="2" xlink:href="#nba4af"/></g><g><use fill="#fff" fill-opacity="0" stroke="#0d0e0f" stroke-miterlimit="50" stroke-width="2" xlink:href="#nba4ag"/></g><g><use fill="#fff" fill-opacity="0" stroke="#0d0e0f" stroke-miterlimit="50" stroke-width="2" xlink:href="#nba4ah"/></g><g><use fill="#fff" fill-opacity="0" stroke="#0d0e0f" stroke-miterlimit="50" stroke-width="2" xlink:href="#nba4ai"/></g><g><use fill="#fff" fill-opacity="0" stroke="#0d0e0f" stroke-miterlimit="50" stroke-width="2" xlink:href="#nba4aj"/></g><g><use fill="#fff" fill-opacity="0" stroke="#0d0e0f" stroke-miterlimit="50" stroke-width="2" xlink:href="#nba4ak"/></g><g><use fill="#fff" fill-opacity="0" stroke="#0d0e0f" stroke-miterlimit="50" stroke-width="2" xlink:href="#nba4al"/></g><g><use fill="#fff" fill-opacity="0" stroke="#0d0e0f" stroke-miterlimit="50" stroke-width="2" xlink:href="#nba4am"/></g><g><use fill="#fff" fill-opacity="0" stroke="#0d0e0f" stroke-miterlimit="50" stroke-width="2" xlink:href="#nba4an"/></g><g><use fill="#fff" fill-opacity="0" stroke="#0d0e0f" stroke-miterlimit="50" stroke-width="2" xlink:href="#nba4ao"/></g><g><use fill="#fff" fill-opacity="0" stroke="#0d0e0f" stroke-miterlimit="50" stroke-width="2" xlink:href="#nba4ap"/></g><g><use fill="#fff" fill-opacity="0" stroke="#0d0e0f" stroke-miterlimit="50" stroke-width="2" xlink:href="#nba4aq"/></g><g><use fill="#fff" fill-opacity="0" stroke="#0d0e0f" stroke-miterlimit="50" stroke-width="2" xlink:href="#nba4ar"/></g><g><use fill="#fff" fill-opacity="0" stroke="#0d0e0f" stroke-miterlimit="50" stroke-width="2" xlink:href="#nba4as"/></g><g><use fill="#fff" fill-opacity="0" stroke="#0d0e0f" stroke-miterlimit="50" stroke-width="2" xlink:href="#nba4at"/></g><g><use fill="#fff" fill-opacity="0" stroke="#0d0e0f" stroke-miterlimit="50" stroke-width="2" xlink:href="#nba4au"/></g><g><use fill="#fff" fill-opacity="0" stroke="#0d0e0f" stroke-miterlimit="50" stroke-width="2" xlink:href="#nba4av"/></g><g><use fill="#fff" fill-opacity="0" stroke="#0d0e0f" stroke-miterlimit="50" stroke-width="2" xlink:href="#nba4aw"/></g><g><use fill="#fff" fill-opacity="0" stroke="#0d0e0f" stroke-miterlimit="50" stroke-width="2" xlink:href="#nba4ax"/></g><g><use fill="#fff" fill-opacity="0" stroke="#0d0e0f" stroke-miterlimit="50" stroke-width="2" xlink:href="#nba4ay"/></g><g><use fill="#fff" fill-opacity="0" stroke="#0d0e0f" stroke-miterlimit="50" stroke-width="2" xlink:href="#nba4az"/></g><g><use fill="#fff" fill-opacity="0" stroke="#0d0e0f" stroke-miterlimit="50" stroke-width="2" xlink:href="#nba4aA"/></g><g><use fill="#fff" fill-opacity="0" stroke="#0d0e0f" stroke-miterlimit="50" stroke-width="2" xlink:href="#nba4aB"/></g><g><use fill="#fff" fill-opacity="0" stroke="#0d0e0f" stroke-miterlimit="50" stroke-width="2" xlink:href="#nba4aC"/></g><g><use fill="#fff" fill-opacity="0" stroke="#0d0e0f" stroke-miterlimit="50" stroke-width="2" xlink:href="#nba4aD"/></g><g><use fill="#fff" fill-opacity="0" stroke="#0d0e0f" stroke-miterlimit="50" stroke-width="2" xlink:href="#nba4aE"/></g><g><use fill="#fff" fill-opacity="0" stroke="#0d0e0f" stroke-miterlimit="50" stroke-width="2" xlink:href="#nba4aF"/></g><g/><g/><g/><g><use fill="#fff" fill-opacity="0" stroke="#0d0e0f" stroke-miterlimit="50" stroke-width="2" xlink:href="#nba4aG"/></g><g><use fill="#fff" fill-opacity="0" stroke="#0d0e0f" stroke-miterlimit="50" stroke-width="2" xlink:href="#nba4aH"/></g><g><use fill="#fff" fill-opacity="0" stroke="#0d0e0f" stroke-miterlimit="50" stroke-width="2" xlink:href="#nba4aI"/></g><g><use fill="#fff" fill-opacity="0" stroke="#0d0e0f" stroke-miterlimit="50" stroke-width="2" xlink:href="#nba4aJ"/></g><g><use fill="#fff" fill-opacity="0" stroke="#0d0e0f" stroke-miterlimit="50" stroke-width="2" xlink:href="#nba4aK"/></g><g><use fill="#fff" fill-opacity="0" stroke="#0d0e0f" stroke-miterlimit="50" stroke-width="2" xlink:href="#nba4aL"/></g><g><use fill="#fff" fill-opacity="0" stroke="#0d0e0f" stroke-miterlimit="50" stroke-width="2" xlink:href="#nba4aM"/></g><g><use fill="#fff" fill-opacity="0" stroke="#0d0e0f" stroke-miterlimit="50" stroke-width="2" xlink:href="#nba4aN"/></g><g><use fill="#fff" fill-opacity="0" stroke="#0d0e0f" stroke-miterlimit="50" xlink:href="#nba4aO"/></g><g><use fill="#fff" fill-opacity="0" stroke="#0d0e0f" stroke-miterlimit="50" xlink:href="#nba4aP"/></g><g><use fill="#fff" fill-opacity="0" stroke="#0d0e0f" stroke-miterlimit="50" xlink:href="#nba4aQ"/></g><g><use fill="#fff" fill-opacity="0" stroke="#0d0e0f" stroke-miterlimit="50" xlink:href="#nba4aR"/></g><g><use fill="#fff" fill-opacity="0" stroke="#0d0e0f" stroke-miterlimit="50" xlink:href="#nba4aS"/></g><g><use fill="#fff" fill-opacity="0" stroke="#0d0e0f" stroke-miterlimit="50" xlink:href="#nba4aT"/></g><g><use fill="#fff" fill-opacity="0" stroke="#0d0e0f" stroke-miterlimit="50" stroke-width="2" xlink:href="#nba4aU"/></g><g><use fill="#fff" fill-opacity="0" stroke="#0d0e0f" stroke-miterlimit="50" stroke-width="2" xlink:href="#nba4aV"/></g><g><use fill="#fff" fill-opacity="0" stroke="#0d0e0f" stroke-miterlimit="50" stroke-width="2" xlink:href="#nba4aW"/></g><g><use fill="#fff" fill-opacity="0" stroke="#0d0e0f" stroke-miterlimit="50" stroke-width="2" xlink:href="#nba4aX"/></g><g><use fill="#fff" fill-opacity="0" stroke="#0d0e0f" stroke-miterlimit="50" stroke-width="2" xlink:href="#nba4aY"/></g><g/><g><use fill="#fff" fill-opacity="0" stroke="#0d0e0f" stroke-miterlimit="50" xlink:href="#nba4aZ"/></g><g><use fill="#fff" fill-opacity="0" stroke="#0d0e0f" stroke-miterlimit="50" xlink:href="#nba4ba"/></g><g><use fill="#fff" fill-opacity="0" stroke="#0d0e0f" stroke-miterlimit="50" xlink:href="#nba4bb"/></g><g><use fill="#fff" fill-opacity="0" stroke="#0d0e0f" stroke-miterlimit="50" xlink:href="#nba4bc"/></g><g><use fill="#fff" fill-opacity="0" stroke="#0d0e0f" stroke-miterlimit="50" xlink:href="#nba4bd"/></g><g><use fill="#fff" fill-opacity="0" stroke="#0d0e0f" stroke-miterlimit="50" xlink:href="#nba4be"/></g><g><use fill="#fff" fill-opacity="0" stroke="#0d0e0f" stroke-miterlimit="50" xlink:href="#nba4bf"/></g><g><use fill="#fff" fill-opacity="0" stroke="#0d0e0f" stroke-miterlimit="50" xlink:href="#nba4bg"/></g><g><use fill="#fff" fill-opacity="0" stroke="#0d0e0f" stroke-miterlimit="50" xlink:href="#nba4bh"/></g><g><use fill="#fff" fill-opacity="0" stroke="#0d0e0f" stroke-miterlimit="50" xlink:href="#nba4bi"/></g><g><use fill="#fff" fill-opacity="0" stroke="#0d0e0f" stroke-miterlimit="50" xlink:href="#nba4bj"/></g><g><use fill="#fff" fill-opacity="0" stroke="#0d0e0f" stroke-miterlimit="50" xlink:href="#nba4bk"/></g><g><use fill="#fff" fill-opacity="0" stroke="#0d0e0f" stroke-miterlimit="50" stroke-width="2" xlink:href="#nba4bl"/></g><g><use fill="#fff" fill-opacity="0" stroke="#0d0e0f" stroke-miterlimit="50" stroke-width="2" xlink:href="#nba4bm"/></g><g><use fill="#fff" fill-opacity="0" stroke="#0d0e0f" stroke-miterlimit="50" stroke-width="2" xlink:href="#nba4bn"/></g><g><use fill="#fff" fill-opacity="0" stroke="#0d0e0f" stroke-miterlimit="50" stroke-width="2" xlink:href="#nba4bo"/></g><g><use fill="#fff" fill-opacity="0" stroke="#0d0e0f" stroke-miterlimit="50" stroke-width="2" xlink:href="#nba4bp"/></g><g/><g><use fill="#fff" fill-opacity="0" stroke="#0d0e0f" stroke-miterlimit="50" xlink:href="#nba4bq"/></g><g><use fill="#fff" fill-opacity="0" stroke="#0d0e0f" stroke-miterlimit="50" xlink:href="#nba4br"/></g><g><use fill="#fff" fill-opacity="0" stroke="#0d0e0f" stroke-miterlimit="50" xlink:href="#nba4bs"/></g><g><use fill="#fff" fill-opacity="0" stroke="#0d0e0f" stroke-miterlimit="50" xlink:href="#nba4bt"/></g><g><use fill="#fff" fill-opacity="0" stroke="#0d0e0f" stroke-miterlimit="50" xlink:href="#nba4bu"/></g><g><use fill="#fff" fill-opacity="0" stroke="#0d0e0f" stroke-miterlimit="50" xlink:href="#nba4bv"/></g><g><use fill="#fff" fill-opacity="0" stroke="#0d0e0f" stroke-miterlimit="50" stroke-width="2" xlink:href="#nba4bw"/></g><g><use fill="#fff" fill-opacity="0" stroke="#0d0e0f" stroke-miterlimit="50" stroke-width="2" xlink:href="#nba4bx"/></g><g><use fill="#fff" fill-opacity="0" stroke="#0d0e0f" stroke-miterlimit="50" stroke-width="2" xlink:href="#nba4by"/></g><g><use fill="#fff" fill-opacity="0" stroke="#0d0e0f" stroke-miterlimit="50" stroke-width="2" xlink:href="#nba4bz"/></g><g><use fill="#fff" fill-opacity="0" stroke="#0d0e0f" stroke-miterlimit="50" stroke-width="2" xlink:href="#nba4bA"/></g><g><use fill="#fff" fill-opacity="0" stroke="#0d0e0f" stroke-miterlimit="50" stroke-width="2" xlink:href="#nba4bB"/></g><g><use fill="#fff" fill-opacity="0" stroke="#0d0e0f" stroke-miterlimit="50" stroke-width="2" xlink:href="#nba4bC"/></g><g><use fill="#fff" fill-opacity="0" stroke="#0d0e0f" stroke-miterlimit="50" stroke-width="2" xlink:href="#nba4bD"/></g><g><use fill="#fff" fill-opacity="0" stroke="#0d0e0f" stroke-miterlimit="50" stroke-width="2" xlink:href="#nba4bE"/></g><g><use fill="#fff" fill-opacity="0" stroke="#0d0e0f" stroke-miterlimit="50" stroke-width="2" xlink:href="#nba4bF"/></g><g><use fill="#fff" fill-opacity="0" stroke="#0d0e0f" stroke-miterlimit="50" stroke-width="2" xlink:href="#nba4bG"/></g><g><use fill="#fff" fill-opacity="0" stroke="#0d0e0f" stroke-miterlimit="50" stroke-width="2" xlink:href="#nba4bH"/></g><g><use fill="#fff" fill-opacity="0" stroke="#0d0e0f" stroke-miterlimit="50" stroke-width="2" xlink:href="#nba4bI"/></g><g><use fill="#fff" fill-opacity="0" stroke="#0d0e0f" stroke-miterlimit="50" stroke-width="2" xlink:href="#nba4bJ"/></g><g><use fill="#fff" fill-opacity="0" stroke="#0d0e0f" stroke-miterlimit="50" stroke-width="2" xlink:href="#nba4bK"/></g><g><use fill="#fff" fill-opacity="0" stroke="#0d0e0f" stroke-miterlimit="50" stroke-width="2" xlink:href="#nba4bL"/></g><g><use fill="#fff" fill-opacity="0" stroke="#0d0e0f" stroke-miterlimit="50" stroke-width="2" xlink:href="#nba4bM"/></g><g><use fill="#fff" fill-opacity="0" stroke="#0d0e0f" stroke-miterlimit="50" stroke-width="2" xlink:href="#nba4bN"/></g><g><use fill="#fff" fill-opacity="0" stroke="#0d0e0f" stroke-miterlimit="50" stroke-width="2" xlink:href="#nba4bO"/></g><g><use fill="#fff" fill-opacity="0" stroke="#0d0e0f" stroke-miterlimit="50" stroke-width="2" xlink:href="#nba4bP"/></g><g><use fill="#fff" fill-opacity="0" stroke="#0d0e0f" stroke-miterlimit="50" stroke-width="2" xlink:href="#nba4bQ"/></g><g><use fill="#fff" fill-opacity="0" stroke="#0d0e0f" stroke-miterlimit="50" stroke-width="2" xlink:href="#nba4bR"/></g><g><use fill="#fff" fill-opacity="0" stroke="#0d0e0f" stroke-miterlimit="50" stroke-width="2" xlink:href="#nba4bS"/></g><g><use fill="#fff" fill-opacity="0" stroke="#0d0e0f" stroke-miterlimit="50" stroke-width="2" xlink:href="#nba4bT"/></g><g><use fill="#fff" fill-opacity="0" stroke="#0d0e0f" stroke-miterlimit="50" stroke-width="2" xlink:href="#nba4bU"/></g><g><use fill="#fff" fill-opacity="0" stroke="#0d0e0f" stroke-miterlimit="50" stroke-width="2" xlink:href="#nba4bV"/></g><g><use fill="#fff" fill-opacity="0" stroke="#0d0e0f" stroke-miterlimit="50" stroke-width="2" xlink:href="#nba4bW"/></g><g><use fill="#fff" fill-opacity="0" stroke="#0d0e0f" stroke-linecap="round" stroke-linejoin="round" stroke-miterlimit="50" stroke-width="2" xlink:href="#nba4bX"/></g><g><use fill="#fff" fill-opacity="0" stroke="#0d0e0f" stroke-linecap="round" stroke-miterlimit="50" stroke-width="2" xlink:href="#nba4bY"/></g><g><use fill="#fff" fill-opacity="0" stroke="#0d0e0f" stroke-miterlimit="50" stroke-width="2" xlink:href="#nba4bZ"/></g><g><use fill="#fff" fill-opacity="0" stroke="#0d0e0f" stroke-miterlimit="50" stroke-width="2" xlink:href="#nba4ca"/></g><g><use fill="#fff" fill-opacity="0" stroke="#0d0e0f" stroke-miterlimit="50" stroke-width="2" xlink:href="#nba4cb"/></g><g><use fill="#fff" fill-opacity="0" stroke="#0d0e0f" stroke-miterlimit="50" stroke-width="2" xlink:href="#nba4cc"/></g><g><use fill="#fff" fill-opacity="0" stroke="#0d0e0f" stroke-miterlimit="50" stroke-width="2" xlink:href="#nba4cd"/></g><g><use fill="#fff" fill-opacity="0" stroke="#0d0e0f" stroke-miterlimit="50" stroke-width="2" xlink:href="#nba4ce"/></g><g><use fill="#fff" fill-opacity="0" stroke="#0d0e0f" stroke-miterlimit="50" stroke-width="2" xlink:href="#nba4cf"/></g><g/><g/><g/><g><use fill="#fff" fill-opacity="0" stroke="#0d0e0f" stroke-miterlimit="50" stroke-width="2" xlink:href="#nba4cg"/></g><g><use fill="#fff" fill-opacity="0" stroke="#0d0e0f" stroke-miterlimit="50" stroke-width="2" xlink:href="#nba4ch"/></g><g><use fill="#fff" fill-opacity="0" stroke="#0d0e0f" stroke-miterlimit="50" stroke-width="2" xlink:href="#nba4ci"/></g><g><use fill="#fff" fill-opacity="0" stroke="#0d0e0f" stroke-miterlimit="50" stroke-width="2" xlink:href="#nba4cj"/></g><g><use fill="#fff" fill-opacity="0" stroke="#0d0e0f" stroke-miterlimit="50" stroke-width="2" xlink:href="#nba4ck"/></g><g><use fill="#fff" fill-opacity="0" stroke="#0d0e0f" stroke-miterlimit="50" stroke-width="2" xlink:href="#nba4cl"/></g><g><use fill="#fff" fill-opacity="0" stroke="#0d0e0f" stroke-miterlimit="50" stroke-width="2" xlink:href="#nba4cm"/></g><g><use fill="#fff" fill-opacity="0" stroke="#0d0e0f" stroke-miterlimit="50" stroke-width="2" xlink:href="#nba4cn"/></g><g><use fill="#fff" fill-opacity="0" stroke="#0d0e0f" stroke-miterlimit="50" stroke-width="2" xlink:href="#nba4co"/></g><g><use fill="#fff" fill-opacity="0" stroke="#0d0e0f" stroke-miterlimit="50" stroke-width="2" xlink:href="#nba4cp"/></g><g><use fill="#fff" fill-opacity="0" stroke="#0d0e0f" stroke-miterlimit="50" stroke-width="2" xlink:href="#nba4cq"/></g><g><use fill="#fff" fill-opacity="0" stroke="#0d0e0f" stroke-miterlimit="50" stroke-width="2" xlink:href="#nba4cr"/></g><g><use fill="#fff" fill-opacity="0" stroke="#0d0e0f" stroke-miterlimit="50" stroke-width="2" xlink:href="#nba4cs"/></g><g><use fill="#fff" fill-opacity="0" stroke="#0d0e0f" stroke-miterlimit="50" stroke-width="2" xlink:href="#nba4ct"/></g><g><use fill="#fff" fill-opacity="0" stroke="#0d0e0f" stroke-miterlimit="50" stroke-width="2" xlink:href="#nba4cu"/></g><g><use fill="#fff" fill-opacity="0" stroke="#0d0e0f" stroke-miterlimit="50" stroke-width="2" xlink:href="#nba4cv"/></g><g><use fill="#fff" fill-opacity="0" stroke="#0d0e0f" stroke-miterlimit="50" stroke-width="2" xlink:href="#nba4cw"/></g><g><use fill="#fff" fill-opacity="0" stroke="#0d0e0f" stroke-miterlimit="50" stroke-width="2" xlink:href="#nba4cx"/></g><g><use fill="#fff" fill-opacity="0" stroke="#0d0e0f" stroke-miterlimit="50" stroke-width="2" xlink:href="#nba4cy"/></g><g><use fill="#fff" fill-opacity="0" stroke="#0d0e0f" stroke-miterlimit="50" stroke-width="2" xlink:href="#nba4cz"/></g><g><use fill="#fff" fill-opacity="0" stroke="#0d0e0f" stroke-miterlimit="50" stroke-width="2" xlink:href="#nba4cA"/></g><g><use fill="#fff" fill-opacity="0" stroke="#0d0e0f" stroke-miterlimit="50" stroke-width="2" xlink:href="#nba4cB"/></g><g><use fill="#fff" fill-opacity="0" stroke="#0d0e0f" stroke-miterlimit="50" stroke-width="2" xlink:href="#nba4cC"/></g><g><use fill="#fff" fill-opacity="0" stroke="#0d0e0f" stroke-miterlimit="50" stroke-width="2" xlink:href="#nba4cD"/></g><g><use fill="#fff" fill-opacity="0" stroke="#0d0e0f" stroke-miterlimit="50" stroke-width="2" xlink:href="#nba4cE"/></g><g><use fill="#fff" fill-opacity="0" stroke="#0d0e0f" stroke-miterlimit="50" stroke-width="2" xlink:href="#nba4cF"/></g><g><use fill="#fff" fill-opacity="0" stroke="#0d0e0f" stroke-miterlimit="50" stroke-width="2" xlink:href="#nba4cG"/></g><g><use fill="#fff" fill-opacity="0" stroke="#0d0e0f" stroke-miterlimit="50" stroke-width="2" xlink:href="#nba4cH"/></g><g><use fill="#fff" fill-opacity="0" stroke="#0d0e0f" stroke-miterlimit="50" stroke-width="2" xlink:href="#nba4cI"/></g><g><use fill="#fff" fill-opacity="0" stroke="#0d0e0f" stroke-miterlimit="50" stroke-width="2" xlink:href="#nba4cJ"/></g><g><use fill="#fff" fill-opacity="0" stroke="#0d0e0f" stroke-miterlimit="50" stroke-width="2" xlink:href="#nba4cK"/></g><g><use fill="#fff" fill-opacity="0" stroke="#0d0e0f" stroke-linecap="round" stroke-linejoin="round" stroke-miterlimit="50" stroke-width="2" xlink:href="#nba4cL"/></g><g><use fill="#fff" fill-opacity="0" stroke="#0d0e0f" stroke-miterlimit="50" stroke-width="2" xlink:href="#nba4cM"/></g><g><use fill="#fff" fill-opacity="0" stroke="#0d0e0f" stroke-miterlimit="50" stroke-width="2" xlink:href="#nba4cN"/></g><g><use fill="#fff" fill-opacity="0" stroke="#0d0e0f" stroke-miterlimit="50" stroke-width="2" xlink:href="#nba4cO"/></g><g><use fill="#fff" fill-opacity="0" stroke="#0d0e0f" stroke-miterlimit="50" stroke-width="2" xlink:href="#nba4cP"/></g><g><use fill="#fff" fill-opacity="0" stroke="#0d0e0f" stroke-miterlimit="50" stroke-width="2" xlink:href="#nba4cQ"/></g><g><use fill="#fff" fill-opacity="0" stroke="#0d0e0f" stroke-miterlimit="50" stroke-width="2" xlink:href="#nba4cR"/></g><g><use fill="#fff" fill-opacity="0" stroke="#0d0e0f" stroke-miterlimit="50" stroke-width="2" xlink:href="#nba4cS"/></g><g><use fill="#fff" fill-opacity="0" stroke="#0d0e0f" stroke-miterlimit="50" stroke-width="2" xlink:href="#nba4cT"/></g><g/><g><use fill="#fff" fill-opacity="0" stroke="#0d0e0f" stroke-miterlimit="50" stroke-width="2" xlink:href="#nba4cU"/></g><g><use fill="#fff" fill-opacity="0" stroke="#0d0e0f" stroke-miterlimit="50" stroke-width="2" xlink:href="#nba4cV"/></g><g><use fill="#fff" fill-opacity="0" stroke="#0d0e0f" stroke-miterlimit="50" stroke-width="2" xlink:href="#nba4cW"/></g><g><use fill="#fff" fill-opacity="0" stroke="#0d0e0f" stroke-miterlimit="50" stroke-width="2" xlink:href="#nba4cX"/></g><g><use fill="#fff" fill-opacity="0" stroke="#0d0e0f" stroke-miterlimit="50" stroke-width="2" xlink:href="#nba4cY"/></g><g><use fill="#fff" fill-opacity="0" stroke="#0d0e0f" stroke-miterlimit="50" stroke-width="2" xlink:href="#nba4cZ"/></g><g><use fill="#fff" fill-opacity="0" stroke="#0d0e0f" stroke-miterlimit="50" stroke-width="2" xlink:href="#nba4da"/></g><g><use fill="#fff" fill-opacity="0" stroke="#0d0e0f" stroke-miterlimit="50" stroke-width="2" xlink:href="#nba4db"/></g><g><use fill="#fff" fill-opacity="0" stroke="#0d0e0f" stroke-miterlimit="50" stroke-width="2" xlink:href="#nba4dc"/></g><g><use fill="#fff" fill-opacity="0" stroke="#0d0e0f" stroke-miterlimit="50" stroke-width="2" xlink:href="#nba4dd"/></g><g><use fill="#fff" fill-opacity="0" stroke="#0d0e0f" stroke-miterlimit="50" stroke-width="2" xlink:href="#nba4de"/></g><g><use fill="#fff" fill-opacity="0" stroke="#0d0e0f" stroke-miterlimit="50" stroke-width="2" xlink:href="#nba4df"/></g><g><use fill="#fff" fill-opacity="0" stroke="#0d0e0f" stroke-miterlimit="50" stroke-width="2" xlink:href="#nba4dg"/></g><g><use fill="#fff" fill-opacity="0" stroke="#0d0e0f" stroke-miterlimit="50" stroke-width="2" xlink:href="#nba4dh"/></g><g><use fill="#fff" fill-opacity="0" stroke="#0d0e0f" stroke-miterlimit="50" stroke-width="2" xlink:href="#nba4di"/></g><g/><g><use fill="#fff" fill-opacity="0" stroke="#0d0e0f" stroke-miterlimit="50" stroke-width="2" xlink:href="#nba4dj"/></g><g><use fill="#fff" fill-opacity="0" stroke="#0d0e0f" stroke-miterlimit="50" stroke-width="2" xlink:href="#nba4dk"/></g><g><use fill="#fff" fill-opacity="0" stroke="#0d0e0f" stroke-miterlimit="50" stroke-width="2" xlink:href="#nba4dl"/></g><g><use fill="#fff" fill-opacity="0" stroke="#0d0e0f" stroke-miterlimit="50" stroke-width="2" xlink:href="#nba4dm"/></g><g><use fill="#fff" fill-opacity="0" stroke="#0d0e0f" stroke-miterlimit="50" stroke-width="2" xlink:href="#nba4dn"/></g><g><use fill="#fff" fill-opacity="0" stroke="#0d0e0f" stroke-miterlimit="50" stroke-width="2" xlink:href="#nba4do"/></g><g><use fill="#fff" fill-opacity="0" stroke="#0d0e0f" stroke-miterlimit="50" stroke-width="2" xlink:href="#nba4dp"/></g><g><use fill="#fff" fill-opacity="0" stroke="#0d0e0f" stroke-miterlimit="50" stroke-width="2" xlink:href="#nba4dq"/></g><g><use fill="#fff" fill-opacity="0" stroke="#0d0e0f" stroke-linecap="round" stroke-miterlimit="50" stroke-width="2" xlink:href="#nba4dr"/></g><g/><g/><g><g><use fill="#fff" fill-opacity="0" stroke="#0d0e0f" stroke-miterlimit="50" stroke-width="2" xlink:href="#nba4ds"/></g><g><g><use fill="#fff" fill-opacity="0" stroke="#0d0e0f" stroke-miterlimit="50" stroke-width="2" xlink:href="#nba4dt"/></g></g></g><g><g><use fill="#fff" fill-opacity="0" stroke="#0d0e0f" stroke-miterlimit="50" stroke-width="2" xlink:href="#nba4du"/></g><g><g><use fill="#fff" fill-opacity="0" stroke="#0d0e0f" stroke-miterlimit="50" stroke-width="2" xlink:href="#nba4dv"/></g></g></g><g><use fill="#fff" fill-opacity="0" stroke="#0d0e0f" stroke-linecap="round" stroke-miterlimit="50" stroke-width="2" xlink:href="#nba4dw"/></g></g></g></svg>