<svg xmlns="http://www.w3.org/2000/svg" xmlns:xlink="http://www.w3.org/1999/xlink" width="540" height="205" viewBox="0 0 540 205"><defs><path id="zc6ua" d="M821.512 615.925v-48.01h80.808v48.01"/><path id="zc6ub" d="M815.548 567.915v-8.644h92.14v8.644z"/><path id="zc6uc" d="M821.214 559.146v-8.855h80.808v8.855z"/><path id="zc6ud" d="M841.728 550.291V544.5h39.79v5.791z"/><path id="zc6ue" d="M845.378 529.604v-5.791h32.49v5.791z"/><path id="zc6uf" d="M848.384 523.813v-6.444h26.372v6.444z"/><path id="zc6ug" d="M852.715 517.369v-4.581h17.71v4.58z"/><path id="zc6uh" d="M869.59 512.788h-15.338a2.707 2.707 0 0 1-2.7-2.7 2.707 2.707 0 0 1 2.7-2.698h15.337a2.707 2.707 0 0 1 2.699 2.699c-.01 1.479-1.22 2.699-2.699 2.699z"/><path id="zc6ui" d="M866.65 501.08v6.31h-10.16v-6.31l5.426-73.902z"/><path id="zc6uj" d="M856.49 501.08h10.16"/><path id="zc6uk" d="M845.378 529.614V544.5"/><path id="zc6ul" d="M852.023 529.614V544.5"/><path id="zc6um" d="M858.67 529.614V544.5"/><path id="zc6un" d="M877.868 530.545v14.887"/><path id="zc6uo" d="M865.46 530.545v14.887"/><path id="zc6up" d="M871.664 530.545v14.887"/><path id="zc6uq" d="M827.754 545.432v3.985"/><path id="zc6ur" d="M895.712 545.403v3.985"/><path id="zc6us" d="M830.607 615.925v-12.226c0-3.515 1.853-6.396 4.11-6.396 2.267 0 4.11 2.88 4.11 6.396v12.226"/><path id="zc6ut" d="M884.312 615.925v-12.226c0-3.515 1.854-6.396 4.11-6.396 2.267 0 4.111 2.88 4.111 6.396v12.226"/><path id="zc6uu" d="M847.692 615.925v-20.169c0-5.8 6.243-10.554 13.878-10.554s13.878 4.744 13.878 10.554v20.169"/><path id="zc6uv" d="M830.607 579.094v-6.032h12.792v6.032z"/><path id="zc6uw" d="M879.74 579.094v-6.032h12.793v6.032z"/><path id="zc6ux" d="M772.704 566.474h42.844"/><path id="zc6uy" d="M951.502 566.474h-42.844"/><path id="zc6uz" d="M772.704 573.062h42.844"/><path id="zc6uA" d="M950.003 573.062H907.16"/><path id="zc6uB" d="M772.704 599.281h42.844"/><path id="zc6uC" d="M773.857 609.817h42.853"/><path id="zc6uD" d="M949.245 609.817h-42.853"/><path id="zc6uE" d="M927.626 599.281h-20.274"/><path id="zc6uF" d="M775.835 576.078v5.032"/><path id="zc6uG" d="M795.283 576.078v5.032"/><path id="zc6uH" d="M812.945 576.078v5.032"/><path id="zc6uI" d="M775.835 586.892v9.633"/><path id="zc6uJ" d="M946.786 576.078v5.032"/><path id="zc6uK" d="M946.786 586.892v9.633"/><path id="zc6uL" d="M795.283 586.892v9.633"/><path id="zc6uM" d="M812.945 586.892v9.633"/><path id="zc6uN" d="M910.29 576.078v5.032"/><path id="zc6uO" d="M927.953 576.443v5.032"/><path id="zc6uP" d="M927.953 586.892v9.633"/><path id="zc6uQ" d="M910.29 586.892v9.633"/><path id="zc6uR" d="M1104.896 569.067a1.2 1.2 0 1 1 2.401 0 1.2 1.2 0 0 1-2.4 0z"/><path id="zc6uS" d="M1122.088 569.067a1.2 1.2 0 1 1 2.4 0 1.2 1.2 0 0 1-2.4 0z"/><path id="zc6uT" d="M1139.528 569.067a1.2 1.2 0 1 1 2.401 0 1.2 1.2 0 0 1-2.4 0z"/><path id="zc6uU" d="M1156.326 569.067a1.2 1.2 0 1 1 2.4 0 1.2 1.2 0 0 1-2.4 0z"/><path id="zc6uV" d="M1173.325 569.067a1.2 1.2 0 1 1 2.4 0 1.2 1.2 0 0 1-2.4 0z"/><path id="zc6uW" d="M1190.545 569.067a1.2 1.2 0 1 1 2.4 0 1.2 1.2 0 0 1-2.4 0z"/><path id="zc6uX" d="M1207.544 569.067a1.2 1.2 0 1 1 2.4 0 1.2 1.2 0 0 1-2.4 0z"/><path id="zc6uY" d="M737.285 616.501v-11.726h35.42V616.5z"/><path id="zc6uZ" d="M740.214 604.784v-8.797h29.071v8.797z"/><path id="zc6uaa" d="M744.862 595.987V585.24h20.274v10.747z"/><path id="zc6uab" d="M748.032 584.136l3.668-73.769c0-2.084 1.7-3.784 3.784-3.784 2.084 0 3.784 1.7 3.784 3.784l2.93 74.873"/><path id="zc6uac" d="M749.011 506.583l2.69 3.784"/><path id="zc6uad" d="M762.245 506.583l-2.689 3.784"/><path id="zc6uae" d="M759.672 520.538h3.495"/><path id="zc6uaf" d="M746.783 520.538h4.408"/><path id="zc6uag" d="M760.776 548.947h3.198"/><path id="zc6uah" d="M745.39 548.947h4.39"/><path id="zc6uai" d="M761.736 573.312h4.62"/><path id="zc6uaj" d="M743.883 573.312h4.686"/><path id="zc6uak" d="M754.226 520.538a1.2 1.2 0 1 1 2.401 0 1.2 1.2 0 0 1-2.4 0z"/><path id="zc6ual" d="M753.554 548.947a1.2 1.2 0 1 1 2.4 0 1.2 1.2 0 0 1-2.4 0z"/><path id="zc6uam" d="M753.948 573.312a1.2 1.2 0 1 1 2.4 0 1.2 1.2 0 0 1-2.4 0z"/><path id="zc6uan" d="M755.484 506.583l-.057-4.86-3.448-3.802"/><path id="zc6uao" d="M755.513 501.906l3.41-3.985"/><path id="zc6uap" d="M934.157 596.66h34.152l25.873-28.976 5.176 3.88-20.178 25.095v6.464h-45.023z"/><path id="zc6uaq" d="M973.485 585.403l17.595-19.534"/><path id="zc6uar" d="M958.657 616.732v-13.61h20.37v13.61z"/><path id="zc6uas" d="M1071.84 596.39h-36.62l-25.874-28.984-5.176 3.89 20.178 25.094v6.464h46.56"/><path id="zc6uat" d="M1030.043 585.134l-17.595-19.534"/><path id="zc6uau" d="M1041.683 585.134v11.256"/><path id="zc6uav" d="M1044.876 602.856v13.61h-20.37v-13.61z"/><path id="zc6uaw" d="M1069.525 554.094v-6.348h175.157v6.348z"/><path id="zc6uax" d="M1075.335 560.443v-6.349h163.652v6.349z"/><path id="zc6uay" d="M1093.833 596.736v-36.303h6.367v36.303z"/><path id="zc6uaz" d="M1077.275 596.736v-36.303h6.368v36.303z"/><path id="zc6uaA" d="M1231.41 596.736v-36.303h6.367v36.303z"/><path id="zc6uaB" d="M1214.852 596.736v-36.303h6.368v36.303z"/><path id="zc6uaC" d="M1111.984 596.736v-36.303h4.773v36.303z"/><path id="zc6uaD" d="M1129.819 596.736v-36.303h4.773v36.303z"/><path id="zc6uaE" d="M1146.856 596.736v-36.303h4.773v36.303z"/><path id="zc6uaF" d="M1163.423 596.736v-36.303h4.773v36.303z"/><path id="zc6uaG" d="M1180.854 596.736v-36.303h4.773v36.303z"/><path id="zc6uaH" d="M1197.853 596.736v-36.303h4.773v36.303z"/><path id="zc6uaI" d="M1070.908 615.214v-18.478h29.292v20.15"/><path id="zc6uaJ" d="M1213.902 615.233v-18.18h29.292v19.832"/><path id="zc6uaK" d="M1100.2 610.748h113.702v6.137"/><path id="zc6uaL" d="M1100.315 610.748v-4.456h113.587v4.456z"/><path id="zc6uaM" d="M1100.42 606.292v-4.456h113.482v4.456z"/><path id="zc6uaN" d="M1100.42 601.51v-4.457h113.424v4.456z"/><path id="zc6uaO" d="M1106.097 582.993v13.743"/><path id="zc6uaP" d="M1123.288 582.993v13.743"/><path id="zc6uaQ" d="M1140.729 582.676v13.743"/><path id="zc6uaR" d="M1157.267 582.676v13.743"/><path id="zc6uaS" d="M1174.525 582.676v13.743"/><path id="zc6uaT" d="M1191.745 582.676v13.743"/><path id="zc6uaU" d="M1208.744 582.676v13.743"/><path id="zc6uaV" d="M1091.057 547.746v-13.08l66.47-18.373 66.257 19.67v11.783"/><path id="zc6uaW" d="M1084.594 536.615v-6.502l73.182-20.149 71.55 22.05v5.898"/><path id="zc6uaX" d="M1141.286 547.035c0-8.826 7.155-15.98 15.98-15.98 8.827 0 15.982 7.154 15.982 15.98"/><path id="zc6uaY" d="M1135.956 546.959c0-11.65 9.45-21.1 21.1-21.1 11.65 0 21.1 9.45 21.1 21.1"/><path id="zc6uaZ" d="M1104.896 546.959v-4.399"/><path id="zc6uba" d="M1120.426 547.247v-4.408"/><path id="zc6ubb" d="M1194.866 547.103v-4.399"/><path id="zc6ubc" d="M1210.396 547.381v-4.398"/><path id="zc6ubd" d="M1048.252 595.987V585.24h20.274v10.747"/><path id="zc6ube" d="M1051.421 584.145l3.67-73.768c0-2.084 1.699-3.784 3.783-3.784 2.084 0 3.784 1.7 3.784 3.784l2.93 74.873"/><path id="zc6ubf" d="M1052.401 506.583l2.69 3.794"/><path id="zc6ubg" d="M1065.635 506.583l-2.689 3.794"/><path id="zc6ubh" d="M1063.061 520.548h3.496"/><path id="zc6ubi" d="M1050.173 520.548h4.408"/><path id="zc6ubj" d="M1064.175 548.956h3.199"/><path id="zc6ubk" d="M1048.78 548.956h4.39"/><path id="zc6ubl" d="M1065.126 573.322h4.62"/><path id="zc6ubm" d="M1047.272 573.322h4.687"/><path id="zc6ubn" d="M1057.626 520.548a1.2 1.2 0 1 1 2.4 0 1.2 1.2 0 0 1-2.4 0z"/><path id="zc6ubo" d="M1056.944 548.956a1.2 1.2 0 1 1 2.4 0 1.2 1.2 0 0 1-2.4 0z"/><path id="zc6ubp" d="M1057.347 573.322a1.2 1.2 0 1 1 2.401 0 1.2 1.2 0 0 1-2.4 0z"/><path id="zc6ubq" d="M1058.874 506.583l-.048-4.86-3.457-3.793"/><path id="zc6ubr" d="M1058.913 501.906l3.409-3.976"/><path id="zc6ubs" d="M929.508 518.953s2.19-5.253 4.649 0"/><path id="zc6ubt" d="M934.157 518.953s2.19-5.253 4.648 0"/><path id="zc6ubu" d="M957.456 489.604s2.19-5.254 4.648 0"/><path id="zc6ubv" d="M962.104 489.604s2.19-5.254 4.649 0"/><path id="zc6ubw" d="M975.944 531.717s2.19-5.253 4.648 0"/><path id="zc6ubx" d="M980.592 531.717s2.19-5.253 4.648 0"/><path id="zc6uby" d="M1013.88 513.95s2.19-5.254 4.648 0"/><path id="zc6ubz" d="M1018.528 513.95s2.19-5.254 4.648 0"/><path id="zc6ubA" d="M726 616.885h537.621"/><path id="zc6ubB" d="M861.57 585.202v31.3"/></defs><g><g transform="translate(-725 -413)"><g><use fill="#fff" fill-opacity="0" stroke="#000" stroke-miterlimit="50" stroke-width="2" xlink:href="#zc6ua"/></g><g><use fill="#fff" fill-opacity="0" stroke="#000" stroke-miterlimit="50" stroke-width="2" xlink:href="#zc6ub"/></g><g><use fill="#fff" fill-opacity="0" stroke="#000" stroke-miterlimit="50" stroke-width="2" xlink:href="#zc6uc"/></g><g><use fill="#fff" fill-opacity="0" stroke="#000" stroke-miterlimit="50" stroke-width="2" xlink:href="#zc6ud"/></g><g><use fill="#fff" fill-opacity="0" stroke="#000" stroke-miterlimit="50" stroke-width="2" xlink:href="#zc6ue"/></g><g><use fill="#fff" fill-opacity="0" stroke="#000" stroke-miterlimit="50" stroke-width="2" xlink:href="#zc6uf"/></g><g><use fill="#fff" fill-opacity="0" stroke="#000" stroke-miterlimit="50" stroke-width="2" xlink:href="#zc6ug"/></g><g><use fill="#fff" fill-opacity="0" stroke="#000" stroke-miterlimit="50" stroke-width="2" xlink:href="#zc6uh"/></g><g><use fill="#fff" fill-opacity="0" stroke="#000" stroke-miterlimit="50" stroke-width="2" xlink:href="#zc6ui"/></g><g><use fill="#fff" fill-opacity="0" stroke="#000" stroke-miterlimit="50" stroke-width="2" xlink:href="#zc6uj"/></g><g><use fill="#fff" fill-opacity="0" stroke="#000" stroke-miterlimit="50" stroke-width="2" xlink:href="#zc6uk"/></g><g><use fill="#fff" fill-opacity="0" stroke="#000" stroke-miterlimit="50" stroke-width="2" xlink:href="#zc6ul"/></g><g><use fill="#fff" fill-opacity="0" stroke="#000" stroke-miterlimit="50" stroke-width="2" xlink:href="#zc6um"/></g><g><use fill="#fff" fill-opacity="0" stroke="#000" stroke-miterlimit="50" stroke-width="2" xlink:href="#zc6un"/></g><g><use fill="#fff" fill-opacity="0" stroke="#000" stroke-miterlimit="50" stroke-width="2" xlink:href="#zc6uo"/></g><g><use fill="#fff" fill-opacity="0" stroke="#000" stroke-miterlimit="50" stroke-width="2" xlink:href="#zc6up"/></g><g><use fill="#fff" fill-opacity="0" stroke="#000" stroke-miterlimit="50" stroke-width="2" xlink:href="#zc6uq"/></g><g><use fill="#fff" fill-opacity="0" stroke="#000" stroke-linecap="round" stroke-miterlimit="50" stroke-width="2" xlink:href="#zc6uq"/></g><g><use fill="#fff" fill-opacity="0" stroke="#000" stroke-linecap="round" stroke-miterlimit="50" stroke-width="2" xlink:href="#zc6ur"/></g><g><use fill="#fff" fill-opacity="0" stroke="#000" stroke-linecap="round" stroke-miterlimit="50" stroke-width="2" xlink:href="#zc6us"/></g><g><use fill="#fff" fill-opacity="0" stroke="#000" stroke-linecap="round" stroke-miterlimit="50" stroke-width="2" xlink:href="#zc6ut"/></g><g><use fill="#fff" fill-opacity="0" stroke="#000" stroke-linecap="round" stroke-miterlimit="50" stroke-width="2" xlink:href="#zc6uu"/></g><g><use fill="#fff" fill-opacity="0" stroke="#000" stroke-linecap="round" stroke-miterlimit="50" stroke-width="2" xlink:href="#zc6uv"/></g><g><use fill="#fff" fill-opacity="0" stroke="#000" stroke-linecap="round" stroke-miterlimit="50" stroke-width="2" xlink:href="#zc6uw"/></g><g><use fill="#fff" fill-opacity="0" stroke="#000" stroke-linecap="round" stroke-miterlimit="50" stroke-width="2" xlink:href="#zc6ux"/></g><g><use fill="#fff" fill-opacity="0" stroke="#000" stroke-linecap="round" stroke-miterlimit="50" stroke-width="2" xlink:href="#zc6uy"/></g><g><use fill="#fff" fill-opacity="0" stroke="#000" stroke-linecap="round" stroke-miterlimit="50" stroke-width="2" xlink:href="#zc6uz"/></g><g><use fill="#fff" fill-opacity="0" stroke="#000" stroke-linecap="round" stroke-miterlimit="50" stroke-width="2" xlink:href="#zc6uA"/></g><g><use fill="#fff" fill-opacity="0" stroke="#000" stroke-linecap="round" stroke-miterlimit="50" stroke-width="2" xlink:href="#zc6uB"/></g><g><use fill="#fff" fill-opacity="0" stroke="#000" stroke-linecap="round" stroke-miterlimit="50" stroke-width="2" xlink:href="#zc6uC"/></g><g><use fill="#fff" fill-opacity="0" stroke="#000" stroke-linecap="round" stroke-miterlimit="50" stroke-width="2" xlink:href="#zc6uD"/></g><g><use fill="#fff" fill-opacity="0" stroke="#000" stroke-linecap="round" stroke-miterlimit="50" stroke-width="2" xlink:href="#zc6uE"/></g><g><use fill="#fff" fill-opacity="0" stroke="#000" stroke-linecap="round" stroke-miterlimit="50" stroke-width="2" xlink:href="#zc6uF"/></g><g><use fill="#fff" fill-opacity="0" stroke="#000" stroke-linecap="round" stroke-miterlimit="50" stroke-width="2" xlink:href="#zc6uG"/></g><g><use fill="#fff" fill-opacity="0" stroke="#000" stroke-linecap="round" stroke-miterlimit="50" stroke-width="2" xlink:href="#zc6uH"/></g><g><use fill="#fff" fill-opacity="0" stroke="#000" stroke-linecap="round" stroke-miterlimit="50" stroke-width="2" xlink:href="#zc6uI"/></g><g><use fill="#fff" fill-opacity="0" stroke="#000" stroke-linecap="round" stroke-miterlimit="50" stroke-width="2" xlink:href="#zc6uJ"/></g><g><use fill="#fff" fill-opacity="0" stroke="#000" stroke-linecap="round" stroke-miterlimit="50" stroke-width="2" xlink:href="#zc6uK"/></g><g><use fill="#fff" fill-opacity="0" stroke="#000" stroke-linecap="round" stroke-miterlimit="50" stroke-width="2" xlink:href="#zc6uL"/></g><g><use fill="#fff" fill-opacity="0" stroke="#000" stroke-linecap="round" stroke-miterlimit="50" stroke-width="2" xlink:href="#zc6uM"/></g><g><use fill="#fff" fill-opacity="0" stroke="#000" stroke-linecap="round" stroke-miterlimit="50" stroke-width="2" xlink:href="#zc6uN"/></g><g><use fill="#fff" fill-opacity="0" stroke="#000" stroke-linecap="round" stroke-miterlimit="50" stroke-width="2" xlink:href="#zc6uO"/></g><g><use fill="#fff" fill-opacity="0" stroke="#000" stroke-linecap="round" stroke-miterlimit="50" stroke-width="2" xlink:href="#zc6uP"/></g><g><use fill="#fff" fill-opacity="0" stroke="#000" stroke-linecap="round" stroke-miterlimit="50" stroke-width="2" xlink:href="#zc6uQ"/></g><g><use xlink:href="#zc6uR"/></g><g><use xlink:href="#zc6uS"/></g><g><use xlink:href="#zc6uT"/></g><g><use xlink:href="#zc6uU"/></g><g><use xlink:href="#zc6uV"/></g><g><use xlink:href="#zc6uW"/></g><g><use xlink:href="#zc6uX"/></g><g><use fill="#fff" fill-opacity="0" stroke="#000" stroke-linecap="round" stroke-miterlimit="50" stroke-width="2" xlink:href="#zc6uY"/></g><g><use fill="#fff" fill-opacity="0" stroke="#000" stroke-linecap="round" stroke-miterlimit="50" stroke-width="2" xlink:href="#zc6uZ"/></g><g><use fill="#fff" fill-opacity="0" stroke="#000" stroke-linecap="round" stroke-miterlimit="50" stroke-width="2" xlink:href="#zc6uaa"/></g><g><use fill="#fff" fill-opacity="0" stroke="#000" stroke-linecap="round" stroke-miterlimit="50" stroke-width="2" xlink:href="#zc6uab"/></g><g><use fill="#fff" fill-opacity="0" stroke="#000" stroke-linecap="round" stroke-miterlimit="50" stroke-width="2" xlink:href="#zc6uac"/></g><g><use fill="#fff" fill-opacity="0" stroke="#000" stroke-linecap="round" stroke-miterlimit="50" stroke-width="2" xlink:href="#zc6uad"/></g><g><use fill="#fff" fill-opacity="0" stroke="#000" stroke-linecap="round" stroke-miterlimit="50" stroke-width="2" xlink:href="#zc6uae"/></g><g><use fill="#fff" fill-opacity="0" stroke="#000" stroke-linecap="round" stroke-miterlimit="50" stroke-width="2" xlink:href="#zc6uaf"/></g><g><use fill="#fff" fill-opacity="0" stroke="#000" stroke-linecap="round" stroke-miterlimit="50" stroke-width="2" xlink:href="#zc6uag"/></g><g><use fill="#fff" fill-opacity="0" stroke="#000" stroke-linecap="round" stroke-miterlimit="50" stroke-width="2" xlink:href="#zc6uah"/></g><g><use fill="#fff" fill-opacity="0" stroke="#000" stroke-linecap="round" stroke-miterlimit="50" stroke-width="2" xlink:href="#zc6uai"/></g><g><use fill="#fff" fill-opacity="0" stroke="#000" stroke-linecap="round" stroke-miterlimit="50" stroke-width="2" xlink:href="#zc6uaj"/></g><g><use xlink:href="#zc6uak"/></g><g><use xlink:href="#zc6ual"/></g><g><use xlink:href="#zc6uam"/></g><g><use fill="#fff" fill-opacity="0" stroke="#000" stroke-linecap="round" stroke-miterlimit="50" stroke-width="2" xlink:href="#zc6uan"/></g><g/><g><use fill="#fff" fill-opacity="0" stroke="#000" stroke-linecap="round" stroke-miterlimit="50" stroke-width="2" xlink:href="#zc6uao"/></g><g><use fill="#fff" fill-opacity="0" stroke="#000" stroke-linecap="round" stroke-miterlimit="50" stroke-width="2" xlink:href="#zc6uap"/></g><g><use fill="#fff" fill-opacity="0" stroke="#000" stroke-linecap="round" stroke-miterlimit="50" stroke-width="2" xlink:href="#zc6uaq"/></g><g><use fill="#fff" fill-opacity="0" stroke="#000" stroke-linecap="round" stroke-miterlimit="50" stroke-width="2" xlink:href="#zc6uar"/></g><g><use fill="#fff" fill-opacity="0" stroke="#000" stroke-linecap="round" stroke-miterlimit="50" stroke-width="2" xlink:href="#zc6uas"/></g><g><use fill="#fff" fill-opacity="0" stroke="#000" stroke-linecap="round" stroke-miterlimit="50" stroke-width="2" xlink:href="#zc6uat"/></g><g><use fill="#fff" fill-opacity="0" stroke="#000" stroke-linecap="round" stroke-miterlimit="50" stroke-width="2" xlink:href="#zc6uau"/></g><g><use fill="#fff" fill-opacity="0" stroke="#000" stroke-linecap="round" stroke-miterlimit="50" stroke-width="2" xlink:href="#zc6uav"/></g><g><use fill="#fff" fill-opacity="0" stroke="#000" stroke-linecap="round" stroke-miterlimit="50" stroke-width="2" xlink:href="#zc6uaw"/></g><g><use fill="#fff" fill-opacity="0" stroke="#000" stroke-linecap="round" stroke-miterlimit="50" stroke-width="2" xlink:href="#zc6uax"/></g><g><use fill="#fff" fill-opacity="0" stroke="#000" stroke-linecap="round" stroke-miterlimit="50" stroke-width="2" xlink:href="#zc6uay"/></g><g><use fill="#fff" fill-opacity="0" stroke="#000" stroke-linecap="round" stroke-miterlimit="50" stroke-width="2" xlink:href="#zc6uaz"/></g><g><use fill="#fff" fill-opacity="0" stroke="#000" stroke-linecap="round" stroke-miterlimit="50" stroke-width="2" xlink:href="#zc6uaA"/></g><g><use fill="#fff" fill-opacity="0" stroke="#000" stroke-linecap="round" stroke-miterlimit="50" stroke-width="2" xlink:href="#zc6uaB"/></g><g><use fill="#fff" fill-opacity="0" stroke="#000" stroke-linecap="round" stroke-miterlimit="50" stroke-width="2" xlink:href="#zc6uaC"/></g><g><use fill="#fff" fill-opacity="0" stroke="#000" stroke-linecap="round" stroke-miterlimit="50" stroke-width="2" xlink:href="#zc6uaD"/></g><g><use fill="#fff" fill-opacity="0" stroke="#000" stroke-linecap="round" stroke-miterlimit="50" stroke-width="2" xlink:href="#zc6uaE"/></g><g><use fill="#fff" fill-opacity="0" stroke="#000" stroke-linecap="round" stroke-miterlimit="50" stroke-width="2" xlink:href="#zc6uaF"/></g><g><use fill="#fff" fill-opacity="0" stroke="#000" stroke-linecap="round" stroke-miterlimit="50" stroke-width="2" xlink:href="#zc6uaG"/></g><g><use fill="#fff" fill-opacity="0" stroke="#000" stroke-linecap="round" stroke-miterlimit="50" stroke-width="2" xlink:href="#zc6uaH"/></g><g><use fill="#fff" fill-opacity="0" stroke="#000" stroke-linecap="round" stroke-miterlimit="50" stroke-width="2" xlink:href="#zc6uaI"/></g><g><use fill="#fff" fill-opacity="0" stroke="#000" stroke-linecap="round" stroke-miterlimit="50" stroke-width="2" xlink:href="#zc6uaJ"/></g><g><use fill="#fff" fill-opacity="0" stroke="#000" stroke-linecap="round" stroke-miterlimit="50" stroke-width="2" xlink:href="#zc6uaK"/></g><g><use fill="#fff" fill-opacity="0" stroke="#000" stroke-linecap="round" stroke-miterlimit="50" stroke-width="2" xlink:href="#zc6uaL"/></g><g><use fill="#fff" fill-opacity="0" stroke="#000" stroke-linecap="round" stroke-miterlimit="50" stroke-width="2" xlink:href="#zc6uaM"/></g><g><use fill="#fff" fill-opacity="0" stroke="#000" stroke-linecap="round" stroke-miterlimit="50" stroke-width="2" xlink:href="#zc6uaN"/></g><g><use fill="#fff" fill-opacity="0" stroke="#000" stroke-linecap="round" stroke-miterlimit="50" stroke-width="2" xlink:href="#zc6uaO"/></g><g><use fill="#fff" fill-opacity="0" stroke="#000" stroke-linecap="round" stroke-miterlimit="50" stroke-width="2" xlink:href="#zc6uaP"/></g><g><use fill="#fff" fill-opacity="0" stroke="#000" stroke-linecap="round" stroke-miterlimit="50" stroke-width="2" xlink:href="#zc6uaQ"/></g><g><use fill="#fff" fill-opacity="0" stroke="#000" stroke-linecap="round" stroke-miterlimit="50" stroke-width="2" xlink:href="#zc6uaR"/></g><g><use fill="#fff" fill-opacity="0" stroke="#000" stroke-linecap="round" stroke-miterlimit="50" stroke-width="2" xlink:href="#zc6uaS"/></g><g><use fill="#fff" fill-opacity="0" stroke="#000" stroke-linecap="round" stroke-miterlimit="50" stroke-width="2" xlink:href="#zc6uaT"/></g><g><use fill="#fff" fill-opacity="0" stroke="#000" stroke-linecap="round" stroke-miterlimit="50" stroke-width="2" xlink:href="#zc6uaU"/></g><g><use fill="#fff" fill-opacity="0" stroke="#000" stroke-linecap="round" stroke-miterlimit="50" stroke-width="2" xlink:href="#zc6uaV"/></g><g><use fill="#fff" fill-opacity="0" stroke="#000" stroke-linecap="round" stroke-miterlimit="50" stroke-width="2" xlink:href="#zc6uaW"/></g><g><use fill="#fff" fill-opacity="0" stroke="#000" stroke-linecap="round" stroke-miterlimit="50" stroke-width="2" xlink:href="#zc6uaX"/></g><g><use fill="#fff" fill-opacity="0" stroke="#000" stroke-linecap="round" stroke-miterlimit="50" stroke-width="2" xlink:href="#zc6uaY"/></g><g><use fill="#fff" fill-opacity="0" stroke="#000" stroke-linecap="round" stroke-miterlimit="50" stroke-width="2" xlink:href="#zc6uaZ"/></g><g><use fill="#fff" fill-opacity="0" stroke="#000" stroke-linecap="round" stroke-miterlimit="50" stroke-width="2" xlink:href="#zc6uba"/></g><g><use fill="#fff" fill-opacity="0" stroke="#000" stroke-linecap="round" stroke-miterlimit="50" stroke-width="2" xlink:href="#zc6ubb"/></g><g><use fill="#fff" fill-opacity="0" stroke="#000" stroke-linecap="round" stroke-miterlimit="50" stroke-width="2" xlink:href="#zc6ubc"/></g><g><use fill="#fff" fill-opacity="0" stroke="#000" stroke-linecap="round" stroke-miterlimit="50" stroke-width="2" xlink:href="#zc6ubd"/></g><g><use fill="#fff" fill-opacity="0" stroke="#000" stroke-linecap="round" stroke-miterlimit="50" stroke-width="2" xlink:href="#zc6ube"/></g><g><use fill="#fff" fill-opacity="0" stroke="#000" stroke-linecap="round" stroke-miterlimit="50" stroke-width="2" xlink:href="#zc6ubf"/></g><g><use fill="#fff" fill-opacity="0" stroke="#000" stroke-linecap="round" stroke-miterlimit="50" stroke-width="2" xlink:href="#zc6ubg"/></g><g><use fill="#fff" fill-opacity="0" stroke="#000" stroke-linecap="round" stroke-miterlimit="50" stroke-width="2" xlink:href="#zc6ubh"/></g><g><use fill="#fff" fill-opacity="0" stroke="#000" stroke-linecap="round" stroke-miterlimit="50" stroke-width="2" xlink:href="#zc6ubi"/></g><g><use fill="#fff" fill-opacity="0" stroke="#000" stroke-linecap="round" stroke-miterlimit="50" stroke-width="2" xlink:href="#zc6ubj"/></g><g><use fill="#fff" fill-opacity="0" stroke="#000" stroke-linecap="round" stroke-miterlimit="50" stroke-width="2" xlink:href="#zc6ubk"/></g><g><use fill="#fff" fill-opacity="0" stroke="#000" stroke-linecap="round" stroke-miterlimit="50" stroke-width="2" xlink:href="#zc6ubl"/></g><g><use fill="#fff" fill-opacity="0" stroke="#000" stroke-linecap="round" stroke-miterlimit="50" stroke-width="2" xlink:href="#zc6ubm"/></g><g><use xlink:href="#zc6ubn"/></g><g><use xlink:href="#zc6ubo"/></g><g><use xlink:href="#zc6ubp"/></g><g><use fill="#fff" fill-opacity="0" stroke="#000" stroke-linecap="round" stroke-miterlimit="50" stroke-width="2" xlink:href="#zc6ubq"/></g><g/><g><use fill="#fff" fill-opacity="0" stroke="#000" stroke-linecap="round" stroke-miterlimit="50" stroke-width="2" xlink:href="#zc6ubr"/></g><g><g><use fill="#fff" fill-opacity="0" stroke="#000" stroke-linecap="round" stroke-miterlimit="50" stroke-width="2" xlink:href="#zc6ubs"/></g><g><use fill="#fff" fill-opacity="0" stroke="#000" stroke-linecap="round" stroke-miterlimit="50" stroke-width="2" xlink:href="#zc6ubt"/></g></g><g><g><use fill="#fff" fill-opacity="0" stroke="#000" stroke-linecap="round" stroke-miterlimit="50" stroke-width="2" xlink:href="#zc6ubu"/></g><g><use fill="#fff" fill-opacity="0" stroke="#000" stroke-linecap="round" stroke-miterlimit="50" stroke-width="2" xlink:href="#zc6ubv"/></g></g><g><g><use fill="#fff" fill-opacity="0" stroke="#000" stroke-linecap="round" stroke-miterlimit="50" stroke-width="2" xlink:href="#zc6ubw"/></g><g><use fill="#fff" fill-opacity="0" stroke="#000" stroke-linecap="round" stroke-miterlimit="50" stroke-width="2" xlink:href="#zc6ubx"/></g></g><g><g><use fill="#fff" fill-opacity="0" stroke="#000" stroke-linecap="round" stroke-miterlimit="50" stroke-width="2" xlink:href="#zc6uby"/></g><g><use fill="#fff" fill-opacity="0" stroke="#000" stroke-linecap="round" stroke-miterlimit="50" stroke-width="2" xlink:href="#zc6ubz"/></g></g><g><use fill="#fff" fill-opacity="0" stroke="#000" stroke-linecap="round" stroke-miterlimit="50" stroke-width="2" xlink:href="#zc6ubA"/></g><g><use fill="#fff" fill-opacity="0" stroke="#000" stroke-linecap="round" stroke-miterlimit="50" stroke-width="2" xlink:href="#zc6ubB"/></g></g></g></svg>