<?xml version="1.0" encoding="utf-8"?>
<!-- Generator: Adobe Illustrator 23.0.1, SVG Export Plug-In . SVG Version: 6.00 Build 0)  -->
<svg version="1.1" id="Слой_1" xmlns="http://www.w3.org/2000/svg" xmlns:xlink="http://www.w3.org/1999/xlink" x="0px" y="0px"
	 width="612px" height="792px" viewBox="0 0 612 792" style="enable-background:new 0 0 612 792;" xml:space="preserve">
<style type="text/css">
	.st0{fill:#FFFFFF;}
	.st1{fill:#FFFFFF;stroke:#3C5F42;stroke-miterlimit:10;}
	.st2{fill:#3C5F42;}
	.st3{fill:#3C5F42;stroke:#3C5F42;stroke-miterlimit:10;}
	.st4{fill:none;stroke:#3C5F42;stroke-width:0.5;stroke-miterlimit:10;}
	.st5{fill:#DAE8F4;}
	.st6{fill:#E9F4FC;}
	.st7{fill:#D3534E;}
	.st8{fill:#B14F46;}
</style>
<circle class="st0" cx="304.1" cy="247" r="196.4"/>
<circle class="st0" cx="303.4" cy="261.9" r="231.3"/>
<path class="st1" d="M283.4,165.9c1.3,0.5,2.5,0.8,3.7,1.1c3.2,0.8,6.5,1.2,9.7,1.4c3.2,0.2,6.4,0.3,9.5,0.2
	c5.6-0.2,11.1-1.2,16.2-3.4c0.7-0.3,1.4-0.7,2.2-1.1c0,0.1,0,0.2,0,0.2c-1.5,2.5-2.5,5.2-3.3,8c-1,3.2-1.6,6.5-2,9.8
	c0,0.5-0.1,1-0.1,1.5c0,0.5-0.2,0.7-0.6,0.9c-1.2,0.6-2.6,0.9-3.9,1.2c-2.6,0.5-5.1,0.8-7.8,1c-2.2,0.1-4.4,0.3-6.6,0.2
	c-3-0.1-6-0.3-8.9-1.3c-0.7-0.2-1.4-0.5-2-0.9c-0.3-0.2-0.5-0.4-0.5-0.7c-0.1-3.2-0.7-6.3-1.7-9.4c-1-2.9-2.2-5.6-3.8-8.2
	C283.6,166.3,283.5,166.2,283.4,165.9z M304.5,183.1c0.8-4.1,0.4-8-0.3-11.9C303.6,174.2,303.7,180.6,304.5,183.1z M310.6,182.7
	c0.4-4.1,1.1-8,2.2-12C310.7,174.5,309.9,178.5,310.6,182.7z M293.6,182.2c0.8-4.3-0.1-8.3-2.2-12
	C292.5,174.1,293.2,178.1,293.6,182.2z M317.2,170.3c-1.9,2.5-3.2,9.8-2.1,11.8c0.1-2,0.4-4,0.8-5.9
	C316.2,174.2,316.7,172.3,317.2,170.3z M298.8,182.7c0.9-4.2-0.3-9.3-2.3-12.1C297.7,174.6,298.4,178.6,298.8,182.7z"/>
<path class="st1" d="M292.5,166.5c-1.7-0.1-3.4-0.4-5.1-0.7c-0.4-0.1-0.8-0.2-1.1-0.2c-1.7-0.4-2.7-1.6-2.9-3.4
	c-0.2-2.1,0.9-3.6,2.6-4.6c1.2-0.7,2.5-0.9,3.9-1.1c4.6-0.5,9.2-0.8,13.8-1.4c3.6-0.5,7.2-1.2,10.6-2.5c1.6-0.6,3.2-1.4,4.5-2.5
	c0.3-0.2,0.6-0.3,0.9-0.1c2.1,1,3.5,2.5,3.8,4.9c0.1,0.5-0.1,0.9-0.4,1.4c-1.6,1.9-3.6,3.1-5.8,4.2c-3.6,1.8-7.4,2.9-11.2,3.9
	c-4.2,1.1-8.5,1.8-12.9,2.2C292.9,166.5,292.7,166.5,292.5,166.5z"/>
<path class="st1" d="M300.4,130c1.3,0.6,2.5,1.2,3.8,1.8c2,1.1,4.1,2.2,5.8,3.8c1.6,1.4,3,3,3.3,5.2c0.1,0.7,0.1,1.5,0,2.2
	c0,0.4-0.2,0.6-0.5,0.7c-0.9,0.6-1.8,0.9-2.8,1.1c-2.7,0.7-5.5,1.1-8.4,1.4c-2.1,0.2-4.1,0.2-6.2,0.2c-0.7,0-1.1-0.2-1.4-0.9
	c-0.9-1.8-0.5-3.7,1.1-5c1.1-0.9,2.3-1.4,3.6-1.7c1.6-0.4,2.9-1.2,3.2-3c0.4-2.1-0.2-3.9-1.4-5.5C300.6,130.3,300.5,130.2,300.4,130
	z"/>
<path class="st1" d="M288.2,152.8c0-1.5,0.8-2.6,2-3.4c1.5-0.9,3.1-1.3,4.8-1.5c3.9-0.4,7.7-0.6,11.5-1.1c2.5-0.4,5.1-0.8,7.5-1.8
	c0.7-0.3,1.4-0.7,2-1.3c0.2-0.2,0.4-0.3,0.7-0.1c0.8,0.6,1.5,1.1,2,2c0.8,1.4,0.6,2.6-0.6,3.7c-1.2,1.1-2.7,1.6-4.3,2
	c-2.5,0.6-5.1,0.9-7.7,1.1c-4.4,0.4-8.8,0.6-13.1,1.4c-1.3,0.2-2.5,0.6-3.6,1.1c-0.3,0.2-0.5,0.1-0.7-0.2
	C288.4,154.1,288.2,153.4,288.2,152.8z"/>
<path class="st1" d="M300.1,167.1c0.8-0.1,1.4-0.2,2.1-0.3c7.7-1.2,14.7-4.3,21-8.8c0.2-0.1,0.3-0.4,0.5-0.3
	c0.2,0.1,0.2,0.4,0.2,0.6c0.1,1.5-0.2,2.9-0.6,4.3c-0.2,0.6-0.5,1-1,1.3c-1.2,0.7-2.6,1.1-3.9,1.4c-3.7,1-7.5,1.5-11.3,1.8
	c-2.1,0.1-4.1,0.2-6.2,0.2C300.6,167.2,300.4,167.3,300.1,167.1z"/>
<g>
	<path class="st2" d="M157.5,161.2c0.2,0.3,0.6,0.6,1.1,1.1s1.2,0.9,1.9,1.5s1.4,1.1,2.2,1.6s1.5,1,2.1,1.4c0.9,0.6,1.9,1.2,2.9,1.6
		c1,0.5,2,0.8,3,1c0.1,0,0.1,0,0.3,0.1c0.4,0.2,0.2,0.8-0.3,1.6l-0.1,0.2c-0.6,0.8-1.6,0.9-3.1,0.2c-0.8-0.4-1.7-0.9-2.7-1.5
		s-2.1-1.3-3.1-1.9c-1.9-1.3-3.8-2.7-5.7-4.2c-0.1-0.1-0.3-0.2-0.5-0.3c-0.2-0.1-0.4-0.2-0.5-0.3c-0.8-0.5-0.9-1.2-0.5-2.1
		c0.4-0.8,0.8-1.7,1.2-2.6s0.9-1.8,1.4-2.7s0.9-1.6,1.2-2.3s0.7-1.2,0.9-1.5c0.4-0.6,0.8-0.9,1.2-1c0.4-0.1,0.8-0.1,1.2,0.2
		c0.6,0.4,0.7,0.8,0.4,1.3c2.1,1.8,4,3.3,5.6,4.5c1.6,1.2,3.2,2.3,4.6,3.3c0.4,0.2,0.7,0.4,1,0.6s0.6,0.3,0.9,0.4
		c0.5,0.1,0.8,0.2,1.1,0.2c0.2,0,0.5,0.1,0.6,0.1c0.1,0,0.3,0,0.3,0c0.1,0,0.1,0,0.2,0.1c0.4,0.2,0.2,0.8-0.3,1.6
		c-0.4,0.5-0.8,0.8-1.3,0.9s-1.2-0.1-1.9-0.5c-0.9-0.4-2-1-3.1-1.7s-2.5-1.5-3.9-2.5c-1.8-1.2-3.6-2.4-5.4-3.7
		c-0.2-0.2-0.4-0.1-0.6,0.2c-0.4,0.7-0.8,1.4-1.2,2.2s-0.8,1.5-1.1,2.1c-0.1,0.2-0.1,0.3-0.1,0.5C157.3,160.8,157.4,161,157.5,161.2
		z"/>
	<path class="st2" d="M185.6,147.7c0.3,0.2,0.4,0.5,0.6,0.7c0.1,0.4,0.1,0.6-0.1,0.9c-0.1,0.1-0.1,0.1-0.2,0.2
		c-0.1,0.1-0.2,0.2-0.3,0.2c-0.6,0.7-1.1,1.8-1.8,3.4c-0.6,1.6-1.2,2.7-1.8,3.4c-2.1,2.5-5,2.2-8.7-1c-3-2.5-5.2-4.5-6.8-6.1
		c-0.2-0.2-0.3-0.3-0.4-0.3c-0.1-0.1-0.3-0.2-0.5-0.4s-0.4-0.2-0.5-0.3c-0.7-0.6-0.8-1.3-0.3-2.2c0.8-1.4,1.5-2.7,2.3-4.1
		c1-1.8,1.8-3.1,2.5-3.9c0.4-0.4,0.8-0.8,1.2-1c0.6-0.3,1.1-0.3,1.5,0.1c0.6,0.5,0.5,1.1-0.1,1.8c-0.1,0.1-0.2,0.2-0.4,0.4
		c-0.2,0.2-0.3,0.3-0.4,0.4c-1,1.2-2.2,3.2-3.4,5.8c-0.1,0.1-0.2,0.3-0.2,0.4c-0.1,0.1,0,0.3,0.1,0.5c0.6,0.8,2,2.1,4.1,3.9
		c0.3,0.3,0.6,0.3,0.9,0c0.3-0.4,0.7-1.1,1.1-2s0.8-1.6,1.1-2c0.4-0.4,0.9-0.9,1.7-1.2c0.6,0.3,1,0.4,1.1,0.5
		c0.4,0.3,0.5,0.6,0.3,0.9s-0.3,0.5-0.5,0.8c-0.2,0.1-0.4,0.2-0.5,0.4c-0.4,0.5-0.9,1.2-1.4,2.1c-0.4,0.8-0.8,1.5-1.2,2.2
		c-0.1,0.1-0.1,0.2-0.2,0.3c0,0.1,0,0.2,0.1,0.4c0.2,0.3,0.5,0.5,0.6,0.6c1.2,1,1.9,1.6,2.2,1.7c1,0.6,1.8,0.5,2.4-0.2
		c0.5-0.6,1-1.6,1.6-3s1.1-2.5,1.7-3.1C183.9,148,184.8,147.6,185.6,147.7z"/>
	<path class="st2" d="M196.4,135.3c0.5-0.4,0.9-0.4,1.5,0.1c0.2,0.2,0.4,0.5,0.4,0.9c0.1,0.4,0,0.7,0,1.1c-0.1,0.4-0.2,0.7-0.4,1.1
		s-0.3,0.6-0.5,0.8c-0.5,0.5-1.2,0.9-2,1.2s-1.8,0.4-3,0.6c-0.2,0-0.5,0.1-1,0.1s-1,0-1.7,0s-1.3,0-2,0c-0.7,0-1.4,0-2-0.1l0.8,0.8
		c0.6,0.6,1.2,1.1,1.7,1.6s1,0.7,1.4,1c0.4,0.2,0.7,0.4,0.9,0.5s0.4,0.2,0.4,0.2c0.1,0.1,0.2,0.3,0.2,0.5s0,0.3,0,0.5
		s-0.1,0.3-0.2,0.4c-0.1,0.1-0.1,0.2-0.2,0.3c-0.2,0.2-0.5,0.4-0.9,0.4s-0.9-0.1-1.6-0.5c-0.7-0.4-1.6-1-2.7-1.9s-2.4-2.2-4.1-3.8
		c-1-1-2-2-3-3.1s-1.9-2.3-2.8-3.4c-0.1,0-0.2-0.1-0.3-0.2c-0.1-0.1-0.1-0.1-0.2-0.1c-0.4-0.4-0.6-0.8-0.6-1.2
		c0-0.4,0.2-0.8,0.5-1.1c0.1-0.1,0.3-0.2,0.6-0.4c0.3-0.1,0.6-0.2,0.9-0.2c0.3-0.1,0.6-0.1,0.9-0.1c0.3,0,0.5,0.1,0.6,0.2
		c0.1,0.1,0.2,0.3,0.2,0.4c0,0.1,0,0.3-0.1,0.6c0,0.1,0,0.2,0,0.3s0.2,0.3,0.4,0.6c0.4,0.5,0.7,0.9,0.9,1.2s0.5,0.6,0.7,0.9
		s0.5,0.6,0.8,0.9s0.6,0.7,0.9,1.1c-0.1-1.8-0.1-3.5-0.1-5.3s0.1-3.4,0.2-5.1c0-0.6,0.1-1.1,0.2-1.4s0.3-0.7,0.6-1
		c0.1-0.1,0.3-0.3,0.6-0.4c0.4,0,0.8,0.1,1.2,0.3s0.7,0.4,0.8,0.5c0.2,0.2,0.3,0.4,0.3,0.7c0,0.2-0.2,0.4-0.4,0.6
		c-0.2,0.2-0.4,0.3-0.6,0.3c-0.1,0.2-0.2,0.6-0.3,1.4c-0.1,0.8-0.1,1.7-0.1,2.8c0,1.1,0,2.3,0,3.5s0.1,2.5,0.2,3.7
		c0.4,0.1,0.9,0.1,1.5,0.2c0.6,0,1.2,0.1,1.8,0.1c0.6,0,1.2,0,1.7,0s1,0,1.4,0c1.2,0,2.2-0.1,2.9-0.2s1.2-0.3,1.5-0.6
		c0.2-0.2,0.3-0.4,0.4-0.6s0.1-0.4,0.1-0.6s0-0.4,0.1-0.6C196.1,135.6,196.2,135.4,196.4,135.3z"/>
	<path class="st2" d="M208.3,123.1c0.6,0.8,0.6,1.4-0.1,2c0.4,0.3,0.9,0.6,1.7,1c0.3,0.4,0.4,0.8,0.2,1.2c-0.1,0.4-0.3,0.8-0.7,1.1
		c-0.3,0.2-0.7,0.4-1.2,0.5c-0.5-0.2-1-0.6-1.5-1.2c-0.1-0.1-0.3-0.3-0.5-0.6c-0.2-0.3-0.4-0.5-0.4-0.6c0.1,0.1-0.1,0.4-0.6,0.8
		c-0.9,0.7-1.9,1.6-3,2.6c-1.6,1.5-2.5,2.4-2.5,2.6s0.6,1.2,1.7,2.7c0,0.5-0.1,0.8-0.4,1.1c-0.3,0.3-0.8,0.4-1.3,0.4
		c-0.6,0-1-0.1-1.2-0.5c-0.1-0.1-0.3-0.7-0.6-1.6c-0.6-1.4-1.4-3.4-2.5-6.2c-2.5-7.4-3.1-11.7-1.7-12.8c1.4-1.1,3.6-0.4,6.8,2
		c1.4,1.1,3.4,2.9,5.9,5.5c0.5-0.2,0.8-0.4,1-0.4C207.8,122.7,208.1,122.8,208.3,123.1z M204.3,124.8c-5.1-4.9-7.9-7.1-8.4-6.7
		c-0.4,0.3-0.2,2.2,0.8,5.7c0.7,2.5,1.4,4.6,2,6.3c0.4-0.5,1.1-1.2,1.9-2.2C201.4,127.1,202.6,126,204.3,124.8z"/>
	<path class="st2" d="M218.6,107.9c0.2,0.4,0.4,0.7,0.6,1c1.8,4.3,1.2,7.4-1.8,9.4c-1.6,1-3.2,1.5-4.9,1.5l0.3,0.5
		c0.7,1.1,1.3,1.8,1.8,2.1c0.7,0.4,1.1,0.6,1.1,0.7c0.2,0.3,0.3,0.7,0.2,1.1s-0.3,0.7-0.7,1c-0.8,0.5-1.4,0.5-2.1,0.2
		c-0.4-0.2-0.8-0.8-1.4-1.6c-0.4-0.6-0.8-1.2-1.3-1.9c-0.2-0.3-0.4-0.7-0.7-1.4c-0.3-0.6-0.5-1.1-0.7-1.4l-1.1-1.7
		c-0.3-0.5-0.8-1.3-1.3-2.3s-1-1.8-1.3-2.3l-1.5-2.3c0,0-0.4-0.4-1.1-1.2c0.2-0.7,0.5-1.2,0.8-1.4c0.4-0.3,0.9-0.3,1.4-0.2
		c0.5,0.2,0.9,0.5,1.2,0.9c0.1,0.1,0.1,0.2,0.2,0.3c0.2-2.2,1.1-3.8,2.8-4.9c1.6-1,3.2-1.2,4.9-0.6c1.5,0.6,2.8,1.7,3.9,3.3
		c0.1,0.1,0.2,0.3,0.3,0.5C218.4,107.6,218.6,107.8,218.6,107.9z M216.1,108.9c-0.8-1.2-1.6-2.1-2.4-2.7c-1.2-0.8-2.3-0.9-3.3-0.2
		c-1.3,0.8-1.9,2.3-1.8,4.5c0.1,1.9,0.5,3.6,1.4,5c1.5,2.3,3.4,2.8,5.8,1.2c1.3-0.8,1.8-1.9,1.7-3.4c-0.1-0.8-0.4-2.1-1.2-3.9
		C216.1,109.1,216.1,108.9,216.1,108.9z"/>
	<path class="st2" d="M233.6,93.4c0.1,0.2,0,0.4-0.1,0.7c-0.1,0.3-0.2,0.5-0.2,0.6c0,1.1,0.6,2.9,1.9,5.5l0.6,1c0,0,0.1-0.1,0.2-0.1
		c0.3-0.1,0.6-0.1,1,0.1s0.7,0.4,0.8,0.7c0.1,0.2,0,0.4-0.3,0.7c-0.2,0.2-0.5,0.4-0.7,0.6c0.4,0.8,0.9,1.7,1.3,2.5
		c0.6,1.1,1.1,1.8,1.6,2.3c0.4,0.4,0.6,0.6,0.6,0.8c0.2,0.4,0.2,0.8,0.1,1.2c-0.1,0.4-0.4,0.7-0.7,0.9c-0.7,0.3-1.3,0.2-1.9-0.4
		c-0.1-0.1-0.5-0.7-1.2-1.8c-0.2-0.4-0.5-0.8-0.8-1.4l-0.5-1.1c-0.4-0.7-0.7-1.3-1-1.7c-1,0.6-2.2,1.3-3.5,2.3
		c-1.1,0.8-2.2,1.7-3.4,2.5c0.2,0.2,0.7,1.2,1.5,2.9c0.7,1.4,1.3,2.2,1.9,2.4c0.1,0.1,0.2,0.1,0.2,0.2c0.2,0.5,0,0.9-0.7,1.2
		c-0.7,0.3-1.3,0.4-1.9,0.2c-0.4-0.1-1.5-1.9-3.4-5.3c-0.4,0.1-0.8,0-1.1-0.2s-0.6-0.6-0.8-0.9c-0.1-0.2-0.1-0.4,0.1-0.6
		c0.2-0.2,0.4-0.4,0.6-0.6c-0.1-0.2-0.3-0.7-0.5-1.3c-0.2-0.6-0.4-1-0.5-1.3c-1.6-3.2-2.4-5.3-2.5-6.3c-0.1-0.8,0.3-1.4,1-1.8
		c0.4-0.2,0.9-0.3,1.4-0.2c0.5,0.1,0.9,0.3,1.1,0.8c0.1,0.2,0.2,0.5,0.2,0.9c0,0.5,0,0.8,0.1,0.9c0.3,1.8,0.9,3.7,1.9,5.8
		c0.2,0.3,0.3,0.6,0.3,0.6c0.1-0.1,0.5-0.4,1.2-0.8c1.9-1.5,3.8-2.7,5.7-3.6c-1.2-2.7-2-4.4-2.3-5.2c-1-2.7-1-4.3-0.1-4.8
		c0.6-0.3,1.1-0.3,1.7,0C232.9,92.5,233.3,92.9,233.6,93.4z"/>
	<path class="st2" d="M242.4,109c-0.2-0.5-0.2-1.1-0.1-1.6s0.3-1.2,0.7-1.8s0.8-1.3,1.4-2.1c0.6-0.8,1.3-1.6,2.1-2.6
		c-0.7,0.1-1.4,0.1-2.1,0.1s-1.4-0.1-2-0.4c-0.6-0.2-1.2-0.6-1.8-1s-0.9-1.1-1.2-1.9c-0.4-1.2-0.5-2.2-0.4-3.3
		c0.2-1.1,0.5-2.1,1.1-3s1.2-1.7,2.1-2.3c0.8-0.7,1.7-1.2,2.6-1.5c0.3-0.1,0.7-0.2,1-0.3c0.4-0.1,0.6-0.2,0.8-0.2
		c0.2-0.1,0.3-0.2,0.4-0.5c0.1-0.2,0.4-0.4,0.7-0.5c0.4-0.1,0.7-0.2,0.9-0.1s0.4,0.2,0.6,0.4c0.4,0,0.7,0,1,0.1
		c0.3,0.1,0.5,0.4,0.7,0.8c0.1,0.3,0.1,0.6,0,0.8s-0.4,0.4-0.8,0.6c0.4,1.1,0.8,2.1,1.3,3.1c0.5,1,0.9,2.1,1.3,3.1
		c0.1,0.2,0.1,0.4,0.2,0.6c0.1,0.2,0.1,0.4,0.2,0.6c0.5,0,0.9,0.1,1.2,0.2s0.5,0.4,0.6,0.7c0.2,0.5,0.2,0.9,0,1.2
		c-0.2,0.3-0.5,0.6-0.9,0.8c0.5,1.6,0.8,2.9,1,3.8c0.2,0.9,0.3,1.5,0.1,1.8c-0.1,0.3-0.2,0.5-0.5,0.8s-0.5,0.4-0.7,0.5
		c-0.4,0.2-0.8,0.2-1,0.2c-0.2,0-0.4-0.2-0.5-0.5c-0.1-0.2-0.1-0.3-0.1-0.5c0-0.2,0-0.4,0.1-0.7c0-0.5,0-1.2-0.1-1.9
		s-0.3-1.5-0.7-2.4c-0.1,0-0.2,0-0.3,0s-0.4,0.1-0.7,0.2c-0.4,0.1-0.9,0.6-1.6,1.3s-1.4,1.6-2.2,2.6c-0.9,1.1-1.5,2.1-1.8,2.9
		c-0.3,0.8-0.5,1.4-0.4,1.8c-0.1,0.3-0.4,0.5-0.8,0.7c-0.2,0.1-0.4,0.1-0.7,0C242.7,109.6,242.5,109.4,242.4,109z M241.7,96.6
		c0.3,0.7,0.6,1.2,1.1,1.5s1.1,0.5,1.7,0.6s1.3,0,2.1-0.1c0.7-0.1,1.5-0.2,2.2-0.4c0.1-0.1,0.4-0.2,0.6-0.3c0.3-0.2,0.6-0.4,1.1-0.8
		c-0.5-1.4-1.1-2.7-1.7-4s-1.3-2.5-1.9-3.7c-0.4,0.1-0.9,0.2-1.4,0.4c-0.7,0.2-1.3,0.6-1.9,1.1s-1.1,1-1.4,1.7
		c-0.4,0.6-0.6,1.3-0.7,2C241.4,95.3,241.5,96,241.7,96.6z"/>
	<path class="st2" d="M269.5,92.6c-0.1,0.1-0.1,0.1-0.1,0.2c0,0.1,0.1,0.1,0.1,0.2c0.1,0.1,0.1,0.2,0.1,0.2c0,0.2-0.2,0.4-0.9,0.6
		c-0.1,0-0.3,0.1-0.6,0.1c-0.2,0-0.4,0.1-0.6,0.1c-0.3,0.1-0.8,0.2-1.5,0.4s-1.2,0.3-1.5,0.4c-1.8,0.4-2.8,0.3-2.9-0.4
		c-0.1-0.6,0-0.9,0.6-1c0.2,0,0.4-0.1,0.7,0c0.3,0,0.6,0,0.7-0.1c0.4-0.1,1-0.3,1.8-0.5c0.8-0.2,1.4-0.4,1.8-0.5
		C268.5,91.9,269.2,92.1,269.5,92.6z"/>
	<path class="st2" d="M291.7,94.4c0.6-0.1,1,0.2,1.1,1c0,0.3,0,0.6-0.2,0.9c-0.2,0.3-0.4,0.6-0.7,0.8c-0.3,0.2-0.6,0.4-0.9,0.6
		c-0.3,0.2-0.6,0.3-0.9,0.3c-0.8,0.1-1.5,0-2.3-0.3s-1.7-0.7-2.7-1.4c-0.2-0.1-0.5-0.3-0.8-0.6c-0.4-0.3-0.8-0.6-1.3-1
		c-0.5-0.4-1-0.8-1.6-1.2s-1.1-0.9-1.6-1.3l0.1,1.1c0.1,0.9,0.2,1.6,0.4,2.3s0.3,1.2,0.5,1.6c0.2,0.4,0.3,0.8,0.4,1
		c0.1,0.2,0.2,0.4,0.2,0.4c0,0.2,0,0.4-0.1,0.5c-0.1,0.1-0.2,0.3-0.3,0.4c-0.1,0.1-0.2,0.2-0.4,0.2s-0.3,0.1-0.4,0.1
		c-0.3,0-0.6,0-1-0.2s-0.7-0.7-1-1.4c-0.3-0.7-0.6-1.8-1-3.1c-0.3-1.4-0.6-3.2-0.9-5.5c-0.2-1.4-0.3-2.8-0.4-4.3
		c-0.1-1.5-0.2-3-0.1-4.4c0-0.1-0.1-0.2-0.1-0.3s0-0.2,0-0.2c-0.1-0.6,0-1,0.3-1.3c0.3-0.3,0.6-0.5,1.1-0.5c0.2,0,0.4,0,0.7,0.1
		c0.3,0.1,0.5,0.2,0.8,0.3c0.3,0.2,0.5,0.3,0.7,0.5s0.3,0.4,0.3,0.6c0,0.2,0,0.3,0,0.4c-0.1,0.1-0.2,0.2-0.4,0.4
		c-0.1,0.1-0.1,0.2-0.2,0.3s0,0.4,0,0.8c0,0.6,0,1.1,0,1.5c0,0.4,0,0.8,0,1.2c0,0.4,0,0.8,0,1.2s0,0.9,0.1,1.4c1-1.4,2-2.9,3.1-4.2
		c1.1-1.4,2.2-2.7,3.2-3.9c0.4-0.4,0.7-0.8,1-1c0.3-0.2,0.6-0.3,1.1-0.4c0.2,0,0.4,0,0.7,0.1c0.3,0.2,0.5,0.6,0.7,1
		c0.2,0.4,0.3,0.7,0.3,0.9c0,0.3,0,0.5-0.2,0.7s-0.4,0.2-0.7,0.3c-0.2,0-0.5,0-0.7-0.1c-0.2,0.1-0.5,0.4-1,0.9
		c-0.5,0.6-1.1,1.2-1.8,2.1c-0.7,0.8-1.4,1.8-2.2,2.8c-0.8,1-1.5,2-2.1,3c0.3,0.3,0.6,0.7,1.1,1.1s0.9,0.8,1.3,1.1s0.9,0.7,1.3,1.1
		c0.4,0.3,0.8,0.6,1.1,0.9c1,0.7,1.8,1.3,2.4,1.6s1.2,0.5,1.6,0.4c0.3,0,0.5-0.1,0.6-0.2c0.2-0.1,0.3-0.2,0.4-0.4
		c0.1-0.2,0.2-0.3,0.4-0.4C291.3,94.5,291.5,94.4,291.7,94.4z"/>
	<path class="st2" d="M309.3,87.2c0,2.9-0.6,5.3-2,7.4c-1.5,2.3-3.7,3.4-6.5,3.5c-0.8,0-1.6-0.1-2.5-0.4c-2-0.6-3.5-1.7-4.4-3.3
		c-0.8-1.3-1.2-3.2-1.2-5.4c0-3,0.6-5.6,2-7.9c1.6-2.7,3.8-4.1,6.6-4.1c2.5,0,4.5,1.1,5.9,3.4C308.6,82.2,309.2,84.5,309.3,87.2z
		 M306.4,86.9c-0.1-4.2-1.5-6.6-4.1-7.4c-0.3-0.1-0.6-0.1-1-0.1c-1.1,0-2.2,0.5-3.3,1.6c-1.8,1.7-2.6,4.6-2.5,8.7
		c0,0.4,0.1,0.9,0.3,1.6c0.4,1.5,0.9,2.6,1.6,3.3c0.8,0.8,1.9,1.2,3.4,1.2c2,0,3.6-1.1,4.6-3.1C306,91.1,306.4,89.2,306.4,86.9z"/>
	<path class="st2" d="M329.7,80.6c0,0.2-0.2,0.4-0.5,0.6c-0.3,0.2-0.5,0.3-0.5,0.4c-0.6,0.9-1,2.8-1.3,5.7l-0.1,1.2
		c0.1,0,0.1,0,0.2,0c0.3,0,0.6,0.2,0.8,0.6c0.2,0.4,0.3,0.7,0.3,1c0,0.2-0.2,0.4-0.6,0.4c-0.3,0-0.6,0.1-0.9,0.1
		c-0.1,0.9-0.1,1.9-0.2,2.8c-0.1,1.2,0,2.1,0.1,2.8c0.1,0.5,0.2,0.8,0.1,1c0,0.4-0.2,0.8-0.6,1.1s-0.7,0.4-1.1,0.4
		c-0.8-0.1-1.2-0.5-1.4-1.3c0-0.2,0-0.9-0.1-2.1c0-0.4,0-1,0.1-1.6l0.1-1.2c0.1-0.8,0.1-1.5,0-2c-1.2-0.1-2.5,0-4.2,0.1
		c-1.4,0.1-2.8,0.2-4.2,0.4c0,0.3,0,1.3-0.2,3.2c-0.1,1.5,0,2.5,0.4,3.1c0,0.1,0.1,0.2,0.1,0.3c0,0.5-0.5,0.7-1.3,0.7
		c-0.7-0.1-1.3-0.4-1.7-0.9c-0.2-0.3-0.3-2.4-0.1-6.3c-0.4-0.1-0.6-0.4-0.8-0.8s-0.2-0.8-0.2-1.2c0-0.2,0.2-0.4,0.4-0.4
		s0.5-0.1,0.8-0.2c0-0.3,0.1-0.7,0.3-1.4c0.1-0.6,0.2-1,0.2-1.4c0.4-3.5,0.8-5.7,1.2-6.6c0.4-0.8,1-1.1,1.8-1
		c0.5,0.1,0.9,0.2,1.3,0.6c0.4,0.3,0.6,0.8,0.5,1.2c0,0.2-0.1,0.5-0.3,0.9c-0.3,0.5-0.4,0.7-0.4,0.8c-0.7,1.6-1.2,3.6-1.4,5.9
		c0,0.4-0.1,0.6-0.1,0.7c0.2,0,0.7,0,1.4-0.1c2.4-0.2,4.6-0.3,6.7-0.1c0.4-2.9,0.6-4.8,0.8-5.7c0.6-2.8,1.5-4.2,2.5-4.1
		c0.6,0.1,1.1,0.3,1.5,0.9C329.6,79.4,329.8,80,329.7,80.6z"/>
	<path class="st2" d="M329.8,98c0.2-0.2,0.4-0.3,0.8-0.3c0.4,0,0.9,0,1.5,0.1c0.4-0.3,0.8-0.9,1.2-1.6s0.9-1.5,1.3-2.4
		c0.4-0.9,0.9-1.8,1.3-2.9c0.4-1,0.8-2,1.1-3c0.4-1,0.7-1.9,1-2.7s0.5-1.6,0.7-2.2c0.2-0.6,0.4-1.1,0.7-1.5c0.2-0.3,0.5-0.6,0.8-0.8
		c0.3-0.2,0.6-0.3,0.9-0.3c0.3,0,0.5,0,0.8,0.1c0.2,0.1,0.6,0.1,1.1,0.3c0.5,0.1,1.1,0.3,1.8,0.4s1.3,0.3,2,0.5
		c0.7,0.2,1.2,0.3,1.7,0.5c0.6,0.2,1,0.5,1.1,0.9s0.1,0.7,0.1,1c0,0.2-0.1,0.3-0.3,0.5c-0.1,0.2-0.4,0.3-0.6,0.5
		c-0.5,1.5-1,3-1.4,4.4s-0.9,3.1-1.2,4.8c-0.2,0.9-0.4,1.9-0.5,2.8c-0.2,0.9-0.2,1.9-0.3,2.8c0.8,0.2,1.3,0.4,1.5,0.7
		c0.2,0.2,0.3,0.6,0.2,1c0,0.4-0.1,0.7-0.1,1.1c-0.1,0.4-0.1,0.7-0.2,1c-0.1,0.4-0.2,0.8-0.3,1c-0.1,0.2-0.2,0.4-0.4,0.5
		s-0.3,0.2-0.5,0.2s-0.4,0-0.6-0.1c-0.1,0-0.2-0.1-0.4-0.2s-0.3-0.2-0.4-0.3c-0.1-0.1-0.2-0.3-0.3-0.4c-0.1-0.2-0.1-0.3-0.1-0.5
		c0-0.1,0.1-0.3,0.1-0.4c0-0.1,0.1-0.3,0.1-0.4c0-0.1,0-0.2,0-0.2c0-0.1,0-0.2,0-0.2c-0.3-0.1-0.6-0.2-0.9-0.2s-0.7-0.2-1.1-0.2
		c-0.7-0.2-1.6-0.3-2.5-0.5c-1-0.2-1.9-0.3-2.9-0.5c-1-0.2-1.9-0.3-2.7-0.4s-1.5-0.2-2.1-0.2c-0.1,0.2-0.1,0.6-0.1,0.9
		c0,0.3,0,0.7-0.1,1c-0.1,0.3-0.4,0.5-0.8,0.6c-0.4,0.1-0.8,0.1-1.1,0c-0.5-0.1-0.8-0.3-1-0.6c0-0.3,0-0.8,0.1-1.3
		c0-0.5,0.1-1,0.2-1.5c0.1-0.3,0.2-0.7,0.3-1C329.5,98.4,329.6,98.2,329.8,98z M335.4,98.3c1.1,0.2,2.3,0.4,3.5,0.6
		c1.2,0.2,2.4,0.5,3.5,0.7c0.1-1.2,0.2-2.3,0.4-3.4c0.2-1.1,0.4-2.3,0.7-3.5c0.2-0.7,0.3-1.4,0.5-2.1c0.1-0.6,0.3-1.3,0.5-1.9
		s0.3-1.3,0.5-1.9s0.4-1.3,0.6-2.1c-0.1,0-0.3-0.1-0.6-0.1c-0.2-0.1-0.5-0.1-0.8-0.2c-0.3-0.1-0.5-0.1-0.8-0.2
		c-0.2-0.1-0.4-0.1-0.6-0.1c-0.4-0.1-0.7-0.1-0.9-0.1s-0.4,0.2-0.5,0.4c-0.6,1.7-1.1,3.2-1.7,4.6c-0.5,1.4-1,2.7-1.5,3.8
		s-0.9,2.2-1.4,3C336.4,96.8,335.9,97.6,335.4,98.3z"/>
	<path class="st2" d="M350,99.4c0.4-1.2,0.9-2.5,1.3-3.8c0.5-1.3,0.9-2.5,1.3-3.7c0.4-1.2,0.8-2.2,1.2-3.2c0.4-1,0.7-1.8,1-2.3
		c0.1-0.2,0.2-0.3,0.4-0.5c0.2-0.1,0.4-0.3,0.7-0.4c0.3-0.1,0.5-0.2,0.8-0.2s0.5,0,0.6,0c0.1,0,0.2,0.1,0.4,0.3s0.3,0.3,0.4,0.5
		c0.1,0.2,0.2,0.4,0.3,0.6s0.1,0.4,0,0.5c0,0.2-0.1,0.3-0.2,0.3s-0.2,0.2-0.3,0.3c-0.2,0.2-0.5,0.8-1,1.6c-0.5,0.8-1,1.8-1.5,3
		c-0.6,1.2-1.1,2.5-1.7,3.9c-0.6,1.4-1.1,2.8-1.6,4.2c-0.1,0.4-0.1,0.6,0,0.7c0.2,0.1,0.5-0.1,1-0.5s1-1,1.6-1.7
		c0.6-0.7,1.3-1.4,2-2.3s1.4-1.7,2-2.4c0.6-0.8,1.2-1.5,1.6-2.1c0.5-0.6,0.8-1.1,1-1.3c0.5-0.8,0.8-1.4,1.2-1.8
		c0.3-0.4,0.6-0.7,0.9-0.9s0.6-0.2,0.9-0.2s0.6,0.1,1,0.2c0.7,0.2,1.1,0.5,1.3,0.8s0.2,0.7,0.1,1.1l-0.2,0.3c-0.5,1.2-1,2.3-1.5,3.4
		c-0.4,1-0.8,2-1.2,2.9c-0.4,0.9-0.7,1.8-1,2.7s-0.6,1.7-0.9,2.6c-0.9,2.5-1.1,4.3-0.8,5.4c-0.4,0.2-0.7,0.3-1,0.3
		c-0.3,0-0.5,0-0.7,0c-0.5-0.2-0.9-0.5-1-1c-0.2-0.5-0.2-1.1-0.1-1.7c0.1-0.6,0.2-1.3,0.4-2c0.2-0.7,0.4-1.4,0.7-2.1
		c0.1-0.5,0.3-1,0.5-1.5s0.4-1.1,0.6-1.7c0.2-0.6,0.5-1.1,0.7-1.7c0.2-0.6,0.4-1.1,0.6-1.5c-1.9,2.3-3.4,4.1-4.6,5.4s-2,2.2-2.6,2.7
		c-0.8,0.7-1.5,1.2-2.2,1.5s-1.3,0.3-1.8,0.2c-0.6-0.2-1-0.7-1.1-1.5S349.5,100.8,350,99.4z"/>
	<path class="st2" d="M383.1,97.8c-0.1,0.3-0.4,0.5-0.6,0.7s-0.6,0.1-0.9,0c-0.2-0.1-0.4-0.3-0.8-0.7c-0.4-0.4-0.7-0.6-1-0.7
		c-0.8-0.4-1.4-0.6-1.9-0.9c-0.3-0.1-0.4-0.2-0.5-0.1c0,0-0.2,0.2-0.3,0.5c-0.3,0.4-0.7,1.1-1.3,1.9c-1.5,2.3-2.9,5-4.3,8.2
		c-1,2.1-1.4,3.7-1.2,4.7l-0.3,0.7c-0.4,0-0.8,0-1-0.1c-1.2-0.5-1.7-1.4-1.5-2.7c0.1-0.6,0.5-1.7,1.2-3.3c0.8-1.8,1.5-3.2,2-4.2
		c0.2-0.4,0.8-1.4,1.7-3c0.7-1.2,1.3-2.2,1.6-3l0.4-0.8c-0.3-0.1-0.8-0.3-1.6-0.5c-0.6-0.2-1.2-0.4-1.5-0.5c-1.3-0.6-1.7-1.2-1.4-2
		c0.1-0.3,0.3-0.4,0.5-0.4c0.5-0.3,2,0,4.8,0.9c2.1,0.7,3.8,1.3,5,1.9c0.9,0.4,1.6,0.9,2.1,1.4C383.1,96.4,383.4,97.1,383.1,97.8z"
		/>
	<path class="st2" d="M389.9,120c-0.2,0.3-0.4,0.5-0.6,0.7c-0.3,0.2-0.6,0.2-0.9,0.1c-0.1,0-0.2-0.1-0.3-0.2
		c-0.1-0.1-0.2-0.2-0.3-0.2c-0.8-0.4-2-0.8-3.6-1.2c-1.7-0.4-2.9-0.8-3.6-1.2c-2.8-1.6-3-4.5-0.5-8.8c1.9-3.3,3.5-5.9,4.9-7.8
		c0.2-0.2,0.3-0.4,0.3-0.4c0.1-0.1,0.2-0.3,0.3-0.6s0.2-0.4,0.2-0.5c0.5-0.8,1.2-1,2.1-0.7c1.5,0.5,3,1.1,4.4,1.6
		c1.9,0.7,3.3,1.3,4.2,1.8c0.5,0.3,0.9,0.6,1.2,1c0.4,0.5,0.4,1,0.2,1.5c-0.4,0.6-1,0.7-1.8,0.2c-0.1-0.1-0.3-0.2-0.5-0.3
		c-0.2-0.2-0.4-0.3-0.5-0.3c-1.4-0.8-3.5-1.6-6.3-2.4c-0.1-0.1-0.3-0.1-0.4-0.2c-0.1,0-0.3,0-0.5,0.2c-0.7,0.7-1.7,2.3-3.1,4.7
		c-0.2,0.4-0.1,0.6,0.2,0.8c0.5,0.3,1.2,0.5,2.1,0.8c1,0.3,1.7,0.5,2.1,0.8c0.5,0.3,1,0.8,1.5,1.5c-0.1,0.7-0.3,1-0.3,1.2
		c-0.2,0.4-0.5,0.6-0.8,0.5c-0.3-0.1-0.6-0.2-0.9-0.4c-0.1-0.2-0.2-0.3-0.5-0.5c-0.6-0.3-1.4-0.7-2.3-1c-0.8-0.3-1.6-0.5-2.4-0.8
		c-0.1,0-0.2-0.1-0.3-0.1c-0.1,0-0.2,0-0.4,0.2c-0.2,0.3-0.4,0.5-0.5,0.7c-0.8,1.3-1.2,2.2-1.3,2.4c-0.4,1.1-0.2,1.9,0.5,2.3
		c0.7,0.4,1.7,0.7,3.2,1.1c1.5,0.3,2.6,0.7,3.4,1.2C389.3,118.5,389.9,119.2,389.9,120z"/>
	<path class="st2" d="M409.3,121.3c-0.3,0.4-0.5,0.7-0.8,0.9c-3.4,3.3-6.5,3.9-9.4,1.8c-1.5-1.1-2.5-2.4-3.2-4.1l-0.4,0.5
		c-0.8,1.1-1.2,1.9-1.3,2.4c-0.1,0.8-0.2,1.2-0.2,1.3c-0.2,0.3-0.6,0.5-1,0.6c-0.4,0.1-0.8,0-1.1-0.3c-0.7-0.5-1-1.2-0.9-1.9
		c0.1-0.4,0.4-1.1,1-1.9c0.4-0.6,0.8-1.2,1.3-1.9c0.2-0.3,0.5-0.7,1-1.2s0.8-0.9,1-1.2l1.2-1.7c0.3-0.5,0.9-1.2,1.7-2.1
		s1.3-1.6,1.6-2l1.6-2.2c0,0,0.3-0.5,0.7-1.5c0.7-0.1,1.2,0,1.6,0.3c0.4,0.3,0.7,0.7,0.7,1.2c0,0.5-0.1,1-0.5,1.4
		c-0.1,0.1-0.2,0.2-0.2,0.3c2.1-0.6,4-0.4,5.6,0.8c1.5,1.1,2.3,2.6,2.4,4.4c0,1.6-0.5,3.2-1.7,4.8c-0.1,0.1-0.2,0.3-0.4,0.5
		C409.5,121.1,409.4,121.2,409.3,121.3z M407.4,119.3c0.8-1.1,1.3-2.2,1.6-3.2c0.3-1.4,0-2.5-1-3.2c-1.2-0.9-2.9-0.9-4.9,0
		c-1.8,0.8-3.1,1.8-4.1,3.2c-1.6,2.2-1.3,4.2,1,5.8c1.2,0.9,2.5,1,3.8,0.4c0.8-0.3,1.8-1.2,3.2-2.5
		C407.2,119.5,407.4,119.3,407.4,119.3z"/>
	<path class="st2" d="M417.6,138.6c-0.2,0.3-0.6,0.6-1.1,0.8c-1.2,0.6-2.6,0.8-4.2,0.4c-1.4-0.3-2.6-1-3.8-2
		c-1.8-1.6-2.6-3.6-2.4-5.9c0.2-2,1.2-3.9,2.9-5.8c1.4-1.6,3-2.8,4.7-3.8c2-1.1,3.9-1.6,5.8-1.5c1.5,0.1,2.7,0.5,3.5,1.3
		c1.3,1.1,1.7,2.6,1.4,4.2c-0.3,1.4-1,2.7-2.2,4.1c-0.5,0.6-1.4,1.2-2.5,1.9c-1.4,0.8-2.3,1-2.8,0.6c-0.5-0.5-0.6-1.1-0.3-2.1
		c0.2,0,0.6,0.1,1.1,0.1c0.6-0.1,1.3-0.6,2.2-1.5c0.8-0.9,1.4-1.8,1.8-2.6c0.6-1.2,0.5-2.2-0.2-2.8c-0.5-0.4-1.3-0.6-2.4-0.5
		c-0.9,0.1-1.7,0.3-2.5,0.6c-2,0.8-4,2.2-5.9,4.3c-2.8,3.1-3,5.7-0.7,7.8c1,0.9,2,1.3,3.1,1.3c0.5,0,1.3-0.2,2.5-0.6
		c0.8-0.3,1.4-0.3,1.8,0c0.2,0.2,0.4,0.5,0.4,0.8C417.9,138.1,417.8,138.4,417.6,138.6z"/>
	<path class="st2" d="M427.8,152c0.4,0.5,0.4,1-0.2,1.5c-0.2,0.2-0.5,0.3-0.9,0.4s-0.7,0-1.1-0.1c-0.4-0.1-0.7-0.2-1-0.4
		c-0.3-0.2-0.6-0.4-0.8-0.6c-0.5-0.6-0.9-1.2-1.1-2.1c-0.2-0.8-0.4-1.8-0.5-3c0-0.2,0-0.5,0-1s0-1,0-1.7s0-1.3,0.1-2
		c0-0.7,0.1-1.4,0.1-2l-0.8,0.8c-0.6,0.6-1.2,1.1-1.6,1.7c-0.4,0.5-0.8,1-1,1.4c-0.3,0.4-0.5,0.7-0.6,0.9c-0.1,0.2-0.2,0.4-0.2,0.4
		c-0.1,0.1-0.3,0.2-0.5,0.2c-0.2,0-0.3,0-0.5,0c-0.1,0-0.3-0.1-0.4-0.2c-0.1-0.1-0.2-0.2-0.3-0.2c-0.2-0.2-0.3-0.6-0.4-0.9
		c0-0.4,0.2-0.9,0.5-1.6c0.4-0.7,1.1-1.6,2-2.6s2.3-2.3,4-3.9c1-0.9,2.1-1.9,3.3-2.8c1.2-1,2.3-1.9,3.5-2.7c0-0.1,0.1-0.2,0.2-0.3
		s0.1-0.1,0.1-0.1c0.4-0.4,0.8-0.5,1.2-0.5s0.8,0.2,1.1,0.6c0.1,0.1,0.2,0.3,0.3,0.6s0.2,0.6,0.2,0.9c0,0.3,0,0.6,0,0.9
		c0,0.3-0.1,0.5-0.3,0.6c-0.1,0.1-0.3,0.2-0.4,0.2c-0.1,0-0.3,0-0.5-0.1c-0.1,0-0.2,0-0.3,0c-0.1,0-0.3,0.2-0.6,0.4
		c-0.5,0.4-0.9,0.6-1.2,0.9s-0.6,0.5-1,0.7c-0.3,0.2-0.6,0.5-0.9,0.7c-0.3,0.2-0.7,0.6-1.1,0.9c1.8,0,3.5,0,5.3,0.1s3.4,0.2,5,0.4
		c0.6,0.1,1,0.1,1.4,0.3c0.3,0.1,0.6,0.3,0.9,0.7c0.1,0.1,0.2,0.3,0.4,0.6c0,0.4-0.1,0.8-0.4,1.2c-0.2,0.4-0.4,0.7-0.6,0.8
		c-0.2,0.2-0.4,0.3-0.7,0.2s-0.4-0.2-0.6-0.4c-0.2-0.2-0.3-0.4-0.3-0.6c-0.1-0.1-0.6-0.2-1.4-0.3s-1.7-0.2-2.7-0.3s-2.3-0.1-3.5-0.1
		s-2.5,0-3.7,0c-0.1,0.4-0.2,0.9-0.2,1.5s-0.1,1.1-0.2,1.8c0,0.6-0.1,1.2-0.1,1.7c0,0.6,0,1,0,1.4c0,1.2,0,2.2,0.1,2.9
		s0.3,1.2,0.6,1.6c0.2,0.2,0.4,0.3,0.5,0.4s0.4,0.1,0.6,0.1c0.2,0,0.4,0.1,0.5,0.1C427.5,151.7,427.6,151.8,427.8,152z"/>
	<path class="st2" d="M439.5,164.4c-0.8,0.6-1.4,0.5-2-0.2c-0.3,0.4-0.7,0.9-1.1,1.6c-0.4,0.2-0.8,0.3-1.2,0.2
		c-0.4-0.1-0.8-0.4-1-0.7c-0.2-0.3-0.4-0.7-0.5-1.2c0.3-0.5,0.7-1,1.3-1.4c0.1-0.1,0.4-0.2,0.6-0.4s0.5-0.3,0.6-0.4
		c-0.1,0.1-0.4-0.1-0.8-0.7c-0.7-0.9-1.5-1.9-2.5-3.1c-1.4-1.7-2.2-2.6-2.5-2.6c-0.3,0-1.2,0.5-2.8,1.6c-0.5,0-0.8-0.1-1-0.5
		c-0.2-0.3-0.4-0.8-0.3-1.4c0-0.6,0.2-1,0.5-1.2c0.1-0.1,0.7-0.3,1.7-0.6c1.4-0.5,3.5-1.3,6.3-2.2c7.5-2.2,11.8-2.6,12.9-1.1
		c1,1.4,0.3,3.6-2.3,6.7c-1.1,1.4-3.1,3.3-5.8,5.7c0.2,0.5,0.3,0.8,0.4,1C440,163.9,439.8,164.2,439.5,164.4z M437.9,160.3
		c5.1-4.9,7.5-7.6,7-8.1c-0.3-0.4-2.2-0.3-5.7,0.6c-2.5,0.6-4.6,1.2-6.4,1.8c0.5,0.4,1.2,1.1,2.1,2
		C435.8,157.3,436.8,158.6,437.9,160.3z"/>
	<path class="st2" d="M436.3,167.9c0.5-0.3,1-0.4,1.6-0.4c0.6,0,1.2,0.1,1.9,0.3c0.7,0.2,1.5,0.6,2.3,1s1.9,1,3,1.6
		c-0.2-0.6-0.4-1.3-0.5-2c-0.1-0.7-0.1-1.4,0-2.1c0.1-0.7,0.3-1.3,0.7-1.9s0.9-1.1,1.7-1.6c1-0.6,2.1-0.9,3.2-1
		c1.1,0,2.1,0.1,3.1,0.5s1.9,0.9,2.7,1.6c0.8,0.7,1.5,1.5,2,2.3c0.2,0.3,0.3,0.6,0.5,0.9c0.1,0.3,0.3,0.6,0.4,0.8
		c0.1,0.2,0.3,0.3,0.5,0.4c0.3,0.1,0.5,0.3,0.7,0.6c0.2,0.4,0.3,0.6,0.2,0.9s-0.2,0.4-0.3,0.6c0.1,0.3,0.1,0.7,0,1
		c0,0.3-0.3,0.6-0.7,0.8c-0.3,0.2-0.6,0.2-0.8,0.2s-0.5-0.3-0.7-0.7c-1,0.6-1.9,1.2-2.8,1.9c-0.9,0.6-1.9,1.3-2.8,1.9
		c-0.2,0.1-0.3,0.2-0.5,0.3s-0.4,0.2-0.5,0.3c0.1,0.5,0.1,0.9,0,1.2s-0.3,0.6-0.6,0.7c-0.5,0.3-0.9,0.4-1.2,0.2
		c-0.3-0.1-0.7-0.4-1-0.7c-1.5,0.8-2.7,1.3-3.5,1.7c-0.8,0.4-1.4,0.5-1.7,0.5c-0.3,0-0.6-0.2-0.8-0.3c-0.3-0.2-0.5-0.4-0.6-0.6
		c-0.2-0.4-0.4-0.8-0.4-1s0.1-0.4,0.4-0.6c0.1-0.1,0.3-0.1,0.5-0.1c0.2,0,0.4,0,0.7-0.1c0.5-0.1,1.1-0.2,1.8-0.4
		c0.7-0.2,1.4-0.6,2.3-1.1c0-0.1,0-0.2-0.1-0.3c0-0.1-0.2-0.3-0.4-0.7c-0.2-0.4-0.7-0.8-1.5-1.3c-0.8-0.5-1.8-1.1-3-1.7
		c-1.3-0.7-2.3-1.1-3.2-1.2s-1.5-0.2-1.9-0.1c-0.3-0.1-0.6-0.3-0.8-0.7c-0.1-0.2-0.2-0.4-0.1-0.7C435.8,168.4,436,168.1,436.3,167.9
		z M448.4,165.1c-0.7,0.4-1.1,0.9-1.3,1.4c-0.2,0.6-0.3,1.1-0.2,1.8c0,0.6,0.2,1.3,0.5,2c0.2,0.7,0.5,1.4,0.8,2.1
		c0.1,0.1,0.2,0.3,0.5,0.6c0.2,0.2,0.5,0.6,1,0.9c1.2-0.8,2.5-1.6,3.7-2.4s2.3-1.7,3.3-2.6c-0.1-0.4-0.4-0.8-0.7-1.3
		c-0.4-0.6-0.8-1.1-1.4-1.6c-0.6-0.5-1.2-0.9-1.9-1.1s-1.4-0.4-2.1-0.4C449.7,164.5,449,164.7,448.4,165.1z"/>
</g>
<path class="st3" d="M135.9,230.1c-0.4,4.4-0.8,8.7-1.1,13c-0.3,4.3-0.7,8.6-0.9,12.8c1.2-0.1,2.3-0.2,3.4-0.3
	c1.1,0,2.3-0.1,3.6-0.1c1.6,0,3.4,0.1,5.6,0.2s4.4,0.4,6.7,0.8c2.3,0.4,4.6,1,6.8,1.8c2.2,0.8,4.2,1.8,6,3s3.2,2.7,4.2,4.4
	s1.6,3.8,1.6,6.2c0,3-0.8,5.6-2.4,7.9c-1.6,2.3-3.7,4.1-6.2,5.7c-2.5,1.5-5.2,2.7-8.2,3.5s-5.8,1.2-8.5,1.2c-1.8,0-3.7-0.2-5.8-0.5
	c-2-0.3-4.4-0.9-7.1-1.6c0,0.4,0,0.7,0.1,1c0,0.3,0.1,0.8,0.3,1.4c-0.1,0.4-0.4,0.8-0.9,1.1c-0.4,0.3-1.1,0.5-1.9,0.5
	c-1.5,0-2.3-0.8-2.4-2.5c-0.1-1.8-0.4-2.9-0.7-3.4c-0.3-0.5-1-0.9-2-1.4c-1-0.4-1.4-1-1.4-1.9c0-0.5,0.2-0.9,0.5-1.1s0.7-0.4,1-0.6
	s0.7-0.2,1-0.3s0.5-0.2,0.6-0.4c0-6.4,0.1-13.2,0.3-20.2c-1.4-0.5-2.2-1.1-2.2-2c0-1,0.7-1.9,2-2.6c0.3-5.3,0.5-9.8,0.7-13.6
	c0.2-3.8,0.4-7.4,0.7-10.7c0-0.6-0.1-1.3-0.3-2.1c-0.2-0.9-0.3-1.5-0.3-1.8c0-1.7,1.1-2.6,3.4-2.8c1.3-0.1,3.1-0.5,5.3-1
	s5.3-1.2,9.3-1.9c3.7-0.8,6.7-1.3,9-1.6s4.2-0.5,5.7-0.5c0.5,0,1.1,0.1,1.8,0.2c0.7,0.1,1.4,0.3,2,0.5s1.2,0.6,1.7,1
	c0.5,0.4,0.7,1,0.7,1.7c0,0.8-0.4,1.3-1.4,1.5c-0.9,0.2-2.2,0.4-3.8,0.5c-1.7,0.1-3.7,0.2-6.1,0.3c-2.4,0.1-5.1,0.3-8,0.7
	c-3.5,0.5-6.2,1.1-8.2,1.9C138.1,228.7,136.7,229.4,135.9,230.1z M166.1,271.5c0-1.5-0.4-2.9-1.2-4.3c-0.8-1.4-2.2-2.6-4.1-3.7
	s-4.6-2-7.9-2.6s-7.4-1-12.4-1c-2.9,0-5.2,0.2-7,0.6c-0.2,3.5-0.3,7-0.3,10.5c0,4.1,0.1,8.1,0.3,12.1c1.7,1,3.5,1.7,5.5,2.2
	c2,0.5,4.4,0.7,7.2,0.7c2.4,0,4.7-0.4,7.1-1.2c2.4-0.8,4.5-1.9,6.4-3.2c1.9-1.4,3.5-2.9,4.7-4.6
	C165.5,275.2,166.1,273.4,166.1,271.5z"/>
<path class="st3" d="M210.7,249.9c-0.6,3.1-1.1,6.1-1.6,9.1c-0.6,3.2-1,6.3-1,9.1v32.5c0,4.6-1.4,8.3-4.2,11.1
	c-2.8,2.7-6.6,4.1-11.3,4.1c-2.6,0-5.4-0.7-8.6-2.1c-3.7-1.5-6.2-3.4-7.6-5.7c-0.4-0.6-0.5-1.2-0.5-1.9c0-2,1-3,2.9-3
	c0.4,0,0.9,0.1,1.4,0.4c1.2,1.2,2.4,2.5,3.5,3.6c2.4,2.1,5.3,3.2,8.9,3.2c4.6,0,7.6-1.6,9.1-4.8c0.9-2,1.4-5.6,1.4-10.9
	c0-0.7-0.1-2.1-0.4-4.1c-0.3-1.7-0.4-3.2-0.2-4.6c-1.9,1.8-3.3,2.9-4.1,3.4c-1.5,1-3.2,1.5-5,1.5c-4.7,0-8.3-1.8-10.7-5.5
	c-2.1-3.2-3.2-7.2-3.2-12.1c0-9.3,0.1-17.2,0.4-23.7c0.3-2.2,1.5-3.3,3.6-3.3c2.6,0,3.8,0.4,3.5,1.4c-1.3,3.6-2,11.7-2,24.2
	c0,9.7,2.8,14.5,8.3,14.5c3.4,0,6.1-2.6,8.1-7.8c1.5-4,2.2-8.1,2.2-12.1v-11.8c0.1-1.2,0.2-2.7,0.3-4.5c0.1-1.8,1.2-2.6,3.4-2.5
	C209.7,247.8,210.9,248.6,210.7,249.9z"/>
<path class="st3" d="M226.9,250.6c0-0.6,0.1-1,0.4-1.4c0.3-0.4,0.9-0.7,1.8-1c0.9-0.3,1.6-0.5,2.1-0.8c0.5-0.2,0.9-0.5,1.2-0.7
	c0.4-0.2,0.7-0.4,0.9-0.5c0.3-0.1,0.6-0.2,1-0.2c0.4,0,0.7,0,1.1,0.1c0.4,0.1,0.7,0.1,0.9,0.1c0.1,0,0.4,0,1.1-0.1s1.4-0.2,2.4-0.3
	c0.9-0.1,2-0.2,3.1-0.3c1.1-0.1,2.2-0.2,3.2-0.4c0.6-0.1,1.4-0.2,2.2-0.3c0.8-0.1,1.6-0.2,2.4-0.3c0.8-0.1,1.4-0.2,2-0.3
	c0.6-0.1,1-0.1,1.2-0.1c0.6,0,1.4,0.4,2.3,1.1s1.4,1.4,1.4,2.1c0,0.4-0.1,0.6-0.2,0.7c-0.1,0.1-0.3,0.3-0.5,0.5s-0.4,0.6-0.6,1
	c-0.2,0.5-0.3,1.3-0.5,2.4c-0.6,4.6-0.9,9.1-1.2,13.3s-0.4,8.3-0.4,12.1c0,3.3,0.2,6,0.7,8c0.5,2,1.1,3.6,1.9,4.7
	c-0.6,0.8-1.6,1.2-2.8,1.2c-1,0-1.9-0.2-2.6-0.5s-1.3-0.9-1.8-1.8s-0.8-2.2-1-3.9c-0.2-1.7-0.3-3.9-0.3-6.7c0-2.9,0.1-5.5,0.2-7.9
	s0.3-4.7,0.5-6.9c0.2-2.2,0.4-4.3,0.5-6.3c0.2-2,0.3-4.1,0.5-6.3c0-0.5-0.2-0.7-0.5-0.7c-1.1,0-2.4,0.1-3.8,0.2s-2.8,0.3-4.1,0.5
	c-1.3,0.2-2.4,0.4-3.3,0.7c-0.9,0.2-1.4,0.5-1.4,0.7c0.1,1.8,0.1,3.6,0.2,5.4c0,1.8,0.1,3.7,0.1,5.5c0,1.7,0,3.4-0.1,5.4
	c-0.1,1.9-0.2,3.8-0.4,5.8c-0.2,1.9-0.5,3.8-0.8,5.7s-0.7,3.6-1.2,5.2c-1,3.2-2.3,5.4-3.9,6.5c-1.7,1.1-3.6,1.7-5.8,1.7
	c-1,0-2.1-0.2-3.3-0.5c-1.2-0.3-2.4-0.8-3.5-1.5c-1.1-0.7-2-1.6-2.7-2.7c-0.7-1.1-1.1-2.5-1.1-4c0-1.9,0.8-2.8,2.4-2.8
	c1.1,0,1.9,0.5,2.3,1.4s0.9,1.9,1.2,3c0.4,1.1,0.9,2.1,1.4,3c0.6,0.9,1.4,1.4,2.7,1.4c1.1,0,2.1-0.5,3-1.4s1.7-2.4,2.3-4.5
	s1.1-4.7,1.4-8c0.4-3.2,0.5-7.2,0.5-11.8c0-1.7,0-3.5,0-5.2s0-3.5-0.1-5.2c0-0.5-0.1-0.8-0.4-0.8s-0.5-0.1-0.8-0.1
	c-0.2,0-0.4,0-0.6,0.1c-0.2,0.1-0.4,0.1-0.8,0.1c-0.6,0-1-0.4-1.4-1.2C227.1,252.1,226.9,251.4,226.9,250.6z"/>
<path class="st3" d="M282.6,229.7c0-0.7,0.2-1.3,0.5-1.7c0.3-0.4,1-0.9,2.1-1.2c1.5-0.5,2.5-0.8,3-0.8c0.5-0.1,1-0.3,1.5-0.6
	c0.3-2.1,1.2-3.2,2.8-3.2c0.4,0,1,0.3,1.9,0.9c0.9,0.6,1.5,0.9,1.9,0.9c0.1,0,0.7,0,1.7-0.1s2.2-0.2,3.6-0.4c1.4-0.2,3-0.4,4.7-0.6
	s3.4-0.4,5-0.6c0.9-0.1,2-0.2,3.2-0.4s2.5-0.3,3.6-0.5c1.2-0.1,2.2-0.3,3.1-0.4c0.9-0.1,1.5-0.2,1.9-0.2c0.4,0,0.9,0.1,1.4,0.3
	c0.5,0.2,1,0.5,1.5,0.8c0.5,0.4,0.9,0.7,1.2,1.1c0.4,0.4,0.5,0.8,0.5,1.2c0,1-0.5,1.6-1.6,1.8c-0.1,0.4-0.2,0.9-0.3,1.8
	c-0.1,0.9-0.2,2-0.3,3.3c-0.8,7.1-1.3,13.9-1.7,20.4c-0.4,6.5-0.6,12.8-0.6,18.9c0,10,1,16.4,3.1,19.4c-1.3,0.9-2.4,1.4-3.1,1.4
	c-3,0-4.8-2.4-5.4-7.3c-0.5-4-0.9-7.2-1-9.7c-0.1-2.4-0.2-4.7-0.2-6.9c0-6.5,0.1-13.1,0.2-19.8c0.1-6.7,0.4-13.4,0.7-20.1
	c0-0.6-0.1-0.9-0.4-1c-0.3-0.1-0.7-0.2-1.2-0.2c-1.9,0.2-4,0.5-6.3,0.8c-2.3,0.4-4.4,0.7-6.4,1.1c-2,0.4-3.7,0.8-5,1.2s-2,0.8-2,1.2
	v4.8c0,10.3-0.4,19-1,26.1c-0.7,7.1-1.8,12.9-3.2,17.3c-1.4,4.5-3.2,7.7-5.5,9.7c-2.2,2-4.9,3-8,3c-1.2,0-2.4-0.1-3.8-0.4
	s-2.7-0.7-4-1.2s-2.5-1.4-3.6-2.4c-1.1-1-2-2.3-2.7-3.9c-0.8-1.9-1.2-3.4-1.2-4.7c0-1.1,0.2-2,0.7-2.5c0.5-0.6,1.1-0.9,1.8-0.9
	c1,0,1.9,0.5,2.9,1.7c1,1.1,1.7,2.8,2.1,5c0.1,0.8,0.5,1.5,1,2c0.5,0.5,1.1,0.9,1.8,1.2c0.7,0.3,1.4,0.5,2.2,0.6
	c0.8,0.1,1.5,0.2,2.2,0.2c7.8,0,11.6-11.5,11.6-34.5v-19.8c-0.9,0.1-1.7,0.4-2.4,0.8c-0.7,0.4-1.3,0.6-1.6,0.6c-0.8,0-1.5-0.4-2-1.3
	C282.8,231.4,282.6,230.6,282.6,229.7z"/>
<path class="st3" d="M364.5,293.6c0,1-0.8,1.5-2.3,1.5c-1.7,0-2.7-0.7-3-2.1c-0.1-0.2-0.1-1.6-0.1-4c0-0.7-0.1-1.2-0.3-1.7
	c-3.9,2.8-8.1,4.3-12.6,4.3c-3.1,0-6.1-0.9-9-2.6c-3.3-1.9-5-4.4-5-7.3c0-2.8,2-5.6,5.9-8.3c3.6-2.5,6.9-3.7,10-3.7h10.3
	c0.4-0.4,0.6-1.1,0.6-2.2c0-4.6-0.4-8.1-1.1-10.5c-1.2-3.9-3.7-5.9-7.4-5.9c-2.6,0-5,1.7-7.3,5c-2,3-3,6-3,8.7c0,0.1,0,0.4,0,0.6
	c0,0.3,0,0.5,0,0.5c0,0.5-0.3,0.8-0.8,0.8c-0.7,0-1.5-0.4-2.3-1.2c-0.8-0.8-1.2-1.6-1.2-2.2c0-1.9,0.6-4.4,1.8-7.3s2.5-5.2,3.8-6.7
	c1.7-1.9,3.9-2.8,6.4-2.8c4,0,7.6,1.2,10.9,3.7c3.5,2.7,5.3,5.9,5.4,9.8L364.5,293.6z M359,277.1c0-2.8-2.1-4.1-6.4-4.1
	c-3.4,0-6.4,0.6-8.9,1.8c-3.2,1.5-4.9,3.8-4.9,6.9c0,1.9,0.9,3.3,2.6,4.4c1.5,0.9,3.2,1.4,5.2,1.4c3,0,5.8-1,8.5-2.9
	C357.7,282.4,359,280,359,277.1z"/>
<path class="st3" d="M406.8,278.9c0,2.4-0.7,4.3-2.1,5.9s-3.1,2.8-5.2,3.8s-4.2,1.6-6.4,2c-2.2,0.4-4.1,0.6-5.8,0.6
	c-2.7,0-5.8-0.3-9.1-0.9c-0.1,0.6-0.4,1.1-0.7,1.5s-1,0.6-1.9,0.6s-1.6-0.2-2-0.7c-0.5-0.5-0.7-1.4-0.7-2.8c0-0.4-0.1-0.7-0.5-0.9
	c-0.3-0.2-0.7-0.4-1-0.5c-0.4-0.2-0.7-0.4-1-0.6s-0.5-0.6-0.5-1.2c0-0.5,0.1-0.9,0.3-1.1c0.2-0.3,0.5-0.5,0.7-0.7s0.5-0.3,0.7-0.5
	c0.2-0.1,0.3-0.4,0.3-0.7c0-0.9,0-2,0.1-3.4c0.1-1.4,0.1-2.6,0.1-3.6c0-0.8-0.3-1.3-0.9-1.5s-0.9-0.6-0.9-1.2s0.3-1,0.8-1.2
	s0.8-0.7,0.8-1.2v-19.8c0-0.7,0.4-1.4,1.3-2.1c0.9-0.7,1.8-1.1,2.6-1.1c1.1,0,1.8,0.1,2.1,0.4s0.5,0.7,0.5,1.4
	c0,0.9-0.1,1.9-0.2,3.1c-0.1,1.1-0.2,2.3-0.2,3.4c0.8-0.9,1.6-1.9,2.2-3.1s1.4-2.2,2.2-3.1s1.9-1.7,3.1-2.3s2.9-0.9,5-0.9
	c1.7,0,3.2,0.3,4.5,0.9s2.6,1.4,4,2.4c2.2,1.7,3.8,3.2,4.7,4.6s1.4,3.2,1.4,5.3c0,1.9-0.7,4-2,6.1s-3.3,3.8-5.8,5.1
	c-0.4,0.2-0.6,0.4-0.6,0.6s0.2,0.4,0.5,0.5c0.4,0.1,0.8,0.2,1.5,0.4c1,0.3,2,0.6,3,1c1,0.4,1.8,0.9,2.6,1.5s1.4,1.3,1.9,2
	S406.8,278,406.8,278.9z M400.2,278.8c0-0.7-0.1-1.3-0.3-1.9c-0.2-0.6-0.7-1.1-1.5-1.5c-0.8-0.4-2-0.7-3.5-0.9
	c-1.5-0.2-3.6-0.3-6.3-0.3c-0.8,0-1.5,0-2.2,0c-0.7,0-1.4,0.1-2.1,0.1c-0.7,0-1.5,0.1-2.4,0.2s-1.9,0.1-3,0.2c-0.7,0-1,0.4-1,1
	c0,1.5,0,3.2,0,4.9c0,1.8,0.1,3.2,0.1,4.4c1.4,0.7,2.8,1.2,4.3,1.6s3.1,0.5,4.7,0.5c2.6,0,4.7-0.3,6.4-0.8s3.1-1.2,4-2
	s1.7-1.7,2.1-2.6C400,280.7,400.2,279.7,400.2,278.8z M399.1,258.9c0-2.6-0.9-4.6-2.5-5.9c-1.7-1.3-3.8-2-6.4-2
	c-1.7,0-3.3,0.5-4.8,1.4s-2.7,2.1-3.7,3.6c-1,1.4-1.9,3.1-2.5,4.8c-0.6,1.8-1,3.5-1.1,5.2c-0.1,0.5-0.1,1.1-0.1,1.8
	c0,0.6,0,1.3,0,1.9c0,0.5,0.3,0.7,0.8,0.7c4.9-0.1,8.6-0.4,11.3-0.9s4.7-1.1,6.1-2c1.4-0.9,2.2-2,2.5-3.5
	C398.9,262.6,399.1,260.9,399.1,258.9z"/>
<path class="st3" d="M446.9,293.1c-1.8,1.4-3.2,2.1-4.1,2.1c-0.8,0-1.7-0.4-2.9-1.3s-2.4-2-3.7-3.3s-2.7-2.8-4-4.4
	c-1.4-1.6-2.6-3-3.8-4.5c-1.1-1.4-2.1-2.6-2.9-3.7c-0.8-1-1.3-1.7-1.5-1.9c-1.9-1.9-3.5-3.3-4.8-4.1c-1,0-1.5,0.6-1.7,1.8
	c-0.2,1.2-0.3,2.4-0.3,3.6c0,1.5,0,2.9,0,4.2s0,2.4,0.1,3.2c0.1,0.6,0.3,1.5,0.7,2.6c0.4,1.1,0.6,2,0.6,2.6c0,0.4-0.2,0.8-0.7,1.2
	c-0.5,0.4-1.1,0.6-1.8,0.6c-1.4,0-2.4-0.5-3.1-1.4c-0.7-0.9-1-2.6-1-5c0-4.2,0-7.9,0-11c0-3.1,0.1-5.8,0.1-8s0.1-4.2,0.1-5.9
	c0-1.6,0-3,0-4.2c0-0.8,0-1.4,0-1.9c0-0.5,0-0.9-0.1-1.4c-0.1-0.4-0.1-0.8-0.2-1.2c-0.1-0.4-0.2-0.9-0.3-1.6
	c-0.2-0.9-0.3-1.7-0.3-2.4s0.5-1.4,1.6-2.1c1.1-0.7,2-1,2.9-1c0.6,0,1.3,0.2,2,0.6c0.7,0.4,1.1,0.9,1.1,1.4c0,0.2-0.2,1.1-0.6,2.5
	c-0.4,1.5-0.6,3.8-0.6,6.9c0,2.1-0.1,3.9-0.2,5.3c-0.1,1.4-0.2,2.2-0.2,2.6s0.2,0.5,0.5,0.5c0.8-0.5,1.8-1.3,3-2.3
	c1.2-1,2.6-2.2,4.1-3.5c1.5-1.4,3-2.8,4.7-4.4c1.6-1.6,3.2-3.2,4.6-4.9c1.9-2.1,3.4-3.7,4.6-4.6s2-1.4,2.3-1.4c1,0,1.8,0.4,2.4,1
	c0.6,0.7,0.9,1.6,0.9,2.7c0,0.6,0,0.9-0.1,1.1c-1.3,0.9-2.9,2.1-4.9,3.7s-4.2,3.4-6.8,5.7c-5.9,5.2-8.8,8.6-8.8,10.3
	c0,0.4,0.4,1.1,1.2,2.1s1.8,2.3,3,3.7c1.2,1.4,2.5,2.9,3.9,4.4s2.7,2.9,3.8,4.3c2.1,2.4,4.1,4.4,6,5.9c1.9,1.5,3.6,2.7,5.1,3.4
	c0.2,0.1,0.3,0.4,0.3,0.6C447.2,292.7,447.1,292.9,446.9,293.1z"/>
<path class="st3" d="M483.2,293.6c0,1-0.8,1.5-2.3,1.5c-1.7,0-2.7-0.7-3-2.1c-0.1-0.2-0.1-1.6-0.1-4c0-0.7-0.1-1.2-0.3-1.7
	c-3.9,2.8-8.1,4.3-12.6,4.3c-3.1,0-6.1-0.9-9-2.6c-3.3-1.9-5-4.4-5-7.3c0-2.8,2-5.6,5.9-8.3c3.6-2.5,6.9-3.7,10-3.7h10.3
	c0.4-0.4,0.6-1.1,0.6-2.2c0-4.6-0.4-8.1-1.1-10.5c-1.2-3.9-3.7-5.9-7.4-5.9c-2.6,0-5,1.7-7.3,5c-2,3-3,6-3,8.7c0,0.1,0,0.4,0,0.6
	c0,0.3,0,0.5,0,0.5c0,0.5-0.3,0.8-0.8,0.8c-0.7,0-1.5-0.4-2.3-1.2c-0.8-0.8-1.2-1.6-1.2-2.2c0-1.9,0.6-4.4,1.8-7.3s2.5-5.2,3.8-6.7
	c1.7-1.9,3.9-2.8,6.4-2.8c4,0,7.6,1.2,10.9,3.7c3.5,2.7,5.3,5.9,5.4,9.8L483.2,293.6z M477.7,277.1c0-2.8-2.1-4.1-6.4-4.1
	c-3.4,0-6.4,0.6-8.9,1.8c-3.2,1.5-4.9,3.8-4.9,6.9c0,1.9,0.9,3.3,2.6,4.4c1.5,0.9,3.2,1.4,5.2,1.4c3,0,5.8-1,8.5-2.9
	C476.3,282.4,477.7,280,477.7,277.1z"/>
<g>
	<path class="st2" d="M166.1,353.1c0,0.6-0.4,1.1-1.1,1.1c-0.6,0-1.1-0.5-1.1-1.1c0-0.6,0.5-1.1,1.1-1.1
		C165.7,352,166.1,352.5,166.1,353.1z M164.1,365.5v-9.7h1.8v9.7H164.1z"/>
	<path class="st2" d="M168.9,358.5c0-1,0-1.8-0.1-2.6h1.6l0.1,1.6h0c0.5-0.9,1.6-1.8,3.2-1.8c1.4,0,3.4,0.8,3.4,4.1v5.8h-1.8v-5.6
		c0-1.6-0.6-2.9-2.2-2.9c-1.2,0-2.1,0.8-2.4,1.8c-0.1,0.2-0.1,0.5-0.1,0.8v5.8h-1.8L168.9,358.5L168.9,358.5z"/>
	<path class="st2" d="M179.8,363.7c0.5,0.3,1.4,0.7,2.3,0.7c1.3,0,1.9-0.6,1.9-1.5c0-0.8-0.5-1.3-1.8-1.8c-1.8-0.6-2.6-1.6-2.6-2.8
		c0-1.6,1.3-2.9,3.4-2.9c1,0,1.9,0.3,2.4,0.6l-0.4,1.3c-0.4-0.2-1.1-0.6-2-0.6c-1,0-1.6,0.6-1.6,1.3c0,0.8,0.6,1.2,1.9,1.6
		c1.7,0.6,2.6,1.5,2.6,2.9c0,1.7-1.3,2.9-3.6,2.9c-1.1,0-2.1-0.3-2.7-0.7L179.8,363.7z"/>
	<path class="st2" d="M190.1,353v2.8h2.5v1.4h-2.5v5.2c0,1.2,0.3,1.9,1.3,1.9c0.5,0,0.8-0.1,1-0.1l0.1,1.3c-0.3,0.1-0.9,0.2-1.6,0.2
		c-0.8,0-1.5-0.3-1.9-0.7c-0.5-0.5-0.7-1.4-0.7-2.5v-5.3h-1.5v-1.4h1.5v-2.3L190.1,353z"/>
	<path class="st2" d="M200,365.5l-0.1-1.2h-0.1c-0.5,0.8-1.6,1.5-3,1.5c-2,0-3-1.4-3-2.8c0-2.4,2.1-3.6,5.8-3.6v-0.2
		c0-0.8-0.2-2.2-2.2-2.2c-0.9,0-1.9,0.3-2.5,0.7l-0.4-1.2c0.8-0.5,2-0.9,3.2-0.9c3,0,3.7,2,3.7,4v3.6c0,0.8,0,1.7,0.2,2.3H200z
		 M199.7,360.6c-1.9,0-4.1,0.3-4.1,2.2c0,1.1,0.8,1.7,1.7,1.7c1.3,0,2.1-0.8,2.4-1.6c0.1-0.2,0.1-0.4,0.1-0.6L199.7,360.6
		L199.7,360.6z"/>
	<path class="st2" d="M212.6,355.8c0,0.7-0.1,1.5-0.1,2.7v5.6c0,2.2-0.4,3.6-1.4,4.4c-0.9,0.9-2.3,1.2-3.5,1.2
		c-1.2,0-2.4-0.3-3.2-0.8l0.4-1.4c0.6,0.4,1.6,0.8,2.9,0.8c1.8,0,3.1-0.9,3.1-3.4v-1.1h0c-0.5,0.9-1.6,1.6-3.1,1.6
		c-2.4,0-4.1-2-4.1-4.7c0-3.3,2.1-5.2,4.4-5.2c1.7,0,2.6,0.9,3,1.7h0l0.1-1.5L212.6,355.8L212.6,355.8z M210.8,359.7
		c0-0.3,0-0.6-0.1-0.8c-0.3-1-1.2-1.9-2.5-1.9c-1.7,0-2.9,1.4-2.9,3.7c0,1.9,1,3.5,2.9,3.5c1.1,0,2.1-0.7,2.4-1.8
		c0.1-0.3,0.1-0.6,0.1-0.9L210.8,359.7L210.8,359.7z"/>
	<path class="st2" d="M215.4,358.9c0-1.1,0-2.1-0.1-3h1.6l0.1,1.9h0.1c0.4-1.3,1.5-2.1,2.7-2.1c0.2,0,0.3,0,0.5,0.1v1.7
		c-0.2,0-0.4-0.1-0.6-0.1c-1.2,0-2.1,0.9-2.4,2.3c0,0.2-0.1,0.5-0.1,0.8v5.2h-1.8V358.9z"/>
	<path class="st2" d="M227.2,365.5l-0.1-1.2H227c-0.5,0.8-1.6,1.5-3,1.5c-2,0-3-1.4-3-2.8c0-2.4,2.1-3.6,5.8-3.6v-0.2
		c0-0.8-0.2-2.2-2.2-2.2c-0.9,0-1.9,0.3-2.5,0.7l-0.4-1.2c0.8-0.5,2-0.9,3.2-0.9c3,0,3.7,2,3.7,4v3.6c0,0.8,0,1.7,0.2,2.3H227.2z
		 M227,360.6c-1.9,0-4.1,0.3-4.1,2.2c0,1.1,0.8,1.7,1.7,1.7c1.3,0,2.1-0.8,2.4-1.6c0.1-0.2,0.1-0.4,0.1-0.6L227,360.6L227,360.6z"/>
	<path class="st2" d="M231.5,358.5c0-1,0-1.8-0.1-2.6h1.6l0.1,1.6h0.1c0.5-0.9,1.4-1.8,3.1-1.8c1.3,0,2.3,0.8,2.8,2h0
		c0.3-0.5,0.7-1,1.1-1.3c0.6-0.4,1.2-0.7,2.1-0.7c1.3,0,3.2,0.8,3.2,4.2v5.7h-1.7v-5.5c0-1.9-0.7-3-2.1-3c-1,0-1.8,0.7-2.1,1.6
		c-0.1,0.2-0.1,0.6-0.1,0.9v6h-1.7v-5.8c0-1.5-0.7-2.7-2-2.7c-1.1,0-1.9,0.9-2.2,1.8c-0.1,0.3-0.1,0.6-0.1,0.9v5.9h-1.7L231.5,358.5
		L231.5,358.5z"/>
	<path class="st2" d="M247.9,364.5c0-0.7,0.5-1.3,1.2-1.3s1.2,0.5,1.2,1.3c0,0.7-0.5,1.3-1.2,1.3
		C248.4,365.8,247.9,365.2,247.9,364.5z"/>
	<path class="st2" d="M259.4,365.2c-0.5,0.2-1.5,0.6-2.8,0.6c-2.9,0-4.8-2-4.8-5c0-3,2.1-5.2,5.2-5.2c1,0,2,0.3,2.5,0.5l-0.4,1.4
		c-0.4-0.2-1.1-0.5-2-0.5c-2.2,0-3.4,1.6-3.4,3.7c0,2.2,1.4,3.6,3.4,3.6c1,0,1.7-0.3,2.2-0.5L259.4,365.2z"/>
	<path class="st2" d="M270.1,360.6c0,3.6-2.5,5.2-4.8,5.2c-2.6,0-4.7-1.9-4.7-5c0-3.2,2.1-5.2,4.8-5.2
		C268.2,355.6,270.1,357.6,270.1,360.6z M262.4,360.7c0,2.1,1.2,3.7,3,3.7c1.7,0,3-1.6,3-3.8c0-1.6-0.8-3.7-2.9-3.7
		C263.3,356.9,262.4,358.9,262.4,360.7z"/>
	<path class="st2" d="M272.4,358.5c0-1,0-1.8-0.1-2.6h1.5l0.1,1.6h0.1c0.5-0.9,1.5-1.8,3-1.8c1.3,0,2.3,0.8,2.8,2h0
		c0.3-0.5,0.7-1,1.1-1.3c0.6-0.4,1.2-0.7,2.1-0.7c1.3,0,3.2,0.8,3.2,4.2v5.7h-1.7v-5.5c0-1.9-0.7-3-2.1-3c-1,0-1.8,0.7-2.1,1.6
		c-0.1,0.2-0.1,0.6-0.1,0.9v6h-1.7v-5.8c0-1.5-0.7-2.7-2-2.7c-1.1,0-1.9,0.9-2.2,1.8c-0.1,0.3-0.1,0.6-0.1,0.9v5.9h-1.7L272.4,358.5
		L272.4,358.5z"/>
	<path class="st2" d="M287.6,366.4l5.6-14.6h1.4l-5.6,14.6H287.6z"/>
	<path class="st2" d="M295.9,365.5c0-0.7,0.1-1.6,0.1-2.5v-11.8h1.8v6.1h0c0.6-1.1,1.8-1.8,3.3-1.8c2.4,0,4.1,2,4.1,5
		c0,3.5-2.2,5.2-4.4,5.2c-1.4,0-2.5-0.5-3.2-1.8h-0.1l-0.1,1.6L295.9,365.5L295.9,365.5z M297.7,361.6c0,0.2,0,0.4,0.1,0.6
		c0.3,1.2,1.4,2.1,2.6,2.1c1.9,0,3-1.5,3-3.7c0-2-1-3.6-2.9-3.6c-1.2,0-2.3,0.8-2.7,2.2c0,0.2-0.1,0.4-0.1,0.7L297.7,361.6
		L297.7,361.6z"/>
	<path class="st2" d="M315.5,362.9c0,1,0,1.9,0.1,2.6h-1.6L314,364h0c-0.5,0.8-1.5,1.8-3.2,1.8c-1.5,0-3.4-0.8-3.4-4.3v-5.7h1.8v5.4
		c0,1.9,0.6,3.1,2.2,3.1c1.2,0,2-0.8,2.3-1.6c0.1-0.3,0.2-0.6,0.2-0.9v-6h1.8L315.5,362.9L315.5,362.9z"/>
	<path class="st2" d="M318.5,351.3h1.8v14.3h-1.8V351.3z"/>
	<path class="st2" d="M323.2,351.3h1.8v14.3h-1.8V351.3z"/>
	<path class="st2" d="M333.3,365.5l-0.1-1.2h-0.1c-0.5,0.8-1.6,1.5-3,1.5c-2,0-3-1.4-3-2.8c0-2.4,2.1-3.6,5.8-3.6v-0.2
		c0-0.8-0.2-2.2-2.2-2.2c-0.9,0-1.9,0.3-2.5,0.7l-0.4-1.2c0.8-0.5,2-0.9,3.2-0.9c3,0,3.7,2,3.7,4v3.6c0,0.8,0,1.7,0.2,2.3H333.3z
		 M333.1,360.6c-1.9,0-4.1,0.3-4.1,2.2c0,1.1,0.8,1.7,1.7,1.7c1.3,0,2.1-0.8,2.4-1.6c0.1-0.2,0.1-0.4,0.1-0.6L333.1,360.6
		L333.1,360.6z"/>
	<path class="st2" d="M338.2,355.8l1.9,5.5c0.3,0.9,0.6,1.7,0.8,2.5h0.1c0.2-0.8,0.5-1.6,0.8-2.5l1.9-5.5h1.9l-3.8,9.7H340l-3.7-9.7
		H338.2z"/>
	<path class="st2" d="M348.9,360.3L348.9,360.3c0.3-0.3,0.6-0.8,0.9-1.1l2.9-3.4h2.1l-3.8,4l4.3,5.7h-2.1l-3.4-4.7l-0.9,1v3.6h-1.8
		v-14.3h1.8L348.9,360.3L348.9,360.3z"/>
	<path class="st2" d="M362.3,365.5l-0.1-1.2h-0.1c-0.5,0.8-1.6,1.5-3,1.5c-2,0-3-1.4-3-2.8c0-2.4,2.1-3.6,5.8-3.6v-0.2
		c0-0.8-0.2-2.2-2.2-2.2c-0.9,0-1.9,0.3-2.5,0.7l-0.4-1.2c0.8-0.5,2-0.9,3.2-0.9c3,0,3.7,2,3.7,4v3.6c0,0.8,0,1.7,0.2,2.3H362.3z
		 M362,360.6c-1.9,0-4.1,0.3-4.1,2.2c0,1.1,0.8,1.7,1.7,1.7c1.3,0,2.1-0.8,2.4-1.6c0.1-0.2,0.1-0.4,0.1-0.6L362,360.6L362,360.6z"/>
	<path class="st2" d="M375.2,367v1h-10v-1H375.2z"/>
	<path class="st2" d="M376.6,358.5c0-1,0-1.8-0.1-2.6h1.5l0.1,1.6h0.1c0.5-0.9,1.5-1.8,3-1.8c1.3,0,2.3,0.8,2.8,2h0
		c0.3-0.5,0.7-1,1.1-1.3c0.6-0.4,1.2-0.7,2.1-0.7c1.3,0,3.2,0.8,3.2,4.2v5.7h-1.7v-5.5c0-1.9-0.7-3-2.1-3c-1,0-1.8,0.7-2.1,1.6
		c-0.1,0.2-0.1,0.6-0.1,0.9v6h-1.7v-5.8c0-1.5-0.7-2.7-2-2.7c-1.1,0-1.9,0.9-2.2,1.8c-0.1,0.3-0.1,0.6-0.1,0.9v5.9h-1.7L376.6,358.5
		L376.6,358.5z"/>
	<path class="st2" d="M402.2,360.6c0,3.6-2.5,5.2-4.8,5.2c-2.6,0-4.7-1.9-4.7-5c0-3.2,2.1-5.2,4.8-5.2
		C400.3,355.6,402.2,357.6,402.2,360.6z M394.5,360.7c0,2.1,1.2,3.7,3,3.7c1.7,0,3-1.6,3-3.8c0-1.6-0.8-3.7-2.9-3.7
		C395.4,356.9,394.5,358.9,394.5,360.7z"/>
	<path class="st2" d="M404.2,363.7c0.5,0.3,1.5,0.7,2.3,0.7c1.3,0,1.9-0.6,1.9-1.5c0-0.8-0.5-1.3-1.8-1.8c-1.8-0.6-2.6-1.6-2.6-2.8
		c0-1.6,1.3-2.9,3.4-2.9c1,0,1.9,0.3,2.4,0.6l-0.4,1.3c-0.4-0.2-1.1-0.6-2-0.6c-1,0-1.6,0.6-1.6,1.3c0,0.8,0.6,1.2,1.9,1.6
		c1.7,0.6,2.5,1.5,2.5,2.9c0,1.7-1.3,2.9-3.6,2.9c-1.1,0-2-0.3-2.7-0.7L404.2,363.7z"/>
	<path class="st2" d="M419.3,365.2c-0.5,0.2-1.5,0.6-2.8,0.6c-2.9,0-4.8-2-4.8-5c0-3,2-5.2,5.2-5.2c1,0,2,0.3,2.5,0.5l-0.4,1.4
		c-0.4-0.2-1.1-0.5-2-0.5c-2.2,0-3.4,1.6-3.4,3.7c0,2.2,1.5,3.6,3.4,3.6c1,0,1.7-0.3,2.2-0.5L419.3,365.2z"/>
	<path class="st2" d="M430,360.6c0,3.6-2.5,5.2-4.8,5.2c-2.6,0-4.7-1.9-4.7-5c0-3.2,2.1-5.2,4.8-5.2
		C428.2,355.6,430,357.6,430,360.6z M422.3,360.7c0,2.1,1.2,3.7,3,3.7c1.7,0,3-1.6,3-3.8c0-1.6-0.8-3.7-2.9-3.7
		C423.2,356.9,422.3,358.9,422.3,360.7z"/>
	<path class="st2" d="M432.9,355.8l1.3,4.9c0.3,1.1,0.5,2.1,0.7,3.1h0.1c0.2-1,0.5-2,0.9-3.1l1.6-5h1.5l1.5,4.9
		c0.4,1.2,0.6,2.2,0.9,3.2h0.1c0.2-1,0.4-2,0.7-3.1l1.4-4.9h1.8l-3.1,9.7h-1.6l-1.5-4.6c-0.3-1.1-0.6-2-0.9-3.2h0
		c-0.2,1.2-0.5,2.2-0.9,3.2l-1.6,4.6H434l-2.9-9.7L432.9,355.8L432.9,355.8z"/>
	<path class="st2" d="M197.2,379.9l1.9,5.5c0.3,0.9,0.6,1.7,0.8,2.5h0.1c0.2-0.8,0.5-1.6,0.8-2.5l1.9-5.5h1.9l-3.8,9.7H199l-3.7-9.7
		H197.2z"/>
	<path class="st2" d="M207.9,384.4L207.9,384.4c0.3-0.3,0.6-0.8,0.9-1.1l2.9-3.4h2.1l-3.8,4l4.3,5.7h-2.1l-3.4-4.7l-0.9,1v3.6h-1.8
		v-14.3h1.8L207.9,384.4L207.9,384.4z"/>
	<path class="st2" d="M215.5,388.6c0-0.7,0.5-1.3,1.2-1.3s1.2,0.5,1.2,1.3c0,0.7-0.5,1.3-1.2,1.3C216,389.9,215.5,389.3,215.5,388.6
		z"/>
	<path class="st2" d="M227,389.3c-0.5,0.2-1.5,0.6-2.8,0.6c-2.9,0-4.8-2-4.8-5c0-3,2.1-5.2,5.2-5.2c1,0,2,0.3,2.4,0.5l-0.4,1.4
		c-0.4-0.2-1.1-0.5-2.1-0.5c-2.2,0-3.4,1.6-3.4,3.7c0,2.2,1.4,3.6,3.4,3.6c1,0,1.7-0.3,2.2-0.5L227,389.3z"/>
	<path class="st2" d="M237.7,384.7c0,3.6-2.5,5.2-4.8,5.2c-2.6,0-4.7-1.9-4.7-5c0-3.2,2.1-5.2,4.8-5.2
		C235.8,379.7,237.7,381.7,237.7,384.7z M230,384.8c0,2.1,1.2,3.7,2.9,3.7c1.7,0,2.9-1.6,2.9-3.8c0-1.6-0.8-3.7-2.9-3.7
		C230.9,381,230,383,230,384.8z"/>
	<path class="st2" d="M240,382.6c0-1,0-1.8-0.1-2.6h1.6l0.1,1.6h0.1c0.5-0.9,1.4-1.8,3.1-1.8c1.3,0,2.3,0.8,2.8,2h0
		c0.3-0.5,0.7-1,1.1-1.3c0.6-0.4,1.2-0.7,2.1-0.7c1.3,0,3.2,0.8,3.2,4.2v5.7h-1.7v-5.5c0-1.9-0.7-3-2.1-3c-1,0-1.8,0.7-2.1,1.6
		c-0.1,0.2-0.1,0.6-0.1,0.9v6H246v-5.8c0-1.5-0.7-2.7-2-2.7c-1.1,0-1.9,0.9-2.2,1.8c-0.1,0.3-0.1,0.6-0.1,0.9v5.9h-1.7L240,382.6
		L240,382.6z"/>
	<path class="st2" d="M255.2,390.5l5.6-14.6h1.4l-5.6,14.6H255.2z"/>
	<path class="st2" d="M263.5,389.6c0-0.7,0.1-1.6,0.1-2.5v-11.8h1.8v6.1h0c0.6-1.1,1.8-1.8,3.3-1.8c2.4,0,4.1,2,4.1,5
		c0,3.5-2.2,5.2-4.4,5.2c-1.4,0-2.5-0.5-3.2-1.8h-0.1l-0.1,1.6L263.5,389.6L263.5,389.6z M265.4,385.8c0,0.2,0,0.4,0.1,0.6
		c0.3,1.2,1.4,2.1,2.6,2.1c1.9,0,3-1.5,3-3.7c0-2-1-3.6-2.9-3.6c-1.2,0-2.3,0.8-2.7,2.2c0,0.2-0.1,0.4-0.1,0.7L265.4,385.8
		L265.4,385.8z"/>
	<path class="st2" d="M283.2,387c0,1,0,1.9,0.1,2.6h-1.6l-0.1-1.6h0c-0.5,0.8-1.5,1.8-3.2,1.8c-1.5,0-3.4-0.8-3.4-4.3v-5.7h1.8v5.4
		c0,1.9,0.6,3.1,2.2,3.1c1.2,0,2-0.8,2.3-1.6c0.1-0.3,0.2-0.6,0.2-0.9v-6h1.8L283.2,387L283.2,387z"/>
	<path class="st2" d="M286.1,375.4h1.8v14.3h-1.8V375.4z"/>
	<path class="st2" d="M290.8,375.4h1.8v14.3h-1.8V375.4z"/>
	<path class="st2" d="M301,389.6l-0.1-1.2h-0.1c-0.5,0.8-1.6,1.5-3,1.5c-2,0-3-1.4-3-2.8c0-2.4,2.1-3.6,5.8-3.6v-0.2
		c0-0.8-0.2-2.2-2.2-2.2c-0.9,0-1.9,0.3-2.5,0.7l-0.4-1.2c0.8-0.5,2-0.9,3.2-0.9c3,0,3.7,2,3.7,4v3.6c0,0.8,0,1.7,0.2,2.3H301z
		 M300.7,384.7c-1.9,0-4.1,0.3-4.1,2.2c0,1.1,0.8,1.7,1.7,1.7c1.3,0,2.1-0.8,2.4-1.6c0.1-0.2,0.1-0.4,0.1-0.6L300.7,384.7
		L300.7,384.7z"/>
	<path class="st2" d="M305.8,379.9l1.9,5.5c0.3,0.9,0.6,1.7,0.8,2.5h0.1c0.2-0.8,0.5-1.6,0.8-2.5l1.9-5.5h1.9l-3.8,9.7h-1.7
		l-3.7-9.7H305.8z"/>
	<path class="st2" d="M316.5,384.4L316.5,384.4c0.3-0.3,0.6-0.8,0.9-1.1l2.9-3.4h2.1l-3.8,4l4.3,5.7h-2.1l-3.4-4.7l-0.9,1v3.6h-1.8
		v-14.3h1.8L316.5,384.4L316.5,384.4z"/>
	<path class="st2" d="M329.9,389.6l-0.1-1.2h-0.1c-0.5,0.8-1.6,1.5-3,1.5c-2,0-3-1.4-3-2.8c0-2.4,2.1-3.6,5.8-3.6v-0.2
		c0-0.8-0.2-2.2-2.2-2.2c-0.9,0-1.9,0.3-2.5,0.7l-0.4-1.2c0.8-0.5,2-0.9,3.2-0.9c3,0,3.7,2,3.7,4v3.6c0,0.8,0,1.7,0.2,2.3H329.9z
		 M329.7,384.7c-1.9,0-4.1,0.3-4.1,2.2c0,1.1,0.8,1.7,1.7,1.7c1.3,0,2.1-0.8,2.4-1.6c0.1-0.2,0.1-0.4,0.1-0.6L329.7,384.7
		L329.7,384.7z"/>
	<path class="st2" d="M342.8,391.2v1h-10v-1H342.8z"/>
	<path class="st2" d="M344.3,382.6c0-1,0-1.8-0.1-2.6h1.5l0.1,1.6h0.1c0.5-0.9,1.5-1.8,3-1.8c1.3,0,2.3,0.8,2.8,2h0
		c0.3-0.5,0.7-1,1.1-1.3c0.6-0.4,1.2-0.7,2.1-0.7c1.3,0,3.2,0.8,3.2,4.2v5.7h-1.7v-5.5c0-1.9-0.7-3-2.1-3c-1,0-1.8,0.7-2.1,1.6
		c-0.1,0.2-0.1,0.6-0.1,0.9v6h-1.7v-5.8c0-1.5-0.7-2.7-2-2.7c-1.1,0-1.9,0.9-2.2,1.8c-0.1,0.3-0.1,0.6-0.1,0.9v5.9h-1.7L344.3,382.6
		L344.3,382.6z"/>
	<path class="st2" d="M369.8,384.7c0,3.6-2.5,5.2-4.8,5.2c-2.6,0-4.7-1.9-4.7-5c0-3.2,2.1-5.2,4.8-5.2
		C367.9,379.7,369.8,381.7,369.8,384.7z M362.1,384.8c0,2.1,1.2,3.7,3,3.7c1.7,0,3-1.6,3-3.8c0-1.6-0.8-3.7-2.9-3.7
		C363,381,362.1,383,362.1,384.8z"/>
	<path class="st2" d="M371.8,387.8c0.5,0.3,1.5,0.7,2.3,0.7c1.3,0,1.9-0.6,1.9-1.5c0-0.8-0.5-1.3-1.8-1.8c-1.8-0.6-2.6-1.6-2.6-2.8
		c0-1.6,1.3-2.9,3.4-2.9c1,0,1.9,0.3,2.4,0.6l-0.4,1.3c-0.4-0.2-1.1-0.6-2-0.6c-1,0-1.6,0.6-1.6,1.3c0,0.8,0.6,1.2,1.9,1.6
		c1.7,0.6,2.5,1.5,2.5,2.9c0,1.7-1.3,2.9-3.6,2.9c-1.1,0-2-0.3-2.7-0.7L371.8,387.8z"/>
	<path class="st2" d="M386.9,389.3c-0.5,0.2-1.5,0.6-2.8,0.6c-2.9,0-4.8-2-4.8-5c0-3,2-5.2,5.2-5.2c1,0,2,0.3,2.5,0.5l-0.4,1.4
		c-0.4-0.2-1.1-0.5-2-0.5c-2.2,0-3.4,1.6-3.4,3.7c0,2.2,1.5,3.6,3.4,3.6c1,0,1.7-0.3,2.2-0.5L386.9,389.3z"/>
	<path class="st2" d="M397.7,384.7c0,3.6-2.5,5.2-4.8,5.2c-2.6,0-4.7-1.9-4.7-5c0-3.2,2.1-5.2,4.8-5.2
		C395.8,379.7,397.7,381.7,397.7,384.7z M390,384.8c0,2.1,1.2,3.7,3,3.7c1.7,0,3-1.6,3-3.8c0-1.6-0.8-3.7-2.9-3.7
		C390.9,381,390,383,390,384.8z"/>
	<path class="st2" d="M400.5,379.9l1.3,4.9c0.3,1.1,0.5,2.1,0.7,3.1h0.1c0.2-1,0.5-2,0.9-3.1l1.6-5h1.5l1.5,4.9
		c0.4,1.2,0.6,2.2,0.9,3.2h0.1c0.2-1,0.4-2,0.7-3.1l1.4-4.9h1.8l-3.1,9.7H408l-1.5-4.6c-0.3-1.1-0.6-2-0.9-3.2h0
		c-0.2,1.2-0.5,2.2-0.9,3.2l-1.6,4.6h-1.6l-2.9-9.7L400.5,379.9L400.5,379.9z"/>
</g>
<circle class="st4" cx="304.1" cy="261.9" r="222.6"/>
<g>
	<g>
		<g>
			<g>
				<g>
					<path class="st2" d="M451.2,109.7c1.4,1.4,1.7,0,2.1,0.1C450.7,107.7,451,110,451.2,109.7z"/>
					<polygon class="st2" points="424.3,91.3 425.1,91.2 420.5,89.6 					"/>
					<path class="st2" d="M398.5,75.9c0.8,1.6,3.2,2.8,6,4c1.4,0.6,2.9,1.2,4.3,1.9c1.4,0.7,2.7,1.5,3.7,2.3l0.5,0.9l3-0.2
						c-1.4-0.8-3-1.6-4.6-2.4c-1.6-0.8-3.2-1.6-4.8-2.3C403.3,78.7,400.4,77.2,398.5,75.9z"/>
					<path class="st2" d="M385.6,65c0.6,1.2-3.5-0.7,3.4,1.7c-0.3-0.2-0.4-0.3-0.6-0.5C387.9,66,387,65.7,385.6,65z"/>
					<path class="st2" d="M388.5,66.3C391.5,67.5,386.8,64.8,388.5,66.3L388.5,66.3z"/>
					<path class="st2" d="M374.4,61.3l4.3,0.7c-0.7-0.8-4.2-2.2-2.8-2C371.6,59,372.3,59.7,374.4,61.3z"/>
					<path class="st2" d="M370.1,61.5c0.7,0.1,1.5,0.2,2.2,0.4C372,61.6,371.4,61.3,370.1,61.5z"/>
					<path class="st2" d="M376.9,62.9l-4.6-0.9c0.5,0.5,0.3,1.2,2.1,0.5C373.8,62.9,374.8,62.6,376.9,62.9z"/>
					<path class="st2" d="M379.2,64.1c1,0.6,2.2,1.3,2.6,1.7s0.1,0.5-2.1,0.1c3.8,1.3,5.5,1.6,5.4,1.1c-0.1-0.2-0.6-0.6-1.6-1.2
						C382.6,65.3,381.2,64.6,379.2,64.1z"/>
					<path class="st2" d="M396.1,77.2c0.8,0.6,1.7,1.2,2.5,1.9l2.7,0.6c-0.7-0.2-1.9-1-3-1.7C397.2,77.4,396.2,76.9,396.1,77.2z"/>
					<path class="st2" d="M349,53.2c-0.4,0.4,1.1,1.5,1.3,2.1c1.1,0,2.1,0.1,3.2,0.2C352.1,54.7,349.1,53.9,349,53.2z"/>
					<path class="st2" d="M350.4,55.3l-4.8-0.2C349.7,56,350.5,55.8,350.4,55.3z"/>
					<path class="st2" d="M368.6,63.6l1.9,0.2l1.9,0.2l3.9,0.5c-3-0.5-6.1-1-9.1-1.3L368.6,63.6z"/>
					<path class="st2" d="M331.2,50.1c0.9-0.2,1.9-0.4,2.8-0.7l-2.5,0.4l-2.5,0.5L331.2,50.1z"/>
					<path class="st2" d="M319.3,49.1c2-0.8-2.6-1.6-0.5-2c-3.3,0-6.1,0.5-8.6,1.1C312.8,47.9,315.7,48.2,319.3,49.1z"/>
					<path class="st2" d="M306,49.2c1.3-0.2,2.7-0.6,4.2-1C308.8,48.4,307.4,48.7,306,49.2z"/>
					<path class="st2" d="M337.8,53.5c-0.3-0.3-0.9-1.1-3.5-1.8l1.6,1.5C336.6,53.3,337.2,53.4,337.8,53.5z"/>
					<path class="st2" d="M336.1,53.2L336.1,53.2c-2-0.4-3.4-0.6-4-0.7C332.6,52.6,333.8,52.8,336.1,53.2z"/>
					<path class="st2" d="M338.3,53.6c-0.2,0-0.3,0-0.5-0.1C338,53.6,338.1,53.7,338.3,53.6z"/>
					<path class="st2" d="M357.3,59.1c-2.8,0-8.5-0.6-3.4,1.8C355.9,60.5,353,59.1,357.3,59.1z"/>
					<path class="st2" d="M340.3,55.5c1.6,0.3,3.2,0.8,4.8,1.2c0-0.3-0.8-1,0.6-1.1C343.9,55.6,342.1,55.5,340.3,55.5z"/>
					<polygon class="st2" points="337.8,55.5 340.3,55.5 338.5,55.1 					"/>
					<path class="st2" d="M314.5,50.6c-1.1,0.2-2.2,0.3-3.4,0.3c-1.2,0.1-2.4,0.1-3.8,0.1c1.4,0.2,2.9,0.2,4.3,0.4
						c1.4,0.1,2.9,0.2,4.2,0.3C316.2,51.4,317.5,50.7,314.5,50.6z"/>
					<path class="st2" d="M325,51.7c-0.1,0-0.3,0-0.5,0C324.8,51.9,325,51.9,325,51.7z"/>
					<path class="st2" d="M281.3,52.2c0.1,0.1,0.3,0.1,0.4,0.2c0-0.1,0-0.2,0.1-0.2L281.3,52.2z"/>
					<path class="st2" d="M316.3,52c2.1,0.4,3.4,0.1,4.6-0.2c-1.6,0-3.3,0-5.1-0.1C315.6,51.9,315.6,52,316.3,52z"/>
					<path class="st2" d="M298.6,49.8c0.6,0.1,1.2,0.2,1.8,0.3c0.6,0.1,1.3,0.2,1.9,0.3c-0.5-0.2-1.4-0.5-2.1-0.6
						C299.5,49.7,298.8,49.6,298.6,49.8z"/>
					<path class="st2" d="M323.8,51.3c0.1,0,0.2,0,0.3,0C323.5,51,323.5,51.1,323.8,51.3z"/>
					<path class="st2" d="M323.8,51.3c-1.1,0.1-2,0.3-2.9,0.5c1.3,0,2.5,0,3.6-0.1C324.3,51.6,324,51.5,323.8,51.3z"/>
					<path class="st2" d="M274.6,61.4c0.1-0.6,1.4-1.4,3.4-1.9c1-0.3,2.1-0.5,3.3-0.6c1.2,0,2.4,0,3.6,0.2c4.5-1.3,1.2-4.9-3.1-6.7
						c-0.1,0.6-0.1,0.9-4.8,2.3c0.9,0.2,3.6,0.2,5.6,0.5c2,0.3,3.3,0.6,1.3,1.3c-3.1,0.5-4.4,0.7-5.4,0.5s-1.5-0.5-3-0.6
						c1.4,0.6-0.5,1.4-2.6,2.3c-2.1,0.9-4.2,2.1-3.4,3c1.8-0.6,3.5-1.1,5.3-1.6C274.9,60.5,273,61.3,274.6,61.4z"/>
					<path class="st2" d="M291,51.8l2-0.2c-1.1,0-2.1-0.2-3.2-0.4c-1.1-0.2-2.3-0.4-3.9-0.7c-3.3,0.9-4,1.4-4.1,1.8
						c3.3-0.2,6.6-0.5,9.9-0.6L291,51.8z"/>
					<path class="st2" d="M302.1,51.2c-0.4,0.3-1,0.6-1.6,0.8c-0.6,0.3-1.3,0.5-1.8,0.8c-1,0.5-1.5,1,0,1.7c1.5-0.1,2.4-0.2,3.1-0.3
						c0.7-0.1,1.1-0.3,1.5-0.4c0.7-0.3,1.2-0.7,2.9-1c-9.5,0.2,2.7-0.7-4.1-1.5c1.9-0.2,3.6-0.3,5.2-0.3c-1.7-0.2-3.4-0.4-5-0.6
						c0.1,0,0.1,0.1,0.2,0.1h0c0,0,0,0,0,0c0.4,0.2,0.5,0.3,0.1,0.2c0,0-0.1,0-0.2,0C302.4,50.9,302.3,51.1,302.1,51.2
						c-2.8-0.3-0.4-0.3,0.4-0.5c0-0.1,0.1-0.1,0.1-0.2c0,0,0,0,0,0c-1.6,0.1-3.2,0.3-4.8,0.5l-4.8,0.5c1,0,2.2,0,3.6,0
						c0.7,0,1.5-0.1,2.4-0.1C299.9,51.3,300.9,51.2,302.1,51.2z"/>
					<path class="st2" d="M348.4,62.5c-0.3-0.2-0.2-0.3-0.2-0.3C347.5,62.2,347.3,62.2,348.4,62.5z"/>
					<path class="st2" d="M344.8,60.9c0.7,0,1.4-0.4,3.5,0.1c1.8,0.8-0.1,0.6-0.1,1c1.4-0.1,4.8,0.1,0.8-1.4l-0.7,0
						c-3.6-1.2-8.1-3.7-7.4-3.8C341.7,58.3,342.5,59.3,344.8,60.9z"/>
					<path class="st2" d="M323.5,55.3c-2.6-0.1-5.2,0-7.9,0.1l3.9,1.3l-0.1-0.7c2.2,0.2,3.1,0.3,3.5,0
						C323.3,55.9,323.2,55.5,323.5,55.3z"/>
					<path class="st2" d="M280.3,51.7l0.9-1.5c-1.5,0.7-2.9,1.7-4.4,2.5L280.3,51.7z"/>
					<path class="st2" d="M270,53.2l0.2-1.2c-0.9,0.4-1.7,0.8-2.6,1.2L270,53.2z"/>
					<path class="st2" d="M257.9,457.2l2.2,0.2C259.1,457.2,258.4,457.2,257.9,457.2z"/>
					<path class="st2" d="M242.7,452.8l-0.6,0.4C242.9,453.2,243.3,453,242.7,452.8z"/>
					<path class="st2" d="M95.7,218.4c-1.8,3.1-4.2,6.6-2.8,6.4l1.5-0.8C94.6,221.6,95.1,219.9,95.7,218.4z"/>
					<path class="st2" d="M134.8,380.6c-0.1-0.3-0.2-0.7-0.2-1c-0.8-0.4-1.6-0.8-2.2-1.2C133.1,379.1,133.9,379.9,134.8,380.6z"/>
					<path class="st2" d="M140.6,379.4l1.8,3.9C142.1,382.4,141.5,381.1,140.6,379.4z"/>
					<path class="st2" d="M343.4,457.2c0.7-0.6,1.5-1.2,2.2-1.8C341.8,456.3,343.6,456.5,343.4,457.2z"/>
					<path class="st2" d="M173.7,95.5c-2.6,1.4-4.6,2.8-6.2,4C170.7,97.8,173.6,96.9,173.7,95.5z"/>
					<path class="st2" d="M248.2,469c1.4,0.1,2.1,0,2.1-0.3C248.9,468.6,248,468.6,248.2,469z"/>
					<path class="st2" d="M161,105.1c0.5-0.2,0.9-0.5,1.4-0.8c0.7-0.8,1.5-1.6,2.3-2.4c0.8-0.8,1.7-1.6,2.8-2.4
						c-1.2,0.6-2.4,1.4-3.5,2.3C162.8,102.7,161.8,103.8,161,105.1z"/>
					<path class="st2" d="M498.2,222.9c0-0.2,0-0.5,0-0.7C498,222.1,498.1,222.4,498.2,222.9z"/>
					<path class="st2" d="M470.1,132.9c0.7,0.7,1.6,1.9,2.6,3.1C472.4,135.3,471.6,134.4,470.1,132.9z"/>
					<path class="st2" d="M229.4,63.3C231.5,62.5,229.7,63,229.4,63.3L229.4,63.3z"/>
					<path class="st2" d="M241.1,64.7c-0.4,0.3-0.7,0.6-0.6,0.9C240.6,65.3,240.8,65,241.1,64.7z"/>
					<path class="st2" d="M151.5,126.1c0,0-0.1,0.1-0.1,0.1C152,125.9,151.9,125.9,151.5,126.1z"/>
					<path class="st2" d="M232.8,62.8c-0.8,0.1-1.8,0.3-2.8,0.5C230.4,63.3,231.3,63.1,232.8,62.8z"/>
					<path class="st2" d="M232.1,62.3c0.7-0.2,1.3-0.3,1.9-0.5C234.2,61.5,233.9,61.5,232.1,62.3z"/>
					<path class="st2" d="M226.6,64.5c1.2-0.5,2.3-0.9,3.4-1.2c-0.4,0.1-0.6,0.1-0.5,0C228.8,63.6,228,63.9,226.6,64.5z"/>
					<path class="st2" d="M466.3,384.1c0.1-0.1,0.2-0.2,0.4-0.3C467.5,381.8,467,382.6,466.3,384.1z"/>
					<path class="st2" d="M104.6,274.6c0-0.1-0.1-0.1-0.1-0.2C104.6,274.5,104.6,274.6,104.6,274.6L104.6,274.6z"/>
					<path class="st2" d="M106.2,281.9c-1.9-3-1.9-4.8-1.6-7.2c-1.2,0.9-2.4,1.8-3.6,2.7C102.7,279,104.4,280.5,106.2,281.9z"/>
					<path class="st2" d="M295.4,462l-5.1-1.5c3.2-0.8,5.8-1,7.1-1.2c1.3-0.2,1.2-0.5-1.1-1.4c-0.2,1-1.6,1.5-3.5,1.7
						c-1.9,0.2-4.4,0.2-6.9-0.1c-2.5-0.2-5-0.4-6.9-0.3c-1.9,0-3.3,0.3-3.6,1.3l-3.2-1.4c1,0.2,1.1,0,2.1,0.2
						c-6.2-2.9-5.3,2.1-13.7-0.1c-2.9-0.9-4.7-2.1-2.6-2l-6.7-0.6c-0.9-0.3-1.2-0.6-1.1-0.7c0.2-0.1,0.8-0.1,1.7,0.1
						c-1.7-0.3-3.3-0.8-4.9-1.2l-4.9-1.3l0.1-0.1c-1.6,0.2-5,0-6.7-0.2c-2.2-1.4,1.4,0,0.9-0.7c-1.9-0.3-3.8-0.6-5.7-1
						c-0.9-0.9-0.1-1.2,1.3-1c1.4,0.1,3.5,0.6,5.3,1.4c-1.8-2.8-2.9-2.9-4.9-3.1c-1.9-0.3-4.7-0.7-9.4-4c1.7,0.6,3.4,1,5.1,1.6
						c-1.1-1.7-2.7-2.7-4.6-3.9c-1.9-1.2-4-2.4-6.4-4.3c0.5,0.6,2.7,2.7,4.2,4.4c1.4,1.7,2.1,3.1-0.9,2.3c-1.4-1-3.4-2.1-6.7-2.8
						c0.6-1.3-2.4-2.5-5.9-4.3l1.2-1.5c-1-0.4-1.8-0.6-2.4-0.8c-0.6-0.2-1.1-0.2-1.5-0.2c-0.9,0-1.6,0.1-2.9-0.2
						c-4.1-2.7-4.1-4.4-4.4-6.1c-3.1-2.3-2.3-1-1.7,0.2s1,2.4-2.9,0c-1.2-1-2.4-2-3.6-2.8c-1.2-0.9-2.3-1.7-3.6-2.4
						c-2.5-1.5-5.3-2.9-8.6-5c-3.1-3.4,1.4-0.4,0.5-1.9l-4.1-1.4c-0.7-0.7-0.2-0.8,0.1-0.9c-2.9-1.8-1.5,1.3-5.8-2
						c-0.6,0.1-1.3-0.4-2.1-1.3c-0.4-0.5-0.8-1-1.2-1.6c-0.4-0.6-0.9-1.3-1.4-2.1c-0.9-1.5-2-3-3.2-4.5c-1.2-1.4-2.6-2.6-4.1-3.4
						c-0.7-1.6,1.4-0.2,1.6-1.1c-3.6-2.8-5.1-4.1-6.5-5.2c-1.4-1.1-2.6-2-5.8-4.3l-1.5-2.9c-0.5-1-0.9-2-1.4-2.9
						c1.6,4.7-3.3,0.9-7.6-2.7c0.4,1.8,0.8,3.3,1.1,4.3l-2.9-3.2c-1-1.1-1.9-2.2-2.8-3.3c-0.3-1,0.7-0.7,2.1,0.1
						c-0.4-0.4-0.9-0.8-1.2-1.1c-1.1-3,0.7-2.2,2.8-1c0.2,1.1,0.5,2.2,0.7,3.2c2.2,1,4.4,1.9,5,0.9c-0.5-0.3-1.3-1-2-1.9
						c0.6,0.3,1,0.4,1,0.1c0-0.4-0.9-0.8-2-1.7l0.8-2.8l-1,0.1l-2.4-4.9c-0.8-1.6-1.4-3.4-2.2-5c-1.4-1.4-2.9-2.7-4.4-4.1
						c-1.4-1.4-2.9-2.9-4.4-4.5c-0.8-0.8-1.5-1.7-2.3-2.6c-0.8-0.9-1.4-1.9-2.2-3c-0.7-1.1-1.5-2.2-2.2-3.4s-1.5-2.5-2.2-4
						c2.6,2.3,2.6-0.4,4.4-0.9c-0.3,2,1,4.1,2.5,6.4c0.8,1.2,1.6,2.4,2.4,3.7c0.9,1.3,1.7,2.7,2.3,4.1c-1.3-3.1-0.2-2.8,0.4-2.2
						c-2.3-3.1-4.3-6.3-6.5-9.5c0.8-0.2,0.8-0.9,0.5-1.8c-0.2-1-0.7-2.3-0.9-3.8c-1,1.6-2.2-0.2-3.6-2.9c-0.3-0.7-0.7-1.4-1-2.2
						c-0.3-0.8-0.6-1.5-0.9-2.3c-0.6-1.5-1.2-3-1.8-4c0.9-0.6,2.2,0.1,3.8,5.6c0.1-3.3-1.4-4.9-2.9-6.6c-1.6-1.6-3-3.3-2.9-6.5
						c0.4,1.3,0.5,2.1,1.1,2.5c-0.9-1.4-1.7-4.1-2.1-6.2c-0.4-2.1-0.3-3.7,0.3-2.9l0.3,1.3c-0.4-2.3-1.1-5.1-1.8-8.1
						c-0.7-3-1.3-6.2-2-9.1c-0.7-2.9-1.3-5.7-1.9-7.7c-0.7-2-1.4-3.4-2-3.7c0.3-0.1,3.2,0.9,3.8,1.4c-3.4-5.1-6.8-10.4-9.8-16
						c1.1,0.7,2.9-0.4,4.7-0.7c1.7-0.3,3.4,0.2,4.1,3.9c0.1-1.1,0.2-2.3,0.2-3.8c0-1.5-0.2-3.3-0.6-5.6c-0.3,1.5-3.2,3.8-3.4,1.7
						c1.2-2.9,1.6-3.8,1.9-5c0.1-0.6,0.3-1.2,0.5-2.1c0.2-0.9,0.5-2.1,1.2-3.8c-0.6,2.2-3.9-0.4-3.6-4c0.5,0.6,3.4-0.1,3.7,1.2
						l-1.4-4.5c-0.5-1.5-0.8-3-1.3-4.6c0.4,2.3,2.8,0.6,4-1.2c-0.4,0.4-0.2-1.5,0.1-3.8c0.3-2.3,0.9-4.9,0.9-6.1l-1.3,3.6
						c0.5-2.4,0.6-4.3,0.4-5.9c-0.1-0.8-0.2-1.5-0.4-2.2c-0.2-0.7-0.3-1.4-0.5-2c-0.4-1.3-0.7-2.7-0.9-4.3c-0.1-1.6-0.1-3.6,0.6-6
						c0.4,1.4,3.4,3.8,5.1-0.9c-0.3-0.7-0.8-1.7-1.3-3.1s-1.2-3.1-1.7-5c-0.5-1.9-0.9-4.1-1.1-6.3c-0.1-1.1-0.2-2.3-0.1-3.4
						s0.2-2.3,0.4-3.4l1.5-1.3c0.4-2.3,0.8-4.7,1.4-6.9c0.3,2.5,0.9,7.1,1.2,11.8c0.2,2.3,0.5,4.8,0.7,7c0.2,2.2,0.3,4.3,0.4,6
						c1.8-3.4,1.4-0.7,2.9-6c1.4-1.6,0.5,3.3,0.1,4.8l2.1-6l0.5-1.5l0.6-1.5l1.2-2.9c-1.1-0.1-0.7-2.5-0.3-5c0.5-2.5,1.1-4.9,0.2-5
						c-1.2,4.6-2,9.3-3,13.9c-1.1-0.1-1.7-2.4-1.7-5.9c0-1.7,0.2-3.8,0.7-5.9s1.2-4.3,2.2-6.4c1.6-1.9,2.6,3.1,3.3,3.1
						c-0.1-0.3,0.1-1.1,0.3-1.9c0.2-0.9,0.5-1.9,0.9-2.9c0.8-2,1.6-3.9,2-4.2l-0.7,4c1.4-2.1,1.7-4.3,2.2-6.5
						c0.5-2.2,1.3-4.4,3.6-6.7c0.6-0.9,1.8-2,3-2.9c1.1-0.9,2-1.7,1.6-2.2c-3.7,1.8-10.3-1.1-10.6-4c0.3-0.3,2.2-2.5,4.4-4.8
						c0.6-0.6,1.1-1.2,1.7-1.7c0.6-0.5,1.1-1.1,1.7-1.5c1.1-0.9,2-1.7,2.6-2.1c1.8-1,1.9,0.8,2,2.5c0.1,1.7,0.1,3.5,1.6,2.7
						c-0.4-0.4,0.1-2.4,0.4-3.2c1.6-1.6,0.9,1.7,3.4-2.4c-1.2-1.9,6.1-7.8,0-2.9c1.2-2.1,2.1-3.1,3-4c1-1,2-2.1,3.8-4.2
						c-1.1,0.3-1.2-1.4-0.6-3.7c0.6-2.3,1.7-5.2,3.2-7.2c0.2,0.6,1.4,0.2,2,0c1.7-1.8,3.3-3.4,4.7-4.8c1.5-1.4,3-2.6,4.4-3.8
						s2.8-2.4,4.3-3.7c1.5-1.2,3.1-2.6,4.8-4.1c0.9-0.2,4.7-2.7,3.8-0.8c0.8-1.1,1.3-2.4,3.5-4.2c5.4-2-4.7,4.2-0.1,3.2
						c-0.5-1.1,4.6-5.9,7.5-8.8c-0.5-0.2-1.3,0-2.1,0.5c-0.9,0.5-1.9,1.2-2.9,2.2c-2,1.9-4,4.2-5.3,5.8c-0.8-1-0.3-3.1,1.4-5.8
						c0.8-1.4,1.9-3,3.3-4.5c1.4-1.6,3-3.2,4.9-4.9c1.5-1.3,2.5-2,3.2-2.2c0.7-0.3,1-0.2,1.1-0.1c0.3,0.3-0.1,1.2,0.4,0.6
						c3.1-1.9,5.2-3.5,6.8-4.9c1.6-1.3,2.6-2.5,3.6-3.6s1.9-2.2,3.4-3.2c1.4-1.1,3.4-2,6.4-3c5.1-0.8,1.6,2.8,3.1,3.3
						c-2.7,1.7-4.9,2.6-7,3.3c-2,0.8-3.9,1.4-5.7,2.5l4.9-2c-1.5,1.5-4.9,3.9-7.1,4.7c1.1-0.2,2.9-1,5.3-2.3
						c1.2-0.6,2.5-1.3,3.9-2.1c1.4-0.7,2.9-1.5,4.5-2.3c1.6-0.8,3.2-1.6,4.8-2.4c1.7-0.7,3.3-1.4,5-2.1c1.6-0.7,3.2-1.4,4.8-1.9
						c1.6-0.5,3-1,4.4-1.3c1.6-1.2,4.6-3,2.9-3l-3.2,1.5c-3.5,0,5.6-4.2,1.2-3.1c0.5-0.3,1-0.7,1.6-1c0.6-0.3,1.1-0.6,1.7-1
						c1.1-0.7,2.3-1.3,3.6-1.9s2.6-1.3,4.1-1.8c1.5-0.5,3.1-0.9,4.7-1.2l1.7,1.4c-0.3-0.5-4.6,0.2-6.2,1.2c1.2-0.8,3.9-0.9,6.6-1.2
						c1.3-0.2,2.6-0.4,3.8-0.7c1.1-0.3,2.1-0.8,2.7-1.5c-1.6,0-3.3-0.1-4.9-0.1c1.1-0.6,2.3-1.2,3.5-1.8s2.5-1.2,3.9-1.8
						c1.4-0.6,2.7-1.2,4.2-1.6c1.5-0.4,3-0.7,4.5-0.8c-3.1-1.3-1.3,0.4-6-0.8c2.1,0.9-1.7,1.7-5.2,2.5c-1.8,0.4-3.5,0.8-4.3,1.2
						c-0.8,0.4-0.8,0.8,0.8,1c-2.4-0.6-4.4-0.3-6.5,0.1c-2.1,0.4-4.3,0.8-7.4,0.8c0.4,0.5,2.3,0.4-2.7,1.8c-0.2,0.2-0.6,0.6-0.9,0.9
						c-0.2,0-0.2,0-0.3,0.1c0.1,0,0.2,0,0.3,0c-0.2,0.2-0.2,0.2,0.1,0c1.2-0.2,2.3-0.2,2.8,0c-1,1.1-3.4,2.2-5.8,3.4
						c-2.4,1.2-4.9,2.4-6,3.2c-2.9,0.8,0.9-1.1-0.9-1.1l-1.7,1.2l-1.7,1.3c-0.9-1.1-8.3,1.3-2.1-2.4l-5.9,2.6c-1.9,0.4-4,1.3-6,2.2
						c-2,0.9-3.9,1.9-5.2,3c-2.8,1.3-6,5.2-4.2,2.9c-1.4,1-2.8,1.9-4.2,2.9l-4,3.1L188,85c-4.3,2.6-8.1,6.2-12.3,9.5
						c-4,3.6-8.4,6.8-13.4,9.8c-1.1,1.2-2.3,2.5-3.7,3.9c-1.4,1.5-3,3.1-5.1,4.9l-1.6-0.1c-1.4,1.6-3.8,3.9-6,5.9
						c-2.1,2.1-4,3.9-4.1,5.1c-1.3,0.4-2.9,1.6-4.6,3.2c-0.8,0.8-1.7,1.8-2.6,2.8c-0.8,1-1.6,2.2-2.5,3.3c-0.8,1.2-1.6,2.4-2.4,3.5
						c-0.8,1.2-1.6,2.3-2.3,3.5c-1.4,2.3-2.8,4.4-4,5.9l1.1,1.1c-0.4,0.5-0.8,1.1-1.1,1.6c-0.3,0.6-0.7,1.1-1,1.7
						c-0.7,1.1-1.3,2.3-1.9,3.5c-0.6,1.2-1.3,2.5-1.9,3.8c-0.6,1.3-1.2,2.8-1.8,4.3l1.4,0.3c-0.8,2.7-2.8,5.7-4.8,9.2
						c-1,1.7-2.1,3.5-3.2,5.4c-1,1.9-1.9,3.9-2.7,6c-0.2-0.8,0.7-2.8,1.6-4.1c-1.7,2.1-3,4.6-4,7.1c-0.9,2.6-1.6,5.3-2.2,8
						c-0.7,2.7-1,5.4-1.7,7.9c-0.6,2.5-1.5,4.9-2.6,7.1c-0.1,2.4-0.7,4.1-1.4,5.6c0.1-0.2,0.1-0.4,0.1-0.6c-0.1,0.2-0.2,0.6-0.3,0.9
						c-0.5,1-1,2-1.4,3.1c0.5-0.9,0.9-1.8,1.3-2.6c-0.4,1.8-0.8,4.6-1,7.3l-1.7,0.9c0,0.2-0.1,0.4-0.1,0.6c-1.1,2.6,0.2,2.2,1.6,1
						c-0.1,1.4,0.1,2.7,0.3,3.7c-1.3,0.9-1.4,2.7-1.5,4.6c-0.1,0.9-0.1,1.9-0.3,2.8c-0.2,0.9-0.6,1.7-1.2,2.4c0.5,1,0.4,4.4,0.4,7.8
						c0.2,3.4,0.6,6.8,1.8,7.5c-0.3,0.1-0.5,0.9-0.5-0.6c-0.5,3-0.8,6-0.1,8.7l-1.8,1.3l1.2,3.3l1.4,3.3c-1,4-1.5,5.8-3.1,1.8
						c0.6,2.4,1,4.1,1.3,5.4c0.3,1.3,0.5,2.2,0.7,3.1c0.4,1.7,0.7,3.3,2.2,7.3l-1.2-0.3c0.4,2.9,2.6,7.3,1.9,9.2
						c-0.3,1.7-0.1,4.5,0.4,8.1c0.1,0.9,0.2,1.8,0.4,2.8c0.2,1,0.4,2,0.6,3c0.5,2.1,1,4.3,1.5,6.6c2.4,9.1,5.7,19.2,8,27.4
						c1-2.2,1.3-0.2,1.8,2.2c0.6,2.4,1.2,5.4,2.6,5.1c-0.3,1.2,0.2,3.6-1.6,1.4c0.5,0.9,1,1.9,1.4,2.7c0.4,0.9,0.9,1.7,1.2,2.4
						c0.7,1.5,1.3,3,1.9,4.3c0.6,1.3,1.2,2.6,2,3.7c0.8,1.1,1.8,2.2,3,3.2c-0.2,1.3-2-1-2,0c0.5,0.5,2,2,2,3.1c0,1-1.2-0.8-2.2-1.8
						c1.2,1.9,2.2,3.3,3.1,4.3c1,1,1.8,1.6,2.6,1.9c1.6,0.7,2.8,0.3,4-0.1c0.7,2.2,1.4,3.7,2.3,4.9c1,1.2,2.1,2,3.7,2.9
						c0.3,1.7,1.1,4.3-2.3,0c0.4,0.6,1.3,2,2.3,3.5c0.5,0.8,1.1,1.7,1.7,2.6c0.6,0.9,1.3,1.7,2,2.6c2.7,3.4,5.3,6.4,6.2,5.9
						c0.3,1,2.7,3.3,3.4,3.7c1.1,1.3,2,2.3,2.7,3.2c0.7,0.9,1.4,1.5,2,2.2c1.3,1.3,2.6,2.6,5,5l-1.1-1.5c3.4,0.3,4.4,3.5,8.5,7
						l-0.3,0.1c2,2.4,3.4,3.7,4.3,4.6c1,0.8,1.5,1.2,2.1,1.5s1.1,0.7,2,1.6c0.5,0.4,1,1,1.7,1.7c0.7,0.7,1.6,1.6,2.7,2.7l0.3-1.5
						c1.4-0.9,3.3,1.1,5.6,3.7c2.4,2.5,5.4,5.6,8.7,7.1c-0.6-0.7-1.1-1.4-1.7-2.1c1.9,0.7,3.6,2.9,5.3,5.4c1.7,2.5,3.3,5.1,5,6.2
						c0.6,0.6-1.4-0.2-2.6-0.7c8.3,6.6,2.1-1,9.1,2.3c0.4,0.8-0.3,1.1-0.5,1.6c-0.1,0.2-0.1,0.5,0.2,0.9c0.3,0.4,0.9,0.9,2.1,1.5
						c1,0.9,4.8,1.8,9,3c2.1,0.5,4.4,1.1,6.5,1.9c1,0.4,2,0.8,2.9,1.2c0.9,0.4,1.8,0.9,2.5,1.4c-1.2-1.3-2.4-2.5,1.2-1.9
						c1.3,0.4,2.8,1.1,4.3,1.9c0.8,0.4,1.6,0.8,2.4,1.2c0.8,0.4,1.6,0.8,2.5,1.2c3.3,1.5,6.7,2.8,9.4,2.1c0.6,0.4,0.8,0.6,0.8,0.8
						c1.1,0.1,2.4,0.3,3.9,0.5s3.1,0.5,4.7,0.6c3.2,0.3,6.2,0.4,7.5,0c0.7,1.5,2.7,2.2,5.3,2.7c2.6,0.5,5.7,0.7,8.7,0.6
						c3,0,5.9,0,8,0.1c2.1,0.1,3.4,0.6,3.3,1.8c2.1,0.1,4.3,0.2,6.4,0.2l6.4-0.1l-0.3,0.5c1,0,2,0.1,2.9,0.1c0.9,0,1.7-0.1,2.4-0.1
						c1.5-0.1,2.7-0.3,3.7-0.6c2.1-0.5,3.5-1,4.9-1.7c1.9,0.1,0.6,0.7,0.4,1c6-0.1,9.3-0.1,12.3-0.8c1.5-0.3,2.9-0.7,4.6-1.3
						c0.8-0.3,1.7-0.6,2.7-1c1-0.4,2-0.9,3.2-1.4l1.3,1.3c0.6-0.3,2-0.6,4-0.8c1.9-0.2,4.4-0.6,7.1-0.9c1.4-0.2,2.8-0.4,4.2-0.7
						c1.5-0.3,2.9-0.7,4.4-1.1c1.5-0.4,3-0.9,4.4-1.4c1.5-0.5,2.8-1.2,4.2-1.8c-0.1,0.2-0.2,0.5-1,1c6-2.9,13.8-4.7,20.4-7
						c1.6-0.6,3.2-1.2,4.6-1.8c0.7-0.3,1.4-0.6,2.1-0.9c0.6-0.3,1.2-0.7,1.8-1c2.2-1.4,3.8-3,4.2-4.7l1.8-1.3
						c0.6-0.4,1.1-0.9,1.7-1.4l3.4-2.8c-5,2.6-4.9,1.9-4.1,0.7c0.8-1.2,2.2-2.8,0-2.1c1.8-1.2,4.4-2.3,6.1-2.7
						c0.8-0.2,1.4-0.3,1.4-0.1c0.1,0.2-0.3,0.7-1.4,1.4L411,442c-0.2,3.6,12.3-6.6,13-4.9c2.2-1.6,4.5-3.2,6.7-4.8
						c2.2-1.6,4.4-3.4,6.5-5c1.1-0.8,2.2-1.6,3.2-2.5c1-0.9,2.1-1.8,3.1-2.6c1-0.9,2.1-1.7,3.1-2.6c0.5-0.4,1-0.9,1.6-1.3l1.5-1.4
						c2-1.8,4-3.6,6-5.5c1.9-1.9,3.8-3.8,5.6-5.7c0.9-1,1.9-1.9,2.8-2.9c0.9-1,1.7-2,2.6-3c0.9-1,1.7-2,2.6-3c0.9-1,1.7-2,2.5-3
						c-1.1,0.2-2.1,0.4-3.2,0.5c1.5-1.9,3-3.8,4.5-5.7c1.5-1.2,2.9-1-0.3,3.1c1.3-0.7,2.4-2.6,3.1-4.4c0.8-1.7,1-3.5,0.8-3.6
						c3.2-3.9,3.2-2.8,2.6-0.9s-1.8,4.4-0.9,3.1l2.2-3.6l-0.8,0.6c0.6-1.7,0.7-2.7,1.2-4c0.2-0.6,0.5-1.3,1-2.1
						c0.4-0.9,1-1.9,1.8-3.2c2.4-3.1,2.2-1,3.1-2.3c0.1,0.1,0.5-0.3,1.3-2c1.6-2.6,3-5.3,4.5-8l-3.3,2.4c0.6-2,1.6-3.9,2-4.9
						c0.2-0.5,0.2-0.8,0-0.8s-0.7,0.3-1.6,1c2.7-2,6.7-9.6,9.8-17.2c0.8-1.9,1.5-3.8,2.1-5.6c0.6-1.8,1.2-3.5,1.8-5.1
						c1-3.1,1.7-5.4,2.2-6.3c0.1-1.5,0.3-2.9,0.5-4.3c0.2-1.4,0.4-2.9,0.7-4.3c0.6-2.9,1.5-5.9,2.1-9.3c-0.7,1.6-2.8,2.2-1.4-3.5
						c0.9,0.7,1.6,0.4,2.1-0.5c0.6-0.9,1.1-2.4,1.5-4.2c0.4-1.8,0.8-3.7,1.4-5.6c0.3-0.9,0.6-1.8,0.9-2.6c0.3-0.8,0.7-1.5,1.1-2
						c-1.2,2-0.8-2.2-0.7-6.2c0.1-2,0-3.9-0.2-4.9c-0.2-1-0.6-1.1-1.4,0.6c0.6-4.9,1.5-0.2,2.7-3.9c-0.1-1.5-0.1-3-0.2-4.6
						c-0.1-1.6-0.1-3.1-0.1-4.8s0.1-3.3,0.1-5c0-1.7,0-3.4,0-5.1c0-1.7,0.1-3.5,0-5.3c-0.1-1.8-0.1-3.6-0.2-5.4
						c0-0.9-0.1-1.8-0.2-2.7c0-0.9-0.1-1.8-0.2-2.7c-0.2-1.8-0.5-3.6-0.8-5.5c-0.5-0.1-1,2.4-2.2-0.6c0.6-2.7,0.9-5.4,1.3-8.1
						c-0.4-1.4-1.3-1.9-1.9-2.8c-0.3-0.4-0.6-0.9-0.8-1.7c-0.2-0.8-0.2-1.7-0.1-3.1c-0.3,0.8-0.7,2.1-1.3,0.2
						c-1.9-14.3-7.1-28.2-13.5-41.5c-6.4-13.3-13.8-25.9-20.7-39.2c1.5,3.8-0.1,1.7-1.9-0.7c1,1.7-1.1,0.8-1.4,1.5
						c-1-1.8-2-3.6-3-5.4l-1.5-2.7c-0.5-0.9-1-1.8-1.6-2.7c-1.5-0.2-3.7-2.6-5.8-5c-1-1.2-2.1-2.3-3.1-3.1c-1-0.8-1.8-1.3-2.3-1.2
						l2.9,2.5c-2.6-1.1-2.2,1.1-1.6,3.7c0.6,2.6,1.4,5.6,0,6.3c1.4,0.6,2.5,1.8,3.6,3.2c1,1.5,1.9,3.3,2.8,5.1
						c0.5,0.9,1,1.9,1.5,2.8c0.3,0.5,0.6,0.9,0.9,1.4c0.3,0.5,0.6,0.9,0.9,1.4c1.2,1.8,2.8,3.4,4.9,4.8c0.7,1.9-1.8-0.9-1.7,0.4
						c2.4,1.1,4.1,3.4,6.4,7.9l-0.6-0.3c0.5,0.8,1,1.5,1.5,2.2c0.4,0.7,0.8,1.4,1.2,2.1c0.8,1.4,1.5,2.7,2.2,3.9
						c1.4,2.5,2.4,4.9,3.5,7.4c0.5,1.2,1,2.5,1.6,3.8c0.5,1.3,1,2.7,1.5,4.1c0.5,1.4,1.1,2.9,1.7,4.6c0.1,0.4,0.3,0.8,0.5,1.2
						c0.1,0.4,0.3,0.9,0.4,1.3c0.3,0.9,0.6,1.8,0.9,2.8l0.9-1.6c1.1,3.3,1,4.1,1.2,5.8c3.5,2.9-3.5-9.1,0.1-6.6
						c-0.2,1.4,0.2,3.4,1,5.9c0.8,2.4,1.6,5.3,2.6,8.1c0.2,0.7,0.5,1.4,0.7,2.1c0.2,0.7,0.4,1.4,0.5,2.1c0.3,1.4,0.6,2.6,0.9,3.8
						c0.4,2.3,0.5,4.2-0.1,5.1c1.2,5.1,1.2-1.9,2.4,3.3l-0.5,1.6l1.4,1.1c0.3,1.7,0.2,3.1,0,4c-0.2,0.9-0.6,1.5-1,1.6
						c-0.1-0.8-0.6-2.3-0.9-3.2c-0.1,2.3,0.5,5.4,1.2,8.1c0.4,1.4,0.6,2.6,0.8,3.7c0.2,1,0.3,1.8,0.3,2.2c-0.1-1.7-0.1-3.4-0.2-5.1
						c0.4,1.8,0.7,3.6,1,5.5c0.1,0.9,0.3,1.9,0.5,2.8c0.2,0.9,0.3,1.9,0.4,2.9c0.3,3.9,0.8,7.9,0.9,11.8c0.1,2,0.2,4,0.3,5.9
						c0,2,0,3.9,0.1,5.9c0.2,3.9,0.2,7.6,0.4,11.1l0.7-1c0.1,1.4,0.1,2.5,0.1,3.5c0,1-0.1,1.8-0.2,2.6c-0.2,1.5-0.4,2.6-0.6,3.7
						c-0.3,1.1-0.5,2.3-0.8,3.9c-0.3,1.6-0.7,3.6-1,6.6l-0.1-0.5c0.4,2.5,0,5.6-0.7,8.8c-0.2-3.1-2.6,5.2-2.7,1.2
						c-0.1,0.7-0.1,1.4-0.2,2c-0.1,0.6-0.1,1.1-0.2,1.6c-0.1,1-0.2,1.7-0.2,2.3c-0.1,1.2-0.1,1.8,0,2.3s0.2,0.9,0.4,1.7
						c0.1,0.8,0.4,2,0.4,4l-1.6,1.4c0.1,1.4,0.3,2.2,0.2,3.4c-0.1,1.2-0.2,2.7-1.2,5.6c0.7-4.9-2.9,3-2.2-2.5
						c-1.6,2.7-2.7,5.2-3.4,7.4c-0.8,2.2-1.4,4.2-1.9,6.1c-0.5,1.8-0.9,3.5-1.7,4.8c-0.7,1.4-1.7,2.5-3.1,3.4c0.2,3.2,1.7,1,3.1-1.7
						c1.5-2.6,2.5-5.8,2.2-4.2c1-1,1,0.3,0.7,2.3c-0.5,2-1.5,4.7-2.5,6.4c-0.9,1.8-2.5,2.9-4.5,4.6c-1,0.9-2.1,1.9-3.2,3.2
						c-0.6,0.7-1.1,1.4-1.7,2.3c-0.6,0.8-1.2,1.8-1.9,2.8c0.5-0.8,0.4-1,0.9-1.8c-1.3,1.4-2,3.1-2.8,4.8c-0.4,0.9-0.8,1.8-1.4,2.6
						c-0.6,0.9-1.3,1.7-2.2,2.4c0.1,3.1-3.4,4.8-1.8,6.8l4.6-7.9c-1.2,2.3-1.9,4.9-3,7.7c-0.5,1.4-1.4,2.8-2.3,4.3
						c-1,1.5-2.2,3-3.8,4.5c0-0.8,1-3.3,1.8-4.9c-1,0.8-1.7,1.8-2.3,2.9c-0.6,1-1.3,2.1-2.4,2.9c-0.4-0.5-0.1-1.3,0.5-2.4
						c0.5-1,1.4-2.3,2.4-3.7c1-1.4,2.1-2.8,3-4.3c0.9-1.5,1.6-3,2-4.4c-1.2,0.8-2.2,3.2-3.2,4.9c-1,1.7-1.7,2.7-1.9,0.8
						c0.1,2.5-1.4,4.5-3.2,6.5c-1.9,2-4.1,4.2-5.3,7.6l-0.8-1.3c-0.5,1-1.5,3-2.8,4.4l1-3.8c-1.2,2.5-3.2,4.2-5.3,5.8
						c-2,1.6-4.2,3-5.8,5.1c3.8-3.8,4.5-3.9,4.8-3.4c0.3,0.5,0.1,1.7,2.1,0.4c-0.9,1.4-1.9,2.5-2.7,3.3c-0.8,0.8-1.5,1.5-2.2,1.9
						c-1.3,0.9-2.4,1.3-3.5,1.6c-1.1,0.4-2.4,0.7-4,1.5c-1.6,0.9-3.5,2.3-6.2,4.9c1.4-1.4,6.2-4.4,4.3-1.8c-1.2,0.8-2.5,1.8-3.9,2.5
						c-1.4,0.7-2.6,1.3-3.5,1.6c-7.5,6.4,2.1,0.2-0.6,3.5c-3.7,0.8-3.5,3.5-6.7,6.5l-0.9-1.2c-1.2,0.7-2.1,1.4-2.8,1.9
						c-0.7,0.5-1.2,0.9-1.6,1.3c-0.7,0.7-0.8,1.2-0.8,1.7c-0.1,0.9-0.1,1.8-4.8,4.1l2.6-4c-1.4,1.1-2.8,2.2-4.2,3.3
						c0-0.7,0.1-1.3,0.1-2c-2.1,2-3.7,3.1-5.3,4.1c-0.8,0.5-1.6,0.9-2.6,1.4c-1,0.5-2.1,0.9-3.4,1.4c1.6,0.3,0.6,2.7-3.9,5
						c-3.5,0.7,1.2-2-5.2,1.1c0.5-0.7,1.1-1.5,1.9-2.2c0.4-0.3,0.9-0.6,1.5-0.8c0.6-0.2,1.3-0.4,2.1-0.4c0.1-0.6,1-1.5,1.1-2.1
						c-3.6,0.9-8.4,3.7-10.7,4.8c0.9-0.4,2-0.8,2.6-0.8c-1.4,1-2.8,2-4.3,3l-4.4,2.8c-1.7,0.1-0.7-0.8,0.4-1.6
						c-0.9,0.5-1.7,1-2.5,1.5c-0.9,0.5-1.8,1.2-3.3,1.7c0.4-1.4-0.2-2.4,3.6-4.5c-2.8,1.7-5.8,3-8.7,4.5c-0.4-0.1-1.7-0.1-2.7-0.1
						c-1,0-1.9-0.1-1.4-0.5c-2.7,0.4-5.6,1.9-8.9,3.3c-1.6,0.7-3.4,1.3-5.1,1.9c-1.8,0.5-3.5,1-5.3,1.1c-0.3,0.3-1,0.6-2.5,1.1
						c-1.7,0.2-3.3,0.4-4.9,0.5c-1.6,0.1-3.3,0.1-4.9,0.3c-1.7,0.1-3.3,0.3-5.1,0.6c-1.8,0.2-3.6,0.6-5.6,1.2
						c-1.6-0.6-3.1-1.1-4.6-1.8c-3.1,0.4-1.5,1-0.5,1.6c1,0.7,1.6,1.4-3.6,2c-3.7,0.5-4.4,0.1-4.5-0.5c-0.1-0.6,0.4-1.4-0.9-1.7
						c-1.8,0.5-4.3,1.3-7.2,1.7c-2.9,0.4-6.2,0.2-9.6-0.8C291.6,461.6,293.3,462,295.4,462z M220.5,444.8c0.7,0.2,1.9,0.4,2.9,0.7
						c1.1,0.3,2,0.6,2.3,1.2c-1.1,0.4-1.9,0.3-2.7,0C222.3,446.3,221.5,445.6,220.5,444.8z M130.8,369.3c1,0.7,1.8,2.3,2.4,4.3
						C132.3,372.5,131.4,371.1,130.8,369.3z M207.8,74.1c-0.1,0.1-0.1,0.1-0.1,0.1C204.2,75.4,205.5,75,207.8,74.1z M214.8,71.4
						c0.6-0.5,0.5-0.7,0.1-0.7c-0.3,0.6-1.8,1.2-3.6,2C211.9,72.8,212.9,72.6,214.8,71.4z M487,370.4l-1.1,1
						C487.2,368.5,487.1,369.4,487,370.4z"/>
					<path class="st2" d="M139.9,379.5c0.1,0.5-0.1,0.7-0.3,1C140.2,380.9,140.4,380.7,139.9,379.5z"/>
					<path class="st2" d="M343,457.6c0.1,0,0.1,0,0.2,0c0.1-0.1,0.2-0.2,0.2-0.3L343,457.6z"/>
					<path class="st2" d="M138.5,151.8c-1,1.1-1.6,1.6-2.2,1.9C136.6,153.9,137.2,153.6,138.5,151.8z"/>
					<path class="st2" d="M251.1,55.9c-1.5,0.5-3,1.1-4.5,1.6c2.2-0.7,3.1-0.7,4.3-0.7C250.7,56.5,249.7,56.3,251.1,55.9z"/>
					<path class="st2" d="M292.7,58.6c0.7-0.2,1.4-0.1,2.1-0.3l-0.2-0.7C291.7,57.8,289.8,58.4,292.7,58.6z"/>
					<path class="st2" d="M256.5,59.6c0.3,0.5,1.2,0.6,2.3,0.3c0.6-0.1,1.2-0.3,2-0.5c0.7-0.2,1.5-0.4,2.3-0.6
						c-0.2,0-0.4,0.1-0.6,0.1c0.3-0.9-0.4-1.1-1.5-0.9C259.8,58.2,258.2,58.9,256.5,59.6z"/>
					<path class="st2" d="M263.8,58.6c1-0.2,2-0.5,3-0.6C267.1,57.2,265.6,58.1,263.8,58.6z"/>
					<path class="st2" d="M223.1,66.9c1.6-0.3,0.3-1.8,1.4-1.7c0.5-1.1-1.8,0.4-3.2,1.5c-0.7,0.6-1.2,1.1-1.1,1.3
						C220.3,68.2,221.1,67.9,223.1,66.9z"/>
					<polygon class="st2" points="260,62.9 258.5,61.7 257,63.3 					"/>
					<path class="st2" d="M235.1,68.8l5-1.3c-0.1-0.2,0.4-0.6,1.2-0.9C238.3,67.6,234.9,68.4,235.1,68.8z"/>
					<path class="st2" d="M241.3,66.6c1.6-0.5,3.1-0.9,3.9-1.4C244.4,65.5,242.5,66,241.3,66.6z"/>
					<path class="st2" d="M253.2,64.9l-1.6,0.1l-3.5,0.9C249.8,65.6,251.5,65.2,253.2,64.9z"/>
					<path class="st2" d="M185.5,93.9l-4.3,3.7c-0.2,0.8,1.3,0.1,2.9-1.3C184.9,95.2,186.5,93.8,185.5,93.9z"/>
					<path class="st2" d="M202,88.3c-1.5,0.5-1.7,0.2-2.7,0.2l0.8,1.7L202,88.3z"/>
					<path class="st2" d="M188.6,97.3c-0.2,0.8-5.6,5.9,0,1.7c0.1-0.4,1.2-1.5,1.7-2.1c0.3-0.3,0.4-0.5,0.2-0.5
						C190.3,96.4,189.7,96.6,188.6,97.3z"/>
					<polygon class="st2" points="129.6,156.2 130.3,154.9 127.6,153.5 					"/>
					<path class="st2" d="M109.9,226.5c2-6.1-1.6-1.9,0.5-7.4c-0.2-0.8-0.7,0.3-1.1,1.4c-0.4,1.1-0.8,2.3-0.9,1.4
						C108.4,226,107.6,227.9,109.9,226.5z"/>
					<path class="st2" d="M108.5,222c0-0.6,0-1.3-0.1-2.1C108.4,221.1,108.4,221.6,108.5,222z"/>
					<path class="st2" d="M460.9,119.5c-0.8-1.3-1.7-2.4-2.6-3.7l1.3,2.8C460,118.8,460.5,119.2,460.9,119.5z"/>
					<path class="st2" d="M453.4,114.9l0.6-2.1l-3.1-0.6C451.7,112.8,453.2,114.1,453.4,114.9z"/>
					<path class="st2" d="M212,436.2l-0.5,0.3c0.3,0.7,1.1,1.2,2.8,2.2L212,436.2z"/>
					<polygon class="st2" points="263.4,456.4 262.4,456.2 263.8,458.3 					"/>
					<path class="st2" d="M309.7,458.3c-0.9,0-2,0.1-3,0.2c-1,0.1-2,0.1-3,0.1C307.8,458.4,310.2,460.5,309.7,458.3z"/>
				</g>
			</g>
		</g>
	</g>
</g>
<g>
	<path class="st5" d="M507.1,162c-2.5,3.9-5.4,7-10.3,7.9c-4.8,0.9-8.8-0.7-12.3-3.8c-9.1-8.2-18-16.5-27-24.8
		c-12.9-11.9-25.8-23.8-38.7-35.6c-8.6-7.9-17.2-15.8-25.6-23.8c-1.8-1.7-3.1-4.1-4.6-6.1c0.9,0.3,2,0.4,2.6,1
		c4.5,3.8,8.8,7.8,13.3,11.6c9,7.7,18,15.3,27.1,22.9c6.5,5.4,13.1,10.7,19.8,15.9c8.3,6.4,16.4,13.2,25.2,18.7
		C486.4,151.8,496.9,156.6,507.1,162z"/>
	<path class="st6" d="M510.9,153.1c0.5-3.5-1.3-6.2-3-8.9c-4.3-3.9-8.6-7.7-12.9-11.6c-8.8-8.1-17.6-16.3-26.4-24.5
		c-7.5-6.9-14.9-13.9-22.3-20.8c-3.7-3.4-7.4-6.7-11.1-10c-0.5-0.4-0.8-1-1.2-1.5l-0.2,0l-0.1-0.1c-0.2-0.1-0.4-0.3-0.6-0.4
		c-6.7-6.2-13.4-12.4-20-18.6c-0.6-0.3-1.3-0.6-1.9-1c-4-2.1-8.4-2.6-11.9-0.2c-5.9,3.9-11.4,8.6-11,16.8l0,0
		c0.2,1.2,0.4,2.3,0.7,3.5c0.9,0.3,2,0.4,2.6,1c4.5,3.8,8.8,7.8,13.3,11.6c9,7.7,18,15.3,27.1,22.9c6.5,5.4,13.1,10.7,19.8,15.9
		c8.3,6.4,16.4,13.2,25.2,18.7c9.7,6.1,20.2,10.9,30.4,16.3C509.5,160.5,511.4,155.9,510.9,153.1z"/>
	<path class="st6" d="M555.9,110.6c6.6,2.1,10.2,6.8,11.5,13.4c-0.7,0.2-1.6,0.3-2.2,0.7c-8.8,5.8-19.5,5.2-27.4-1.8
		c-0.8-0.7-1.9-1.1-2.8-1.7c1-2.1,2-4.3,3-6.4c0.3-0.1,0.7-0.2,1-0.4C543.9,110,549.5,108.5,555.9,110.6z"/>
	<path class="st5" d="M566.6,131.2c-1.2,5.4-4.7,8.9-9.6,10.8c-6.8,2.6-13,1.3-18.2-3.8c-2.7-2.6-4.5-5.8-4.6-9.7
		c1.1,0.5,2.2,0.9,3.2,1.5c5.9,3.6,12.2,5.3,19.1,4C559.9,133.5,563.3,132.2,566.6,131.2z"/>
	<path class="st6" d="M566.6,131.2c-3.4,1-6.7,2.2-10.1,2.9c-6.8,1.3-13.2-0.4-19.1-4c-1-0.6-2.1-1-3.2-1.5c0.2-2.4,0.5-4.8,0.7-7.2
		c1,0.5,2,0.9,2.8,1.7c7.9,7,18.6,7.6,27.4,1.8c0.6-0.4,1.4-0.5,2.2-0.7C567.1,126.4,566.9,128.8,566.6,131.2z"/>
	<path class="st7" d="M432.9,75.2c0.2,0.1,0.4,0.3,0.6,0.4C433.3,75.5,433.1,75.4,432.9,75.2z"/>
	<path class="st8" d="M557.5,89.4c-0.9-5.5-1.5-11.1-2.8-16.5c-0.9-3.9-2.7-7.5-4.1-11.3c-1.8-5.7-5.3-10.6-8.8-15.2
		c-4.5-5.9-10.1-10.7-16.6-14.3c-3.4-1.9-7.2-3.1-10.7-4.6c-0.3-0.2-0.6-0.5-1-0.7c-6.9-2.4-14-3.8-21.2-4
		c-5.5-0.1-11.1,0.2-16.5,0.9c-8.2,1.1-16,3.5-23.3,7.5c-0.6,0.3-1.2,0.5-1.8,0.8c-6.8,3.9-13.6,7.7-20.3,11.7
		c-2.5,1.5-4.7,3.4-7,5.1c-2.1,1.6-4.3,3.1-6.4,4.7l0,0c-1.4,1-2.8,2.1-4.1,3.1c6.7,6.2,13.4,12.4,20,18.6c0.2,0.1,0.4,0.3,0.6,0.4
		c0,0,0.1,0.1,0.1,0.1l0.2,0c0.4,0.5,0.8,1,1.2,1.5c3.7,3.4,7.5,6.6,11.1,10c7.5,6.9,14.9,13.9,22.3,20.8
		c8.8,8.2,17.6,16.4,26.4,24.5c4.2,3.9,8.6,7.7,12.9,11.6c1.6-2.6,3.3-5.3,4.9-7.9c2.9-5,5.8-9.9,8.5-14.9
		c2.6-4.9,4.9-10.1,7.4-15.1c0.5-1.6,1-3.2,1.4-4.8c-0.5,1.6-1,3.2-1.4,4.8c2.7,2.4,5.3,4.8,8,7.2c0.5,0.5,0.9,1,1.4,1.5
		c0.3-0.1,0.7-0.2,1-0.4c4.9-4.4,10.5-5.9,16.9-3.8C557.8,103.6,557.7,96.5,557.5,89.4z"/>
</g>
</svg>
