<?xml version="1.0" encoding="utf-8"?>
<!-- Generator: Adobe Illustrator 23.0.1, SVG Export Plug-In . SVG Version: 6.00 Build 0)  -->
<svg version="1.1" id="Слой_1" xmlns="http://www.w3.org/2000/svg" xmlns:xlink="http://www.w3.org/1999/xlink" x="0px" y="0px"
	 width="612px" height="792px" viewBox="0 0 612 792" style="enable-background:new 0 0 612 792;" xml:space="preserve">
<style type="text/css">
	.st0{fill:#FFFFFF;}
	.st1{fill:#FFFFFF;stroke:#3C5F42;stroke-miterlimit:10;}
	.st2{fill:#3C5F42;}
	.st3{fill:#3C5F42;stroke:#3C5F42;stroke-miterlimit:10;}
	.st4{fill:none;stroke:#3C5F42;stroke-width:0.5;stroke-miterlimit:10;}
</style>
<circle class="st0" cx="304.07" cy="247.02" r="196.36"/>
<circle class="st0" cx="303.44" cy="261.92" r="231.29"/>
<path class="st1" d="M283.38,165.87c1.33,0.47,2.51,0.83,3.71,1.11c3.2,0.76,6.46,1.17,9.74,1.42c3.17,0.24,6.35,0.31,9.52,0.18
	c5.6-0.22,11.07-1.16,16.25-3.42c0.73-0.32,1.43-0.7,2.17-1.07c0,0.1,0.02,0.16,0,0.2c-1.55,2.47-2.46,5.21-3.29,7.98
	c-0.96,3.21-1.62,6.48-1.96,9.81c-0.05,0.51-0.11,1.02-0.11,1.53c0.01,0.46-0.22,0.69-0.59,0.89c-1.23,0.64-2.57,0.95-3.91,1.23
	c-2.56,0.54-5.15,0.84-7.75,1.02c-2.21,0.15-4.41,0.26-6.62,0.18c-3.01-0.12-6.02-0.33-8.91-1.28c-0.7-0.23-1.37-0.51-2-0.88
	c-0.3-0.17-0.45-0.38-0.46-0.74c-0.09-3.22-0.69-6.34-1.71-9.39c-0.97-2.89-2.23-5.63-3.8-8.24
	C283.59,166.29,283.53,166.16,283.38,165.87z M304.5,183.1c0.8-4.09,0.44-8.02-0.26-11.94C303.6,174.21,303.74,180.56,304.5,183.1z
	 M310.63,182.72c0.35-4.05,1.12-8.03,2.16-11.96C310.69,174.5,309.85,178.47,310.63,182.72z M293.57,182.17
	c0.8-4.29-0.06-8.28-2.17-12.04C292.46,174.08,293.23,178.08,293.57,182.17z M317.21,170.34c-1.94,2.47-3.18,9.75-2.06,11.82
	c0.12-2,0.4-3.98,0.75-5.95C316.25,174.23,316.74,172.29,317.21,170.34z M298.79,182.73c0.89-4.16-0.34-9.31-2.27-12.11
	C297.68,174.62,298.43,178.64,298.79,182.73z"/>
<path class="st1" d="M292.47,166.47c-1.72-0.09-3.4-0.44-5.09-0.74c-0.38-0.07-0.75-0.16-1.12-0.24c-1.72-0.38-2.74-1.62-2.87-3.41
	c-0.17-2.15,0.85-3.59,2.65-4.58c1.21-0.66,2.54-0.92,3.89-1.06c4.59-0.48,9.2-0.77,13.77-1.45c3.6-0.53,7.17-1.21,10.58-2.53
	c1.62-0.63,3.18-1.39,4.53-2.51c0.29-0.24,0.57-0.27,0.9-0.12c2.15,0.98,3.54,2.52,3.81,4.95c0.06,0.52-0.1,0.95-0.44,1.36
	c-1.59,1.88-3.64,3.14-5.81,4.22c-3.56,1.78-7.35,2.95-11.2,3.91c-4.24,1.06-8.54,1.76-12.89,2.16
	C292.94,166.46,292.7,166.46,292.47,166.47z"/>
<path class="st1" d="M300.41,129.96c1.31,0.6,2.54,1.17,3.75,1.82c2.05,1.09,4.06,2.25,5.83,3.77c1.64,1.41,2.97,3.02,3.33,5.25
	c0.11,0.73,0.07,1.46,0.04,2.19c-0.01,0.35-0.25,0.55-0.51,0.73c-0.85,0.56-1.82,0.85-2.79,1.11c-2.74,0.73-5.54,1.1-8.36,1.37
	c-2.06,0.2-4.12,0.23-6.18,0.22c-0.67,0-1.07-0.25-1.37-0.85c-0.88-1.76-0.48-3.72,1.08-4.98c1.07-0.87,2.31-1.38,3.63-1.72
	c1.61-0.41,2.87-1.24,3.24-2.97c0.44-2.05-0.16-3.86-1.41-5.49C300.6,130.31,300.45,130.24,300.41,129.96z"/>
<path class="st1" d="M288.17,152.75c0.03-1.51,0.82-2.58,2.04-3.37c1.45-0.94,3.08-1.32,4.77-1.49c3.85-0.38,7.71-0.59,11.55-1.12
	c2.55-0.35,5.09-0.76,7.48-1.82c0.72-0.32,1.39-0.73,1.97-1.28c0.21-0.2,0.4-0.29,0.67-0.1c0.78,0.55,1.52,1.14,2.03,1.97
	c0.82,1.35,0.61,2.62-0.56,3.68c-1.22,1.11-2.72,1.62-4.27,1.99c-2.53,0.6-5.11,0.85-7.69,1.1c-4.37,0.43-8.78,0.61-13.11,1.43
	c-1.26,0.24-2.5,0.56-3.65,1.13c-0.32,0.16-0.49,0.1-0.66-0.2C288.38,154.08,288.19,153.44,288.17,152.75z"/>
<path class="st1" d="M300.14,167.05c0.75-0.11,1.41-0.19,2.06-0.3c7.73-1.21,14.66-4.32,21-8.84c0.16-0.11,0.31-0.35,0.51-0.27
	c0.24,0.1,0.16,0.38,0.17,0.59c0.06,1.47-0.18,2.91-0.58,4.32c-0.17,0.59-0.5,0.99-1.02,1.28c-1.23,0.68-2.56,1.06-3.9,1.41
	c-3.72,0.96-7.51,1.51-11.34,1.79c-2.06,0.15-4.12,0.22-6.18,0.18C300.64,167.21,300.41,167.26,300.14,167.05z"/>
<g>
	<path class="st2" d="M157.54,161.21c0.23,0.27,0.61,0.63,1.15,1.08c0.54,0.45,1.16,0.94,1.85,1.46c0.69,0.52,1.41,1.05,2.16,1.58
		c0.75,0.53,1.46,1.01,2.1,1.45c0.91,0.62,1.89,1.16,2.93,1.62c1.04,0.47,2.04,0.8,3,0.98c0.06-0.01,0.14,0.02,0.26,0.1
		c0.35,0.24,0.25,0.76-0.3,1.57l-0.15,0.22c-0.59,0.84-1.62,0.89-3.09,0.17c-0.78-0.38-1.69-0.88-2.73-1.49
		c-1.04-0.61-2.06-1.26-3.08-1.94c-1.88-1.26-3.77-2.68-5.66-4.24c-0.12-0.08-0.3-0.18-0.54-0.29c-0.25-0.12-0.42-0.21-0.52-0.28
		c-0.75-0.5-0.92-1.22-0.51-2.15c0.36-0.79,0.78-1.66,1.24-2.59c0.46-0.93,0.91-1.83,1.36-2.69s0.86-1.64,1.24-2.33
		s0.69-1.21,0.91-1.54c0.38-0.57,0.77-0.91,1.18-1.03c0.41-0.12,0.8-0.06,1.16,0.18c0.56,0.38,0.71,0.83,0.44,1.34
		c2.12,1.77,4,3.27,5.65,4.5c1.64,1.24,3.17,2.33,4.58,3.28c0.37,0.25,0.7,0.45,1.01,0.62c0.31,0.17,0.61,0.29,0.9,0.37
		c0.46,0.11,0.81,0.19,1.06,0.22c0.25,0.04,0.46,0.06,0.61,0.06c0.15,0.01,0.27,0.02,0.34,0.03c0.08,0.01,0.15,0.04,0.21,0.09
		c0.35,0.24,0.25,0.76-0.3,1.57c-0.36,0.53-0.8,0.83-1.33,0.88s-1.17-0.11-1.9-0.48c-0.93-0.45-1.97-1.03-3.12-1.72
		c-1.15-0.69-2.46-1.53-3.92-2.51c-1.76-1.18-3.55-2.42-5.36-3.71c-0.23-0.16-0.45-0.08-0.65,0.21c-0.4,0.7-0.8,1.44-1.2,2.22
		c-0.4,0.78-0.76,1.49-1.07,2.13c-0.06,0.16-0.1,0.32-0.13,0.49C157.28,160.83,157.36,161.01,157.54,161.21z"/>
	<path class="st2" d="M185.56,147.72c0.26,0.21,0.44,0.46,0.55,0.73c0.14,0.35,0.12,0.65-0.07,0.88c-0.05,0.06-0.14,0.14-0.25,0.24
		c-0.12,0.1-0.21,0.17-0.26,0.24c-0.55,0.66-1.15,1.79-1.79,3.38c-0.64,1.59-1.24,2.72-1.79,3.38c-2.06,2.48-4.97,2.16-8.73-0.97
		c-2.96-2.46-5.24-4.48-6.84-6.07c-0.22-0.21-0.34-0.32-0.35-0.33c-0.11-0.09-0.28-0.21-0.51-0.35c-0.23-0.14-0.4-0.25-0.49-0.33
		c-0.71-0.59-0.81-1.32-0.29-2.19c0.77-1.37,1.53-2.74,2.29-4.12c1-1.8,1.82-3.08,2.46-3.86c0.37-0.45,0.77-0.78,1.21-0.99
		c0.6-0.28,1.09-0.26,1.48,0.06c0.57,0.47,0.54,1.09-0.08,1.84c-0.08,0.09-0.21,0.22-0.39,0.4c-0.18,0.17-0.31,0.31-0.39,0.4
		c-1.04,1.25-2.18,3.18-3.42,5.8c-0.08,0.14-0.16,0.27-0.22,0.41c-0.06,0.13-0.01,0.31,0.15,0.52c0.6,0.78,1.98,2.07,4.13,3.87
		c0.32,0.27,0.61,0.26,0.85-0.04c0.33-0.4,0.71-1.06,1.14-1.98c0.43-0.92,0.81-1.58,1.14-1.98c0.37-0.45,0.94-0.85,1.7-1.2
		c0.62,0.26,0.99,0.43,1.09,0.52c0.38,0.32,0.5,0.61,0.34,0.87s-0.34,0.53-0.52,0.82c-0.18,0.06-0.36,0.2-0.54,0.41
		c-0.45,0.54-0.92,1.25-1.41,2.12c-0.39,0.75-0.79,1.5-1.2,2.25c-0.06,0.1-0.11,0.2-0.16,0.28c-0.04,0.08,0.01,0.21,0.15,0.38
		c0.25,0.26,0.46,0.46,0.63,0.6c1.19,0.99,1.92,1.55,2.18,1.7c1.02,0.59,1.82,0.54,2.4-0.16c0.49-0.58,1.02-1.59,1.6-3.01
		c0.58-1.42,1.15-2.46,1.7-3.12C183.94,148.04,184.77,147.58,185.56,147.72z"/>
	<path class="st2" d="M196.41,135.28c0.46-0.45,0.95-0.41,1.47,0.11c0.23,0.23,0.36,0.52,0.41,0.86c0.05,0.35,0.03,0.7-0.04,1.07
		c-0.07,0.37-0.19,0.72-0.36,1.05s-0.34,0.59-0.53,0.77c-0.54,0.54-1.21,0.93-2.01,1.19s-1.8,0.45-2.99,0.59
		c-0.2,0.03-0.54,0.05-1.01,0.07c-0.47,0.02-1.03,0.03-1.66,0.03c-0.63,0-1.3,0-2.01,0c-0.71,0-1.39-0.02-2.04-0.05l0.8,0.81
		c0.62,0.63,1.19,1.14,1.72,1.55c0.53,0.41,0.99,0.73,1.39,0.98c0.39,0.24,0.71,0.42,0.95,0.54s0.38,0.19,0.42,0.24
		c0.14,0.14,0.22,0.29,0.24,0.46s0.02,0.32-0.01,0.48s-0.08,0.3-0.16,0.43c-0.08,0.13-0.15,0.24-0.22,0.31
		c-0.23,0.23-0.54,0.36-0.92,0.4c-0.38,0.04-0.92-0.12-1.62-0.49c-0.7-0.36-1.59-0.99-2.67-1.88s-2.43-2.16-4.07-3.82
		c-0.97-0.98-1.96-2.03-2.97-3.15c-1.01-1.12-1.95-2.26-2.82-3.43c-0.1-0.04-0.19-0.1-0.26-0.16c-0.08-0.06-0.13-0.11-0.16-0.14
		c-0.39-0.4-0.58-0.8-0.55-1.19c0.03-0.4,0.21-0.76,0.54-1.08c0.13-0.13,0.32-0.24,0.59-0.35c0.26-0.1,0.55-0.18,0.86-0.24
		c0.31-0.06,0.61-0.07,0.88-0.05c0.28,0.02,0.48,0.11,0.62,0.25c0.13,0.13,0.21,0.26,0.23,0.38c0.03,0.13,0,0.31-0.07,0.55
		c-0.03,0.11-0.02,0.22,0.03,0.33c0.05,0.11,0.19,0.31,0.43,0.61c0.37,0.46,0.68,0.85,0.93,1.17s0.5,0.63,0.74,0.92
		c0.24,0.29,0.49,0.58,0.75,0.89c0.26,0.31,0.57,0.66,0.94,1.06c-0.1-1.76-0.14-3.51-0.12-5.27s0.08-3.44,0.18-5.06
		c0.03-0.6,0.1-1.06,0.21-1.39c0.11-0.33,0.32-0.65,0.63-0.96c0.13-0.13,0.33-0.26,0.62-0.4c0.37,0,0.76,0.11,1.18,0.31
		s0.7,0.38,0.84,0.53c0.21,0.21,0.3,0.43,0.26,0.65c-0.04,0.22-0.16,0.43-0.35,0.62c-0.17,0.17-0.38,0.28-0.64,0.34
		c-0.1,0.16-0.19,0.61-0.26,1.36c-0.08,0.75-0.13,1.67-0.15,2.75c-0.03,1.08-0.03,2.26,0,3.53c0.03,1.27,0.09,2.49,0.18,3.67
		c0.42,0.09,0.92,0.15,1.5,0.19c0.57,0.04,1.16,0.07,1.75,0.08c0.6,0.02,1.17,0.03,1.72,0.03c0.55,0,1.04,0,1.45-0.01
		c1.2-0.01,2.16-0.07,2.86-0.19c0.7-0.12,1.21-0.33,1.52-0.64c0.19-0.18,0.3-0.37,0.35-0.56c0.05-0.19,0.08-0.38,0.09-0.57
		c0.01-0.19,0.03-0.37,0.07-0.55C196.14,135.62,196.24,135.45,196.41,135.28z"/>
	<path class="st2" d="M208.32,123.06c0.6,0.75,0.57,1.4-0.09,1.96c0.37,0.3,0.93,0.64,1.68,1.04c0.26,0.36,0.35,0.75,0.25,1.18
		c-0.09,0.43-0.31,0.79-0.67,1.08c-0.28,0.23-0.68,0.4-1.19,0.53c-0.53-0.24-1.02-0.65-1.47-1.21c-0.11-0.14-0.27-0.35-0.46-0.63
		c-0.2-0.28-0.35-0.48-0.45-0.6c0.09,0.11-0.13,0.37-0.64,0.79c-0.88,0.7-1.88,1.58-3.02,2.62c-1.64,1.47-2.47,2.36-2.48,2.65
		c-0.01,0.29,0.56,1.21,1.72,2.74c0.04,0.46-0.1,0.82-0.42,1.07c-0.33,0.26-0.77,0.4-1.34,0.4c-0.56,0-0.97-0.15-1.22-0.46
		c-0.09-0.11-0.3-0.66-0.63-1.65c-0.58-1.36-1.41-3.43-2.48-6.22c-2.5-7.42-3.06-11.68-1.67-12.8c1.36-1.09,3.62-0.41,6.79,2.03
		c1.42,1.1,3.4,2.94,5.93,5.53c0.48-0.23,0.8-0.36,0.96-0.39C207.78,122.65,208.08,122.76,208.32,123.06z M204.32,124.8
		c-5.06-4.9-7.87-7.14-8.42-6.7c-0.44,0.35-0.18,2.25,0.79,5.69c0.7,2.47,1.36,4.57,2,6.29c0.41-0.51,1.05-1.24,1.91-2.19
		C201.41,127.08,202.64,126.04,204.32,124.8z"/>
	<path class="st2" d="M218.63,107.87c0.24,0.37,0.42,0.72,0.55,1.04c1.83,4.32,1.23,7.45-1.81,9.39c-1.55,0.99-3.2,1.49-4.94,1.48
		l0.34,0.53c0.71,1.14,1.3,1.85,1.79,2.14c0.7,0.39,1.07,0.62,1.13,0.71c0.22,0.34,0.27,0.72,0.17,1.14
		c-0.1,0.42-0.32,0.74-0.66,0.96c-0.76,0.49-1.45,0.54-2.06,0.18c-0.36-0.22-0.84-0.76-1.45-1.6c-0.4-0.55-0.84-1.2-1.31-1.94
		c-0.18-0.29-0.42-0.74-0.71-1.36c-0.29-0.62-0.53-1.09-0.73-1.39l-1.1-1.72c-0.34-0.5-0.78-1.26-1.33-2.31s-0.97-1.8-1.27-2.27
		l-1.46-2.28c-0.02-0.03-0.39-0.44-1.1-1.22c0.18-0.68,0.46-1.15,0.84-1.39c0.45-0.29,0.92-0.35,1.39-0.2
		c0.48,0.16,0.87,0.47,1.17,0.95c0.08,0.12,0.15,0.24,0.23,0.35c0.18-2.18,1.12-3.82,2.82-4.91c1.6-1.02,3.25-1.23,4.95-0.63
		c1.52,0.55,2.81,1.66,3.86,3.31c0.08,0.12,0.19,0.3,0.34,0.53C218.44,107.57,218.56,107.75,218.63,107.87z M216.07,108.93
		c-0.75-1.17-1.56-2.05-2.44-2.65c-1.2-0.8-2.31-0.88-3.32-0.23c-1.3,0.83-1.91,2.34-1.82,4.52c0.06,1.91,0.53,3.57,1.43,4.97
		c1.5,2.35,3.43,2.76,5.79,1.25c1.26-0.81,1.84-1.95,1.73-3.43c-0.05-0.82-0.44-2.13-1.16-3.93
		C216.13,109.08,216.06,108.92,216.07,108.93z"/>
	<path class="st2" d="M233.58,93.42c0.08,0.16,0.04,0.4-0.11,0.73c-0.15,0.32-0.23,0.54-0.22,0.64c-0.03,1.11,0.61,2.95,1.92,5.52
		l0.55,1.04c0.04-0.04,0.1-0.08,0.18-0.12c0.27-0.13,0.6-0.11,0.99,0.08c0.39,0.19,0.66,0.42,0.8,0.71
		c0.11,0.21,0.01,0.45-0.29,0.71c-0.24,0.19-0.49,0.37-0.73,0.56c0.43,0.84,0.87,1.68,1.32,2.54c0.58,1.08,1.1,1.84,1.56,2.28
		c0.37,0.38,0.58,0.64,0.65,0.78c0.18,0.36,0.21,0.75,0.08,1.18c-0.12,0.43-0.36,0.73-0.72,0.91c-0.68,0.34-1.31,0.2-1.88-0.41
		c-0.11-0.13-0.5-0.71-1.17-1.77c-0.23-0.38-0.48-0.84-0.76-1.4l-0.54-1.11c-0.38-0.73-0.72-1.31-1.03-1.74
		c-1.02,0.55-2.19,1.31-3.49,2.29c-1.12,0.84-2.24,1.69-3.35,2.52c0.19,0.2,0.7,1.15,1.54,2.86c0.67,1.37,1.32,2.16,1.95,2.39
		c0.1,0.06,0.17,0.14,0.21,0.23c0.23,0.47-0.01,0.88-0.73,1.23c-0.67,0.33-1.29,0.38-1.87,0.15c-0.36-0.14-1.5-1.89-3.44-5.27
		c-0.38,0.1-0.75,0.02-1.11-0.22s-0.64-0.55-0.83-0.93c-0.11-0.22-0.06-0.42,0.13-0.62c0.19-0.2,0.38-0.38,0.56-0.56
		c-0.1-0.24-0.27-0.68-0.52-1.32c-0.2-0.55-0.38-0.97-0.53-1.28c-1.56-3.16-2.38-5.26-2.46-6.29c-0.06-0.84,0.26-1.44,0.96-1.78
		c0.43-0.21,0.9-0.27,1.42-0.18c0.51,0.09,0.87,0.34,1.08,0.76c0.11,0.22,0.17,0.52,0.18,0.92c0.02,0.53,0.03,0.83,0.05,0.91
		c0.26,1.75,0.9,3.67,1.93,5.75c0.17,0.34,0.27,0.55,0.31,0.62c0.15-0.1,0.54-0.38,1.16-0.84c1.91-1.48,3.8-2.68,5.67-3.6
		c-1.25-2.67-2.02-4.41-2.31-5.23c-0.97-2.74-0.99-4.34-0.05-4.8c0.56-0.28,1.12-0.29,1.69-0.04
		C232.89,92.46,233.31,92.86,233.58,93.42z"/>
	<path class="st2" d="M242.41,109.04c-0.19-0.53-0.24-1.07-0.14-1.63c0.1-0.56,0.32-1.16,0.66-1.8c0.34-0.64,0.81-1.35,1.39-2.12
		c0.59-0.77,1.28-1.64,2.07-2.63c-0.67,0.09-1.36,0.13-2.07,0.11c-0.71-0.02-1.39-0.14-2.03-0.37c-0.64-0.22-1.23-0.57-1.75-1.04
		c-0.52-0.47-0.93-1.12-1.23-1.95c-0.42-1.15-0.54-2.25-0.37-3.33c0.17-1.07,0.53-2.06,1.09-2.96c0.56-0.9,1.25-1.69,2.09-2.35
		c0.83-0.66,1.71-1.16,2.64-1.5c0.32-0.12,0.66-0.22,1.01-0.3c0.35-0.08,0.62-0.16,0.81-0.23c0.17-0.06,0.32-0.22,0.44-0.46
		c0.12-0.25,0.35-0.43,0.67-0.54c0.38-0.14,0.67-0.15,0.89-0.05c0.22,0.1,0.4,0.24,0.55,0.42c0.35-0.02,0.69,0.02,0.99,0.14
		c0.31,0.11,0.54,0.39,0.7,0.82c0.12,0.32,0.12,0.59,0.03,0.82s-0.37,0.42-0.83,0.59c0.39,1.07,0.82,2.12,1.3,3.12
		c0.48,1.01,0.92,2.05,1.3,3.12c0.07,0.19,0.13,0.37,0.2,0.55c0.07,0.18,0.12,0.38,0.18,0.59c0.51-0.01,0.9,0.07,1.19,0.25
		s0.48,0.41,0.58,0.67c0.18,0.51,0.19,0.91,0.01,1.21c-0.18,0.3-0.46,0.58-0.86,0.85c0.49,1.64,0.83,2.9,1.04,3.8
		c0.21,0.9,0.26,1.49,0.15,1.78c-0.09,0.27-0.25,0.52-0.48,0.75c-0.23,0.23-0.47,0.39-0.74,0.49c-0.45,0.16-0.8,0.23-1.04,0.2
		c-0.25-0.03-0.42-0.2-0.54-0.52c-0.05-0.15-0.07-0.31-0.06-0.47c0.01-0.17,0.03-0.39,0.06-0.68c0.04-0.53,0.01-1.15-0.1-1.87
		s-0.33-1.53-0.66-2.43c-0.07-0.02-0.16-0.01-0.28,0.02c-0.12,0.03-0.36,0.12-0.74,0.25c-0.4,0.14-0.91,0.57-1.55,1.27
		c-0.64,0.7-1.37,1.57-2.19,2.61c-0.87,1.12-1.47,2.09-1.79,2.9c-0.32,0.81-0.47,1.42-0.42,1.83c-0.14,0.31-0.42,0.54-0.84,0.69
		c-0.21,0.07-0.45,0.08-0.72,0C242.74,109.61,242.54,109.39,242.41,109.04z M241.72,96.63c0.26,0.72,0.64,1.23,1.15,1.54
		c0.51,0.31,1.08,0.49,1.72,0.56c0.64,0.07,1.33,0.04,2.08-0.08c0.74-0.12,1.5-0.25,2.25-0.4c0.15-0.05,0.37-0.17,0.64-0.34
		c0.28-0.18,0.64-0.44,1.09-0.79c-0.52-1.37-1.09-2.71-1.71-4.03s-1.27-2.54-1.93-3.66c-0.4,0.08-0.88,0.22-1.44,0.43
		c-0.66,0.24-1.28,0.6-1.86,1.09c-0.58,0.49-1.06,1.04-1.43,1.67c-0.37,0.62-0.62,1.29-0.73,1.99
		C241.42,95.29,241.48,95.97,241.72,96.63z"/>
	<path class="st2" d="M269.49,92.57c-0.09,0.06-0.12,0.14-0.1,0.24c0.01,0.06,0.06,0.13,0.13,0.22c0.07,0.09,0.12,0.16,0.13,0.22
		c0.05,0.21-0.25,0.4-0.92,0.56c-0.14,0.03-0.33,0.06-0.57,0.09c-0.24,0.03-0.43,0.06-0.57,0.09c-0.33,0.08-0.83,0.2-1.51,0.36
		s-1.18,0.28-1.54,0.36c-1.79,0.43-2.77,0.31-2.93-0.36c-0.13-0.56,0.05-0.91,0.56-1.03c0.16-0.04,0.39-0.05,0.71-0.04
		c0.32,0.01,0.56-0.01,0.71-0.05c0.41-0.1,1.02-0.26,1.84-0.5c0.82-0.23,1.43-0.4,1.84-0.5C268.49,91.94,269.23,92.05,269.49,92.57z
		"/>
	<path class="st2" d="M291.73,94.37c0.64-0.08,1,0.25,1.09,0.99c0.04,0.32-0.03,0.63-0.2,0.93c-0.18,0.3-0.4,0.58-0.69,0.83
		c-0.28,0.25-0.59,0.45-0.92,0.61c-0.33,0.16-0.63,0.26-0.89,0.29c-0.75,0.09-1.53,0-2.32-0.29c-0.79-0.29-1.7-0.74-2.73-1.36
		c-0.17-0.1-0.46-0.29-0.84-0.56c-0.39-0.28-0.83-0.6-1.33-0.99c-0.5-0.38-1.03-0.79-1.59-1.23c-0.56-0.44-1.09-0.87-1.58-1.29
		l0.14,1.13c0.11,0.88,0.25,1.64,0.42,2.28s0.34,1.18,0.5,1.62c0.16,0.43,0.31,0.77,0.43,1.01c0.12,0.24,0.18,0.39,0.19,0.45
		c0.03,0.2,0,0.37-0.09,0.51c-0.08,0.14-0.19,0.27-0.3,0.37c-0.12,0.11-0.25,0.19-0.39,0.25c-0.14,0.06-0.27,0.09-0.37,0.11
		c-0.32,0.04-0.64-0.04-0.97-0.25s-0.66-0.66-0.99-1.38c-0.33-0.72-0.65-1.76-0.96-3.12c-0.31-1.37-0.6-3.2-0.89-5.51
		c-0.17-1.37-0.31-2.81-0.42-4.31c-0.11-1.5-0.16-2.98-0.13-4.43c-0.05-0.09-0.09-0.19-0.11-0.29c-0.02-0.1-0.04-0.17-0.04-0.21
		c-0.07-0.56,0.03-0.98,0.3-1.28c0.27-0.29,0.63-0.47,1.09-0.53c0.18-0.02,0.4,0.01,0.68,0.08c0.27,0.08,0.55,0.19,0.83,0.34
		c0.28,0.15,0.52,0.31,0.73,0.5s0.32,0.38,0.34,0.58c0.02,0.18,0,0.33-0.05,0.45c-0.06,0.12-0.19,0.25-0.39,0.4
		c-0.09,0.07-0.15,0.17-0.18,0.28c-0.03,0.11-0.04,0.36-0.03,0.75c0.01,0.58,0.02,1.08,0.02,1.5c0,0.41,0.01,0.81,0.02,1.18
		c0.01,0.37,0.03,0.76,0.05,1.16c0.02,0.4,0.05,0.87,0.1,1.41c0.99-1.45,2.04-2.87,3.13-4.24c1.09-1.38,2.17-2.67,3.23-3.89
		c0.39-0.45,0.73-0.77,1.02-0.97c0.29-0.2,0.65-0.32,1.09-0.38c0.18-0.02,0.42,0,0.73,0.06c0.29,0.23,0.54,0.55,0.74,0.97
		c0.2,0.42,0.32,0.73,0.34,0.93c0.04,0.3-0.03,0.52-0.19,0.67c-0.16,0.15-0.38,0.24-0.66,0.28c-0.24,0.03-0.48-0.01-0.71-0.12
		c-0.17,0.06-0.52,0.37-1.04,0.91c-0.52,0.55-1.12,1.24-1.8,2.08c-0.68,0.84-1.4,1.77-2.16,2.79c-0.75,1.02-1.45,2.03-2.1,3.01
		c0.28,0.33,0.64,0.68,1.07,1.07s0.88,0.76,1.33,1.14s0.91,0.74,1.34,1.08c0.44,0.34,0.82,0.63,1.15,0.87
		c0.96,0.73,1.75,1.26,2.38,1.6c0.63,0.34,1.16,0.48,1.6,0.42c0.26-0.03,0.47-0.11,0.62-0.23c0.16-0.12,0.3-0.25,0.42-0.4
		c0.12-0.15,0.25-0.28,0.39-0.4C291.31,94.47,291.49,94.4,291.73,94.37z"/>
	<path class="st2" d="M309.27,87.16c0.04,2.88-0.63,5.34-2.02,7.37c-1.55,2.29-3.7,3.45-6.47,3.5c-0.78,0.01-1.63-0.12-2.53-0.41
		c-2.01-0.61-3.46-1.7-4.35-3.27c-0.76-1.35-1.16-3.17-1.2-5.45c-0.05-2.96,0.62-5.59,2.01-7.88c1.6-2.69,3.8-4.06,6.61-4.1
		c2.46-0.04,4.45,1.08,5.94,3.36C308.56,82.24,309.23,84.53,309.27,87.16z M306.38,86.93c-0.06-4.17-1.45-6.64-4.14-7.42
		c-0.28-0.08-0.6-0.11-0.96-0.1c-1.12,0.02-2.24,0.54-3.34,1.55c-1.76,1.65-2.61,4.56-2.54,8.73c0.01,0.38,0.09,0.91,0.26,1.59
		c0.36,1.54,0.89,2.64,1.58,3.31c0.79,0.79,1.94,1.17,3.44,1.15c2.04-0.03,3.57-1.05,4.58-3.05
		C306.04,91.11,306.42,89.19,306.38,86.93z"/>
	<path class="st2" d="M329.71,80.59c-0.02,0.18-0.18,0.36-0.48,0.56c-0.3,0.19-0.48,0.34-0.53,0.43c-0.62,0.93-1.05,2.82-1.3,5.7
		l-0.09,1.17c0.06-0.01,0.13-0.02,0.21-0.01c0.3,0.03,0.57,0.23,0.8,0.59c0.24,0.37,0.34,0.71,0.3,1.03
		c-0.02,0.24-0.23,0.39-0.62,0.45c-0.3,0.03-0.61,0.06-0.92,0.09c-0.08,0.94-0.15,1.89-0.23,2.85c-0.08,1.22-0.04,2.14,0.12,2.76
		c0.11,0.51,0.16,0.85,0.14,1.01c-0.04,0.4-0.23,0.75-0.56,1.05s-0.7,0.43-1.1,0.39c-0.76-0.08-1.21-0.52-1.38-1.35
		c-0.02-0.16-0.04-0.87-0.06-2.12c0-0.44,0.04-0.97,0.1-1.59l0.12-1.23c0.06-0.82,0.08-1.49,0.05-2.02
		c-1.16-0.08-2.55-0.04-4.18,0.09c-1.4,0.12-2.79,0.24-4.18,0.37c0.05,0.27-0.01,1.35-0.2,3.24c-0.15,1.51-0.02,2.54,0.39,3.06
		c0.05,0.11,0.07,0.21,0.06,0.31c-0.05,0.52-0.48,0.74-1.27,0.66c-0.74-0.07-1.29-0.36-1.67-0.86c-0.23-0.31-0.27-2.4-0.12-6.29
		c-0.37-0.12-0.65-0.38-0.83-0.78c-0.18-0.4-0.25-0.81-0.21-1.23c0.02-0.24,0.17-0.39,0.44-0.45c0.27-0.06,0.53-0.12,0.77-0.18
		c0.05-0.26,0.13-0.72,0.26-1.39c0.12-0.57,0.19-1.03,0.23-1.37c0.35-3.51,0.77-5.72,1.24-6.64c0.4-0.75,0.98-1.08,1.76-1
		c0.48,0.05,0.91,0.25,1.3,0.6c0.39,0.35,0.56,0.76,0.51,1.21c-0.02,0.24-0.13,0.53-0.33,0.87c-0.27,0.46-0.42,0.72-0.44,0.8
		c-0.71,1.62-1.17,3.59-1.41,5.9c-0.04,0.38-0.06,0.61-0.07,0.69c0.18,0,0.66-0.03,1.43-0.1c2.4-0.24,4.64-0.26,6.71-0.05
		c0.35-2.92,0.62-4.81,0.81-5.66c0.63-2.84,1.46-4.2,2.5-4.1c0.62,0.06,1.1,0.35,1.45,0.86C329.63,79.4,329.77,79.97,329.71,80.59z"
		/>
	<path class="st2" d="M329.78,98.04c0.16-0.17,0.42-0.26,0.78-0.27c0.36-0.01,0.86,0.03,1.5,0.13c0.4-0.34,0.82-0.86,1.25-1.55
		c0.43-0.69,0.86-1.49,1.29-2.38c0.43-0.89,0.86-1.84,1.27-2.86c0.41-1.02,0.79-2.01,1.15-2.99c0.36-0.98,0.69-1.89,0.98-2.74
		c0.29-0.85,0.53-1.57,0.72-2.16c0.2-0.63,0.43-1.13,0.68-1.48c0.25-0.35,0.52-0.62,0.81-0.79c0.28-0.17,0.57-0.26,0.85-0.27
		c0.28-0.01,0.55,0.01,0.8,0.07c0.21,0.05,0.59,0.14,1.14,0.27c0.54,0.13,1.15,0.28,1.81,0.45c0.66,0.17,1.33,0.34,1.99,0.52
		c0.67,0.18,1.23,0.34,1.69,0.48c0.63,0.2,1,0.49,1.1,0.86c0.1,0.37,0.12,0.7,0.06,1c-0.04,0.16-0.13,0.32-0.28,0.51
		c-0.15,0.18-0.37,0.33-0.64,0.46c-0.5,1.49-0.96,2.97-1.4,4.43c-0.44,1.46-0.85,3.06-1.23,4.78c-0.21,0.94-0.39,1.88-0.55,2.82
		c-0.16,0.94-0.25,1.87-0.29,2.78c0.79,0.22,1.29,0.44,1.48,0.67c0.2,0.23,0.28,0.55,0.25,0.98c-0.04,0.36-0.09,0.73-0.15,1.1
		c-0.06,0.38-0.13,0.71-0.19,1c-0.09,0.43-0.2,0.77-0.3,1.01c-0.11,0.24-0.23,0.42-0.38,0.53c-0.15,0.11-0.31,0.17-0.48,0.17
		c-0.17,0-0.38-0.02-0.61-0.07c-0.1-0.02-0.22-0.08-0.37-0.16c-0.15-0.08-0.28-0.19-0.41-0.31c-0.13-0.12-0.23-0.26-0.32-0.43
		c-0.09-0.16-0.12-0.33-0.1-0.51c0.05-0.13,0.09-0.27,0.13-0.4c0.04-0.13,0.08-0.28,0.11-0.44c0.02-0.08,0.03-0.16,0.05-0.23
		c0.02-0.08,0.02-0.16,0.02-0.24c-0.29-0.08-0.6-0.16-0.93-0.24s-0.71-0.16-1.14-0.25c-0.72-0.16-1.56-0.33-2.5-0.51
		c-0.95-0.18-1.89-0.34-2.85-0.49c-0.95-0.15-1.85-0.28-2.7-0.4c-0.85-0.12-1.53-0.19-2.06-0.23c-0.06,0.25-0.1,0.55-0.12,0.88
		c-0.02,0.33-0.04,0.67-0.06,1.02c-0.14,0.28-0.4,0.47-0.78,0.58c-0.37,0.11-0.75,0.13-1.12,0.04c-0.47-0.1-0.8-0.31-1-0.62
		c0-0.35,0.02-0.78,0.07-1.29c0.05-0.51,0.13-1.02,0.25-1.53c0.08-0.35,0.18-0.68,0.29-0.98C329.48,98.44,329.62,98.21,329.78,98.04
		z M335.36,98.26c1.13,0.19,2.31,0.4,3.55,0.63c1.24,0.23,2.39,0.46,3.45,0.67c0.07-1.15,0.2-2.3,0.37-3.43
		c0.18-1.13,0.4-2.28,0.66-3.46c0.16-0.74,0.32-1.44,0.48-2.08c0.15-0.64,0.31-1.28,0.47-1.9c0.16-0.62,0.33-1.26,0.5-1.91
		c0.17-0.65,0.37-1.35,0.57-2.1c-0.14-0.03-0.33-0.07-0.57-0.13c-0.25-0.05-0.5-0.12-0.76-0.18c-0.26-0.07-0.52-0.13-0.76-0.18
		c-0.25-0.05-0.44-0.1-0.57-0.13c-0.39-0.09-0.7-0.11-0.92-0.08c-0.22,0.03-0.38,0.18-0.48,0.45c-0.6,1.69-1.15,3.24-1.66,4.64
		c-0.5,1.4-0.99,2.66-1.46,3.8c-0.47,1.14-0.93,2.15-1.4,3.03C336.38,96.79,335.88,97.57,335.36,98.26z"/>
	<path class="st2" d="M349.95,99.43c0.43-1.25,0.86-2.53,1.32-3.82c0.45-1.3,0.89-2.53,1.32-3.69c0.43-1.17,0.83-2.23,1.22-3.21
		c0.38-0.97,0.72-1.75,1.01-2.35c0.08-0.17,0.22-0.32,0.42-0.46c0.21-0.14,0.44-0.26,0.7-0.37c0.26-0.1,0.51-0.18,0.76-0.22
		c0.25-0.04,0.46-0.04,0.63,0.02c0.11,0.04,0.25,0.13,0.41,0.28c0.16,0.15,0.3,0.32,0.43,0.51c0.12,0.19,0.22,0.38,0.3,0.58
		s0.08,0.36,0.04,0.49c-0.05,0.15-0.12,0.26-0.21,0.33s-0.18,0.16-0.28,0.27c-0.19,0.23-0.5,0.77-0.96,1.6
		c-0.45,0.83-0.96,1.83-1.52,3.01c-0.56,1.17-1.14,2.47-1.74,3.88c-0.6,1.42-1.14,2.83-1.61,4.23c-0.14,0.4-0.13,0.62,0.02,0.67
		c0.17,0.06,0.49-0.12,0.96-0.54c0.47-0.42,1.02-0.98,1.64-1.66c0.62-0.69,1.29-1.45,1.99-2.29s1.36-1.65,1.99-2.43
		c0.62-0.78,1.18-1.48,1.65-2.1c0.48-0.62,0.8-1.05,0.96-1.29c0.46-0.78,0.84-1.38,1.17-1.81c0.33-0.43,0.63-0.73,0.91-0.9
		c0.28-0.17,0.57-0.24,0.87-0.21c0.3,0.03,0.64,0.1,1.01,0.23c0.67,0.23,1.1,0.5,1.31,0.83c0.21,0.33,0.24,0.7,0.1,1.11l-0.23,0.3
		c-0.54,1.21-1.02,2.33-1.45,3.36c-0.42,1.03-0.82,2-1.18,2.92c-0.36,0.91-0.7,1.79-1,2.65s-0.59,1.7-0.89,2.56
		c-0.86,2.52-1.12,4.33-0.79,5.41c-0.38,0.19-0.73,0.3-1.04,0.35c-0.31,0.04-0.55,0.03-0.72-0.02c-0.53-0.18-0.88-0.52-1.04-1
		c-0.16-0.49-0.21-1.05-0.14-1.7c0.07-0.64,0.21-1.32,0.43-2.04c0.21-0.72,0.43-1.41,0.66-2.08c0.15-0.46,0.34-0.96,0.54-1.5
		s0.42-1.1,0.65-1.67c0.23-0.57,0.45-1.13,0.67-1.69c0.22-0.56,0.43-1.07,0.63-1.53c-1.91,2.31-3.44,4.11-4.58,5.38
		s-2.01,2.18-2.59,2.72c-0.78,0.69-1.53,1.17-2.24,1.46c-0.71,0.29-1.31,0.35-1.81,0.18c-0.59-0.2-0.97-0.71-1.14-1.51
		S349.5,100.76,349.95,99.43z"/>
	<path class="st2" d="M383.12,97.75c-0.14,0.31-0.36,0.54-0.65,0.68c-0.29,0.14-0.59,0.14-0.88,0.01c-0.16-0.07-0.44-0.29-0.81-0.65
		c-0.38-0.36-0.71-0.6-1-0.74c-0.79-0.36-1.42-0.64-1.89-0.86c-0.27-0.12-0.43-0.17-0.48-0.14c-0.05,0.03-0.16,0.2-0.34,0.49
		c-0.28,0.42-0.7,1.06-1.26,1.9c-1.48,2.32-2.92,5.04-4.34,8.16c-0.96,2.12-1.38,3.68-1.24,4.69l-0.33,0.74
		c-0.43,0.02-0.75-0.01-0.95-0.1c-1.17-0.53-1.67-1.44-1.5-2.73c0.08-0.62,0.48-1.71,1.19-3.26c0.82-1.8,1.5-3.19,2.03-4.16
		c0.22-0.43,0.8-1.43,1.74-3.01c0.73-1.23,1.29-2.24,1.65-3.04l0.36-0.79c-0.26-0.1-0.79-0.26-1.57-0.49
		c-0.65-0.18-1.16-0.36-1.55-0.54c-1.27-0.58-1.73-1.24-1.39-1.99c0.14-0.31,0.32-0.45,0.52-0.42c0.46-0.28,2.05,0.03,4.77,0.92
		c2.1,0.7,3.78,1.33,5.02,1.89c0.88,0.4,1.59,0.86,2.15,1.38C383.15,96.42,383.41,97.11,383.12,97.75z"/>
	<path class="st2" d="M389.85,120.01c-0.17,0.29-0.38,0.51-0.63,0.66c-0.32,0.2-0.62,0.22-0.88,0.07c-0.07-0.04-0.16-0.11-0.28-0.21
		c-0.11-0.1-0.21-0.17-0.28-0.21c-0.75-0.43-1.96-0.83-3.63-1.2c-1.67-0.37-2.88-0.77-3.63-1.2c-2.79-1.62-2.96-4.54-0.5-8.77
		c1.93-3.33,3.55-5.91,4.85-7.75c0.17-0.25,0.26-0.38,0.27-0.4c0.07-0.12,0.16-0.31,0.26-0.56c0.1-0.25,0.18-0.43,0.24-0.54
		c0.46-0.8,1.17-1.01,2.11-0.65c1.48,0.53,2.96,1.06,4.44,1.57c1.94,0.69,3.34,1.28,4.21,1.79c0.5,0.29,0.89,0.64,1.17,1.03
		c0.38,0.54,0.44,1.03,0.19,1.47c-0.37,0.64-0.98,0.71-1.83,0.22c-0.1-0.06-0.26-0.17-0.46-0.32c-0.2-0.15-0.35-0.26-0.46-0.32
		c-1.4-0.82-3.5-1.62-6.29-2.4c-0.15-0.06-0.29-0.11-0.44-0.15c-0.14-0.04-0.3,0.04-0.49,0.24c-0.67,0.72-1.71,2.29-3.12,4.72
		c-0.21,0.36-0.15,0.64,0.18,0.83c0.45,0.26,1.17,0.53,2.15,0.79c0.98,0.27,1.69,0.53,2.15,0.79c0.5,0.29,0.99,0.78,1.47,1.48
		c-0.15,0.66-0.26,1.04-0.33,1.17c-0.25,0.43-0.52,0.59-0.8,0.48c-0.28-0.12-0.58-0.24-0.89-0.38c-0.09-0.17-0.25-0.32-0.5-0.46
		c-0.61-0.35-1.38-0.7-2.32-1.04c-0.8-0.26-1.61-0.53-2.41-0.81c-0.11-0.04-0.22-0.08-0.3-0.11c-0.09-0.03-0.21,0.04-0.35,0.21
		c-0.22,0.29-0.38,0.53-0.49,0.72c-0.77,1.33-1.21,2.15-1.31,2.44c-0.41,1.11-0.23,1.88,0.55,2.34c0.66,0.38,1.74,0.74,3.23,1.08
		c1.5,0.34,2.62,0.72,3.36,1.15C389.27,118.47,389.86,119.21,389.85,120.01z"/>
	<path class="st2" d="M409.3,121.34c-0.26,0.36-0.51,0.65-0.76,0.89c-3.35,3.29-6.49,3.87-9.41,1.75c-1.49-1.08-2.55-2.44-3.18-4.06
		l-0.37,0.51c-0.81,1.07-1.25,1.89-1.33,2.45c-0.1,0.79-0.19,1.23-0.24,1.31c-0.24,0.32-0.57,0.52-1,0.58
		c-0.43,0.06-0.8-0.03-1.13-0.26c-0.73-0.53-1.04-1.15-0.92-1.86c0.08-0.41,0.4-1.06,0.96-1.94c0.37-0.57,0.81-1.22,1.33-1.93
		c0.2-0.28,0.54-0.66,1.01-1.16c0.47-0.5,0.81-0.89,1.03-1.19l1.2-1.65c0.34-0.5,0.89-1.19,1.66-2.08c0.77-0.89,1.32-1.56,1.65-2.02
		l1.59-2.19c0.02-0.03,0.27-0.52,0.73-1.47c0.7-0.09,1.24,0,1.61,0.27c0.43,0.31,0.66,0.72,0.69,1.23c0.03,0.5-0.12,0.98-0.45,1.44
		c-0.08,0.11-0.17,0.23-0.25,0.34c2.09-0.63,3.96-0.36,5.6,0.83c1.54,1.12,2.34,2.58,2.39,4.38c0.04,1.62-0.52,3.22-1.67,4.81
		c-0.08,0.11-0.21,0.28-0.37,0.51C409.51,121.06,409.39,121.23,409.3,121.34z M407.37,119.34c0.81-1.12,1.34-2.2,1.57-3.24
		c0.31-1.41-0.03-2.47-1-3.18c-1.25-0.91-2.87-0.92-4.87-0.04c-1.76,0.75-3.13,1.8-4.11,3.15c-1.64,2.25-1.32,4.2,0.95,5.85
		c1.21,0.88,2.49,1,3.82,0.36c0.75-0.35,1.83-1.19,3.24-2.51C407.25,119.46,407.38,119.33,407.37,119.34z"/>
	<path class="st2" d="M417.6,138.62c-0.25,0.28-0.63,0.56-1.14,0.82c-1.25,0.65-2.65,0.79-4.18,0.43c-1.39-0.34-2.65-1.01-3.77-2.01
		c-1.83-1.65-2.62-3.6-2.36-5.87c0.23-1.97,1.21-3.91,2.92-5.81c1.42-1.58,2.99-2.84,4.73-3.78c1.97-1.08,3.89-1.59,5.77-1.52
		c1.48,0.06,2.66,0.49,3.54,1.28c1.27,1.14,1.73,2.55,1.4,4.25c-0.27,1.38-1.01,2.74-2.23,4.1c-0.55,0.61-1.39,1.24-2.54,1.88
		c-1.39,0.8-2.32,0.99-2.78,0.57c-0.52-0.47-0.62-1.15-0.3-2.05c0.24,0.03,0.61,0.05,1.09,0.05c0.59-0.06,1.32-0.57,2.17-1.52
		c0.83-0.92,1.43-1.79,1.82-2.61c0.57-1.24,0.52-2.16-0.17-2.78c-0.48-0.43-1.27-0.59-2.39-0.49c-0.85,0.07-1.67,0.26-2.48,0.56
		c-2.01,0.77-3.98,2.22-5.89,4.35c-2.78,3.1-3.01,5.69-0.68,7.78c1,0.9,2.04,1.32,3.13,1.28c0.46-0.04,1.29-0.25,2.47-0.63
		c0.83-0.3,1.43-0.28,1.78,0.04c0.24,0.21,0.36,0.5,0.38,0.84C417.89,138.11,417.8,138.39,417.6,138.62z"/>
	<path class="st2" d="M427.79,152c0.43,0.47,0.37,0.96-0.17,1.46c-0.24,0.22-0.53,0.34-0.88,0.37c-0.35,0.03-0.71,0.01-1.07-0.08
		c-0.37-0.09-0.71-0.22-1.04-0.4c-0.33-0.18-0.58-0.36-0.75-0.56c-0.51-0.56-0.88-1.25-1.11-2.06c-0.22-0.81-0.38-1.81-0.47-3.01
		c-0.02-0.2-0.03-0.54-0.03-1.01c0-0.47,0.01-1.03,0.03-1.66c0.02-0.63,0.05-1.3,0.08-2.01c0.03-0.71,0.08-1.39,0.14-2.04
		l-0.84,0.77c-0.65,0.59-1.19,1.15-1.62,1.66c-0.43,0.51-0.77,0.96-1.03,1.35c-0.26,0.38-0.45,0.7-0.57,0.93
		c-0.12,0.24-0.21,0.37-0.25,0.41c-0.15,0.13-0.3,0.21-0.47,0.22c-0.16,0.01-0.32,0-0.48-0.03c-0.15-0.04-0.3-0.1-0.43-0.18
		c-0.13-0.08-0.23-0.16-0.3-0.24c-0.22-0.24-0.34-0.55-0.36-0.93c-0.03-0.38,0.16-0.92,0.55-1.6c0.39-0.68,1.06-1.55,1.99-2.59
		c0.93-1.04,2.26-2.34,3.98-3.91c1.02-0.93,2.11-1.88,3.27-2.84c1.16-0.96,2.34-1.85,3.54-2.68c0.05-0.1,0.1-0.18,0.17-0.26
		c0.07-0.08,0.12-0.13,0.15-0.15c0.42-0.38,0.82-0.54,1.21-0.5s0.75,0.24,1.06,0.58c0.12,0.13,0.23,0.33,0.32,0.6
		c0.09,0.27,0.16,0.56,0.21,0.87c0.04,0.31,0.04,0.61,0.01,0.88c-0.03,0.28-0.12,0.48-0.27,0.62c-0.13,0.12-0.27,0.19-0.39,0.22
		c-0.13,0.02-0.31-0.01-0.55-0.09c-0.11-0.03-0.22-0.03-0.33,0.02c-0.11,0.04-0.32,0.18-0.62,0.41c-0.47,0.35-0.87,0.64-1.21,0.88
		c-0.34,0.24-0.65,0.47-0.95,0.7c-0.29,0.23-0.6,0.47-0.92,0.71c-0.32,0.25-0.68,0.55-1.09,0.9c1.76-0.03,3.52,0,5.27,0.09
		s3.44,0.22,5.04,0.38c0.59,0.05,1.05,0.14,1.38,0.27c0.33,0.12,0.64,0.34,0.94,0.67c0.12,0.13,0.25,0.34,0.38,0.63
		c-0.02,0.37-0.14,0.76-0.36,1.16c-0.23,0.41-0.41,0.68-0.56,0.81c-0.22,0.2-0.44,0.28-0.66,0.24c-0.22-0.04-0.42-0.17-0.61-0.38
		c-0.16-0.18-0.26-0.4-0.31-0.65c-0.15-0.11-0.6-0.21-1.35-0.32s-1.66-0.19-2.74-0.27s-2.26-0.12-3.53-0.14
		c-1.27-0.02-2.49-0.01-3.67,0.03c-0.1,0.42-0.19,0.92-0.25,1.49c-0.06,0.57-0.11,1.15-0.16,1.75c-0.04,0.59-0.08,1.17-0.1,1.72
		c-0.03,0.55-0.04,1.03-0.05,1.44c-0.04,1.2-0.02,2.16,0.07,2.86s0.28,1.22,0.58,1.55c0.17,0.19,0.36,0.32,0.55,0.38
		c0.19,0.06,0.38,0.1,0.57,0.11c0.19,0.02,0.37,0.05,0.55,0.09C427.46,151.71,427.63,151.82,427.79,152z"/>
	<path class="st2" d="M439.52,164.39c-0.77,0.57-1.42,0.52-1.95-0.17c-0.31,0.35-0.68,0.9-1.11,1.64c-0.37,0.24-0.76,0.31-1.19,0.21
		c-0.43-0.11-0.78-0.35-1.05-0.72c-0.21-0.29-0.37-0.69-0.48-1.21c0.27-0.52,0.69-0.99,1.27-1.42c0.15-0.11,0.36-0.25,0.65-0.44
		c0.29-0.19,0.49-0.33,0.62-0.42c-0.11,0.08-0.37-0.14-0.76-0.67c-0.67-0.9-1.5-1.95-2.49-3.13c-1.41-1.7-2.25-2.57-2.54-2.59
		c-0.29-0.02-1.23,0.51-2.81,1.61c-0.46,0.02-0.81-0.14-1.05-0.46c-0.25-0.34-0.36-0.79-0.34-1.35c0.02-0.56,0.19-0.96,0.51-1.2
		c0.11-0.08,0.67-0.27,1.68-0.56c1.38-0.52,3.49-1.26,6.31-2.23c7.51-2.2,11.8-2.59,12.86-1.15c1.03,1.4,0.27,3.64-2.3,6.7
		c-1.15,1.37-3.08,3.27-5.76,5.71c0.21,0.49,0.33,0.82,0.35,0.98C439.96,163.87,439.83,164.17,439.52,164.39z M437.94,160.33
		c5.11-4.86,7.45-7.57,7.04-8.13c-0.33-0.45-2.24-0.27-5.71,0.55c-2.5,0.6-4.62,1.18-6.37,1.75c0.49,0.43,1.19,1.1,2.11,2
		C435.79,157.33,436.77,158.61,437.94,160.33z"/>
	<path class="st2" d="M436.32,167.95c0.48-0.28,1.01-0.43,1.57-0.43c0.57,0,1.2,0.1,1.89,0.32c0.7,0.22,1.47,0.55,2.33,0.99
		c0.86,0.44,1.85,0.96,2.96,1.56c-0.21-0.64-0.37-1.31-0.48-2.02c-0.11-0.7-0.11-1.39-0.01-2.07c0.1-0.68,0.34-1.31,0.71-1.91
		c0.37-0.6,0.93-1.12,1.69-1.56c1.05-0.61,2.12-0.94,3.2-0.96c1.08-0.03,2.12,0.15,3.11,0.54c0.99,0.39,1.88,0.93,2.69,1.63
		c0.8,0.7,1.45,1.48,1.95,2.33c0.17,0.29,0.33,0.61,0.48,0.94c0.15,0.33,0.27,0.58,0.37,0.76c0.09,0.16,0.27,0.27,0.54,0.35
		c0.27,0.08,0.48,0.26,0.66,0.56c0.2,0.35,0.27,0.64,0.21,0.87c-0.06,0.23-0.17,0.44-0.32,0.62c0.08,0.34,0.1,0.68,0.04,1
		c-0.05,0.32-0.28,0.6-0.68,0.83c-0.29,0.17-0.56,0.23-0.8,0.17c-0.24-0.06-0.48-0.29-0.73-0.71c-0.99,0.57-1.93,1.19-2.84,1.85
		c-0.9,0.65-1.85,1.27-2.84,1.85c-0.17,0.1-0.34,0.2-0.51,0.29s-0.35,0.19-0.55,0.28c0.1,0.5,0.09,0.9-0.04,1.22
		c-0.13,0.32-0.31,0.55-0.56,0.69c-0.47,0.27-0.86,0.35-1.19,0.22c-0.33-0.12-0.66-0.35-0.99-0.69c-1.52,0.77-2.7,1.34-3.55,1.7
		c-0.84,0.36-1.42,0.52-1.73,0.47c-0.28-0.04-0.56-0.16-0.82-0.34c-0.27-0.18-0.47-0.39-0.61-0.63c-0.24-0.42-0.37-0.75-0.39-0.99
		s0.12-0.45,0.42-0.63c0.14-0.08,0.29-0.13,0.46-0.14c0.17-0.02,0.39-0.04,0.68-0.06c0.53-0.05,1.13-0.2,1.82-0.43
		c0.68-0.24,1.44-0.6,2.27-1.08c0-0.07-0.02-0.16-0.07-0.27c-0.05-0.11-0.18-0.34-0.38-0.68c-0.21-0.36-0.72-0.8-1.52-1.3
		c-0.81-0.5-1.79-1.07-2.96-1.68c-1.26-0.66-2.32-1.07-3.18-1.24c-0.86-0.17-1.48-0.2-1.88-0.09c-0.33-0.09-0.6-0.32-0.83-0.7
		c-0.11-0.19-0.16-0.43-0.13-0.71C435.81,168.38,435.99,168.14,436.32,167.95z M448.4,165.05c-0.66,0.38-1.09,0.85-1.3,1.4
		c-0.21,0.55-0.29,1.15-0.24,1.79c0.05,0.64,0.2,1.32,0.45,2.03c0.25,0.71,0.52,1.43,0.8,2.14c0.08,0.14,0.23,0.33,0.46,0.57
		c0.22,0.24,0.55,0.55,0.97,0.93c1.25-0.75,2.47-1.56,3.66-2.41s2.27-1.71,3.26-2.56c-0.15-0.38-0.38-0.82-0.68-1.34
		c-0.35-0.61-0.82-1.15-1.4-1.63c-0.58-0.48-1.22-0.85-1.9-1.1c-0.68-0.25-1.38-0.37-2.09-0.36
		C449.66,164.51,449,164.69,448.4,165.05z"/>
</g>
<path class="st3" d="M135.86,230.13c-0.42,4.35-0.79,8.68-1.14,12.99c-0.34,4.31-0.66,8.58-0.93,12.78
	c1.17-0.14,2.29-0.22,3.37-0.26c1.07-0.03,2.26-0.05,3.57-0.05c1.59,0,3.45,0.07,5.59,0.21c2.14,0.14,4.37,0.42,6.68,0.83
	c2.31,0.42,4.58,1.01,6.78,1.77c2.21,0.76,4.19,1.75,5.96,2.97s3.18,2.69,4.25,4.43c1.07,1.74,1.61,3.82,1.61,6.25
	c0,2.99-0.81,5.61-2.43,7.86c-1.62,2.26-3.68,4.15-6.16,5.68c-2.49,1.53-5.21,2.69-8.18,3.49s-5.8,1.2-8.49,1.2
	c-1.79,0-3.71-0.17-5.75-0.52c-2.04-0.34-4.4-0.86-7.09-1.56c0,0.35,0.02,0.67,0.05,0.99c0.03,0.31,0.12,0.78,0.26,1.4
	c-0.14,0.42-0.43,0.78-0.88,1.09c-0.45,0.31-1.09,0.47-1.92,0.47c-1.52,0-2.32-0.83-2.39-2.49c-0.14-1.8-0.36-2.94-0.67-3.43
	c-0.31-0.48-0.99-0.93-2.02-1.35c-0.97-0.42-1.45-1.04-1.45-1.87c0-0.48,0.16-0.85,0.47-1.09c0.31-0.24,0.66-0.43,1.04-0.57
	c0.38-0.14,0.73-0.24,1.04-0.31c0.31-0.07,0.5-0.21,0.57-0.42c0-6.44,0.1-13.19,0.31-20.25c-1.45-0.48-2.18-1.14-2.18-1.97
	c0-1.04,0.66-1.9,1.97-2.6c0.28-5.26,0.5-9.79,0.67-13.6c0.17-3.81,0.4-7.37,0.67-10.69c0-0.55-0.09-1.26-0.26-2.13
	c-0.17-0.87-0.26-1.47-0.26-1.82c0-1.66,1.14-2.6,3.42-2.8c1.31-0.14,3.09-0.47,5.33-0.99c2.24-0.52,5.33-1.16,9.27-1.92
	c3.73-0.76,6.73-1.3,9.01-1.61c2.28-0.31,4.18-0.47,5.7-0.47c0.48,0,1.07,0.05,1.76,0.16c0.69,0.1,1.36,0.28,2.02,0.52
	c0.66,0.24,1.23,0.57,1.71,0.98c0.48,0.42,0.72,0.97,0.72,1.66c0,0.76-0.45,1.26-1.35,1.5c-0.9,0.24-2.17,0.41-3.83,0.52
	c-1.66,0.1-3.68,0.19-6.06,0.26c-2.38,0.07-5.06,0.31-8.03,0.72c-3.52,0.48-6.25,1.1-8.18,1.86
	C138.07,228.71,136.69,229.43,135.86,230.13z M166.09,271.48c0-1.45-0.4-2.87-1.19-4.26c-0.8-1.38-2.18-2.63-4.15-3.74
	c-1.97-1.11-4.6-1.99-7.89-2.65c-3.29-0.66-7.42-0.99-12.41-0.99c-2.91,0-5.23,0.21-6.96,0.62c-0.21,3.46-0.31,6.96-0.31,10.49
	c0,4.08,0.1,8.13,0.31,12.15c1.66,0.97,3.49,1.7,5.5,2.18c2.01,0.49,4.39,0.73,7.16,0.73c2.35,0,4.71-0.4,7.06-1.19
	c2.35-0.79,4.48-1.87,6.38-3.22c1.9-1.35,3.46-2.89,4.67-4.62C165.49,275.25,166.09,273.42,166.09,271.48z"/>
<path class="st3" d="M210.74,249.88c-0.58,3.05-1.12,6.09-1.62,9.14c-0.65,3.25-0.97,6.3-0.97,9.14v32.5c0,4.64-1.4,8.32-4.21,11.06
	c-2.8,2.73-6.56,4.1-11.27,4.1c-2.56,0-5.43-0.69-8.62-2.08c-3.67-1.52-6.2-3.43-7.58-5.71c-0.35-0.62-0.52-1.25-0.52-1.87
	c0-2.01,0.97-3.01,2.91-3.01c0.42,0,0.87,0.14,1.35,0.42c1.18,1.25,2.35,2.46,3.53,3.63c2.35,2.14,5.33,3.22,8.93,3.22
	c4.57,0,7.61-1.59,9.14-4.78c0.9-2.01,1.35-5.64,1.35-10.9c0-0.69-0.14-2.08-0.42-4.15c-0.28-1.73-0.35-3.25-0.21-4.57
	c-1.94,1.8-3.32,2.94-4.15,3.43c-1.52,0.97-3.18,1.45-4.98,1.45c-4.71,0-8.27-1.83-10.69-5.5c-2.15-3.18-3.22-7.23-3.22-12.15
	c0-9.34,0.14-17.23,0.42-23.67c0.28-2.21,1.49-3.32,3.63-3.32c2.63,0,3.81,0.45,3.53,1.35c-1.32,3.6-1.97,11.66-1.97,24.19
	c0,9.69,2.75,14.54,8.26,14.54c3.37,0,6.06-2.6,8.05-7.79c1.51-4.01,2.24-8.06,2.17-12.15v-11.84c0.07-1.18,0.16-2.66,0.26-4.46
	c0.1-1.8,1.23-2.63,3.38-2.49C209.7,247.81,210.87,248.57,210.74,249.88z"/>
<path class="st3" d="M226.93,250.61c0-0.55,0.14-1.02,0.42-1.4c0.28-0.38,0.87-0.71,1.77-0.99c0.9-0.28,1.59-0.54,2.08-0.78
	c0.48-0.24,0.9-0.47,1.25-0.67c0.35-0.21,0.66-0.36,0.93-0.47c0.28-0.1,0.62-0.16,1.04-0.16c0.35,0,0.71,0.04,1.09,0.1
	c0.38,0.07,0.67,0.1,0.88,0.1c0.07,0,0.43-0.03,1.09-0.1c0.66-0.07,1.45-0.16,2.39-0.26c0.93-0.1,1.96-0.21,3.06-0.31
	c1.11-0.1,2.18-0.22,3.22-0.36c0.62-0.07,1.35-0.16,2.18-0.26c0.83-0.1,1.63-0.21,2.39-0.31c0.76-0.1,1.44-0.19,2.03-0.26
	c0.59-0.07,0.99-0.1,1.19-0.1c0.62,0,1.38,0.38,2.28,1.14c0.9,0.76,1.35,1.45,1.35,2.08c0,0.35-0.07,0.57-0.21,0.67
	c-0.14,0.1-0.31,0.26-0.52,0.47c-0.21,0.21-0.4,0.55-0.57,1.04c-0.17,0.48-0.33,1.28-0.47,2.39c-0.55,4.64-0.95,9.08-1.19,13.34
	c-0.24,4.26-0.36,8.29-0.36,12.09c0,3.32,0.24,5.99,0.73,8c0.48,2.01,1.11,3.57,1.87,4.67c-0.62,0.83-1.56,1.25-2.8,1.25
	c-1.04,0-1.92-0.16-2.65-0.47c-0.73-0.31-1.32-0.92-1.77-1.82c-0.45-0.9-0.78-2.2-0.99-3.89c-0.21-1.7-0.31-3.93-0.31-6.7
	c0-2.91,0.07-5.55,0.21-7.94c0.14-2.39,0.29-4.67,0.47-6.85c0.17-2.18,0.35-4.29,0.52-6.33c0.17-2.04,0.33-4.13,0.47-6.28
	c0-0.48-0.17-0.73-0.52-0.73c-1.11,0-2.39,0.07-3.84,0.21s-2.84,0.31-4.15,0.52c-1.32,0.21-2.42,0.43-3.32,0.67
	c-0.9,0.24-1.35,0.47-1.35,0.67c0.07,1.8,0.12,3.62,0.16,5.45c0.03,1.83,0.05,3.69,0.05,5.55c0,1.66-0.04,3.44-0.1,5.35
	c-0.07,1.9-0.21,3.83-0.42,5.76c-0.21,1.94-0.47,3.84-0.78,5.71s-0.71,3.6-1.19,5.19c-0.97,3.18-2.28,5.35-3.95,6.49
	c-1.66,1.14-3.6,1.71-5.81,1.71c-0.97,0-2.08-0.16-3.32-0.47c-1.25-0.31-2.41-0.81-3.48-1.5c-1.07-0.69-1.97-1.59-2.7-2.7
	c-0.73-1.11-1.09-2.46-1.09-4.05c0-1.87,0.79-2.8,2.39-2.8c1.11,0,1.89,0.45,2.34,1.35c0.45,0.9,0.86,1.9,1.25,3.01
	c0.38,1.11,0.85,2.11,1.4,3.01c0.55,0.9,1.45,1.35,2.7,1.35c1.11,0,2.11-0.47,3.01-1.4c0.9-0.93,1.66-2.44,2.28-4.52
	c0.62-2.08,1.11-4.74,1.45-7.99c0.35-3.25,0.52-7.2,0.52-11.84c0-1.73,0-3.46,0-5.19c0-1.73-0.04-3.46-0.1-5.19
	c0-0.48-0.12-0.76-0.36-0.83c-0.24-0.07-0.5-0.1-0.78-0.1c-0.21,0-0.4,0.04-0.57,0.1c-0.17,0.07-0.43,0.1-0.78,0.1
	c-0.55,0-1.02-0.4-1.4-1.19C227.12,252.15,226.93,251.37,226.93,250.61z"/>
<path class="st3" d="M282.58,229.74c0-0.69,0.17-1.26,0.52-1.71c0.34-0.45,1.04-0.85,2.08-1.19c1.45-0.48,2.46-0.76,3.01-0.83
	c0.55-0.07,1.04-0.28,1.45-0.62c0.28-2.14,1.21-3.22,2.8-3.22c0.42,0,1.05,0.31,1.92,0.93c0.86,0.62,1.51,0.93,1.92,0.93
	c0.14,0,0.69-0.03,1.66-0.1c0.97-0.07,2.16-0.19,3.58-0.36c1.42-0.17,2.97-0.36,4.67-0.57c1.7-0.21,3.37-0.42,5.04-0.62
	c0.9-0.07,1.97-0.19,3.22-0.36c1.25-0.17,2.46-0.33,3.63-0.47c1.18-0.14,2.21-0.26,3.12-0.36c0.9-0.1,1.52-0.16,1.87-0.16
	c0.42,0,0.88,0.1,1.4,0.31c0.52,0.21,1,0.49,1.45,0.83c0.45,0.35,0.85,0.71,1.19,1.09c0.35,0.38,0.52,0.78,0.52,1.19
	c0,0.97-0.52,1.56-1.56,1.76c-0.14,0.35-0.24,0.95-0.31,1.82c-0.07,0.87-0.17,1.96-0.31,3.27c-0.76,7.13-1.33,13.95-1.71,20.45
	c-0.38,6.51-0.57,12.81-0.57,18.9c0,9.97,1.04,16.44,3.12,19.42c-1.32,0.9-2.35,1.35-3.12,1.35c-2.98,0-4.78-2.42-5.4-7.27
	c-0.55-4.01-0.9-7.23-1.04-9.66c-0.14-2.42-0.21-4.71-0.21-6.85c0-6.5,0.07-13.12,0.21-19.83c0.14-6.71,0.38-13.43,0.73-20.14
	c0-0.55-0.14-0.88-0.41-0.99c-0.28-0.1-0.69-0.16-1.25-0.16c-1.94,0.21-4.05,0.49-6.33,0.83c-2.28,0.35-4.43,0.73-6.44,1.14
	c-2.01,0.42-3.69,0.83-5.04,1.25c-1.35,0.42-2.02,0.83-2.02,1.25v4.78c0,10.31-0.35,19.02-1.04,26.11
	c-0.69,7.1-1.75,12.87-3.17,17.34c-1.42,4.46-3.24,7.68-5.45,9.66c-2.22,1.97-4.88,2.96-7.99,2.96c-1.18,0-2.44-0.12-3.79-0.36
	c-1.35-0.24-2.67-0.66-3.95-1.25c-1.28-0.59-2.48-1.38-3.58-2.39c-1.11-1-2.01-2.3-2.7-3.89c-0.83-1.87-1.25-3.43-1.25-4.67
	c0-1.11,0.24-1.96,0.73-2.54c0.48-0.59,1.07-0.88,1.76-0.88c0.97,0,1.94,0.55,2.91,1.66c0.97,1.11,1.66,2.77,2.08,4.98
	c0.14,0.83,0.47,1.51,0.99,2.02c0.52,0.52,1.12,0.92,1.82,1.19c0.69,0.28,1.42,0.47,2.18,0.57c0.76,0.1,1.49,0.16,2.18,0.16
	c7.75,0,11.63-11.49,11.63-34.47v-19.83c-0.9,0.14-1.71,0.42-2.44,0.83c-0.73,0.42-1.26,0.62-1.61,0.62c-0.83,0-1.49-0.43-1.97-1.3
	C282.82,231.42,282.58,230.57,282.58,229.74z"/>
<path class="st3" d="M364.5,293.59c0,0.97-0.76,1.45-2.29,1.45c-1.66,0-2.66-0.69-3.01-2.08c-0.07-0.21-0.1-1.56-0.1-4.05
	c0-0.69-0.1-1.25-0.31-1.66c-3.88,2.84-8.06,4.26-12.56,4.26c-3.12,0-6.12-0.87-9.03-2.6c-3.32-1.94-4.98-4.36-4.98-7.27
	c0-2.84,1.97-5.61,5.92-8.31c3.6-2.49,6.92-3.74,9.97-3.74h10.28c0.41-0.42,0.62-1.14,0.62-2.18c0-4.64-0.38-8.13-1.14-10.49
	c-1.25-3.95-3.7-5.92-7.37-5.92c-2.63,0-5.05,1.66-7.27,4.98c-2.01,3.05-3.01,5.95-3.01,8.72c0,0.14,0,0.35,0,0.62
	c0,0.28,0,0.45,0,0.52c0,0.55-0.28,0.83-0.83,0.83c-0.69,0-1.46-0.42-2.29-1.25c-0.83-0.83-1.25-1.56-1.25-2.18
	c0-1.94,0.59-4.38,1.77-7.32c1.18-2.94,2.46-5.17,3.84-6.7c1.73-1.87,3.88-2.8,6.44-2.8c3.95,0,7.58,1.25,10.9,3.74
	c3.53,2.7,5.33,5.95,5.4,9.76L364.5,293.59z M359,277.08c0-2.77-2.15-4.15-6.44-4.15c-3.39,0-6.37,0.59-8.93,1.77
	c-3.25,1.52-4.88,3.81-4.88,6.85c0,1.87,0.86,3.32,2.6,4.36c1.45,0.9,3.18,1.35,5.19,1.35c2.97,0,5.79-0.97,8.46-2.91
	C357.66,282.42,359,279.99,359,277.08z"/>
<path class="st3" d="M406.75,278.89c0,2.37-0.71,4.33-2.13,5.9s-3.15,2.82-5.19,3.76c-2.04,0.94-4.17,1.6-6.39,1.98
	c-2.21,0.38-4.15,0.57-5.81,0.57c-2.7,0-5.75-0.31-9.13-0.93c-0.14,0.62-0.38,1.12-0.73,1.5c-0.35,0.38-0.97,0.57-1.87,0.57
	c-0.9,0-1.58-0.24-2.03-0.73c-0.45-0.49-0.68-1.42-0.68-2.81c0-0.42-0.15-0.71-0.47-0.88c-0.31-0.17-0.66-0.35-1.04-0.52
	c-0.38-0.17-0.73-0.38-1.04-0.62c-0.31-0.24-0.47-0.64-0.47-1.2c0-0.49,0.1-0.87,0.31-1.14c0.21-0.28,0.45-0.5,0.73-0.68
	s0.52-0.33,0.73-0.47c0.21-0.14,0.31-0.38,0.31-0.73c0-0.9,0.03-2.05,0.1-3.43c0.07-1.39,0.1-2.6,0.1-3.64
	c0-0.76-0.29-1.27-0.88-1.51s-0.88-0.64-0.88-1.2s0.26-0.97,0.78-1.25c0.52-0.28,0.78-0.69,0.78-1.25v-19.77
	c0-0.69,0.43-1.41,1.3-2.13c0.86-0.73,1.75-1.09,2.65-1.09c1.11,0,1.82,0.14,2.13,0.42c0.31,0.28,0.47,0.73,0.47,1.35
	c0,0.9-0.07,1.92-0.21,3.06c-0.14,1.14-0.21,2.27-0.21,3.37c0.83-0.9,1.56-1.92,2.18-3.06c0.62-1.14,1.35-2.18,2.18-3.11
	s1.87-1.71,3.12-2.34s2.91-0.93,4.98-0.93c1.73,0,3.24,0.31,4.52,0.93c1.28,0.62,2.61,1.41,4,2.38c2.21,1.66,3.77,3.19,4.67,4.6
	s1.35,3.19,1.35,5.32c0,1.93-0.67,3.96-2.02,6.1s-3.27,3.83-5.76,5.06c-0.42,0.21-0.62,0.42-0.62,0.63c0,0.21,0.17,0.37,0.52,0.47
	c0.35,0.1,0.83,0.23,1.46,0.37c1.04,0.28,2.04,0.63,3.01,1.04c0.97,0.42,1.83,0.92,2.6,1.51s1.38,1.27,1.87,2.03
	S406.75,277.99,406.75,278.89z M400.21,278.75c0-0.69-0.1-1.33-0.31-1.92c-0.21-0.59-0.71-1.09-1.51-1.5
	c-0.8-0.42-1.96-0.73-3.48-0.93c-1.52-0.21-3.63-0.31-6.33-0.31c-0.76,0-1.49,0.02-2.18,0.05c-0.69,0.04-1.4,0.07-2.13,0.1
	c-0.73,0.04-1.54,0.09-2.44,0.16c-0.9,0.07-1.9,0.14-3.01,0.21c-0.69,0-1.04,0.35-1.04,1.04c0,1.52,0.02,3.17,0.05,4.93
	c0.03,1.77,0.09,3.24,0.15,4.41c1.38,0.69,2.82,1.21,4.31,1.56c1.49,0.35,3.06,0.52,4.72,0.52c2.56,0,4.71-0.26,6.44-0.78
	c1.73-0.52,3.08-1.18,4.05-1.97c0.97-0.79,1.66-1.68,2.08-2.65C400.01,280.68,400.21,279.71,400.21,278.75z M399.07,258.87
	c0-2.61-0.85-4.59-2.54-5.94c-1.7-1.34-3.82-2.01-6.38-2.01c-1.73,0-3.32,0.47-4.78,1.4c-1.46,0.93-2.7,2.12-3.74,3.56
	c-1.04,1.45-1.87,3.06-2.49,4.85c-0.62,1.79-1,3.51-1.14,5.16c-0.07,0.55-0.1,1.15-0.1,1.81c0,0.65,0,1.29,0,1.91
	c0,0.48,0.28,0.72,0.83,0.72c4.85-0.14,8.62-0.43,11.32-0.88c2.7-0.45,4.72-1.12,6.07-2.01c1.35-0.9,2.18-2.05,2.49-3.46
	C398.92,262.57,399.07,260.87,399.07,258.87z"/>
<path class="st3" d="M446.93,293.07c-1.8,1.38-3.19,2.08-4.15,2.08c-0.76,0-1.73-0.43-2.91-1.3c-1.18-0.87-2.42-1.97-3.74-3.32
	s-2.66-2.8-4.05-4.36c-1.38-1.56-2.65-3.04-3.79-4.46c-1.14-1.42-2.11-2.65-2.91-3.69c-0.8-1.04-1.3-1.66-1.51-1.87
	c-1.87-1.94-3.46-3.32-4.78-4.15c-0.97,0-1.54,0.59-1.71,1.77c-0.17,1.18-0.26,2.39-0.26,3.63c0,1.45,0,2.86,0,4.21
	s0.03,2.41,0.1,3.17c0.07,0.62,0.31,1.51,0.73,2.65c0.41,1.14,0.62,2.03,0.62,2.65c0,0.42-0.24,0.81-0.73,1.19
	c-0.49,0.38-1.07,0.57-1.77,0.57c-1.38,0-2.42-0.45-3.12-1.35c-0.69-0.9-1.04-2.56-1.04-4.98c0-4.22,0.02-7.87,0.05-10.95
	c0.04-3.08,0.07-5.76,0.1-8.05s0.07-4.24,0.11-5.87c0.03-1.63,0.05-3.03,0.05-4.21c0-0.76,0-1.38,0-1.87c0-0.48-0.04-0.93-0.1-1.35
	c-0.07-0.42-0.14-0.83-0.21-1.25c-0.07-0.42-0.17-0.93-0.31-1.56c-0.21-0.9-0.31-1.7-0.31-2.39c0-0.69,0.54-1.38,1.61-2.08
	c1.07-0.69,2.02-1.04,2.86-1.04c0.62,0,1.3,0.19,2.02,0.57c0.73,0.38,1.09,0.85,1.09,1.4c0,0.21-0.21,1.06-0.62,2.54
	c-0.41,1.49-0.62,3.79-0.62,6.9c0,2.15-0.07,3.91-0.21,5.29c-0.14,1.38-0.21,2.25-0.21,2.6c0,0.35,0.17,0.52,0.52,0.52
	c0.76-0.55,1.76-1.33,3.01-2.34c1.25-1,2.61-2.18,4.1-3.53c1.49-1.35,3.04-2.82,4.67-4.41c1.62-1.59,3.17-3.22,4.62-4.88
	c1.87-2.14,3.41-3.69,4.62-4.62s1.99-1.4,2.34-1.4c0.97,0,1.77,0.35,2.39,1.04c0.62,0.69,0.93,1.59,0.93,2.7
	c0,0.55-0.04,0.93-0.1,1.14c-1.32,0.9-2.94,2.13-4.88,3.69c-1.94,1.56-4.19,3.44-6.75,5.66c-5.88,5.19-8.82,8.62-8.82,10.28
	c0,0.35,0.4,1.06,1.19,2.13c0.79,1.07,1.8,2.32,3.01,3.74c1.21,1.42,2.51,2.89,3.89,4.41c1.38,1.52,2.66,2.94,3.84,4.26
	c2.14,2.42,4.15,4.4,6.02,5.92c1.87,1.52,3.56,2.66,5.09,3.43c0.21,0.14,0.31,0.35,0.31,0.62
	C447.24,292.69,447.14,292.87,446.93,293.07z"/>
<path class="st3" d="M483.17,293.59c0,0.97-0.76,1.45-2.29,1.45c-1.66,0-2.66-0.69-3.01-2.08c-0.07-0.21-0.1-1.56-0.1-4.05
	c0-0.69-0.1-1.25-0.31-1.66c-3.88,2.84-8.06,4.26-12.56,4.26c-3.12,0-6.12-0.87-9.03-2.6c-3.32-1.94-4.98-4.36-4.98-7.27
	c0-2.84,1.97-5.61,5.92-8.31c3.6-2.49,6.92-3.74,9.97-3.74h10.28c0.41-0.42,0.62-1.14,0.62-2.18c0-4.64-0.38-8.13-1.14-10.49
	c-1.25-3.95-3.7-5.92-7.37-5.92c-2.63,0-5.05,1.66-7.27,4.98c-2.01,3.05-3.01,5.95-3.01,8.72c0,0.14,0,0.35,0,0.62
	c0,0.28,0,0.45,0,0.52c0,0.55-0.28,0.83-0.83,0.83c-0.69,0-1.46-0.42-2.29-1.25c-0.83-0.83-1.25-1.56-1.25-2.18
	c0-1.94,0.59-4.38,1.77-7.32c1.18-2.94,2.46-5.17,3.84-6.7c1.73-1.87,3.88-2.8,6.44-2.8c3.95,0,7.58,1.25,10.9,3.74
	c3.53,2.7,5.33,5.95,5.4,9.76L483.17,293.59z M477.67,277.08c0-2.77-2.15-4.15-6.44-4.15c-3.39,0-6.37,0.59-8.93,1.77
	c-3.25,1.52-4.88,3.81-4.88,6.85c0,1.87,0.86,3.32,2.6,4.36c1.45,0.9,3.18,1.35,5.19,1.35c2.97,0,5.79-0.97,8.46-2.91
	C476.33,282.42,477.67,279.99,477.67,277.08z"/>
<g>
	<path class="st2" d="M166.12,353.1c0.02,0.6-0.42,1.08-1.12,1.08c-0.62,0-1.06-0.48-1.06-1.08c0-0.62,0.46-1.1,1.1-1.1
		C165.7,351.99,166.12,352.48,166.12,353.1z M164.15,365.55v-9.72h1.77v9.72H164.15z"/>
	<path class="st2" d="M168.85,358.46c0-1-0.02-1.83-0.08-2.63h1.57l0.1,1.61h0.04c0.48-0.92,1.61-1.83,3.21-1.83
		c1.35,0,3.43,0.8,3.43,4.14v5.8h-1.77v-5.6c0-1.57-0.58-2.87-2.25-2.87c-1.17,0-2.07,0.82-2.37,1.81
		c-0.08,0.22-0.12,0.52-0.12,0.82v5.84h-1.77V358.46z"/>
	<path class="st2" d="M179.76,363.74c0.52,0.34,1.45,0.7,2.33,0.7c1.29,0,1.89-0.64,1.89-1.45c0-0.84-0.5-1.31-1.81-1.79
		c-1.75-0.62-2.57-1.59-2.57-2.75c0-1.57,1.26-2.85,3.35-2.85c0.98,0,1.85,0.28,2.39,0.6l-0.44,1.29c-0.38-0.24-1.08-0.56-1.99-0.56
		c-1.04,0-1.63,0.6-1.63,1.33c0,0.8,0.58,1.16,1.85,1.65c1.69,0.64,2.55,1.49,2.55,2.93c0,1.71-1.33,2.91-3.63,2.91
		c-1.06,0-2.05-0.26-2.73-0.66L179.76,363.74z"/>
	<path class="st2" d="M190.08,353.04v2.79h2.53v1.35h-2.53v5.24c0,1.2,0.34,1.89,1.33,1.89c0.46,0,0.8-0.06,1.02-0.12l0.08,1.33
		c-0.34,0.14-0.88,0.24-1.57,0.24c-0.82,0-1.49-0.26-1.91-0.74c-0.5-0.52-0.68-1.39-0.68-2.53v-5.3h-1.51v-1.35h1.51v-2.33
		L190.08,353.04z"/>
	<path class="st2" d="M199.98,365.55l-0.14-1.23h-0.06c-0.54,0.76-1.59,1.45-2.97,1.45c-1.97,0-2.97-1.39-2.97-2.79
		c0-2.35,2.09-3.63,5.84-3.61v-0.2c0-0.8-0.22-2.25-2.21-2.25c-0.9,0-1.85,0.28-2.53,0.72l-0.4-1.17c0.8-0.52,1.97-0.86,3.19-0.86
		c2.97,0,3.69,2.03,3.69,3.98v3.63c0,0.84,0.04,1.67,0.16,2.33H199.98z M199.72,360.59c-1.93-0.04-4.12,0.3-4.12,2.19
		c0,1.14,0.76,1.69,1.67,1.69c1.27,0,2.07-0.8,2.35-1.63c0.06-0.18,0.1-0.38,0.1-0.56V360.59z"/>
	<path class="st2" d="M212.65,355.83c-0.04,0.7-0.08,1.49-0.08,2.67v5.64c0,2.23-0.44,3.59-1.39,4.44
		c-0.94,0.88-2.31,1.16-3.53,1.16c-1.16,0-2.45-0.28-3.23-0.8l0.44-1.35c0.64,0.4,1.65,0.76,2.85,0.76c1.81,0,3.13-0.94,3.13-3.39
		v-1.08h-0.04c-0.54,0.9-1.59,1.63-3.09,1.63c-2.41,0-4.14-2.05-4.14-4.74c0-3.29,2.15-5.16,4.38-5.16c1.69,0,2.61,0.88,3.03,1.69
		h0.04l0.08-1.47H212.65z M210.83,359.66c0-0.3-0.02-0.56-0.1-0.8c-0.32-1.02-1.18-1.87-2.47-1.87c-1.69,0-2.89,1.43-2.89,3.67
		c0,1.91,0.96,3.49,2.87,3.49c1.08,0,2.07-0.68,2.45-1.81c0.1-0.3,0.14-0.64,0.14-0.94V359.66z"/>
	<path class="st2" d="M215.39,358.86c0-1.14-0.02-2.13-0.08-3.03h1.55l0.06,1.91h0.08c0.44-1.31,1.51-2.13,2.69-2.13
		c0.2,0,0.34,0.02,0.5,0.06v1.67c-0.18-0.04-0.36-0.06-0.6-0.06c-1.24,0-2.13,0.94-2.37,2.27c-0.04,0.24-0.08,0.52-0.08,0.82v5.18
		h-1.75V358.86z"/>
	<path class="st2" d="M227.24,365.55l-0.14-1.23h-0.06c-0.54,0.76-1.59,1.45-2.97,1.45c-1.97,0-2.97-1.39-2.97-2.79
		c0-2.35,2.09-3.63,5.84-3.61v-0.2c0-0.8-0.22-2.25-2.21-2.25c-0.9,0-1.85,0.28-2.53,0.72l-0.4-1.17c0.8-0.52,1.97-0.86,3.19-0.86
		c2.97,0,3.69,2.03,3.69,3.98v3.63c0,0.84,0.04,1.67,0.16,2.33H227.24z M226.97,360.59c-1.93-0.04-4.12,0.3-4.12,2.19
		c0,1.14,0.76,1.69,1.67,1.69c1.27,0,2.07-0.8,2.35-1.63c0.06-0.18,0.1-0.38,0.1-0.56V360.59z"/>
	<path class="st2" d="M231.53,358.46c0-1-0.02-1.83-0.08-2.63H233l0.08,1.57h0.06c0.54-0.92,1.45-1.79,3.05-1.79
		c1.33,0,2.33,0.8,2.75,1.95h0.04c0.3-0.54,0.68-0.96,1.08-1.27c0.58-0.44,1.23-0.68,2.15-0.68c1.29,0,3.19,0.84,3.19,4.22v5.72
		h-1.73v-5.5c0-1.87-0.68-2.99-2.11-2.99c-1,0-1.79,0.74-2.09,1.61c-0.08,0.24-0.14,0.56-0.14,0.88v6h-1.73v-5.82
		c0-1.55-0.68-2.67-2.03-2.67c-1.1,0-1.91,0.88-2.19,1.77c-0.1,0.26-0.14,0.56-0.14,0.86v5.86h-1.73V358.46z"/>
	<path class="st2" d="M247.86,364.5c0-0.74,0.5-1.26,1.2-1.26s1.18,0.52,1.18,1.26c0,0.72-0.46,1.27-1.2,1.27
		C248.35,365.77,247.86,365.23,247.86,364.5z"/>
	<path class="st2" d="M259.37,365.19c-0.46,0.24-1.49,0.56-2.79,0.56c-2.93,0-4.84-1.99-4.84-4.96c0-2.99,2.05-5.16,5.22-5.16
		c1.04,0,1.97,0.26,2.45,0.5l-0.4,1.37c-0.42-0.24-1.08-0.46-2.05-0.46c-2.23,0-3.43,1.65-3.43,3.67c0,2.25,1.45,3.63,3.37,3.63
		c1,0,1.67-0.26,2.17-0.48L259.37,365.19z"/>
	<path class="st2" d="M270.12,360.61c0,3.59-2.49,5.16-4.84,5.16c-2.63,0-4.66-1.93-4.66-5c0-3.25,2.13-5.16,4.82-5.16
		C268.23,355.61,270.12,357.64,270.12,360.61z M262.41,360.71c0,2.13,1.22,3.73,2.95,3.73c1.69,0,2.95-1.59,2.95-3.77
		c0-1.65-0.82-3.74-2.91-3.74C263.31,356.93,262.41,358.86,262.41,360.71z"/>
	<path class="st2" d="M272.35,358.46c0-1-0.02-1.83-0.08-2.63h1.55l0.08,1.57h0.06c0.54-0.92,1.45-1.79,3.05-1.79
		c1.33,0,2.33,0.8,2.75,1.95h0.04c0.3-0.54,0.68-0.96,1.08-1.27c0.58-0.44,1.23-0.68,2.15-0.68c1.29,0,3.19,0.84,3.19,4.22v5.72
		h-1.73v-5.5c0-1.87-0.68-2.99-2.11-2.99c-1,0-1.79,0.74-2.09,1.61c-0.08,0.24-0.14,0.56-0.14,0.88v6h-1.73v-5.82
		c0-1.55-0.68-2.67-2.03-2.67c-1.1,0-1.91,0.88-2.19,1.77c-0.1,0.26-0.14,0.56-0.14,0.86v5.86h-1.73V358.46z"/>
	<path class="st2" d="M287.61,366.35l5.6-14.56h1.37l-5.62,14.56H287.61z"/>
	<path class="st2" d="M295.91,365.55c0.04-0.66,0.08-1.65,0.08-2.51v-11.75h1.75v6.1h0.04c0.62-1.08,1.75-1.79,3.31-1.79
		c2.41,0,4.12,2.01,4.1,4.96c0,3.47-2.19,5.2-4.36,5.2c-1.41,0-2.53-0.54-3.25-1.83h-0.06l-0.08,1.61H295.91z M297.73,361.65
		c0,0.22,0.04,0.44,0.08,0.64c0.34,1.22,1.37,2.07,2.65,2.07c1.85,0,2.95-1.51,2.95-3.74c0-1.95-1-3.61-2.89-3.61
		c-1.2,0-2.33,0.82-2.69,2.17c-0.04,0.2-0.1,0.44-0.1,0.72V361.65z"/>
	<path class="st2" d="M315.55,362.9c0,1,0.02,1.89,0.08,2.65h-1.57l-0.1-1.59h-0.04c-0.46,0.78-1.49,1.81-3.21,1.81
		c-1.53,0-3.35-0.84-3.35-4.26v-5.68h1.77v5.38c0,1.85,0.56,3.09,2.17,3.09c1.18,0,2.01-0.82,2.33-1.61c0.1-0.26,0.16-0.58,0.16-0.9
		v-5.96h1.77V362.9z"/>
	<path class="st2" d="M318.48,351.29h1.77v14.26h-1.77V351.29z"/>
	<path class="st2" d="M323.22,351.29h1.77v14.26h-1.77V351.29z"/>
	<path class="st2" d="M333.34,365.55l-0.14-1.23h-0.06c-0.54,0.76-1.59,1.45-2.97,1.45c-1.97,0-2.97-1.39-2.97-2.79
		c0-2.35,2.09-3.63,5.84-3.61v-0.2c0-0.8-0.22-2.25-2.21-2.25c-0.9,0-1.85,0.28-2.53,0.72l-0.4-1.17c0.8-0.52,1.97-0.86,3.19-0.86
		c2.97,0,3.69,2.03,3.69,3.98v3.63c0,0.84,0.04,1.67,0.16,2.33H333.34z M333.08,360.59c-1.93-0.04-4.12,0.3-4.12,2.19
		c0,1.14,0.76,1.69,1.67,1.69c1.26,0,2.07-0.8,2.35-1.63c0.06-0.18,0.1-0.38,0.1-0.56V360.59z"/>
	<path class="st2" d="M338.17,355.83l1.91,5.46c0.32,0.88,0.58,1.69,0.78,2.49h0.06c0.22-0.8,0.5-1.61,0.82-2.49l1.89-5.46h1.85
		l-3.82,9.72h-1.69l-3.7-9.72H338.17z"/>
	<path class="st2" d="M348.89,360.29h0.04c0.24-0.34,0.58-0.76,0.86-1.1l2.85-3.35h2.13l-3.75,4l4.28,5.72h-2.15l-3.35-4.66l-0.9,1
		v3.65h-1.75v-14.26h1.75V360.29z"/>
	<path class="st2" d="M362.31,365.55l-0.14-1.23h-0.06c-0.54,0.76-1.59,1.45-2.97,1.45c-1.97,0-2.97-1.39-2.97-2.79
		c0-2.35,2.09-3.63,5.84-3.61v-0.2c0-0.8-0.22-2.25-2.21-2.25c-0.9,0-1.85,0.28-2.53,0.72l-0.4-1.17c0.8-0.52,1.97-0.86,3.19-0.86
		c2.97,0,3.69,2.03,3.69,3.98v3.63c0,0.84,0.04,1.67,0.16,2.33H362.31z M362.05,360.59c-1.93-0.04-4.12,0.3-4.12,2.19
		c0,1.14,0.76,1.69,1.67,1.69c1.26,0,2.07-0.8,2.35-1.63c0.06-0.18,0.1-0.38,0.1-0.56V360.59z"/>
	<path class="st2" d="M375.18,367.05v1h-10.04v-1H375.18z"/>
	<path class="st2" d="M376.65,358.46c0-1-0.02-1.83-0.08-2.63h1.55l0.08,1.57h0.06c0.54-0.92,1.45-1.79,3.05-1.79
		c1.33,0,2.33,0.8,2.75,1.95h0.04c0.3-0.54,0.68-0.96,1.08-1.27c0.58-0.44,1.22-0.68,2.15-0.68c1.29,0,3.19,0.84,3.19,4.22v5.72
		h-1.73v-5.5c0-1.87-0.68-2.99-2.11-2.99c-1,0-1.79,0.74-2.09,1.61c-0.08,0.24-0.14,0.56-0.14,0.88v6h-1.73v-5.82
		c0-1.55-0.68-2.67-2.03-2.67c-1.1,0-1.91,0.88-2.19,1.77c-0.1,0.26-0.14,0.56-0.14,0.86v5.86h-1.73V358.46z"/>
	<path class="st2" d="M402.2,360.61c0,3.59-2.49,5.16-4.84,5.16c-2.63,0-4.66-1.93-4.66-5c0-3.25,2.13-5.16,4.82-5.16
		C400.31,355.61,402.2,357.64,402.2,360.61z M394.48,360.71c0,2.13,1.23,3.73,2.95,3.73c1.69,0,2.95-1.59,2.95-3.77
		c0-1.65-0.82-3.74-2.91-3.74C395.39,356.93,394.48,358.86,394.48,360.71z"/>
	<path class="st2" d="M404.19,363.74c0.52,0.34,1.45,0.7,2.33,0.7c1.29,0,1.89-0.64,1.89-1.45c0-0.84-0.5-1.31-1.81-1.79
		c-1.75-0.62-2.57-1.59-2.57-2.75c0-1.57,1.26-2.85,3.35-2.85c0.98,0,1.85,0.28,2.39,0.6l-0.44,1.29c-0.38-0.24-1.08-0.56-1.99-0.56
		c-1.04,0-1.63,0.6-1.63,1.33c0,0.8,0.58,1.16,1.85,1.65c1.69,0.64,2.55,1.49,2.55,2.93c0,1.71-1.33,2.91-3.63,2.91
		c-1.06,0-2.05-0.26-2.73-0.66L404.19,363.74z"/>
	<path class="st2" d="M419.31,365.19c-0.46,0.24-1.49,0.56-2.79,0.56c-2.93,0-4.84-1.99-4.84-4.96c0-2.99,2.05-5.16,5.22-5.16
		c1.04,0,1.97,0.26,2.45,0.5l-0.4,1.37c-0.42-0.24-1.08-0.46-2.05-0.46c-2.23,0-3.43,1.65-3.43,3.67c0,2.25,1.45,3.63,3.37,3.63
		c1,0,1.67-0.26,2.17-0.48L419.31,365.19z"/>
	<path class="st2" d="M430.05,360.61c0,3.59-2.49,5.16-4.84,5.16c-2.63,0-4.66-1.93-4.66-5c0-3.25,2.13-5.16,4.82-5.16
		C428.17,355.61,430.05,357.64,430.05,360.61z M422.34,360.71c0,2.13,1.23,3.73,2.95,3.73c1.69,0,2.95-1.59,2.95-3.77
		c0-1.65-0.82-3.74-2.91-3.74C423.25,356.93,422.34,358.86,422.34,360.71z"/>
	<path class="st2" d="M432.85,355.83l1.29,4.94c0.28,1.08,0.54,2.09,0.72,3.09h0.06c0.22-0.98,0.54-2.03,0.86-3.07l1.59-4.96h1.49
		l1.51,4.86c0.36,1.16,0.64,2.19,0.86,3.17h0.06c0.16-0.98,0.42-2.01,0.74-3.15l1.39-4.88h1.75l-3.13,9.72h-1.61l-1.49-4.64
		c-0.34-1.08-0.62-2.05-0.86-3.19h-0.04c-0.24,1.17-0.54,2.17-0.88,3.21l-1.57,4.62h-1.61l-2.93-9.72H432.85z"/>
	<path class="st2" d="M197.22,379.93l1.91,5.46c0.32,0.88,0.58,1.69,0.78,2.49h0.06c0.22-0.8,0.5-1.61,0.82-2.49l1.89-5.46h1.85
		l-3.82,9.72h-1.69l-3.69-9.72H197.22z"/>
	<path class="st2" d="M207.94,384.39h0.04c0.24-0.34,0.58-0.76,0.86-1.1l2.85-3.35h2.13l-3.76,4l4.28,5.72h-2.15l-3.35-4.66l-0.9,1
		v3.65h-1.75v-14.26h1.75V384.39z"/>
	<path class="st2" d="M215.48,388.61c0-0.74,0.5-1.26,1.2-1.26s1.18,0.52,1.18,1.26c0,0.72-0.46,1.27-1.2,1.27
		C215.96,389.87,215.48,389.33,215.48,388.61z"/>
	<path class="st2" d="M226.98,389.29c-0.46,0.24-1.49,0.56-2.79,0.56c-2.93,0-4.84-1.99-4.84-4.96c0-2.99,2.05-5.16,5.22-5.16
		c1.04,0,1.97,0.26,2.45,0.5l-0.4,1.37c-0.42-0.24-1.08-0.46-2.05-0.46c-2.23,0-3.43,1.65-3.43,3.67c0,2.25,1.45,3.63,3.37,3.63
		c1,0,1.67-0.26,2.17-0.48L226.98,389.29z"/>
	<path class="st2" d="M237.73,384.71c0,3.59-2.49,5.16-4.84,5.16c-2.63,0-4.66-1.93-4.66-5c0-3.25,2.13-5.16,4.82-5.16
		C235.84,379.71,237.73,381.74,237.73,384.71z M230.02,384.81c0,2.13,1.22,3.73,2.95,3.73c1.69,0,2.95-1.59,2.95-3.77
		c0-1.65-0.82-3.74-2.91-3.74C230.92,381.04,230.02,382.96,230.02,384.81z"/>
	<path class="st2" d="M239.96,382.56c0-1-0.02-1.83-0.08-2.63h1.55l0.08,1.57h0.06c0.54-0.92,1.45-1.79,3.05-1.79
		c1.33,0,2.33,0.8,2.75,1.95h0.04c0.3-0.54,0.68-0.96,1.08-1.27c0.58-0.44,1.23-0.68,2.15-0.68c1.29,0,3.19,0.84,3.19,4.22v5.72
		h-1.73v-5.5c0-1.87-0.68-2.99-2.11-2.99c-1,0-1.79,0.74-2.09,1.61c-0.08,0.24-0.14,0.56-0.14,0.88v6h-1.73v-5.82
		c0-1.55-0.68-2.67-2.03-2.67c-1.1,0-1.91,0.88-2.19,1.77c-0.1,0.26-0.14,0.56-0.14,0.86v5.86h-1.73V382.56z"/>
	<path class="st2" d="M255.23,390.45l5.6-14.56h1.37l-5.62,14.56H255.23z"/>
	<path class="st2" d="M263.52,389.65c0.04-0.66,0.08-1.65,0.08-2.51v-11.75h1.75v6.1h0.04c0.62-1.08,1.75-1.79,3.31-1.79
		c2.41,0,4.12,2.01,4.1,4.96c0,3.47-2.19,5.2-4.36,5.2c-1.41,0-2.53-0.54-3.25-1.83h-0.06l-0.08,1.61H263.52z M265.35,385.75
		c0,0.22,0.04,0.44,0.08,0.64c0.34,1.22,1.37,2.07,2.65,2.07c1.85,0,2.95-1.51,2.95-3.74c0-1.95-1-3.61-2.89-3.61
		c-1.2,0-2.33,0.82-2.69,2.17c-0.04,0.2-0.1,0.44-0.1,0.72V385.75z"/>
	<path class="st2" d="M283.16,387c0,1,0.02,1.89,0.08,2.65h-1.57l-0.1-1.59h-0.04c-0.46,0.78-1.49,1.81-3.21,1.81
		c-1.53,0-3.35-0.84-3.35-4.26v-5.68h1.77v5.38c0,1.85,0.56,3.09,2.17,3.09c1.19,0,2.01-0.82,2.33-1.61c0.1-0.26,0.16-0.58,0.16-0.9
		v-5.96h1.77V387z"/>
	<path class="st2" d="M286.1,375.39h1.77v14.26h-1.77V375.39z"/>
	<path class="st2" d="M290.83,375.39h1.77v14.26h-1.77V375.39z"/>
	<path class="st2" d="M300.96,389.65l-0.14-1.23h-0.06c-0.54,0.76-1.59,1.45-2.97,1.45c-1.97,0-2.97-1.39-2.97-2.79
		c0-2.35,2.09-3.63,5.84-3.61v-0.2c0-0.8-0.22-2.25-2.21-2.25c-0.9,0-1.85,0.28-2.53,0.72l-0.4-1.17c0.8-0.52,1.97-0.86,3.19-0.86
		c2.97,0,3.69,2.03,3.69,3.98v3.63c0,0.84,0.04,1.67,0.16,2.33H300.96z M300.7,384.69c-1.93-0.04-4.12,0.3-4.12,2.19
		c0,1.14,0.76,1.69,1.67,1.69c1.27,0,2.07-0.8,2.35-1.63c0.06-0.18,0.1-0.38,0.1-0.56V384.69z"/>
	<path class="st2" d="M305.78,379.93l1.91,5.46c0.32,0.88,0.58,1.69,0.78,2.49h0.06c0.22-0.8,0.5-1.61,0.82-2.49l1.89-5.46h1.85
		l-3.82,9.72h-1.69l-3.69-9.72H305.78z"/>
	<path class="st2" d="M316.5,384.39h0.04c0.24-0.34,0.58-0.76,0.86-1.1l2.85-3.35h2.13l-3.75,4l4.28,5.72h-2.15l-3.35-4.66l-0.9,1
		v3.65h-1.75v-14.26h1.75V384.39z"/>
	<path class="st2" d="M329.92,389.65l-0.14-1.23h-0.06c-0.54,0.76-1.59,1.45-2.97,1.45c-1.97,0-2.97-1.39-2.97-2.79
		c0-2.35,2.09-3.63,5.84-3.61v-0.2c0-0.8-0.22-2.25-2.21-2.25c-0.9,0-1.85,0.28-2.53,0.72l-0.4-1.17c0.8-0.52,1.97-0.86,3.19-0.86
		c2.97,0,3.69,2.03,3.69,3.98v3.63c0,0.84,0.04,1.67,0.16,2.33H329.92z M329.66,384.69c-1.93-0.04-4.12,0.3-4.12,2.19
		c0,1.14,0.76,1.69,1.67,1.69c1.26,0,2.07-0.8,2.35-1.63c0.06-0.18,0.1-0.38,0.1-0.56V384.69z"/>
	<path class="st2" d="M342.79,391.16v1h-10.04v-1H342.79z"/>
	<path class="st2" d="M344.26,382.56c0-1-0.02-1.83-0.08-2.63h1.55l0.08,1.57h0.06c0.54-0.92,1.45-1.79,3.05-1.79
		c1.33,0,2.33,0.8,2.75,1.95h0.04c0.3-0.54,0.68-0.96,1.08-1.27c0.58-0.44,1.22-0.68,2.15-0.68c1.29,0,3.19,0.84,3.19,4.22v5.72
		h-1.73v-5.5c0-1.87-0.68-2.99-2.11-2.99c-1,0-1.79,0.74-2.09,1.61c-0.08,0.24-0.14,0.56-0.14,0.88v6h-1.73v-5.82
		c0-1.55-0.68-2.67-2.03-2.67c-1.1,0-1.91,0.88-2.19,1.77c-0.1,0.26-0.14,0.56-0.14,0.86v5.86h-1.73V382.56z"/>
	<path class="st2" d="M369.81,384.71c0,3.59-2.49,5.16-4.84,5.16c-2.63,0-4.66-1.93-4.66-5c0-3.25,2.13-5.16,4.82-5.16
		C367.92,379.71,369.81,381.74,369.81,384.71z M362.1,384.81c0,2.13,1.23,3.73,2.95,3.73c1.69,0,2.95-1.59,2.95-3.77
		c0-1.65-0.82-3.74-2.91-3.74C363,381.04,362.1,382.96,362.1,384.81z"/>
	<path class="st2" d="M371.8,387.84c0.52,0.34,1.45,0.7,2.33,0.7c1.29,0,1.89-0.64,1.89-1.45c0-0.84-0.5-1.31-1.81-1.79
		c-1.75-0.62-2.57-1.59-2.57-2.75c0-1.57,1.26-2.85,3.35-2.85c0.98,0,1.85,0.28,2.39,0.6l-0.44,1.29c-0.38-0.24-1.08-0.56-1.99-0.56
		c-1.04,0-1.63,0.6-1.63,1.33c0,0.8,0.58,1.16,1.85,1.65c1.69,0.64,2.55,1.49,2.55,2.93c0,1.71-1.33,2.91-3.63,2.91
		c-1.06,0-2.05-0.26-2.73-0.66L371.8,387.84z"/>
	<path class="st2" d="M386.92,389.29c-0.46,0.24-1.49,0.56-2.79,0.56c-2.93,0-4.84-1.99-4.84-4.96c0-2.99,2.05-5.16,5.22-5.16
		c1.04,0,1.97,0.26,2.45,0.5l-0.4,1.37c-0.42-0.24-1.08-0.46-2.05-0.46c-2.23,0-3.43,1.65-3.43,3.67c0,2.25,1.45,3.63,3.37,3.63
		c1,0,1.67-0.26,2.17-0.48L386.92,389.29z"/>
	<path class="st2" d="M397.67,384.71c0,3.59-2.49,5.16-4.84,5.16c-2.63,0-4.66-1.93-4.66-5c0-3.25,2.13-5.16,4.82-5.16
		C395.78,379.71,397.67,381.74,397.67,384.71z M389.95,384.81c0,2.13,1.23,3.73,2.95,3.73c1.69,0,2.95-1.59,2.95-3.77
		c0-1.65-0.82-3.74-2.91-3.74C390.86,381.04,389.95,382.96,389.95,384.81z"/>
	<path class="st2" d="M400.46,379.93l1.29,4.94c0.28,1.08,0.54,2.09,0.72,3.09h0.06c0.22-0.98,0.54-2.03,0.86-3.07l1.59-4.96h1.49
		l1.51,4.86c0.36,1.16,0.64,2.19,0.86,3.17h0.06c0.16-0.98,0.42-2.01,0.74-3.15l1.39-4.88h1.75l-3.13,9.72h-1.61l-1.49-4.64
		c-0.34-1.08-0.62-2.05-0.86-3.19h-0.04c-0.24,1.17-0.54,2.17-0.88,3.21l-1.57,4.62h-1.61l-2.93-9.72H400.46z"/>
</g>
<circle class="st4" cx="304.07" cy="261.92" r="222.63"/>
<g>
	<g>
		<g>
			<g>
				<g>
					<path class="st2" d="M451.2,109.66c1.38,1.42,1.73,0.03,2.11,0.07C450.66,107.68,451.04,109.96,451.2,109.66z"/>
					<polygon class="st2" points="424.33,91.35 425.1,91.25 420.45,89.64 					"/>
					<path class="st2" d="M398.5,75.92c0.79,1.59,3.2,2.82,6.01,4.02c1.39,0.62,2.92,1.16,4.28,1.91c1.38,0.72,2.68,1.49,3.73,2.34
						l0.5,0.87l2.98-0.22c-1.44-0.79-3.01-1.59-4.61-2.39c-1.61-0.79-3.21-1.64-4.84-2.33C403.33,78.67,400.41,77.23,398.5,75.92z"
						/>
					<path class="st2" d="M385.61,65.03c0.62,1.16-3.55-0.69,3.43,1.71c-0.31-0.23-0.38-0.31-0.56-0.46
						C387.87,66.03,387.02,65.68,385.61,65.03z"/>
					<path class="st2" d="M388.48,66.28C391.5,67.47,386.8,64.82,388.48,66.28L388.48,66.28z"/>
					<path class="st2" d="M374.36,61.35l4.27,0.74c-0.67-0.76-4.23-2.15-2.77-2.01C371.57,58.97,372.29,59.75,374.36,61.35z"/>
					<path class="st2" d="M370.06,61.53c0.73,0.11,1.46,0.22,2.18,0.38C371.95,61.59,371.42,61.31,370.06,61.53z"/>
					<path class="st2" d="M376.85,62.86l-4.61-0.94c0.47,0.53,0.3,1.21,2.09,0.49C373.77,62.88,374.83,62.61,376.85,62.86z"/>
					<path class="st2" d="M379.22,64.05c1.04,0.61,2.25,1.26,2.65,1.69c0.4,0.43,0.06,0.5-2.06,0.12c3.81,1.32,5.55,1.62,5.42,1.14
						c-0.07-0.23-0.61-0.64-1.61-1.17C382.62,65.31,381.17,64.64,379.22,64.05z"/>
					<path class="st2" d="M396.13,77.24c0.84,0.63,1.69,1.24,2.49,1.94l2.69,0.63c-0.67-0.16-1.92-0.99-3.02-1.7
						C397.17,77.42,396.19,76.91,396.13,77.24z"/>
					<path class="st2" d="M349.04,53.18c-0.35,0.39,1.15,1.47,1.34,2.1c1.07,0.02,2.12,0.11,3.17,0.2
						C352.07,54.73,349.11,53.89,349.04,53.18z"/>
					<path class="st2" d="M350.38,55.28l-4.75-0.16C349.7,56.04,350.53,55.82,350.38,55.28z"/>
					<path class="st2" d="M368.61,63.58l1.94,0.16l1.92,0.25l3.87,0.51c-3.05-0.51-6.07-1.04-9.14-1.33L368.61,63.58z"/>
					<path class="st2" d="M331.24,50.08c0.93-0.24,1.86-0.44,2.8-0.66l-2.47,0.43l-2.47,0.54L331.24,50.08z"/>
					<path class="st2" d="M319.3,49.12c2.05-0.76-2.63-1.63-0.49-2.05c-3.29-0.01-6.12,0.54-8.64,1.14
						C312.84,47.92,315.69,48.22,319.3,49.12z"/>
					<path class="st2" d="M305.96,49.17c1.33-0.2,2.71-0.56,4.22-0.95C308.75,48.41,307.36,48.69,305.96,49.17z"/>
					<path class="st2" d="M337.83,53.5c-0.31-0.33-0.89-1.14-3.46-1.84l1.64,1.54C336.56,53.29,337.19,53.4,337.83,53.5z"/>
					<path class="st2" d="M336.07,53.25l-0.06-0.05c-1.97-0.33-3.34-0.57-3.92-0.67C332.59,52.63,333.79,52.84,336.07,53.25z"/>
					<path class="st2" d="M338.29,53.57c-0.17-0.03-0.29-0.05-0.46-0.08C337.98,53.65,338.08,53.71,338.29,53.57z"/>
					<path class="st2" d="M357.26,59.11c-2.84,0.02-8.47-0.6-3.44,1.79C355.92,60.53,353.02,59.15,357.26,59.11z"/>
					<path class="st2" d="M340.27,55.5c1.61,0.34,3.19,0.82,4.79,1.22c-0.03-0.35-0.81-1.01,0.59-1.09
						C343.85,55.58,342.07,55.47,340.27,55.5z"/>
					<polygon class="st2" points="337.82,55.54 340.27,55.5 338.48,55.12 					"/>
					<path class="st2" d="M314.47,50.61c-1.09,0.22-2.22,0.31-3.4,0.34c-1.19,0.06-2.44,0.1-3.76,0.13
						c1.42,0.15,2.86,0.21,4.29,0.36c1.43,0.14,2.86,0.25,4.25,0.33C316.25,51.38,317.52,50.73,314.47,50.61z"/>
					<path class="st2" d="M324.99,51.73c-0.15,0.01-0.34,0.02-0.48,0.02C324.79,51.89,325.02,51.95,324.99,51.73z"/>
					<path class="st2" d="M281.26,52.23c0.15,0.07,0.29,0.13,0.44,0.19c0.03-0.08,0.04-0.15,0.07-0.23L281.26,52.23z"/>
					<path class="st2" d="M316.3,52.03c2.11,0.36,3.4,0.12,4.64-0.2c-1.6,0.04-3.29,0.03-5.1-0.06
						C315.65,51.93,315.61,52.05,316.3,52.03z"/>
					<path class="st2" d="M298.63,49.81c0.56,0.11,1.16,0.21,1.78,0.3c0.62,0.11,1.27,0.22,1.94,0.34c-0.55-0.2-1.38-0.49-2.13-0.63
						C299.48,49.68,298.82,49.63,298.63,49.81z"/>
					<path class="st2" d="M323.83,51.33c0.11-0.01,0.21-0.02,0.32-0.02C323.48,50.96,323.55,51.1,323.83,51.33z"/>
					<path class="st2" d="M323.83,51.33c-1.11,0.07-2,0.29-2.88,0.49c1.3,0.02,2.51,0.02,3.57-0.07
						C324.26,51.64,324.01,51.47,323.83,51.33z"/>
					<path class="st2" d="M274.6,61.39c0.09-0.61,1.44-1.37,3.39-1.9c0.97-0.26,2.08-0.49,3.26-0.56c1.18-0.05,2.41,0.02,3.61,0.23
						c4.51-1.29,1.24-4.93-3.15-6.73c-0.09,0.56-0.06,0.92-4.79,2.3c0.89,0.22,3.59,0.17,5.6,0.48c2,0.26,3.26,0.63,1.3,1.35
						c-3.14,0.55-4.43,0.66-5.35,0.52c-0.92-0.14-1.45-0.48-3.04-0.59c1.41,0.56-0.54,1.36-2.59,2.28c-2.07,0.87-4.2,2.07-3.35,2.99
						c1.75-0.62,3.54-1.08,5.32-1.59C274.94,60.49,273.04,61.29,274.6,61.39z"/>
					<path class="st2" d="M291.01,51.76l2.01-0.23c-1.15-0.04-2.15-0.21-3.24-0.38c-1.09-0.17-2.29-0.41-3.85-0.74
						c-3.32,0.87-3.96,1.37-4.15,1.79c3.31-0.21,6.61-0.53,9.92-0.64L291.01,51.76z"/>
					<path class="st2" d="M302.07,51.23c-0.39,0.32-0.98,0.59-1.61,0.85c-0.62,0.28-1.27,0.54-1.78,0.8
						c-1.02,0.51-1.46,1.02,0.02,1.66c1.46-0.09,2.44-0.19,3.15-0.28c0.71-0.11,1.15-0.26,1.51-0.42c0.73-0.32,1.17-0.71,2.92-0.98
						c-9.49,0.25,2.74-0.7-4.14-1.48c1.87-0.21,3.57-0.26,5.16-0.3c-1.72-0.17-3.38-0.38-4.95-0.63c0.09,0.03,0.15,0.06,0.22,0.08
						l0.04,0c0,0.01-0.01,0.01-0.01,0.02c0.41,0.16,0.55,0.26,0.08,0.17c-0.03,0.02-0.15,0.02-0.2,0.03
						C302.43,50.92,302.26,51.07,302.07,51.23c-2.77-0.29-0.44-0.35,0.43-0.49c0.03-0.06,0.11-0.12,0.12-0.19
						c-0.01-0.01-0.02-0.01-0.04-0.02c-1.6,0.08-3.19,0.26-4.79,0.45l-4.77,0.55c1.02,0.05,2.16,0.04,3.6-0.02
						c0.72-0.04,1.52-0.08,2.42-0.13C299.94,51.3,300.94,51.24,302.07,51.23z"/>
					<path class="st2" d="M348.35,62.47c-0.26-0.17-0.23-0.26-0.23-0.35C347.5,62.16,347.26,62.22,348.35,62.47z"/>
					<path class="st2" d="M344.76,60.95c0.7-0.04,1.36-0.44,3.49,0.13c1.79,0.76-0.14,0.6-0.13,1.04c1.37-0.09,4.75,0.07,0.81-1.42
						l-0.69,0.04c-3.58-1.17-8.08-3.72-7.4-3.77C341.72,58.33,342.53,59.34,344.76,60.95z"/>
					<path class="st2" d="M323.51,55.31c-2.62-0.11-5.25,0.01-7.86,0.07l3.9,1.34l-0.15-0.68c2.21,0.24,3.08,0.27,3.48,0.05
						C323.28,55.89,323.21,55.54,323.51,55.31z"/>
					<path class="st2" d="M280.28,51.67l0.91-1.45c-1.48,0.74-2.93,1.66-4.37,2.48L280.28,51.67z"/>
					<path class="st2" d="M270,53.23L270.2,52c-0.87,0.36-1.73,0.79-2.59,1.19L270,53.23z"/>
					<path class="st2" d="M257.89,457.17l2.2,0.2C259.06,457.23,258.39,457.17,257.89,457.17z"/>
					<path class="st2" d="M242.67,452.84l-0.55,0.44C242.92,453.19,243.28,453.05,242.67,452.84z"/>
					<path class="st2" d="M95.7,218.41c-1.76,3.11-4.21,6.59-2.81,6.42l1.49-0.8C94.61,221.65,95.12,219.88,95.7,218.41z"/>
					<path class="st2" d="M134.82,380.65c-0.08-0.33-0.16-0.67-0.24-1c-0.81-0.42-1.56-0.82-2.24-1.17
						C133.1,379.12,133.88,379.9,134.82,380.65z"/>
					<path class="st2" d="M140.58,379.42l1.8,3.93C142.05,382.4,141.48,381.13,140.58,379.42z"/>
					<path class="st2" d="M343.43,457.25c0.74-0.59,1.48-1.16,2.2-1.8C341.79,456.26,343.61,456.53,343.43,457.25z"/>
					<path class="st2" d="M173.66,95.5c-2.61,1.44-4.59,2.75-6.24,3.99C170.68,97.84,173.6,96.94,173.66,95.5z"/>
					<path class="st2" d="M248.24,468.98c1.45,0.12,2.11,0.01,2.14-0.28C248.9,468.56,248.03,468.6,248.24,468.98z"/>
					<path class="st2" d="M160.99,105.11c0.48-0.25,0.9-0.54,1.37-0.81c0.74-0.8,1.48-1.59,2.3-2.4c0.82-0.8,1.69-1.64,2.76-2.42
						c-1.22,0.59-2.4,1.38-3.52,2.3C162.79,102.73,161.77,103.82,160.99,105.11z"/>
					<path class="st2" d="M498.19,222.88c0.01-0.24-0.03-0.51-0.01-0.72C497.99,222.13,498.06,222.43,498.19,222.88z"/>
					<path class="st2" d="M470.15,132.86c0.66,0.7,1.64,1.92,2.57,3.06C472.35,135.31,471.59,134.37,470.15,132.86z"/>
					<path class="st2" d="M229.44,63.31C231.48,62.47,229.71,63.03,229.44,63.31L229.44,63.31z"/>
					<path class="st2" d="M241.14,64.73c-0.39,0.29-0.66,0.58-0.62,0.88C240.59,65.26,240.82,64.97,241.14,64.73z"/>
					<path class="st2" d="M151.47,126.07c-0.04,0.04-0.08,0.08-0.13,0.13C151.96,125.91,151.85,125.95,151.47,126.07z"/>
					<path class="st2" d="M232.77,62.77c-0.84,0.12-1.79,0.3-2.8,0.55C230.44,63.26,231.29,63.1,232.77,62.77z"/>
					<path class="st2" d="M232.14,62.33c0.74-0.2,1.32-0.35,1.87-0.5C234.21,61.53,233.93,61.48,232.14,62.33z"/>
					<path class="st2" d="M226.6,64.5c1.17-0.48,2.29-0.86,3.37-1.19c-0.43,0.08-0.63,0.07-0.54-0.01
						C228.84,63.56,228,63.91,226.6,64.5z"/>
					<path class="st2" d="M466.33,384.08c0.12-0.09,0.23-0.2,0.37-0.28C467.52,381.79,467.04,382.58,466.33,384.08z"/>
					<path class="st2" d="M104.64,274.64c-0.02-0.1-0.05-0.14-0.07-0.23c-0.01,0.1-0.02,0.22-0.03,0.31L104.64,274.64z"/>
					<path class="st2" d="M106.15,281.94c-1.87-2.99-1.91-4.82-1.62-7.23c-1.21,0.88-2.45,1.78-3.63,2.7
						C102.66,278.96,104.41,280.47,106.15,281.94z"/>
					<path class="st2" d="M295.41,461.99l-5.08-1.45c3.16-0.79,5.81-0.96,7.11-1.17c1.29-0.25,1.21-0.45-1.14-1.41
						c-0.22,1.01-1.57,1.47-3.49,1.66c-1.92,0.18-4.41,0.16-6.89-0.1c-2.48-0.2-4.96-0.41-6.9-0.31c-1.93,0.01-3.33,0.33-3.65,1.31
						l-3.24-1.36c0.96,0.18,1.15-0.03,2.09,0.16c-6.2-2.88-5.34,2.14-13.7-0.1c-2.87-0.94-4.72-2.1-2.65-2.05l-6.7-0.65
						c-0.93-0.27-1.23-0.57-1.07-0.71c0.16-0.13,0.78-0.13,1.7,0.14c-1.66-0.32-3.27-0.84-4.91-1.25l-4.9-1.32l0.11-0.09
						c-1.59,0.21-4.99-0.03-6.67-0.16c-2.25-1.43,1.38,0.03,0.92-0.67c-1.88-0.34-3.79-0.62-5.67-1.01
						c-0.87-0.94-0.13-1.18,1.27-1.02c1.42,0.12,3.51,0.63,5.31,1.36c-1.78-2.8-2.94-2.93-4.91-3.15c-1.92-0.31-4.7-0.67-9.4-3.98
						c1.67,0.58,3.38,1.04,5.06,1.57c-1.11-1.74-2.71-2.71-4.57-3.88c-1.85-1.17-4.04-2.37-6.37-4.27c0.46,0.63,2.72,2.7,4.16,4.43
						c1.44,1.73,2.07,3.1-0.9,2.26c-1.42-1.03-3.41-2.09-6.73-2.81c0.63-1.31-2.35-2.5-5.92-4.32l1.17-1.55
						c-1.01-0.39-1.79-0.6-2.41-0.75c-0.61-0.16-1.09-0.21-1.53-0.23c-0.87-0.03-1.58,0.08-2.89-0.21
						c-4.05-2.66-4.12-4.41-4.36-6.12c-3.08-2.26-2.32-1.03-1.74,0.18c0.58,1.21,0.99,2.4-2.92-0.01c-1.23-1.05-2.42-1.95-3.61-2.77
						c-1.17-0.86-2.32-1.66-3.56-2.43c-2.46-1.55-5.26-2.93-8.56-5.02c-3.06-3.4,1.36-0.4,0.46-1.86l-4.07-1.39
						c-0.73-0.66-0.18-0.81,0.1-0.88c-2.94-1.77-1.48,1.28-5.78-1.95c-0.62,0.15-1.31-0.39-2.1-1.32c-0.39-0.46-0.81-1.03-1.25-1.65
						c-0.45-0.61-0.9-1.31-1.36-2.06c-0.93-1.48-1.98-3.05-3.18-4.45c-1.2-1.4-2.61-2.58-4.12-3.44c-0.68-1.59,1.39-0.21,1.6-1.08
						c-3.57-2.84-5.08-4.11-6.5-5.18c-1.41-1.09-2.65-2.04-5.84-4.3l-1.5-2.88c-0.5-0.95-0.92-1.97-1.38-2.94
						c1.58,4.66-3.26,0.85-7.56-2.71c0.42,1.77,0.77,3.3,1.11,4.27l-2.94-3.19c-0.99-1.06-1.86-2.21-2.8-3.31
						c-0.3-1.05,0.72-0.68,2.15,0.06c-0.45-0.4-0.88-0.78-1.24-1.07c-1.07-2.96,0.73-2.21,2.8-0.99c0.24,1.07,0.47,2.16,0.68,3.23
						c2.19,1.05,4.38,1.88,5.04,0.87c-0.5-0.31-1.27-1.05-2.03-1.93c0.58,0.26,1.01,0.38,1.02,0.07c0.01-0.35-0.89-0.79-2.02-1.68
						l0.75-2.78l-0.96,0.08l-2.39-4.92c-0.81-1.63-1.45-3.35-2.19-5.01c-1.43-1.41-2.91-2.73-4.4-4.12
						c-1.42-1.42-2.88-2.89-4.38-4.52c-0.75-0.82-1.51-1.67-2.28-2.58c-0.75-0.92-1.45-1.92-2.19-2.98
						c-0.73-1.06-1.47-2.2-2.22-3.42c-0.75-1.22-1.51-2.51-2.17-3.96c2.6,2.31,2.61-0.37,4.39-0.92c-0.29,1.96,0.96,4.06,2.46,6.43
						c0.76,1.18,1.57,2.44,2.42,3.74c0.86,1.29,1.68,2.66,2.32,4.13c-1.35-3.07-0.21-2.81,0.45-2.2c-2.34-3.06-4.33-6.33-6.48-9.55
						c0.75-0.19,0.76-0.85,0.5-1.84c-0.25-0.99-0.68-2.34-0.94-3.83c-0.98,1.61-2.22-0.18-3.56-2.89c-0.33-0.68-0.68-1.41-1-2.17
						c-0.3-0.77-0.61-1.55-0.91-2.31c-0.61-1.52-1.21-2.96-1.81-4c0.87-0.59,2.21,0.15,3.8,5.59c0.06-3.34-1.42-4.94-2.95-6.57
						c-1.57-1.6-3.01-3.29-2.95-6.53c0.41,1.33,0.47,2.1,1.11,2.48c-0.88-1.43-1.7-4.13-2.13-6.25c-0.41-2.13-0.31-3.72,0.31-2.91
						l0.34,1.34c-0.44-2.27-1.06-5.1-1.79-8.1c-0.67-3.01-1.28-6.21-2.03-9.14c-0.7-2.94-1.26-5.67-1.95-7.71
						c-0.68-2.04-1.36-3.43-2-3.71c0.32-0.12,3.16,0.88,3.77,1.36c-3.39-5.09-6.78-10.43-9.77-16.01c1.13,0.71,2.93-0.42,4.66-0.73
						c1.72-0.31,3.36,0.17,4.13,3.94c0.11-1.1,0.23-2.32,0.2-3.84c-0.02-1.52-0.25-3.33-0.58-5.63c-0.34,1.48-3.17,3.78-3.38,1.72
						c1.24-2.85,1.58-3.82,1.87-4.96c0.14-0.57,0.29-1.18,0.51-2.07c0.23-0.9,0.53-2.08,1.17-3.78c-0.59,2.22-3.89-0.39-3.58-3.99
						c0.48,0.59,3.4-0.09,3.69,1.21l-1.44-4.51c-0.48-1.52-0.84-3.04-1.26-4.57c0.38,2.27,2.81,0.65,3.96-1.2
						c-0.38,0.42-0.17-1.47,0.13-3.75c0.34-2.28,0.89-4.93,0.89-6.12l-1.33,3.57c0.5-2.44,0.55-4.31,0.37-5.91
						c-0.09-0.8-0.25-1.53-0.41-2.22c-0.15-0.69-0.32-1.35-0.5-2.01c-0.36-1.32-0.73-2.66-0.87-4.28c-0.13-1.62-0.11-3.55,0.59-5.98
						c0.38,1.36,3.45,3.84,5.09-0.91c-0.28-0.66-0.77-1.74-1.32-3.14c-0.55-1.4-1.22-3.13-1.66-5.04c-0.48-1.92-0.87-4.06-1.06-6.3
						c-0.08-1.12-0.16-2.27-0.08-3.41c0.08-1.14,0.22-2.28,0.45-3.41l1.52-1.32c0.44-2.32,0.83-4.66,1.42-6.95
						c0.29,2.48,0.86,7.12,1.24,11.82c0.15,2.34,0.5,4.79,0.69,7.02c0.22,2.24,0.34,4.28,0.43,5.96c1.8-3.35,1.41-0.67,2.93-5.99
						c1.45-1.58,0.47,3.29,0.05,4.84l2.14-6.02l0.53-1.5l0.61-1.48l1.22-2.95c-1.05-0.07-0.7-2.54-0.3-5.04
						c0.49-2.46,1.07-4.91,0.2-5.01c-1.25,4.57-2.03,9.26-2.97,13.85c-1.05-0.05-1.73-2.4-1.69-5.87c0.04-1.73,0.17-3.77,0.68-5.86
						c0.51-2.09,1.24-4.29,2.22-6.41c1.64-1.86,2.62,3.05,3.32,3.12c-0.05-0.34,0.06-1.05,0.26-1.92c0.2-0.88,0.49-1.93,0.88-2.92
						c0.75-2.01,1.61-3.92,2.02-4.19l-0.69,3.97c1.43-2.14,1.71-4.29,2.19-6.53c0.49-2.22,1.34-4.45,3.61-6.71
						c0.57-0.89,1.83-2,2.96-2.91c1.12-0.92,1.98-1.72,1.56-2.18c-3.74,1.75-10.34-1.09-10.58-4.04c0.27-0.29,2.25-2.52,4.43-4.83
						c0.55-0.58,1.1-1.17,1.65-1.72c0.58-0.54,1.15-1.06,1.68-1.54c1.06-0.95,1.98-1.7,2.57-2.06c1.75-0.99,1.88,0.75,1.97,2.48
						c0.09,1.74,0.13,3.49,1.61,2.68c-0.39-0.41,0.13-2.39,0.4-3.19c1.64-1.6,0.9,1.73,3.39-2.44c-1.2-1.85,6.07-7.83-0.03-2.85
						c1.2-2.09,2.05-3.05,3-4.04c0.96-0.99,1.98-2.07,3.77-4.23c-1.08,0.27-1.16-1.4-0.61-3.68c0.57-2.26,1.67-5.23,3.17-7.18
						c0.19,0.56,1.44,0.2,2.03,0.02c1.72-1.8,3.28-3.36,4.74-4.78c1.52-1.38,2.98-2.59,4.39-3.81c1.41-1.22,2.81-2.42,4.3-3.7
						c1.52-1.23,3.11-2.55,4.84-4.08c0.95-0.21,4.69-2.65,3.82-0.75c0.79-1.1,1.3-2.39,3.48-4.21c5.37-2.03-4.74,4.15-0.15,3.2
						c-0.46-1.1,4.58-5.92,7.5-8.78c-0.52-0.19-1.27,0.04-2.15,0.54c-0.87,0.5-1.89,1.25-2.86,2.2c-1.96,1.87-3.98,4.2-5.32,5.75
						c-0.82-0.97-0.28-3.06,1.37-5.82c0.84-1.36,1.9-2.96,3.28-4.54c1.4-1.57,3.04-3.22,4.88-4.91c1.5-1.28,2.49-1.96,3.16-2.23
						c0.66-0.29,0.97-0.23,1.11-0.06c0.28,0.35-0.1,1.16,0.37,0.64c3.14-1.9,5.21-3.51,6.75-4.93c1.59-1.34,2.62-2.53,3.62-3.64
						c1-1.11,1.95-2.16,3.39-3.21c1.43-1.05,3.43-1.96,6.37-2.98c5.06-0.79,1.63,2.77,3.12,3.31c-2.66,1.72-4.94,2.57-7.01,3.32
						c-2.03,0.8-3.89,1.42-5.74,2.53l4.95-1.98c-1.48,1.48-4.9,3.93-7.13,4.67c1.06-0.19,2.92-1.04,5.27-2.27
						c1.17-0.63,2.47-1.34,3.87-2.09c1.42-0.71,2.94-1.47,4.51-2.26c1.57-0.78,3.17-1.63,4.81-2.39c1.67-0.72,3.34-1.44,4.97-2.14
						c1.65-0.66,3.22-1.39,4.78-1.87c1.56-0.51,3.03-0.96,4.39-1.31c1.64-1.23,4.64-3.02,2.9-3.03l-3.22,1.52
						c-3.53,0,5.6-4.15,1.18-3.05c0.52-0.33,1.04-0.67,1.58-1.01c0.55-0.32,1.1-0.64,1.67-0.97c1.14-0.65,2.33-1.32,3.6-1.95
						c1.27-0.63,2.62-1.25,4.08-1.78c1.47-0.47,3.05-0.87,4.74-1.17l1.73,1.42c-0.28-0.48-4.57,0.17-6.24,1.24
						c1.24-0.79,3.93-0.91,6.56-1.22c1.32-0.15,2.63-0.38,3.76-0.72c1.14-0.31,2.1-0.79,2.71-1.55c-1.64-0.04-3.31-0.14-4.94-0.07
						c1.1-0.58,2.29-1.16,3.53-1.76c1.24-0.6,2.53-1.23,3.88-1.82c1.35-0.57,2.74-1.18,4.2-1.56c1.46-0.39,2.96-0.68,4.49-0.82
						c-3.08-1.27-1.33,0.44-6.05-0.81c2.12,0.87-1.71,1.73-5.25,2.55c-1.77,0.42-3.47,0.8-4.31,1.2c-0.83,0.42-0.82,0.76,0.81,1.05
						c-2.45-0.61-4.39-0.31-6.48,0.06c-2.09,0.38-4.34,0.8-7.44,0.79c0.36,0.52,2.33,0.43-2.66,1.81c-0.16,0.24-0.61,0.63-0.9,0.87
						c-0.16,0.03-0.21,0.04-0.34,0.07c0.11-0.01,0.19-0.02,0.29-0.02c-0.18,0.16-0.19,0.18,0.11-0.01c1.25-0.15,2.29-0.16,2.78,0.03
						c-0.98,1.09-3.41,2.21-5.84,3.39c-2.41,1.22-4.87,2.38-6,3.21c-2.92,0.84,0.91-1.11-0.87-1.1l-1.7,1.25l-1.66,1.33
						c-0.89-1.08-8.29,1.3-2.05-2.4l-5.94,2.63c-1.91,0.44-4.02,1.31-6.04,2.21c-2,0.94-3.89,1.93-5.17,2.98
						c-2.81,1.29-5.96,5.17-4.18,2.92c-1.4,0.98-2.81,1.93-4.18,2.93l-4.04,3.11L188.02,85c-4.32,2.57-8.12,6.16-12.28,9.47
						c-3.99,3.56-8.35,6.85-13.37,9.84c-1.15,1.25-2.32,2.52-3.73,3.93c-1.36,1.47-2.98,3.07-5.13,4.91l-1.61-0.05
						c-1.45,1.62-3.84,3.86-5.99,5.91c-2.14,2.05-4.03,3.94-4.13,5.08c-1.34,0.39-2.9,1.59-4.57,3.24
						c-0.83,0.83-1.69,1.77-2.56,2.79c-0.84,1.04-1.65,2.18-2.48,3.34c-0.81,1.17-1.64,2.36-2.45,3.54
						c-0.8,1.18-1.62,2.34-2.31,3.51c-1.43,2.31-2.77,4.39-3.96,5.91l1.11,1.07c-0.38,0.54-0.75,1.08-1.1,1.63
						c-0.33,0.57-0.66,1.13-0.99,1.7c-0.65,1.15-1.28,2.32-1.91,3.54c-0.63,1.22-1.26,2.48-1.91,3.8c-0.61,1.34-1.2,2.78-1.84,4.28
						l1.37,0.29c-0.81,2.73-2.8,5.71-4.77,9.2c-1.02,1.72-2.1,3.53-3.17,5.42c-1,1.91-1.92,3.92-2.74,5.98
						c-0.25-0.75,0.74-2.78,1.64-4.13c-1.71,2.14-2.98,4.58-4.01,7.13c-0.94,2.58-1.57,5.31-2.19,7.99
						c-0.67,2.66-1.03,5.37-1.68,7.9c-0.63,2.54-1.48,4.91-2.55,7.11c-0.11,2.44-0.69,4.07-1.43,5.62c0.05-0.22,0.08-0.42,0.08-0.59
						c-0.08,0.23-0.17,0.59-0.26,0.95c-0.5,0.97-0.98,1.98-1.42,3.09c0.52-0.92,0.95-1.8,1.3-2.58c-0.42,1.8-0.75,4.59-0.98,7.33
						l-1.65,0.87c-0.03,0.22-0.05,0.4-0.08,0.63c-1.06,2.56,0.25,2.24,1.6,1.03c-0.06,1.39,0.08,2.69,0.26,3.7
						c-1.31,0.88-1.39,2.69-1.5,4.58c-0.05,0.95-0.12,1.92-0.35,2.81c-0.2,0.9-0.55,1.73-1.25,2.4c0.51,0.99,0.38,4.43,0.43,7.82
						c0.2,3.4,0.58,6.75,1.82,7.52c-0.34,0.08-0.54,0.87-0.48-0.59c-0.52,2.99-0.78,6.02-0.09,8.72l-1.85,1.28l1.21,3.3l1.36,3.26
						c-0.96,4.01-1.54,5.75-3.11,1.8c0.64,2.4,1.02,4.07,1.31,5.37c0.33,1.29,0.51,2.22,0.69,3.09c0.37,1.74,0.67,3.33,2.16,7.26
						l-1.23-0.26c0.44,2.91,2.64,7.28,1.91,9.17c-0.31,1.7-0.05,4.54,0.43,8.12c0.13,0.89,0.25,1.84,0.43,2.81
						c0.21,0.97,0.42,1.98,0.64,3.02c0.47,2.08,0.97,4.29,1.49,6.58c2.41,9.09,5.69,19.23,8.01,27.42c1.03-2.19,1.35-0.21,1.85,2.24
						c0.56,2.42,1.25,5.37,2.61,5.1c-0.35,1.24,0.21,3.59-1.58,1.39c0.54,0.94,1.01,1.85,1.43,2.71c0.43,0.86,0.86,1.66,1.22,2.43
						c0.74,1.55,1.34,2.98,1.95,4.31c0.62,1.32,1.18,2.59,2,3.72c0.81,1.14,1.77,2.2,3.01,3.2c-0.22,1.28-1.98-1-1.96,0.01
						c0.51,0.52,2,2.03,2.03,3.06c0.02,1.02-1.24-0.75-2.24-1.77c1.15,1.91,2.17,3.32,3.1,4.33c0.98,0.98,1.85,1.57,2.64,1.91
						c1.57,0.68,2.82,0.32,3.99-0.06c0.72,2.16,1.43,3.7,2.32,4.91c0.96,1.17,2.1,2.02,3.67,2.86c0.26,1.69,1.11,4.28-2.3,0.02
						c0.42,0.64,1.27,1.95,2.31,3.54c0.53,0.79,1.11,1.66,1.7,2.56c0.64,0.86,1.32,1.74,1.99,2.59c2.69,3.41,5.34,6.41,6.22,5.86
						c0.26,1.03,2.73,3.29,3.42,3.74c1.11,1.31,1.97,2.31,2.69,3.17c0.74,0.85,1.39,1.51,2.02,2.19c1.27,1.34,2.56,2.65,4.98,4.98
						l-1.09-1.55c3.43,0.29,4.35,3.5,8.52,6.96l-0.27,0.07c1.97,2.44,3.36,3.72,4.32,4.57c0.96,0.84,1.53,1.19,2.09,1.55
						c0.56,0.36,1.11,0.71,2.04,1.56c0.47,0.42,1.01,0.98,1.73,1.7c0.73,0.69,1.61,1.57,2.7,2.68l0.34-1.54
						c1.4-0.89,3.26,1.07,5.61,3.7c2.42,2.52,5.41,5.64,8.69,7.11c-0.58-0.69-1.13-1.41-1.69-2.11c1.86,0.68,3.62,2.92,5.31,5.38
						c1.7,2.45,3.34,5.15,5.02,6.21c0.64,0.64-1.43-0.25-2.57-0.69c8.27,6.56,2.11-0.99,9.08,2.26c0.39,0.79-0.3,1.15-0.54,1.63
						c-0.12,0.24-0.12,0.52,0.19,0.9c0.31,0.39,0.93,0.87,2.1,1.46c1,0.92,4.79,1.84,9,3.03c2.14,0.52,4.39,1.12,6.46,1.87
						c1.04,0.38,2.03,0.79,2.95,1.25c0.93,0.42,1.79,0.88,2.54,1.41c-1.2-1.26-2.36-2.51,1.19-1.86c1.31,0.39,2.76,1.07,4.3,1.87
						c0.77,0.39,1.56,0.83,2.37,1.23c0.82,0.38,1.65,0.77,2.48,1.16c3.34,1.48,6.7,2.8,9.43,2.14c0.62,0.38,0.82,0.64,0.8,0.83
						c1.05,0.1,2.42,0.3,3.92,0.52c1.5,0.22,3.12,0.49,4.72,0.6c3.19,0.28,6.18,0.43,7.52,0.02c0.71,1.45,2.72,2.17,5.29,2.66
						c2.57,0.47,5.69,0.67,8.71,0.59c3.01-0.04,5.87-0.01,7.97,0.13c2.1,0.15,3.43,0.62,3.34,1.76c2.14,0.06,4.28,0.19,6.42,0.19
						l6.42-0.07l-0.33,0.46c1.03,0.05,1.97,0.07,2.85,0.07c0.87-0.01,1.67-0.08,2.41-0.14c1.47-0.14,2.69-0.33,3.74-0.56
						c2.09-0.47,3.51-1.04,4.9-1.7c1.9,0.15,0.56,0.69,0.42,0.95c5.99-0.07,9.32-0.11,12.31-0.81c1.5-0.31,2.92-0.72,4.57-1.27
						c0.82-0.29,1.7-0.56,2.66-0.97c0.95-0.41,2-0.86,3.18-1.36l1.29,1.27c0.63-0.34,2.03-0.56,3.96-0.76
						c1.93-0.19,4.35-0.57,7.07-0.94c1.36-0.2,2.79-0.42,4.25-0.68c1.45-0.32,2.93-0.68,4.41-1.09c1.48-0.4,2.97-0.85,4.42-1.35
						c1.46-0.48,2.83-1.17,4.16-1.83c-0.06,0.2-0.2,0.55-1.02,1.05c6.03-2.88,13.79-4.68,20.35-7.01c1.63-0.58,3.2-1.17,4.64-1.77
						c0.72-0.3,1.41-0.61,2.07-0.92c0.64-0.34,1.24-0.69,1.8-1.05c2.24-1.42,3.79-2.95,4.23-4.7l1.78-1.29
						c0.59-0.44,1.15-0.91,1.73-1.37l3.42-2.75c-4.95,2.62-4.87,1.89-4.12,0.71c0.75-1.18,2.16-2.81-0.03-2.07
						c1.8-1.22,4.42-2.27,6.06-2.66c0.81-0.2,1.36-0.27,1.44-0.06c0.08,0.19-0.29,0.69-1.43,1.41l-0.87,0.19
						c-0.16,3.58,12.26-6.56,13.02-4.91c2.24-1.63,4.49-3.24,6.74-4.83c2.22-1.63,4.36-3.35,6.55-5c1.08-0.84,2.2-1.63,3.24-2.51
						c1.05-0.87,2.09-1.75,3.14-2.62c1.05-0.87,2.09-1.74,3.14-2.6c0.52-0.44,1.05-0.86,1.56-1.31l1.5-1.37
						c2-1.82,3.98-3.64,5.96-5.45c1.92-1.87,3.77-3.8,5.64-5.7c0.92-0.96,1.88-1.89,2.76-2.88c0.87-1,1.74-2,2.61-2.99
						c0.86-1,1.72-2,2.58-3c0.86-0.99,1.71-2,2.48-3.05c-1.06,0.19-2.1,0.4-3.19,0.54c1.53-1.85,2.97-3.79,4.46-5.68
						c1.55-1.21,2.92-1.04-0.27,3.07c1.31-0.72,2.42-2.63,3.14-4.39c0.75-1.74,0.97-3.45,0.83-3.63c3.18-3.94,3.17-2.78,2.57-0.92
						c-0.6,1.86-1.8,4.41-0.9,3.12l2.24-3.63l-0.75,0.65c0.59-1.68,0.73-2.71,1.16-3.96c0.21-0.63,0.52-1.3,0.96-2.15
						c0.42-0.87,1-1.9,1.82-3.22c2.4-3.14,2.2-1.04,3.08-2.33c0.13,0.09,0.46-0.33,1.29-2.02c1.56-2.64,3.02-5.33,4.54-8l-3.26,2.42
						c0.58-1.98,1.61-3.86,2.03-4.89c0.21-0.52,0.24-0.84,0.02-0.83c-0.22,0.01-0.71,0.32-1.65,1.02c2.72-2.04,6.74-9.59,9.75-17.23
						c0.83-1.88,1.45-3.82,2.09-5.63c0.64-1.82,1.24-3.53,1.78-5.06c1.02-3.08,1.73-5.42,2.25-6.26c0.11-1.45,0.29-2.86,0.54-4.27
						c0.2-1.42,0.43-2.85,0.73-4.3c0.59-2.9,1.45-5.9,2.14-9.28c-0.69,1.61-2.79,2.18-1.4-3.54c0.88,0.72,1.56,0.44,2.15-0.46
						c0.58-0.9,1.1-2.42,1.49-4.18c0.42-1.76,0.83-3.74,1.37-5.56c0.26-0.91,0.57-1.78,0.9-2.56c0.31-0.79,0.66-1.49,1.08-2.05
						c-1.18,2.04-0.85-2.21-0.67-6.16c0.13-1.97,0.04-3.88-0.17-4.87c-0.22-0.99-0.64-1.07-1.41,0.56c0.6-4.93,1.52-0.2,2.67-3.93
						c-0.13-1.5-0.12-3.02-0.2-4.58c-0.07-1.56-0.08-3.15-0.07-4.77c0.01-1.62,0.1-3.27,0.13-4.95c0.01-1.68,0.03-3.39,0.04-5.11
						c0.01-1.73,0.09-3.49,0.05-5.26c-0.07-1.77-0.14-3.56-0.21-5.36c-0.05-0.9-0.1-1.81-0.15-2.72c-0.04-0.91-0.12-1.82-0.25-2.72
						c-0.23-1.82-0.49-3.64-0.81-5.46c-0.55-0.15-1.02,2.39-2.22-0.6c0.58-2.69,0.89-5.36,1.3-8.09c-0.39-1.41-1.26-1.93-1.93-2.78
						c-0.34-0.43-0.61-0.94-0.77-1.69c-0.18-0.75-0.24-1.73-0.1-3.13c-0.26,0.83-0.66,2.05-1.27,0.2
						c-1.91-14.28-7.14-28.23-13.51-41.49c-6.38-13.31-13.83-25.95-20.7-39.18c1.51,3.84-0.13,1.74-1.93-0.69
						c0.96,1.74-1.07,0.75-1.41,1.5c-0.98-1.8-2-3.58-3.01-5.38l-1.53-2.7c-0.51-0.91-1.02-1.81-1.58-2.67
						c-1.5-0.19-3.69-2.62-5.8-4.96c-1.03-1.19-2.13-2.29-3.09-3.07c-0.95-0.79-1.77-1.28-2.33-1.17l2.94,2.51
						c-2.62-1.05-2.22,1.08-1.62,3.65c0.56,2.63,1.37,5.65,0.05,6.33c1.39,0.61,2.53,1.76,3.57,3.2c1,1.47,1.85,3.28,2.82,5.12
						c0.48,0.92,0.98,1.86,1.53,2.78c0.27,0.46,0.56,0.92,0.86,1.37c0.28,0.46,0.57,0.93,0.89,1.38c1.25,1.81,2.8,3.45,4.87,4.77
						c0.69,1.95-1.75-0.85-1.68,0.4c2.39,1.1,4.06,3.35,6.39,7.94l-0.57-0.32c0.5,0.75,0.98,1.47,1.45,2.16
						c0.44,0.71,0.84,1.42,1.23,2.1c0.78,1.37,1.5,2.66,2.18,3.92c1.4,2.48,2.44,4.9,3.49,7.36c0.52,1.23,1.05,2.47,1.6,3.76
						c0.55,1.28,1,2.67,1.54,4.1c0.53,1.43,1.1,2.95,1.71,4.57c0.15,0.4,0.31,0.82,0.47,1.23c0.14,0.43,0.28,0.86,0.43,1.3
						c0.29,0.88,0.6,1.8,0.92,2.75l0.88-1.64c1.1,3.29,0.95,4.13,1.21,5.75c3.48,2.94-3.46-9.07,0.08-6.59
						c-0.24,1.35,0.19,3.44,0.95,5.89c0.75,2.45,1.62,5.33,2.57,8.13c0.23,0.7,0.46,1.4,0.68,2.09c0.2,0.7,0.37,1.39,0.55,2.07
						c0.34,1.35,0.64,2.64,0.85,3.81c0.42,2.34,0.51,4.19-0.14,5.15c1.19,5.15,1.24-1.92,2.44,3.26l-0.54,1.57l1.43,1.06
						c0.34,1.72,0.25,3.08,0.01,4.03c-0.23,0.95-0.6,1.5-0.96,1.64c-0.07-0.84-0.64-2.31-0.87-3.17c-0.11,2.31,0.55,5.38,1.24,8.09
						c0.37,1.35,0.61,2.63,0.83,3.66c0.21,1.03,0.34,1.82,0.31,2.21c-0.06-1.7-0.08-3.4-0.16-5.1c0.38,1.76,0.68,3.6,0.99,5.46
						c0.15,0.93,0.3,1.88,0.45,2.83c0.16,0.95,0.29,1.91,0.36,2.88c0.34,3.89,0.82,7.86,0.91,11.84c0.1,1.99,0.2,3.97,0.3,5.94
						c0.02,1.97,0.05,3.92,0.12,5.85c0.21,3.85,0.16,7.58,0.44,11.11l0.73-1.02c0.08,1.35,0.13,2.5,0.13,3.5
						c-0.04,1-0.1,1.84-0.18,2.59c-0.16,1.49-0.38,2.59-0.63,3.71c-0.27,1.12-0.49,2.28-0.81,3.88c-0.33,1.6-0.66,3.65-0.96,6.58
						l-0.09-0.45c0.37,2.45,0.02,5.61-0.69,8.77c-0.18-3.07-2.6,5.17-2.68,1.16c-0.06,0.73-0.11,1.39-0.16,1.98
						c-0.07,0.59-0.14,1.13-0.2,1.61c-0.11,0.96-0.19,1.72-0.24,2.32c-0.1,1.21-0.08,1.83,0,2.34c0.08,0.51,0.23,0.91,0.39,1.69
						c0.15,0.78,0.36,1.95,0.37,3.97l-1.59,1.4c0.1,1.4,0.26,2.2,0.21,3.37c-0.06,1.16-0.25,2.73-1.16,5.57
						c0.74-4.89-2.88,3-2.24-2.52c-1.62,2.71-2.66,5.17-3.4,7.43c-0.79,2.24-1.38,4.24-1.86,6.07c-0.52,1.81-0.91,3.46-1.66,4.82
						c-0.74,1.37-1.68,2.52-3.09,3.41c0.18,3.22,1.7,1,3.1-1.66c1.46-2.63,2.45-5.81,2.17-4.19c0.97-1.04,1.05,0.27,0.66,2.3
						c-0.46,2-1.48,4.67-2.45,6.39c-0.88,1.8-2.48,2.91-4.52,4.6c-1.01,0.85-2.09,1.86-3.21,3.2c-0.56,0.67-1.13,1.42-1.7,2.28
						c-0.61,0.84-1.24,1.77-1.87,2.83c0.52-0.84,0.35-1.01,0.87-1.84c-1.29,1.39-1.99,3.07-2.81,4.82
						c-0.41,0.87-0.84,1.76-1.39,2.64c-0.58,0.85-1.29,1.67-2.19,2.43c0.13,3.15-3.37,4.82-1.84,6.8l4.64-7.89
						c-1.18,2.31-1.88,4.87-3.03,7.67c-0.55,1.42-1.35,2.8-2.32,4.26c-0.99,1.45-2.2,2.95-3.76,4.47c0.03-0.83,1.05-3.26,1.82-4.87
						c-1.03,0.79-1.66,1.82-2.29,2.86c-0.64,1.04-1.27,2.11-2.4,2.86c-0.36-0.52-0.08-1.3,0.46-2.35c0.54-1.04,1.42-2.3,2.4-3.66
						c0.98-1.36,2.08-2.83,3.02-4.31c0.88-1.52,1.63-3.04,2.02-4.43c-1.17,0.81-2.2,3.23-3.16,4.92c-0.96,1.68-1.68,2.69-1.89,0.83
						c0.14,2.55-1.42,4.45-3.23,6.55c-1.92,2.03-4.13,4.2-5.32,7.6l-0.8-1.27c-0.47,0.98-1.46,3.04-2.81,4.44l1-3.81
						c-1.23,2.5-3.25,4.19-5.3,5.77c-2.01,1.63-4.25,2.95-5.76,5.08c3.83-3.77,4.55-3.92,4.83-3.41c0.29,0.52,0.14,1.71,2.08,0.38
						c-0.94,1.43-1.88,2.45-2.68,3.29c-0.81,0.84-1.52,1.45-2.18,1.92c-1.31,0.94-2.39,1.29-3.51,1.64
						c-1.11,0.37-2.36,0.66-3.95,1.54c-1.61,0.86-3.53,2.34-6.24,4.88c1.41-1.43,6.22-4.35,4.31-1.75c-1.17,0.82-2.5,1.8-3.86,2.53
						c-1.35,0.74-2.62,1.34-3.53,1.59c-7.5,6.38,2.09,0.2-0.65,3.51c-3.66,0.78-3.45,3.49-6.68,6.54l-0.86-1.16
						c-1.21,0.73-2.13,1.35-2.83,1.87c-0.72,0.49-1.22,0.9-1.57,1.26c-0.69,0.71-0.77,1.21-0.83,1.68
						c-0.11,0.94-0.13,1.79-4.75,4.12l2.56-4.05c-1.4,1.09-2.76,2.25-4.21,3.29c0.03-0.66,0.07-1.29,0.08-1.96
						c-2.15,1.98-3.69,3.11-5.3,4.06c-0.81,0.48-1.64,0.91-2.58,1.37c-0.95,0.46-2.06,0.87-3.36,1.42c1.65,0.3,0.57,2.66-3.92,5.02
						c-3.47,0.72,1.16-2.01-5.24,1.14c0.55-0.74,1.1-1.55,1.93-2.18c0.42-0.32,0.91-0.58,1.5-0.78c0.58-0.23,1.27-0.38,2.11-0.43
						c0.07-0.57,1-1.53,1.07-2.1c-3.64,0.88-8.37,3.74-10.69,4.83c0.92-0.36,2.02-0.77,2.65-0.83c-1.42,1-2.83,2.04-4.28,3.02
						l-4.42,2.82c-1.71,0.09-0.66-0.79,0.36-1.65c-0.94,0.45-1.68,0.97-2.54,1.53c-0.86,0.55-1.83,1.18-3.28,1.71
						c0.35-1.37-0.21-2.38,3.57-4.5c-2.82,1.66-5.76,3.04-8.7,4.51c-0.39-0.14-1.68-0.07-2.74-0.07c-1.05,0.01-1.9-0.14-1.35-0.5
						c-2.68,0.39-5.65,1.88-8.91,3.33c-1.64,0.66-3.35,1.34-5.09,1.89c-1.75,0.54-3.52,1.03-5.33,1.09
						c-0.32,0.29-1.01,0.64-2.48,1.08c-1.67,0.24-3.3,0.4-4.93,0.55c-1.64,0.09-3.27,0.14-4.93,0.27c-1.66,0.12-3.34,0.34-5.1,0.63
						c-1.77,0.24-3.6,0.62-5.56,1.19c-1.56-0.59-3.1-1.08-4.64-1.76c-3.08,0.36-1.54,0.96-0.48,1.63c1.05,0.66,1.6,1.38-3.62,1.99
						c-3.7,0.48-4.4,0.07-4.5-0.55c-0.1-0.61,0.4-1.37-0.89-1.67c-1.82,0.52-4.33,1.3-7.25,1.74c-2.92,0.41-6.24,0.25-9.57-0.76
						C291.57,461.63,293.31,462.03,295.41,461.99z M220.47,444.83c0.74,0.18,1.88,0.39,2.92,0.69c1.06,0.26,2,0.63,2.34,1.23
						c-1.12,0.44-1.91,0.34-2.69-0.04C222.27,446.32,221.53,445.59,220.47,444.83z M130.78,369.33c0.97,0.74,1.76,2.31,2.37,4.28
						C132.28,372.45,131.4,371.07,130.78,369.33z M207.8,74.08c-0.05,0.05-0.08,0.09-0.12,0.14
						C204.23,75.36,205.47,74.98,207.8,74.08z M214.75,71.41c0.59-0.49,0.46-0.65,0.09-0.71c-0.32,0.55-1.83,1.25-3.6,1.96
						C211.89,72.77,212.87,72.62,214.75,71.41z M487.01,370.42l-1.07,1.04C487.25,368.47,487.11,369.44,487.01,370.42z"/>
					<path class="st2" d="M139.89,379.53c0.05,0.49-0.1,0.74-0.26,0.98C140.17,380.86,140.41,380.7,139.89,379.53z"/>
					<path class="st2" d="M343.02,457.57c0.08,0,0.15-0.02,0.23-0.03c0.11-0.11,0.16-0.21,0.18-0.3L343.02,457.57z"/>
					<path class="st2" d="M138.52,151.78c-0.97,1.08-1.64,1.6-2.17,1.89C136.6,153.93,137.22,153.55,138.52,151.78z"/>
					<path class="st2" d="M251.11,55.91c-1.54,0.46-3.03,1.06-4.54,1.61c2.21-0.7,3.08-0.65,4.28-0.68
						C250.67,56.54,249.66,56.28,251.11,55.91z"/>
					<path class="st2" d="M292.74,58.59c0.66-0.2,1.42-0.08,2.08-0.28l-0.21-0.66C291.73,57.8,289.76,58.43,292.74,58.59z"/>
					<path class="st2" d="M256.52,59.58c0.32,0.55,1.17,0.56,2.33,0.31c0.58-0.13,1.24-0.32,1.95-0.53c0.72-0.19,1.49-0.39,2.28-0.6
						c-0.19,0.04-0.37,0.08-0.57,0.11c0.31-0.92-0.37-1.09-1.55-0.87C259.8,58.2,258.16,58.91,256.52,59.58z"/>
					<path class="st2" d="M263.83,58.56c0.98-0.24,1.99-0.46,2.98-0.58C267.06,57.24,265.57,58.07,263.83,58.56z"/>
					<path class="st2" d="M223.06,66.9c1.59-0.29,0.34-1.81,1.36-1.68c0.54-1.05-1.76,0.37-3.2,1.54c-0.73,0.58-1.22,1.14-1.06,1.27
						C220.31,68.15,221.12,67.88,223.06,66.9z"/>
					<polygon class="st2" points="259.97,62.88 258.51,61.68 257.02,63.28 					"/>
					<path class="st2" d="M235.12,68.8l5.03-1.27c-0.15-0.21,0.43-0.57,1.16-0.94C238.27,67.58,234.85,68.42,235.12,68.8z"/>
					<path class="st2" d="M241.31,66.6c1.59-0.48,3.11-0.91,3.93-1.42C244.38,65.46,242.52,66,241.31,66.6z"/>
					<path class="st2" d="M253.22,64.94l-1.56,0.05l-3.53,0.9C249.83,65.57,251.5,65.15,253.22,64.94z"/>
					<path class="st2" d="M185.52,93.89l-4.34,3.66c-0.16,0.75,1.27,0.11,2.85-1.29C184.92,95.18,186.51,93.79,185.52,93.89z"/>
					<path class="st2" d="M202.04,88.26c-1.46,0.48-1.72,0.24-2.71,0.24l0.81,1.68L202.04,88.26z"/>
					<path class="st2" d="M188.61,97.27c-0.16,0.76-5.63,5.89-0.04,1.71c0.08-0.37,1.17-1.46,1.72-2.11
						c0.28-0.31,0.41-0.53,0.2-0.52C190.26,96.36,189.69,96.6,188.61,97.27z"/>
					<polygon class="st2" points="129.57,156.18 130.29,154.94 127.59,153.5 					"/>
					<path class="st2" d="M109.95,226.53c1.99-6.13-1.57-1.88,0.52-7.38c-0.16-0.81-0.67,0.29-1.05,1.42
						c-0.4,1.13-0.8,2.26-0.95,1.43C108.45,225.99,107.63,227.9,109.95,226.53z"/>
					<path class="st2" d="M108.48,222c0.01-0.64-0.01-1.32-0.06-2.06C108.38,221.1,108.42,221.65,108.48,222z"/>
					<path class="st2" d="M460.9,119.46c-0.8-1.27-1.73-2.44-2.6-3.65l1.26,2.75C460.03,118.84,460.46,119.16,460.9,119.46z"/>
					<path class="st2" d="M453.38,114.94l0.65-2.12l-3.09-0.63C451.69,112.83,453.16,114.09,453.38,114.94z"/>
					<path class="st2" d="M212,436.23l-0.49,0.27c0.32,0.74,1.14,1.23,2.8,2.21L212,436.23z"/>
					<polygon class="st2" points="263.37,456.43 262.44,456.2 263.84,458.28 					"/>
					<path class="st2" d="M309.68,458.32c-0.94-0.01-1.96,0.15-2.99,0.22c-1.02,0.07-2.05,0.14-3,0.1
						C307.79,458.41,310.25,460.47,309.68,458.32z"/>
				</g>
			</g>
		</g>
	</g>
</g>
</svg>
