<svg xmlns="http://www.w3.org/2000/svg" xmlns:xlink="http://www.w3.org/1999/xlink" width="405" height="208" viewBox="0 0 405 208"><defs><path id="91osa" d="M428.304 460.804c0-4.918-3.992-8.91-8.91-8.91s-8.91 3.992-8.91 8.91"/><path id="91osb" d="M403.258 460.804a3.612 3.612 0 0 1 3.609-3.61 3.612 3.612 0 0 1 3.61 3.61"/><path id="91osc" d="M406.867 465.51a4.718 4.718 0 0 0-4.715-4.714 4.718 4.718 0 0 0-4.715 4.715 4.718 4.718 0 0 0 4.715 4.715h29.843"/><path id="91osd" d="M431.572 465.51a4.718 4.718 0 0 1 4.715-4.714 4.718 4.718 0 0 1 4.715 4.715 4.718 4.718 0 0 1-4.715 4.715h-13.283"/><path id="91ose" d="M148.509 585.418l4.178-21.177 4.179 20.893"/><path id="91osf" d="M156.866 585.134l4.74-20.616 4.47 20.331"/><path id="91osg" d="M166.076 584.85l4.179-20.332 4.016 20.112"/><path id="91osh" d="M234.964 584.85L230.9 564.24l-4.179 20.893"/><path id="91osi" d="M226.152 584.971l-4.17-20.453-4.179 20.453"/><path id="91osj" d="M217.364 584.971l-4.032-20.453-4.08 20.364"/><path id="91osk" d="M121.747 601.14l5.227-8.137H255.425l4.927 8.137H121.747"/><path id="91osl" d="M174.986 584.882l-4.056 8.121h40.24l-3.187-8.121z"/><path id="91osm" d="M175.45 584.882v-46.606h32.557v46.606z"/><path id="91osn" d="M188.164 483.989l-9.747 26.111h25.135l-9.527-26.111z"/><path id="91oso" d="M186.44 481.599c0-1.32 2.235-2.39 4.992-2.39 2.756 0 4.991 1.07 4.991 2.39s-2.235 2.39-4.991 2.39c-2.757 0-4.992-1.07-4.992-2.39z"/><path id="91osp" d="M188.708 473.868v5.34"/><path id="91osq" d="M194.074 473.868v5.706"/><path id="91osr" d="M191.562 451.862l-.082 9.194z"/><path id="91oss" d="M188.993 453.959h5.048"/><path id="91ost" d="M178.417 510.1l-2.968 28.176h32.566l-4.463-28.176z"/><path id="91osu" d="M126.104 612.839v-4.114h4.114v4.114z"/><path id="91osv" d="M138.42 612.839v-4.114h4.114v4.114z"/><path id="91osw" d="M256.352 608.73v4.114h-4.114v-4.113z"/><path id="91osx" d="M244.029 608.73v4.114h-4.114v-4.113z"/><path id="91osy" d="M188.521 618.358v-10.617c0-1.601 1.008-2.902 2.252-2.902h.96c1.243 0 2.251 1.3 2.251 2.902v10.617"/><path id="91osz" d="M331.248 618.35v-15.77c0-2.383 1.008-4.317 2.252-4.317h.959c1.244 0 2.252 1.934 2.252 4.316v15.771"/><path id="91osA" d="M436.775 618.334v-15.771c0-2.382 1.008-4.317 2.252-4.317h.959c1.244 0 2.252 1.935 2.252 4.317v15.77"/><path id="91osB" d="M189.001 584.971v-10.617c0-1.601 1.008-2.902 2.252-2.902h.96c1.243 0 2.25 1.3 2.25 2.902v10.617"/><path id="91osC" d="M198.09 585.418v-9.186c0-1.39 1.008-2.512 2.251-2.512h.96c1.243 0 2.251 1.122 2.251 2.512v9.186"/><path id="91osD" d="M179.44 585.418v-9.186c0-1.39 1.009-2.512 2.253-2.512h.959c1.244 0 2.252 1.122 2.252 2.512v9.186"/><path id="91osE" d="M157.435 563.705v-3.333c0-1.39 1.544-2.512 3.439-2.512h1.47c1.903 0 3.44 1.122 3.44 2.512v3.333"/><path id="91osF" d="M166.442 563.705v-3.333c0-1.39 1.545-2.512 3.439-2.512h1.471c1.902 0 3.439 1.122 3.439 2.512v3.333"/><path id="91osG" d="M148.509 563.705v-3.333c0-1.39 1.544-2.512 3.439-2.512h1.47c1.903 0 3.44 1.122 3.44 2.512v3.333"/><path id="91osH" d="M189.001 556.616v-18.34h5.471v18.34z"/><path id="91osI" d="M208.015 556.616H175.45"/><path id="91osJ" d="M175.45 568.737h32.565"/><path id="91osK" d="M175.45 563.705h32.565"/><path id="91osL" d="M179.945 556.584v-9.138h4.463v9.138z"/><path id="91osM" d="M198.594 556.584v-9.138h4.463v9.138z"/><path id="91osN" d="M132.177 592.718v-7.584h10.105v7.584z"/><path id="91osO" d="M137.2 565.355c-3.625 6.138-9.356 8.26-9.356 12.153 0 3.854 4.114 7.016 9.357 7.341"/><path id="91osP" d="M137.2 584.85c-5.242-.326-9.356-3.488-9.356-7.342 0-3.893 5.731-6.015 9.357-12.153 3.626 6.138 9.178 8.26 9.178 12.153 0 3.854-4.114 7.016-9.357 7.341"/><path id="91osQ" d="M121.747 618.058V601.14h138.605v16.918z"/><path id="91osR" d="M132.177 588.93l9.528.016"/><path id="91osS" d="M161.605 546.763v11.089"/><path id="91osT" d="M147.485 588.946l25.412.122"/><path id="91osU" d="M226.152 563.705v-3.333c0-1.39-1.545-2.512-3.439-2.512h-1.471c-1.902 0-3.439 1.122-3.439 2.512v3.333"/><path id="91osV" d="M217.145 563.705v-3.333c0-1.39-1.545-2.512-3.439-2.512h-1.471c-1.903 0-3.44 1.122-3.44 2.512v3.333"/><path id="91osW" d="M235.078 563.705v-3.333c0-1.39-1.545-2.512-3.439-2.512h-1.471c-1.902 0-3.439 1.122-3.439 2.512v3.333"/><path id="91osX" d="M251.407 585.138v7.585h-10.105v-7.585z"/><path id="91osY" d="M246.386 565.355c3.626 6.138 9.357 8.26 9.357 12.153 0 3.854-4.114 7.016-9.357 7.341"/><path id="91osZ" d="M246.386 584.85c5.243-.326 9.357-3.488 9.357-7.342 0-3.893-5.731-6.015-9.357-12.153-3.626 6.138-9.178 8.26-9.178 12.153 0 3.854 4.113 7.016 9.357 7.341"/><path id="91osaa" d="M246.337 556.575l.04 9.203z"/><path id="91osab" d="M248.914 558.68h-5.056"/><path id="91osac" d="M137.25 556.575l-.041 9.203z"/><path id="91osad" d="M134.673 558.68h5.056"/><path id="91osae" d="M251.41 588.93l-9.528.016"/><path id="91osaf" d="M221.982 546.763v11.089"/><path id="91osag" d="M236.102 588.946l-26.477.122"/><path id="91osah" d="M191.83 474.534c.114.008-.114 0 0 0 2.731.017 4.959-1.983 4.975-4.463.016-2.48-5.121-9.52-5.243-9.641h-.082c-.122.13-5.04 7.324-4.95 9.796.09 2.471 2.373 4.406 5.105 4.308.122 0 .081.017.195 0"/><path id="91osai" d="M273.408 614.188c.146.008-.147-.008 0 0 3.544.016 6.43-3.024 6.454-6.804.017-3.772-6.625-14.495-6.788-14.69h-.097c-.155.203-6.536 11.17-6.43 14.942.113 3.772 3.073 6.706 6.617 6.56.146-.016.097.008.244-.008"/><path id="91osaj" d="M162.11 504.076l-.017 8.195"/><path id="91osak" d="M162.085 514.53l-.008 3.87"/><path id="91osal" d="M159.72 507.816h5.056"/><path id="91osam" d="M160.98 513.4a1.13 1.13 0 1 1 2.26 0 1.13 1.13 0 0 1-2.26 0z"/><path id="91osan" d="M221.608 504.076l.024 8.195"/><path id="91osao" d="M221.64 514.53l.008 3.87"/><path id="91osap" d="M224.006 507.816h-5.057"/><path id="91osaq" d="M220.478 513.4a1.13 1.13 0 1 1 2.26 0 1.13 1.13 0 0 1-2.26 0z"/><path id="91osar" d="M172.897 593.003v25.055h36.728l-.471-25.34z"/><path id="91osas" d="M179.44 601.14v16.918"/><path id="91osat" d="M203.56 601.14v16.918"/><path id="91osau" d="M146.387 593.726v24.332"/><path id="91osav" d="M237.2 593.726v24.332"/><path id="91osaw" d="M146.387 605.888h26.51"/><path id="91osax" d="M209.609 605.603h27.59"/><path id="91osay" d="M191.432 483.989V510.1"/><path id="91osaz" d="M378.04 618.7v-10.414a7.334 7.334 0 0 1 7.333-7.333 7.334 7.334 0 0 1 7.333 7.333V618.7"/><path id="91osaA" d="M382.414 598.263v-5.919h5.918v5.919z"/><path id="91osaB" d="M376.683 597.474v-2.707h2.707v2.707z"/><path id="91osaC" d="M391.356 597.474v-2.707h2.707v2.707z"/><path id="91osaD" d="M369.74 587.816h31.266"/><path id="91osaE" d="M373.789 560.559v58.954"/><path id="91osaF" d="M396.957 558.941v59.076"/><path id="91osaG" d="M373.789 599.084h-4.049"/><path id="91osaH" d="M373.789 609.001h-4.049"/><path id="91osaI" d="M378.065 609.001h-4.049"/><path id="91osaJ" d="M397.03 609.001h-4.048"/><path id="91osaK" d="M400.754 599.084h-4.049"/><path id="91osaL" d="M400.754 609.001h-4.049"/><path id="91osaM" d="M273.294 614.229v3.861"/><path id="91osaN" d="M260.352 618.058h64.181"/><path id="91osaO" d="M137.2 566.453s-4.495 16.518-.178 18.396"/><path id="91osaP" d="M134.973 568.444s-4.186 10.861-1.195 15.747"/><path id="91osaQ" d="M131.892 571.59s-2.772 9.471-.48 11.503"/><path id="91osaR" d="M137.2 566.453s4.407 16.518.09 18.396"/><path id="91osaS" d="M139.347 568.444s4.187 10.861 1.195 15.747"/><path id="91osaT" d="M142.428 571.59s2.772 9.471.48 11.503"/><path id="91osaU" d="M174.441 585.418H148.51v-21.713h26.753"/><path id="91osaV" d="M148.509 585.418l-2.122 7.3"/><path id="91osaW" d="M154.54 557.917v-11.812h14.942v11.812"/><path id="91osaX" d="M162.012 518.481c-5.049 8.552-13.04 11.512-13.04 16.934 0 5.373 5.731 9.771 13.04 10.226"/><path id="91osaY" d="M162.012 545.641c-7.309-.455-13.04-4.853-13.04-10.226 0-5.422 7.991-8.382 13.04-16.934 5.048 8.552 12.795 11.512 12.795 16.934 0 5.373-5.731 9.771-13.04 10.226"/><path id="91osaZ" d="M162.012 519.7s-6.26 23.324-.244 25.942"/><path id="91osba" d="M158.906 522.782s-5.837 15.137-1.666 21.94"/><path id="91osbb" d="M154.606 527.172s-3.862 13.202-.667 16.023"/><path id="91osbc" d="M162.012 519.7s6.137 23.324.122 25.942"/><path id="91osbd" d="M164.995 522.782s5.837 15.137 1.667 21.94"/><path id="91osbe" d="M169.287 527.172s3.862 13.202.667 16.023"/><path id="91osbf" d="M246.475 566.932s4.406 16.04.09 17.917"/><path id="91osbg" d="M248.613 568.444s4.187 10.861 1.195 15.747"/><path id="91osbh" d="M251.694 571.59s2.772 9.471.48 11.503"/><path id="91osbi" d="M246.386 566.932s-4.406 16.04-.09 17.917"/><path id="91osbj" d="M244.24 568.444s-4.187 10.861-1.195 15.747"/><path id="91osbk" d="M241.159 571.59s-2.772 9.471-.48 11.503"/><path id="91osbl" d="M209.145 585.418h25.933v-21.713h-26.754"/><path id="91osbm" d="M235.078 585.418l2.122 7.3"/><path id="91osbn" d="M229.046 557.917v-11.812h-14.942v11.812"/><path id="91osbo" d="M221.575 518.481c5.049 8.552 13.04 11.512 13.04 16.934 0 5.373-5.732 9.771-13.04 10.226"/><path id="91osbp" d="M221.575 545.641c7.308-.455 13.04-4.853 13.04-10.226 0-5.422-7.992-8.382-13.04-16.934-5.048 8.552-12.795 11.512-12.795 16.934 0 5.373 5.73 9.771 13.04 10.226"/><path id="91osbq" d="M221.575 519.7s6.26 23.324.244 25.942"/><path id="91osbr" d="M224.68 522.782s5.837 15.137 1.667 21.94"/><path id="91osbs" d="M228.981 527.172s3.861 13.202.667 16.023"/><path id="91osbt" d="M221.575 519.7s-6.137 23.324-.122 25.942"/><path id="91osbu" d="M218.592 522.782s-5.837 15.137-1.667 21.94"/><path id="91osbv" d="M214.3 527.172s-3.862 13.202-.667 16.023"/><path id="91osbw" d="M306.34 596.336l-4.244-100.365h-5.032l-3.69 100.365z"/><path id="91osbx" d="M294.577 495.971v-7.568h10.104v7.568z"/><path id="91osby" d="M296.267 488.403v-10.544h6.715v10.544z"/><path id="91osbz" d="M297.479 477.86v-18.853h4.365v18.852z"/><path id="91osbA" d="M294.837 458.6v-6.43h9.552v6.43z"/><path id="91osbB" d="M292.625 452.162v-17.689h13.87v17.69z"/><path id="91osbC" d="M297.21 434.473v-7.438h4.894v7.438z"/><path id="91osbD" d="M299.56 412.361v14.91"/><path id="91osbE" d="M298.056 417.808h3.008"/><path id="91osbF" d="M292.625 447.7h13.87"/><path id="91osbG" d="M292.723 439.172h13.869"/><path id="91osbH" d="M292.723 443.431h13.869"/><path id="91osbI" d="M292.235 543.934h15.633"/><path id="91osbJ" d="M292.235 549.495h15.633"/><path id="91osbK" d="M343.88 618.058h-19.347v-32.371h19.348v7.568z"/><path id="91osbL" d="M449.408 618.041h-19.356v-32.37h19.356v7.568z"/><path id="91osbM" d="M290.447 617.895v-21.632h18.632v21.632z"/><path id="91osbN" d="M376.683 535.488v-10.877h17.397v10.877z"/><path id="91osbO" d="M394.088 524.61l-8.707-25.346-8.698 25.347"/><path id="91osbP" d="M385.381 489.598l1.179 2.374 2.618.374-1.895 1.853.448 2.601-2.35-1.227-2.341 1.227.447-2.6-1.894-1.854 2.617-.374z"/><path id="91osbQ" d="M369.74 618.7l-45.207-.642v-25.055"/><path id="91osbR" d="M389.283 559.746h11.723V618.7H369.74v-58.954h12.097"/><path id="91osbS" d="M392.03 573.216h-12.697V562.69l6.048-7.122 6.65 7.122z"/><path id="91osbT" d="M384.056 564.949v-3.935h3.162v3.935z"/><path id="91osbU" d="M376.683 559.746v-24.21h17.405v24.21"/><path id="91osbV" d="M380.634 546.828a4.74 4.74 0 1 1 9.478 0 4.74 4.74 0 0 1-9.478 0z"/><path id="91osbW" d="M382.276 535.488v-10.877l3.097-23.494 2.845 23.494v10.926"/><path id="91osbX" d="M385.373 547.641l.008-2.227z"/><path id="91osbY" d="M385.381 547.641l1.35 1.285"/><path id="91osbZ" d="M369.74 559.754v-8.576h4.049v8.576z"/><path id="91osca" d="M396.957 559.754v-8.576h4.049v8.576z"/><path id="91oscb" d="M369.74 551.178l1.797-7.236 2.252 7.236"/><path id="91oscc" d="M396.957 551.178l1.797-7.236 2.252 7.236"/><path id="91oscd" d="M373.789 578.769h23.168"/><path id="91osce" d="M343.88 593.255l25.958-.114"/><path id="91oscf" d="M401.705 593.255l28.599-.114"/><path id="91oscg" d="M322.265 585.418v-5.243h23.445v5.243z"/><path id="91osch" d="M325.696 580.15v-4.235h16.583v4.236z"/><path id="91osci" d="M325.696 576.086l4.666-13.666h7.52l4.397 13.666"/><path id="91oscj" d="M331.142 562.282v-6.365h5.87v6.365z"/><path id="91osck" d="M331.142 555.917l2.935-9.674 2.927 9.674"/><path id="91oscl" d="M334.077 562.42v6.309"/><path id="91oscm" d="M332.532 585.418v-1.902"/><path id="91oscn" d="M335.768 585.418v-1.902"/><path id="91osco" d="M320.005 585.418v-1.902"/><path id="91oscp" d="M329.451 585.418v-1.902"/><path id="91oscq" d="M335.613 579.931v-1.894"/><path id="91oscr" d="M338.857 579.931v-1.894"/><path id="91oscs" d="M329.297 579.931v-1.894"/><path id="91osct" d="M332.532 579.931v-1.894"/><path id="91oscu" d="M339.28 585.418v-1.902"/><path id="91oscv" d="M342.28 585.418v-1.902"/><path id="91oscw" d="M427.792 585.394v-5.244h23.445v5.244z"/><path id="91oscx" d="M431.214 580.134V575.9h16.584v4.235z"/><path id="91oscy" d="M431.214 576.07l4.675-13.666h7.52l4.397 13.666"/><path id="91oscz" d="M436.67 562.266v-6.365h5.868v6.365z"/><path id="91oscA" d="M436.67 555.9l2.926-9.681 2.934 9.682"/><path id="91oscB" d="M439.596 562.404v6.3"/><path id="91oscC" d="M438.06 585.402V583.5"/><path id="91oscD" d="M441.295 585.402V583.5"/><path id="91oscE" d="M434.978 585.402V583.5"/><path id="91oscF" d="M441.14 579.915v-1.903"/><path id="91oscG" d="M444.376 579.915v-1.903"/><path id="91oscH" d="M434.816 579.915v-1.903"/><path id="91oscI" d="M438.06 579.915v-1.903"/><path id="91oscJ" d="M444.798 585.402V583.5"/><path id="91oscK" d="M447.806 585.402V583.5"/><path id="91oscL" d="M463.715 481.005l15.202-13.486s41.63 82.626 22.088 149.246c-.334-.83-43.476-110.673-37.29-135.76z"/><path id="91oscM" d="M470.715 618.18c-15.885-38.176 2.121-82.798 2.121-82.798l29.404.813"/><path id="91oscN" d="M499.736 527.025c2.122-3.21 2.919-51.97 2.919-51.97l-23.713-7.894"/><path id="91oscO" d="M463.057 489.484l19.754-12.552"/><path id="91oscP" d="M463.813 497.5l22.94-12.113"/><path id="91oscQ" d="M464.593 503.694l25.152-10.446"/><path id="91oscR" d="M466.187 509.816l26.46-8.276"/><path id="91oscS" d="M467.829 516.929l26.745-7.113"/><path id="91oscT" d="M469.382 523.026l27.956-5.284"/><path id="91oscU" d="M471.146 529.513l28.59-2.488"/><path id="91oscV" d="M475.283 543.52l27.998.813"/><path id="91oscW" d="M477.503 550.568l26.85.813"/><path id="91oscX" d="M480.039 558.348l25.233.813"/><path id="91oscY" d="M483.413 566.534l22.81 1.593"/><path id="91oscZ" d="M485.819 575.257l20.405 1.959"/><path id="91osda" d="M489.282 584.955l16.706 1.699"/><path id="91osdb" d="M492.233 593.011l13.04 2.244"/><path id="91osdc" d="M495.403 601.49l8.74 1.707"/><path id="91osdd" d="M481.64 473.282l20.901 7.422"/><path id="91osde" d="M485.445 482.127l16.787 5.756"/><path id="91osdf" d="M489.282 491.037l12.828 5.495"/><path id="91osdg" d="M492.095 499.898l9.706 4.633"/><path id="91osdh" d="M494.818 508.312l6.626 3.69"/><path id="91osdi" d="M468.317 550.568l6.422-8.829"/><path id="91osdj" d="M466.39 560.25l10.893-10.373"/><path id="91osdk" d="M465.309 568.225l14.73-9.877"/><path id="91osdl" d="M464.732 576.647l17.892-10.6"/><path id="91osdm" d="M464.634 585.329l20.9-10.877"/><path id="91osdn" d="M465.162 592.67l23.616-9.105"/><path id="91osdo" d="M466.227 600.149l25.648-8.097"/><path id="91osdp" d="M467.788 607.14l27.615-6.991"/><path id="91osdq" d="M469.528 612.83l28.737-3.056"/><path id="91osdr" d="M387.495 618.708l127.175-.39"/><path id="91osds" d="M413.907 611.595l-3.675 6.357h11.544l-3.674-6.357"/><path id="91osdt" d="M416.15 603.62l-4.6 7.975h9.202z"/><path id="91osdu" d="M354.717 611.595l-3.674 6.357h11.544l-3.675-6.357"/><path id="91osdv" d="M356.961 603.62l-4.61 7.975h9.211z"/><path id="91osdw" d="M128.25 618.058H112"/></defs><g><g transform="translate(-111 -412)"><g><use fill="#fff" fill-opacity="0" stroke="#0d0e0f" stroke-linecap="round" stroke-miterlimit="50" stroke-width="2" xlink:href="#91osa"/></g><g><use fill="#fff" fill-opacity="0" stroke="#0d0e0f" stroke-linecap="round" stroke-miterlimit="50" stroke-width="2" xlink:href="#91osb"/></g><g><use fill="#fff" fill-opacity="0" stroke="#0d0e0f" stroke-linecap="round" stroke-miterlimit="50" stroke-width="2" xlink:href="#91osc"/></g><g><use fill="#fff" fill-opacity="0" stroke="#0d0e0f" stroke-linecap="round" stroke-miterlimit="50" stroke-width="2" xlink:href="#91osd"/></g><g><use fill="#fff" fill-opacity="0" stroke="#0d0e0f" stroke-linecap="square" stroke-linejoin="round" stroke-miterlimit="50" stroke-width="2" xlink:href="#91ose"/></g><g><use fill="#fff" fill-opacity="0" stroke="#0d0e0f" stroke-linecap="square" stroke-linejoin="round" stroke-miterlimit="50" stroke-width="2" xlink:href="#91osf"/></g><g><use fill="#fff" fill-opacity="0" stroke="#0d0e0f" stroke-linecap="square" stroke-linejoin="round" stroke-miterlimit="50" stroke-width="2" xlink:href="#91osg"/></g><g><use fill="#fff" fill-opacity="0" stroke="#0d0e0f" stroke-linecap="square" stroke-linejoin="round" stroke-miterlimit="50" stroke-width="2" xlink:href="#91osh"/></g><g><use fill="#fff" fill-opacity="0" stroke="#0d0e0f" stroke-linecap="square" stroke-linejoin="round" stroke-miterlimit="50" stroke-width="2" xlink:href="#91osi"/></g><g><use fill="#fff" fill-opacity="0" stroke="#0d0e0f" stroke-linecap="square" stroke-linejoin="round" stroke-miterlimit="50" stroke-width="2" xlink:href="#91osj"/></g><g><use fill="#fff" fill-opacity="0" stroke="#0d0e0f" stroke-linejoin="round" stroke-miterlimit="50" stroke-width="2" xlink:href="#91osk"/></g><g><use fill="#fff" fill-opacity="0" stroke="#0d0e0f" stroke-miterlimit="50" stroke-width="2" xlink:href="#91osl"/></g><g><use fill="#fff" fill-opacity="0" stroke="#0d0e0f" stroke-miterlimit="50" stroke-width="2" xlink:href="#91osm"/></g><g><use fill="#fff" fill-opacity="0" stroke="#0d0e0f" stroke-miterlimit="50" stroke-width="2" xlink:href="#91osn"/></g><g><use fill="#fff" fill-opacity="0" stroke="#0d0e0f" stroke-miterlimit="50" stroke-width="2" xlink:href="#91oso"/></g><g><use fill="#fff" fill-opacity="0" stroke="#0d0e0f" stroke-miterlimit="50" stroke-width="2" xlink:href="#91osp"/></g><g><use fill="#fff" fill-opacity="0" stroke="#0d0e0f" stroke-miterlimit="50" stroke-width="2" xlink:href="#91osq"/></g><g><use fill="#fff" fill-opacity="0" stroke="#0d0e0f" stroke-miterlimit="50" stroke-width="2" xlink:href="#91osr"/></g><g><use fill="#fff" fill-opacity="0" stroke="#0d0e0f" stroke-miterlimit="50" stroke-width="2" xlink:href="#91oss"/></g><g><use fill="#fff" fill-opacity="0" stroke="#0d0e0f" stroke-miterlimit="50" stroke-width="2" xlink:href="#91ost"/></g><g><use fill="#fff" fill-opacity="0" stroke="#0d0e0f" stroke-miterlimit="50" stroke-width="2" xlink:href="#91osu"/></g><g><use fill="#fff" fill-opacity="0" stroke="#0d0e0f" stroke-miterlimit="50" stroke-width="2" xlink:href="#91osv"/></g><g><use fill="#fff" fill-opacity="0" stroke="#0d0e0f" stroke-miterlimit="50" stroke-width="2" xlink:href="#91osw"/></g><g><use fill="#fff" fill-opacity="0" stroke="#0d0e0f" stroke-miterlimit="50" stroke-width="2" xlink:href="#91osx"/></g><g><use fill="#fff" fill-opacity="0" stroke="#0d0e0f" stroke-miterlimit="50" stroke-width="2" xlink:href="#91osy"/></g><g><use fill="#fff" fill-opacity="0" stroke="#0d0e0f" stroke-miterlimit="50" stroke-width="2" xlink:href="#91osz"/></g><g><use fill="#fff" fill-opacity="0" stroke="#0d0e0f" stroke-miterlimit="50" stroke-width="2" xlink:href="#91osA"/></g><g><use fill="#fff" fill-opacity="0" stroke="#0d0e0f" stroke-miterlimit="50" stroke-width="2" xlink:href="#91osB"/></g><g><use fill="#fff" fill-opacity="0" stroke="#0d0e0f" stroke-miterlimit="50" stroke-width="2" xlink:href="#91osC"/></g><g><use fill="#fff" fill-opacity="0" stroke="#0d0e0f" stroke-miterlimit="50" stroke-width="2" xlink:href="#91osD"/></g><g><use fill="#fff" fill-opacity="0" stroke="#0d0e0f" stroke-miterlimit="50" stroke-width="2" xlink:href="#91osE"/></g><g><use fill="#fff" fill-opacity="0" stroke="#0d0e0f" stroke-miterlimit="50" stroke-width="2" xlink:href="#91osF"/></g><g><use fill="#fff" fill-opacity="0" stroke="#0d0e0f" stroke-miterlimit="50" stroke-width="2" xlink:href="#91osG"/></g><g><use fill="#fff" fill-opacity="0" stroke="#0d0e0f" stroke-miterlimit="50" stroke-width="2" xlink:href="#91osH"/></g><g/><g><use fill="#fff" fill-opacity="0" stroke="#0d0e0f" stroke-miterlimit="50" stroke-width="2" xlink:href="#91osI"/></g><g><use fill="#fff" fill-opacity="0" stroke="#0d0e0f" stroke-miterlimit="50" stroke-width="2" xlink:href="#91osJ"/></g><g><use fill="#fff" fill-opacity="0" stroke="#0d0e0f" stroke-miterlimit="50" stroke-width="2" xlink:href="#91osK"/></g><g><use fill="#fff" fill-opacity="0" stroke="#0d0e0f" stroke-miterlimit="50" stroke-width="2" xlink:href="#91osL"/></g><g><use fill="#fff" fill-opacity="0" stroke="#0d0e0f" stroke-miterlimit="50" stroke-width="2" xlink:href="#91osM"/></g><g><use fill="#fff" fill-opacity="0" stroke="#0d0e0f" stroke-miterlimit="50" stroke-width="2" xlink:href="#91osN"/></g><g><use fill="#fff" fill-opacity="0" stroke="#0d0e0f" stroke-miterlimit="50" stroke-width="2" xlink:href="#91osO"/></g><g><use fill="#fff" fill-opacity="0" stroke="#0d0e0f" stroke-miterlimit="50" stroke-width="2" xlink:href="#91osP"/></g><g><use fill="#fff" fill-opacity="0" stroke="#0d0e0f" stroke-linejoin="round" stroke-miterlimit="50" stroke-width="2" xlink:href="#91osQ"/></g><g/><g><use fill="#fff" fill-opacity="0" stroke="#0d0e0f" stroke-miterlimit="50" stroke-width="2" xlink:href="#91osR"/></g><g><use fill="#fff" fill-opacity="0" stroke="#0d0e0f" stroke-miterlimit="50" stroke-width="2" xlink:href="#91osS"/></g><g><use fill="#fff" fill-opacity="0" stroke="#0d0e0f" stroke-miterlimit="50" stroke-width="2" xlink:href="#91osT"/></g><g><use fill="#fff" fill-opacity="0" stroke="#0d0e0f" stroke-miterlimit="50" stroke-width="2" xlink:href="#91osU"/></g><g><use fill="#fff" fill-opacity="0" stroke="#0d0e0f" stroke-miterlimit="50" stroke-width="2" xlink:href="#91osV"/></g><g><use fill="#fff" fill-opacity="0" stroke="#0d0e0f" stroke-miterlimit="50" stroke-width="2" xlink:href="#91osW"/></g><g><use fill="#fff" fill-opacity="0" stroke="#0d0e0f" stroke-miterlimit="50" stroke-width="2" xlink:href="#91osX"/></g><g><use fill="#fff" fill-opacity="0" stroke="#0d0e0f" stroke-miterlimit="50" stroke-width="2" xlink:href="#91osY"/></g><g><use fill="#fff" fill-opacity="0" stroke="#0d0e0f" stroke-miterlimit="50" stroke-width="2" xlink:href="#91osZ"/></g><g><use fill="#fff" fill-opacity="0" stroke="#0d0e0f" stroke-miterlimit="50" stroke-width="2" xlink:href="#91osaa"/></g><g><use fill="#fff" fill-opacity="0" stroke="#0d0e0f" stroke-miterlimit="50" stroke-width="2" xlink:href="#91osab"/></g><g><use fill="#fff" fill-opacity="0" stroke="#0d0e0f" stroke-miterlimit="50" stroke-width="2" xlink:href="#91osac"/></g><g><use fill="#fff" fill-opacity="0" stroke="#0d0e0f" stroke-miterlimit="50" stroke-width="2" xlink:href="#91osad"/></g><g/><g><use fill="#fff" fill-opacity="0" stroke="#0d0e0f" stroke-miterlimit="50" stroke-width="2" xlink:href="#91osae"/></g><g><use fill="#fff" fill-opacity="0" stroke="#0d0e0f" stroke-miterlimit="50" stroke-width="2" xlink:href="#91osaf"/></g><g><use fill="#fff" fill-opacity="0" stroke="#0d0e0f" stroke-miterlimit="50" stroke-width="2" xlink:href="#91osag"/></g><g><use fill="#fff" fill-opacity="0" stroke="#0d0e0f" stroke-miterlimit="50" stroke-width="2" xlink:href="#91osah"/></g><g><use fill="#fff" fill-opacity="0" stroke="#0d0e0f" stroke-miterlimit="50" stroke-width="2" xlink:href="#91osai"/></g><g><use fill="#fff" fill-opacity="0" stroke="#0d0e0f" stroke-miterlimit="50" stroke-width="2" xlink:href="#91osaj"/></g><g><use fill="#fff" fill-opacity="0" stroke="#0d0e0f" stroke-miterlimit="50" stroke-width="2" xlink:href="#91osak"/></g><g><use fill="#fff" fill-opacity="0" stroke="#0d0e0f" stroke-miterlimit="50" stroke-width="2" xlink:href="#91osal"/></g><g><use fill="#fff" fill-opacity="0" stroke="#0d0e0f" stroke-miterlimit="50" stroke-width="2" xlink:href="#91osam"/></g><g><use fill="#fff" fill-opacity="0" stroke="#0d0e0f" stroke-miterlimit="50" stroke-width="2" xlink:href="#91osan"/></g><g><use fill="#fff" fill-opacity="0" stroke="#0d0e0f" stroke-miterlimit="50" stroke-width="2" xlink:href="#91osao"/></g><g><use fill="#fff" fill-opacity="0" stroke="#0d0e0f" stroke-miterlimit="50" stroke-width="2" xlink:href="#91osap"/></g><g><use fill="#fff" fill-opacity="0" stroke="#0d0e0f" stroke-miterlimit="50" stroke-width="2" xlink:href="#91osaq"/></g><g><use fill="#fff" fill-opacity="0" stroke="#0d0e0f" stroke-miterlimit="50" stroke-width="2" xlink:href="#91osar"/></g><g><use fill="#fff" fill-opacity="0" stroke="#0d0e0f" stroke-miterlimit="50" stroke-width="2" xlink:href="#91osas"/></g><g><use fill="#fff" fill-opacity="0" stroke="#0d0e0f" stroke-miterlimit="50" stroke-width="2" xlink:href="#91osat"/></g><g><use fill="#fff" fill-opacity="0" stroke="#0d0e0f" stroke-miterlimit="50" stroke-width="2" xlink:href="#91osau"/></g><g><use fill="#fff" fill-opacity="0" stroke="#0d0e0f" stroke-miterlimit="50" stroke-width="2" xlink:href="#91osav"/></g><g><use fill="#fff" fill-opacity="0" stroke="#0d0e0f" stroke-miterlimit="50" stroke-width="2" xlink:href="#91osaw"/></g><g><use fill="#fff" fill-opacity="0" stroke="#0d0e0f" stroke-miterlimit="50" stroke-width="2" xlink:href="#91osax"/></g><g><use fill="#fff" fill-opacity="0" stroke="#0d0e0f" stroke-miterlimit="50" stroke-width="2" xlink:href="#91osay"/></g><g><use fill="#fff" fill-opacity="0" stroke="#0d0e0f" stroke-miterlimit="50" stroke-width="2" xlink:href="#91osaz"/></g><g><use fill="#fff" fill-opacity="0" stroke="#0d0e0f" stroke-miterlimit="50" stroke-width="2" xlink:href="#91osaA"/></g><g><use fill="#fff" fill-opacity="0" stroke="#0d0e0f" stroke-miterlimit="50" stroke-width="2" xlink:href="#91osaB"/></g><g><use fill="#fff" fill-opacity="0" stroke="#0d0e0f" stroke-miterlimit="50" stroke-width="2" xlink:href="#91osaC"/></g><g><use fill="#fff" fill-opacity="0" stroke="#0d0e0f" stroke-miterlimit="50" stroke-width="2" xlink:href="#91osaD"/></g><g><use fill="#fff" fill-opacity="0" stroke="#0d0e0f" stroke-miterlimit="50" stroke-width="2" xlink:href="#91osaE"/></g><g><use fill="#fff" fill-opacity="0" stroke="#0d0e0f" stroke-miterlimit="50" stroke-width="2" xlink:href="#91osaF"/></g><g/><g/><g/><g><use fill="#fff" fill-opacity="0" stroke="#0d0e0f" stroke-miterlimit="50" stroke-width="2" xlink:href="#91osaG"/></g><g><use fill="#fff" fill-opacity="0" stroke="#0d0e0f" stroke-miterlimit="50" stroke-width="2" xlink:href="#91osaH"/></g><g><use fill="#fff" fill-opacity="0" stroke="#0d0e0f" stroke-miterlimit="50" stroke-width="2" xlink:href="#91osaI"/></g><g><use fill="#fff" fill-opacity="0" stroke="#0d0e0f" stroke-miterlimit="50" stroke-width="2" xlink:href="#91osaJ"/></g><g><use fill="#fff" fill-opacity="0" stroke="#0d0e0f" stroke-miterlimit="50" stroke-width="2" xlink:href="#91osaK"/></g><g><use fill="#fff" fill-opacity="0" stroke="#0d0e0f" stroke-miterlimit="50" stroke-width="2" xlink:href="#91osaL"/></g><g><use fill="#fff" fill-opacity="0" stroke="#0d0e0f" stroke-miterlimit="50" stroke-width="2" xlink:href="#91osaM"/></g><g><use fill="#fff" fill-opacity="0" stroke="#0d0e0f" stroke-miterlimit="50" stroke-width="2" xlink:href="#91osaN"/></g><g><use fill="#fff" fill-opacity="0" stroke="#0d0e0f" stroke-miterlimit="50" xlink:href="#91osaO"/></g><g><use fill="#fff" fill-opacity="0" stroke="#0d0e0f" stroke-miterlimit="50" xlink:href="#91osaP"/></g><g><use fill="#fff" fill-opacity="0" stroke="#0d0e0f" stroke-miterlimit="50" xlink:href="#91osaQ"/></g><g><use fill="#fff" fill-opacity="0" stroke="#0d0e0f" stroke-miterlimit="50" xlink:href="#91osaR"/></g><g><use fill="#fff" fill-opacity="0" stroke="#0d0e0f" stroke-miterlimit="50" xlink:href="#91osaS"/></g><g><use fill="#fff" fill-opacity="0" stroke="#0d0e0f" stroke-miterlimit="50" xlink:href="#91osaT"/></g><g><use fill="#fff" fill-opacity="0" stroke="#0d0e0f" stroke-miterlimit="50" stroke-width="2" xlink:href="#91osaU"/></g><g><use fill="#fff" fill-opacity="0" stroke="#0d0e0f" stroke-miterlimit="50" stroke-width="2" xlink:href="#91osaV"/></g><g><use fill="#fff" fill-opacity="0" stroke="#0d0e0f" stroke-miterlimit="50" stroke-width="2" xlink:href="#91osaW"/></g><g><use fill="#fff" fill-opacity="0" stroke="#0d0e0f" stroke-miterlimit="50" stroke-width="2" xlink:href="#91osaX"/></g><g><use fill="#fff" fill-opacity="0" stroke="#0d0e0f" stroke-miterlimit="50" stroke-width="2" xlink:href="#91osaY"/></g><g/><g><use fill="#fff" fill-opacity="0" stroke="#0d0e0f" stroke-miterlimit="50" xlink:href="#91osaZ"/></g><g><use fill="#fff" fill-opacity="0" stroke="#0d0e0f" stroke-miterlimit="50" xlink:href="#91osba"/></g><g><use fill="#fff" fill-opacity="0" stroke="#0d0e0f" stroke-miterlimit="50" xlink:href="#91osbb"/></g><g><use fill="#fff" fill-opacity="0" stroke="#0d0e0f" stroke-miterlimit="50" xlink:href="#91osbc"/></g><g><use fill="#fff" fill-opacity="0" stroke="#0d0e0f" stroke-miterlimit="50" xlink:href="#91osbd"/></g><g><use fill="#fff" fill-opacity="0" stroke="#0d0e0f" stroke-miterlimit="50" xlink:href="#91osbe"/></g><g><use fill="#fff" fill-opacity="0" stroke="#0d0e0f" stroke-miterlimit="50" xlink:href="#91osbf"/></g><g><use fill="#fff" fill-opacity="0" stroke="#0d0e0f" stroke-miterlimit="50" xlink:href="#91osbg"/></g><g><use fill="#fff" fill-opacity="0" stroke="#0d0e0f" stroke-miterlimit="50" xlink:href="#91osbh"/></g><g><use fill="#fff" fill-opacity="0" stroke="#0d0e0f" stroke-miterlimit="50" xlink:href="#91osbi"/></g><g><use fill="#fff" fill-opacity="0" stroke="#0d0e0f" stroke-miterlimit="50" xlink:href="#91osbj"/></g><g><use fill="#fff" fill-opacity="0" stroke="#0d0e0f" stroke-miterlimit="50" xlink:href="#91osbk"/></g><g><use fill="#fff" fill-opacity="0" stroke="#0d0e0f" stroke-miterlimit="50" stroke-width="2" xlink:href="#91osbl"/></g><g><use fill="#fff" fill-opacity="0" stroke="#0d0e0f" stroke-miterlimit="50" stroke-width="2" xlink:href="#91osbm"/></g><g><use fill="#fff" fill-opacity="0" stroke="#0d0e0f" stroke-miterlimit="50" stroke-width="2" xlink:href="#91osbn"/></g><g><use fill="#fff" fill-opacity="0" stroke="#0d0e0f" stroke-miterlimit="50" stroke-width="2" xlink:href="#91osbo"/></g><g><use fill="#fff" fill-opacity="0" stroke="#0d0e0f" stroke-miterlimit="50" stroke-width="2" xlink:href="#91osbp"/></g><g/><g><use fill="#fff" fill-opacity="0" stroke="#0d0e0f" stroke-miterlimit="50" xlink:href="#91osbq"/></g><g><use fill="#fff" fill-opacity="0" stroke="#0d0e0f" stroke-miterlimit="50" xlink:href="#91osbr"/></g><g><use fill="#fff" fill-opacity="0" stroke="#0d0e0f" stroke-miterlimit="50" xlink:href="#91osbs"/></g><g><use fill="#fff" fill-opacity="0" stroke="#0d0e0f" stroke-miterlimit="50" xlink:href="#91osbt"/></g><g><use fill="#fff" fill-opacity="0" stroke="#0d0e0f" stroke-miterlimit="50" xlink:href="#91osbu"/></g><g><use fill="#fff" fill-opacity="0" stroke="#0d0e0f" stroke-miterlimit="50" xlink:href="#91osbv"/></g><g><use fill="#fff" fill-opacity="0" stroke="#0d0e0f" stroke-miterlimit="50" stroke-width="2" xlink:href="#91osbw"/></g><g><use fill="#fff" fill-opacity="0" stroke="#0d0e0f" stroke-miterlimit="50" stroke-width="2" xlink:href="#91osbx"/></g><g><use fill="#fff" fill-opacity="0" stroke="#0d0e0f" stroke-miterlimit="50" stroke-width="2" xlink:href="#91osby"/></g><g><use fill="#fff" fill-opacity="0" stroke="#0d0e0f" stroke-miterlimit="50" stroke-width="2" xlink:href="#91osbz"/></g><g><use fill="#fff" fill-opacity="0" stroke="#0d0e0f" stroke-miterlimit="50" stroke-width="2" xlink:href="#91osbA"/></g><g><use fill="#fff" fill-opacity="0" stroke="#0d0e0f" stroke-miterlimit="50" stroke-width="2" xlink:href="#91osbB"/></g><g><use fill="#fff" fill-opacity="0" stroke="#0d0e0f" stroke-miterlimit="50" stroke-width="2" xlink:href="#91osbC"/></g><g><use fill="#fff" fill-opacity="0" stroke="#0d0e0f" stroke-miterlimit="50" stroke-width="2" xlink:href="#91osbD"/></g><g><use fill="#fff" fill-opacity="0" stroke="#0d0e0f" stroke-miterlimit="50" stroke-width="2" xlink:href="#91osbE"/></g><g><use fill="#fff" fill-opacity="0" stroke="#0d0e0f" stroke-miterlimit="50" stroke-width="2" xlink:href="#91osbF"/></g><g><use fill="#fff" fill-opacity="0" stroke="#0d0e0f" stroke-miterlimit="50" stroke-width="2" xlink:href="#91osbG"/></g><g><use fill="#fff" fill-opacity="0" stroke="#0d0e0f" stroke-miterlimit="50" stroke-width="2" xlink:href="#91osbH"/></g><g><use fill="#fff" fill-opacity="0" stroke="#0d0e0f" stroke-miterlimit="50" stroke-width="2" xlink:href="#91osbI"/></g><g><use fill="#fff" fill-opacity="0" stroke="#0d0e0f" stroke-miterlimit="50" stroke-width="2" xlink:href="#91osbJ"/></g><g><use fill="#fff" fill-opacity="0" stroke="#0d0e0f" stroke-miterlimit="50" stroke-width="2" xlink:href="#91osbK"/></g><g><use fill="#fff" fill-opacity="0" stroke="#0d0e0f" stroke-miterlimit="50" stroke-width="2" xlink:href="#91osbL"/></g><g><use fill="#fff" fill-opacity="0" stroke="#0d0e0f" stroke-miterlimit="50" stroke-width="2" xlink:href="#91osbM"/></g><g><use fill="#fff" fill-opacity="0" stroke="#0d0e0f" stroke-miterlimit="50" stroke-width="2" xlink:href="#91osbN"/></g><g><use fill="#fff" fill-opacity="0" stroke="#0d0e0f" stroke-miterlimit="50" stroke-width="2" xlink:href="#91osbO"/></g><g><use fill="#fff" fill-opacity="0" stroke="#0d0e0f" stroke-miterlimit="50" stroke-width="2" xlink:href="#91osbP"/></g><g><use fill="#fff" fill-opacity="0" stroke="#0d0e0f" stroke-miterlimit="50" stroke-width="2" xlink:href="#91osbQ"/></g><g><use fill="#fff" fill-opacity="0" stroke="#0d0e0f" stroke-miterlimit="50" stroke-width="2" xlink:href="#91osbR"/></g><g><use fill="#fff" fill-opacity="0" stroke="#0d0e0f" stroke-miterlimit="50" stroke-width="2" xlink:href="#91osbS"/></g><g><use fill="#fff" fill-opacity="0" stroke="#0d0e0f" stroke-miterlimit="50" stroke-width="2" xlink:href="#91osbT"/></g><g><use fill="#fff" fill-opacity="0" stroke="#0d0e0f" stroke-miterlimit="50" stroke-width="2" xlink:href="#91osbU"/></g><g><use fill="#fff" fill-opacity="0" stroke="#0d0e0f" stroke-miterlimit="50" stroke-width="2" xlink:href="#91osbV"/></g><g><use fill="#fff" fill-opacity="0" stroke="#0d0e0f" stroke-miterlimit="50" stroke-width="2" xlink:href="#91osbW"/></g><g><use fill="#fff" fill-opacity="0" stroke="#0d0e0f" stroke-linecap="round" stroke-linejoin="round" stroke-miterlimit="50" stroke-width="2" xlink:href="#91osbX"/></g><g><use fill="#fff" fill-opacity="0" stroke="#0d0e0f" stroke-linecap="round" stroke-miterlimit="50" stroke-width="2" xlink:href="#91osbY"/></g><g><use fill="#fff" fill-opacity="0" stroke="#0d0e0f" stroke-miterlimit="50" stroke-width="2" xlink:href="#91osbZ"/></g><g><use fill="#fff" fill-opacity="0" stroke="#0d0e0f" stroke-miterlimit="50" stroke-width="2" xlink:href="#91osca"/></g><g><use fill="#fff" fill-opacity="0" stroke="#0d0e0f" stroke-miterlimit="50" stroke-width="2" xlink:href="#91oscb"/></g><g><use fill="#fff" fill-opacity="0" stroke="#0d0e0f" stroke-miterlimit="50" stroke-width="2" xlink:href="#91oscc"/></g><g><use fill="#fff" fill-opacity="0" stroke="#0d0e0f" stroke-miterlimit="50" stroke-width="2" xlink:href="#91oscd"/></g><g><use fill="#fff" fill-opacity="0" stroke="#0d0e0f" stroke-miterlimit="50" stroke-width="2" xlink:href="#91osce"/></g><g><use fill="#fff" fill-opacity="0" stroke="#0d0e0f" stroke-miterlimit="50" stroke-width="2" xlink:href="#91oscf"/></g><g/><g/><g/><g><use fill="#fff" fill-opacity="0" stroke="#0d0e0f" stroke-miterlimit="50" stroke-width="2" xlink:href="#91oscg"/></g><g><use fill="#fff" fill-opacity="0" stroke="#0d0e0f" stroke-miterlimit="50" stroke-width="2" xlink:href="#91osch"/></g><g><use fill="#fff" fill-opacity="0" stroke="#0d0e0f" stroke-miterlimit="50" stroke-width="2" xlink:href="#91osci"/></g><g><use fill="#fff" fill-opacity="0" stroke="#0d0e0f" stroke-miterlimit="50" stroke-width="2" xlink:href="#91oscj"/></g><g><use fill="#fff" fill-opacity="0" stroke="#0d0e0f" stroke-miterlimit="50" stroke-width="2" xlink:href="#91osck"/></g><g><use fill="#fff" fill-opacity="0" stroke="#0d0e0f" stroke-miterlimit="50" stroke-width="2" xlink:href="#91oscl"/></g><g><use fill="#fff" fill-opacity="0" stroke="#0d0e0f" stroke-miterlimit="50" stroke-width="2" xlink:href="#91oscm"/></g><g><use fill="#fff" fill-opacity="0" stroke="#0d0e0f" stroke-miterlimit="50" stroke-width="2" xlink:href="#91oscn"/></g><g><use fill="#fff" fill-opacity="0" stroke="#0d0e0f" stroke-miterlimit="50" stroke-width="2" xlink:href="#91osco"/></g><g><use fill="#fff" fill-opacity="0" stroke="#0d0e0f" stroke-miterlimit="50" stroke-width="2" xlink:href="#91oscp"/></g><g><use fill="#fff" fill-opacity="0" stroke="#0d0e0f" stroke-miterlimit="50" stroke-width="2" xlink:href="#91oscq"/></g><g><use fill="#fff" fill-opacity="0" stroke="#0d0e0f" stroke-miterlimit="50" stroke-width="2" xlink:href="#91oscr"/></g><g><use fill="#fff" fill-opacity="0" stroke="#0d0e0f" stroke-miterlimit="50" stroke-width="2" xlink:href="#91oscs"/></g><g><use fill="#fff" fill-opacity="0" stroke="#0d0e0f" stroke-miterlimit="50" stroke-width="2" xlink:href="#91osct"/></g><g><use fill="#fff" fill-opacity="0" stroke="#0d0e0f" stroke-miterlimit="50" stroke-width="2" xlink:href="#91oscu"/></g><g><use fill="#fff" fill-opacity="0" stroke="#0d0e0f" stroke-miterlimit="50" stroke-width="2" xlink:href="#91oscv"/></g><g><use fill="#fff" fill-opacity="0" stroke="#0d0e0f" stroke-miterlimit="50" stroke-width="2" xlink:href="#91oscw"/></g><g><use fill="#fff" fill-opacity="0" stroke="#0d0e0f" stroke-miterlimit="50" stroke-width="2" xlink:href="#91oscx"/></g><g><use fill="#fff" fill-opacity="0" stroke="#0d0e0f" stroke-miterlimit="50" stroke-width="2" xlink:href="#91oscy"/></g><g><use fill="#fff" fill-opacity="0" stroke="#0d0e0f" stroke-miterlimit="50" stroke-width="2" xlink:href="#91oscz"/></g><g><use fill="#fff" fill-opacity="0" stroke="#0d0e0f" stroke-miterlimit="50" stroke-width="2" xlink:href="#91oscA"/></g><g><use fill="#fff" fill-opacity="0" stroke="#0d0e0f" stroke-miterlimit="50" stroke-width="2" xlink:href="#91oscB"/></g><g><use fill="#fff" fill-opacity="0" stroke="#0d0e0f" stroke-miterlimit="50" stroke-width="2" xlink:href="#91oscC"/></g><g><use fill="#fff" fill-opacity="0" stroke="#0d0e0f" stroke-miterlimit="50" stroke-width="2" xlink:href="#91oscD"/></g><g><use fill="#fff" fill-opacity="0" stroke="#0d0e0f" stroke-miterlimit="50" stroke-width="2" xlink:href="#91oscE"/></g><g><use fill="#fff" fill-opacity="0" stroke="#0d0e0f" stroke-miterlimit="50" stroke-width="2" xlink:href="#91oscF"/></g><g><use fill="#fff" fill-opacity="0" stroke="#0d0e0f" stroke-miterlimit="50" stroke-width="2" xlink:href="#91oscG"/></g><g><use fill="#fff" fill-opacity="0" stroke="#0d0e0f" stroke-miterlimit="50" stroke-width="2" xlink:href="#91oscH"/></g><g><use fill="#fff" fill-opacity="0" stroke="#0d0e0f" stroke-miterlimit="50" stroke-width="2" xlink:href="#91oscI"/></g><g><use fill="#fff" fill-opacity="0" stroke="#0d0e0f" stroke-miterlimit="50" stroke-width="2" xlink:href="#91oscJ"/></g><g><use fill="#fff" fill-opacity="0" stroke="#0d0e0f" stroke-miterlimit="50" stroke-width="2" xlink:href="#91oscK"/></g><g><use fill="#fff" fill-opacity="0" stroke="#0d0e0f" stroke-linecap="round" stroke-linejoin="round" stroke-miterlimit="50" stroke-width="2" xlink:href="#91oscL"/></g><g><use fill="#fff" fill-opacity="0" stroke="#0d0e0f" stroke-miterlimit="50" stroke-width="2" xlink:href="#91oscM"/></g><g><use fill="#fff" fill-opacity="0" stroke="#0d0e0f" stroke-miterlimit="50" stroke-width="2" xlink:href="#91oscN"/></g><g><use fill="#fff" fill-opacity="0" stroke="#0d0e0f" stroke-miterlimit="50" stroke-width="2" xlink:href="#91oscO"/></g><g><use fill="#fff" fill-opacity="0" stroke="#0d0e0f" stroke-miterlimit="50" stroke-width="2" xlink:href="#91oscP"/></g><g><use fill="#fff" fill-opacity="0" stroke="#0d0e0f" stroke-miterlimit="50" stroke-width="2" xlink:href="#91oscQ"/></g><g><use fill="#fff" fill-opacity="0" stroke="#0d0e0f" stroke-miterlimit="50" stroke-width="2" xlink:href="#91oscR"/></g><g><use fill="#fff" fill-opacity="0" stroke="#0d0e0f" stroke-miterlimit="50" stroke-width="2" xlink:href="#91oscS"/></g><g><use fill="#fff" fill-opacity="0" stroke="#0d0e0f" stroke-miterlimit="50" stroke-width="2" xlink:href="#91oscT"/></g><g/><g><use fill="#fff" fill-opacity="0" stroke="#0d0e0f" stroke-miterlimit="50" stroke-width="2" xlink:href="#91oscU"/></g><g><use fill="#fff" fill-opacity="0" stroke="#0d0e0f" stroke-miterlimit="50" stroke-width="2" xlink:href="#91oscV"/></g><g><use fill="#fff" fill-opacity="0" stroke="#0d0e0f" stroke-miterlimit="50" stroke-width="2" xlink:href="#91oscW"/></g><g><use fill="#fff" fill-opacity="0" stroke="#0d0e0f" stroke-miterlimit="50" stroke-width="2" xlink:href="#91oscX"/></g><g><use fill="#fff" fill-opacity="0" stroke="#0d0e0f" stroke-miterlimit="50" stroke-width="2" xlink:href="#91oscY"/></g><g><use fill="#fff" fill-opacity="0" stroke="#0d0e0f" stroke-miterlimit="50" stroke-width="2" xlink:href="#91oscZ"/></g><g><use fill="#fff" fill-opacity="0" stroke="#0d0e0f" stroke-miterlimit="50" stroke-width="2" xlink:href="#91osda"/></g><g><use fill="#fff" fill-opacity="0" stroke="#0d0e0f" stroke-miterlimit="50" stroke-width="2" xlink:href="#91osdb"/></g><g><use fill="#fff" fill-opacity="0" stroke="#0d0e0f" stroke-miterlimit="50" stroke-width="2" xlink:href="#91osdc"/></g><g><use fill="#fff" fill-opacity="0" stroke="#0d0e0f" stroke-miterlimit="50" stroke-width="2" xlink:href="#91osdd"/></g><g><use fill="#fff" fill-opacity="0" stroke="#0d0e0f" stroke-miterlimit="50" stroke-width="2" xlink:href="#91osde"/></g><g><use fill="#fff" fill-opacity="0" stroke="#0d0e0f" stroke-miterlimit="50" stroke-width="2" xlink:href="#91osdf"/></g><g><use fill="#fff" fill-opacity="0" stroke="#0d0e0f" stroke-miterlimit="50" stroke-width="2" xlink:href="#91osdg"/></g><g><use fill="#fff" fill-opacity="0" stroke="#0d0e0f" stroke-miterlimit="50" stroke-width="2" xlink:href="#91osdh"/></g><g><use fill="#fff" fill-opacity="0" stroke="#0d0e0f" stroke-miterlimit="50" stroke-width="2" xlink:href="#91osdi"/></g><g/><g><use fill="#fff" fill-opacity="0" stroke="#0d0e0f" stroke-miterlimit="50" stroke-width="2" xlink:href="#91osdj"/></g><g><use fill="#fff" fill-opacity="0" stroke="#0d0e0f" stroke-miterlimit="50" stroke-width="2" xlink:href="#91osdk"/></g><g><use fill="#fff" fill-opacity="0" stroke="#0d0e0f" stroke-miterlimit="50" stroke-width="2" xlink:href="#91osdl"/></g><g><use fill="#fff" fill-opacity="0" stroke="#0d0e0f" stroke-miterlimit="50" stroke-width="2" xlink:href="#91osdm"/></g><g><use fill="#fff" fill-opacity="0" stroke="#0d0e0f" stroke-miterlimit="50" stroke-width="2" xlink:href="#91osdn"/></g><g><use fill="#fff" fill-opacity="0" stroke="#0d0e0f" stroke-miterlimit="50" stroke-width="2" xlink:href="#91osdo"/></g><g><use fill="#fff" fill-opacity="0" stroke="#0d0e0f" stroke-miterlimit="50" stroke-width="2" xlink:href="#91osdp"/></g><g><use fill="#fff" fill-opacity="0" stroke="#0d0e0f" stroke-miterlimit="50" stroke-width="2" xlink:href="#91osdq"/></g><g><use fill="#fff" fill-opacity="0" stroke="#0d0e0f" stroke-linecap="round" stroke-miterlimit="50" stroke-width="2" xlink:href="#91osdr"/></g><g/><g/><g><g><use fill="#fff" fill-opacity="0" stroke="#0d0e0f" stroke-miterlimit="50" stroke-width="2" xlink:href="#91osds"/></g><g><g><use fill="#fff" fill-opacity="0" stroke="#0d0e0f" stroke-miterlimit="50" stroke-width="2" xlink:href="#91osdt"/></g></g></g><g><g><use fill="#fff" fill-opacity="0" stroke="#0d0e0f" stroke-miterlimit="50" stroke-width="2" xlink:href="#91osdu"/></g><g><g><use fill="#fff" fill-opacity="0" stroke="#0d0e0f" stroke-miterlimit="50" stroke-width="2" xlink:href="#91osdv"/></g></g></g><g><use fill="#fff" fill-opacity="0" stroke="#0d0e0f" stroke-linecap="round" stroke-miterlimit="50" stroke-width="2" xlink:href="#91osdw"/></g></g></g></svg>